<?xml version="1.0" encoding="utf-8"?>
<!-- Generator: Adobe Illustrator 25.1.0, SVG Export Plug-In . SVG Version: 6.00 Build 0)  -->
<svg version="1.1" baseProfile="basic" id="レイヤー_1"
	 xmlns="http://www.w3.org/2000/svg" xmlns:xlink="http://www.w3.org/1999/xlink" x="0px" y="0px" viewBox="0 0 1095.7 429.6"
	 xml:space="preserve">
<style type="text/css">
	
		.st0{fill-rule:evenodd;clip-rule:evenodd;fill:none;stroke:#2154A4;stroke-width:3.0592;stroke-linecap:round;stroke-linejoin:round;stroke-miterlimit:10;}
	.st1{fill-rule:evenodd;clip-rule:evenodd;fill:#2154A4;}
	.st2{fill-rule:evenodd;clip-rule:evenodd;fill:#FFFFFF;}
	.st3{fill:#040000;}
	.st4{fill:#FFFFFF;}
</style>
<line class="st0" x1="595.4" y1="49.2" x2="595.4" y2="184.2"/>
<polyline class="st0" points="451.4,270 595.4,184.2 739.4,270 "/>
<line class="st0" x1="451.4" y1="270" x2="451.4" y2="405"/>
<polyline class="st0" points="163.4,270 595.4,184.2 1027.4,270 "/>
<polyline class="st0" points="68.2,380.4 163.4,319.2 258.7,380.4 "/>
<g>
	<g>
		<g>
			<path class="st1" d="M136.4,405H0v-13.3c0-6.2,5.1-11.3,11.3-11.3h113.8c6.2,0,11.3,5.1,11.3,11.3V405z"/>
			<rect y="405" class="st2" width="136.4" height="24.6"/>
		</g>
		<g>
			<path class="st3" d="M52.4,422.4v-8.8h0l-2.5,8.8h-0.9l-2.5-8.8h0v8.8h-0.9v-10.1H47l2.4,8.5h0.1l2.4-8.5h1.5v10.1H52.4z"/>
			<path class="st3" d="M58.3,415.1c0.1,0,0.1,0,0.2,0l0,1c-0.1,0-0.1,0-0.2,0c-1,0-1.5,1.4-1.5,2.7v3.6h-0.9v-5.3
				c0-0.6,0-1.5-0.1-1.8h0.9c0,0.4,0.1,0.9,0.1,1.5h0C57,415.6,57.6,415.1,58.3,415.1z"/>
			<path class="st3" d="M60.2,422.5c-0.4,0-0.7-0.3-0.7-0.7c0-0.4,0.3-0.7,0.7-0.7s0.7,0.3,0.7,0.7
				C60.8,422.2,60.5,422.5,60.2,422.5z"/>
			<path class="st3" d="M71.5,422.4l-4.5-10.7H67v10.7h-1.2v-12.8h1.6l4.4,10.7h0.1v-10.7h1.2v12.8H71.5z"/>
			<path class="st3" d="M77.1,413.4v5.8c0,1.1,0.2,2.4,1.4,2.4c1.2,0,1.9-1.4,1.9-3v-5.2h1.2v6.7c0,0.8,0,1.9,0.1,2.3h-1.2
				c0-0.5-0.1-1.2-0.1-1.8h0c-0.3,1.2-1.1,2-2.3,2c-1.9,0-2.2-1.8-2.2-3.5v-5.8H77.1z"/>
			<path class="st3" d="M86.5,422.6c-1.3,0-1.7-0.9-1.7-2.4v-5.9h-1.2v-1h1.2v-2.5h1.2v2.5h1.6v1h-1.6v5.6c0,1.1,0.3,1.6,0.9,1.6
				c0.2,0,0.5-0.1,0.7-0.1l0.1,1C87.3,422.5,86.9,422.6,86.5,422.6z"/>
			<path class="st3" d="M90.8,422.6c-1.3,0-1.7-0.9-1.7-2.4v-5.9h-1.2v-1h1.2v-2.5h1.2v2.5h1.6v1h-1.6v5.6c0,1.1,0.3,1.6,0.9,1.6
				c0.2,0,0.5-0.1,0.7-0.1l0.1,1C91.7,422.5,91.2,422.6,90.8,422.6z"/>
		</g>
		<g>
			<path class="st4" d="M23.7,394.1h-1.5v5.1h-2.1v-12.8h3.6c1.7,0,3.6,0.9,3.6,3.8C27.3,392.8,25.6,394.1,23.7,394.1z M23.5,388.2
				h-1.2v4.1h1.2c1,0,1.7-0.7,1.7-2.1C25.2,388.8,24.5,388.2,23.5,388.2z"/>
			<path class="st4" d="M28.7,399.2v-13.7h2.1v13.7H28.7z"/>
			<path class="st4" d="M36.9,397.8c-0.3,1-1,1.6-2.1,1.6c-1.1,0-2.3-0.7-2.3-2.8c0-2.6,2.1-3.2,3.8-3.2h0.5v-0.3
				c0-1.2-0.5-1.7-1.4-1.7c-0.7,0-1.3,0.4-1.7,0.9l-1-1.3c0.7-0.9,1.8-1.3,2.8-1.3c2.3,0,3.1,1.5,3.1,4.1v5.5H37L36.9,397.8
				L36.9,397.8z M36.8,394.9h-0.6c-1,0-2,0.3-2,1.6c0,1,0.5,1.4,1.1,1.4c1.1,0,1.5-1.4,1.5-2.5V394.9z"/>
			<path class="st4" d="M43.1,390v1.5h0c0.3-1,1.2-1.8,2.3-1.8c2,0,2.4,1.8,2.4,3.7v5.8h-2v-5.8c0-0.9-0.1-2-1.1-2
				c-0.9,0-1.5,1-1.5,2.4v5.3h-2.1V390H43.1z"/>
			<path class="st4" d="M52.6,390v1.5h0c0.3-1,1.2-1.8,2.3-1.8c2,0,2.4,1.8,2.4,3.7v5.8h-2v-5.8c0-0.9-0.1-2-1.1-2
				c-0.9,0-1.5,1-1.5,2.4v5.3h-2.1V390H52.6z"/>
			<path class="st4" d="M61,388.6c-0.7,0-1.2-0.5-1.2-1.3c0-0.7,0.5-1.3,1.2-1.3s1.2,0.6,1.2,1.3C62.2,388,61.6,388.6,61,388.6z
				 M60,399.2V390h2v9.2H60z"/>
			<path class="st4" d="M66.4,390v1.5h0c0.3-1,1.2-1.8,2.3-1.8c2,0,2.4,1.8,2.4,3.7v5.8h-2v-5.8c0-0.9-0.1-2-1.1-2
				c-0.9,0-1.5,1-1.5,2.4v5.3h-2.1V390H66.4z"/>
			<path class="st4" d="M76.5,403.6c-1.3,0-2.5-0.5-3.3-1.4l1.1-1.5c0.5,0.6,1.3,1,2.1,1c1.4,0,1.8-1.2,1.8-2.6V398h0
				c-0.3,0.8-1,1.5-2,1.5c-2,0-3-2-3-4.9c0-2.8,1.1-4.9,3-4.9c1.2,0,1.8,0.7,2,1.6h0.1V390h2v9C80.3,401.7,79.2,403.6,76.5,403.6z
				 M76.8,391.4c-1.1,0-1.5,1.4-1.5,3.1s0.5,3.2,1.5,3.2c1,0,1.5-1.4,1.5-3.2S77.8,391.4,76.8,391.4z"/>
			<path class="st4" d="M95,399.2l0-9.9H95l-2.6,9.9h-1.7l-2.5-9.9h-0.1l0,9.9h-2v-12.8h2.9l2.5,9.4h0.1l2.4-9.4h3.1v12.8H95z"/>
			<path class="st4" d="M102.7,403.6c-1.3,0-2.5-0.5-3.3-1.4l1.1-1.5c0.5,0.6,1.3,1,2.1,1c1.4,0,1.8-1.2,1.8-2.6V398h0
				c-0.3,0.8-1,1.5-2,1.5c-2,0-3-2-3-4.9c0-2.8,1.1-4.9,3-4.9c1.2,0,1.8,0.7,2,1.6h0.1V390h2v9C106.4,401.7,105.4,403.6,102.7,403.6
				z M102.9,391.4c-1.1,0-1.5,1.4-1.5,3.1s0.5,3.2,1.5,3.2c1,0,1.5-1.4,1.5-3.2S104,391.4,102.9,391.4z"/>
			<path class="st4" d="M112.7,389.7c0.1,0,0.2,0,0.3,0l-0.1,2.1c-0.1,0-0.3-0.1-0.4-0.1c-1.1,0-1.7,1.4-1.7,2.8v4.6h-2.1V390h2v1.8
				h0C111,390.4,111.8,389.7,112.7,389.7z"/>
			<path class="st4" d="M115.4,399.4c-0.7,0-1.2-0.6-1.2-1.3c0-0.7,0.5-1.3,1.2-1.3c0.7,0,1.3,0.6,1.3,1.3
				C116.7,398.8,116.2,399.4,115.4,399.4z"/>
		</g>
	</g>
	<g>
		<g>
			<path class="st1" d="M326.9,405H190.4v-13.3c0-6.2,5.1-11.3,11.3-11.3h113.8c6.2,0,11.3,5.1,11.3,11.3V405z"/>
			<rect x="190.4" y="405" class="st2" width="136.4" height="24.6"/>
		</g>
		<g>
			<path class="st3" d="M214,422.4v-8.8h0l-2.5,8.8h-0.9l-2.5-8.8h0v8.8h-0.9v-10.1h1.5l2.4,8.5h0.1l2.4-8.5h1.5v10.1H214z"/>
			<path class="st3" d="M220,416.5c-0.2-0.4-0.6-0.7-1.2-0.7c-0.6,0-1,0.5-1,1.2c0,0.8,0.4,1,1.1,1.3c0.8,0.3,1.6,0.8,1.6,2.1
				c0,1.4-0.8,2.2-2,2.2c-0.8,0-1.5-0.4-1.9-1l0.6-0.6c0.3,0.5,0.8,0.8,1.4,0.8c0.7,0,1.1-0.5,1.1-1.3c0-0.9-0.7-1.2-1.3-1.5
				c-0.7-0.3-1.4-0.7-1.4-1.9c0-1.2,0.9-2,2-2c0.8,0,1.4,0.3,1.7,0.8L220,416.5z"/>
			<path class="st3" d="M222.9,422.5c-0.4,0-0.7-0.3-0.7-0.7c0-0.4,0.3-0.7,0.7-0.7s0.7,0.3,0.7,0.7
				C223.6,422.2,223.3,422.5,222.9,422.5z"/>
			<path class="st3" d="M231.3,422.4h-2.8v-12.8h2.8c2.8,0,4.6,2.2,4.6,6.4C236,420.2,234.2,422.4,231.3,422.4z M231.3,410.7h-1.5
				v10.6h1.5c1.9,0,3.4-1.7,3.4-5.3C234.7,412.4,233.2,410.7,231.3,410.7z"/>
			<path class="st3" d="M239.8,413.4v5.8c0,1.1,0.2,2.4,1.4,2.4c1.2,0,1.9-1.4,1.9-3v-5.2h1.2v6.7c0,0.8,0,1.9,0.1,2.3h-1.2
				c0-0.5-0.1-1.2-0.1-1.8h0c-0.3,1.2-1.1,2-2.3,2c-1.9,0-2.2-1.8-2.2-3.5v-5.8H239.8z"/>
			<path class="st3" d="M251.1,422.4c0-0.4-0.1-1.2-0.1-1.7h0c-0.3,1.2-1,1.9-2.2,1.9c-1,0-2.2-0.8-2.2-2.6c0-2.6,2.1-3.1,3.6-3.1
				h0.7v-0.5c0-1.6-0.6-2.3-1.6-2.3c-0.7,0-1.3,0.4-1.7,1l-0.6-0.7c0.5-0.8,1.5-1.2,2.4-1.2c1.9,0,2.6,1.3,2.6,3.6v3.7
				c0,0.5,0.1,1.5,0.1,1.9H251.1z M251,417.8h-0.7c-1.2,0-2.4,0.3-2.4,2c0,1.2,0.7,1.8,1.3,1.8c1.4,0,1.8-1.8,1.8-3.2V417.8z"/>
			<path class="st3" d="M259.2,422.4v-5.8c0-1.1-0.2-2.4-1.4-2.4c-1.2,0-1.9,1.4-1.9,3v5.2h-1.2v-6.7c0-0.8,0-1.9-0.1-2.3h1.2
				c0,0.5,0.1,1.2,0.1,1.8h0c0.3-1.2,1.1-2,2.3-2c1.9,0,2.2,1.8,2.2,3.5v5.8H259.2z"/>
			<path class="st3" d="M265.8,426.7c-1.2,0-2.3-0.6-2.9-1.5l0.8-0.8c0.5,0.7,1.3,1.2,2.2,1.2c1.6,0,2-1.4,2-3.4v-1.5h0
				c-0.3,1.1-0.9,1.9-2.2,1.9c-1.8,0-2.8-2-2.8-4.8c0-2.8,1-4.7,2.8-4.7c1.1,0,1.9,0.7,2.2,1.8h0.1v-1.5h1.2v8.9
				C269,424.8,268.3,426.7,265.8,426.7z M265.9,414.1c-1.3,0-1.9,1.6-1.9,3.7c0,2.1,0.6,3.7,1.9,3.7c1.3,0,1.9-1.6,1.9-3.7
				S267.2,414.1,265.9,414.1z"/>
			<path class="st3" d="M276.7,422.4v-5.8c0-1.1-0.2-2.4-1.4-2.4c-1.2,0-1.9,1.4-1.9,3v5.2h-1.2v-6.7c0-0.8,0-1.9-0.1-2.3h1.2
				c0,0.5,0.1,1.2,0.1,1.8h0c0.3-1.2,1.1-2,2.3-2c1.9,0,2.2,1.8,2.2,3.5v5.8H276.7z"/>
			<path class="st3" d="M284.5,422.4c0-0.4-0.1-1.2-0.1-1.7h0c-0.3,1.2-1,1.9-2.2,1.9c-1,0-2.2-0.8-2.2-2.6c0-2.6,2.1-3.1,3.6-3.1
				h0.7v-0.5c0-1.6-0.6-2.3-1.6-2.3c-0.7,0-1.3,0.4-1.7,1l-0.6-0.7c0.5-0.8,1.5-1.2,2.4-1.2c1.9,0,2.6,1.3,2.6,3.6v3.7
				c0,0.5,0.1,1.5,0.1,1.9H284.5z M284.4,417.8h-0.7c-1.2,0-2.4,0.3-2.4,2c0,1.2,0.7,1.8,1.3,1.8c1.4,0,1.8-1.8,1.8-3.2V417.8z"/>
			<path class="st3" d="M291.4,422.7c-1.1,0-1.8-0.7-2.1-1.8h0v5.9H288v-13.3h1.2v1.6h0c0.3-1.1,0.9-1.9,2.2-1.9
				c1.8,0,2.8,2,2.8,4.8C294.3,420.7,293.3,422.7,291.4,422.7z M291.1,414.1c-1.3,0-1.9,1.6-1.9,3.7c0,2.1,0.7,3.7,1.9,3.7
				c1.3,0,1.9-1.6,1.9-3.7C293,415.8,292.4,414.1,291.1,414.1z"/>
			<path class="st3" d="M301.3,422.4v-5.8c0-1.1-0.2-2.4-1.4-2.4c-1.2,0-1.9,1.4-1.9,3v5.2h-1.2v-13.7h1.2v6.4h0
				c0.3-1.1,1.1-2,2.3-2c1.9,0,2.2,1.8,2.2,3.5v5.8H301.3z"/>
			<path class="st3" d="M309.2,422.4c0-0.4-0.1-1.2-0.1-1.7h0c-0.3,1.2-1,1.9-2.2,1.9c-1,0-2.2-0.8-2.2-2.6c0-2.6,2.1-3.1,3.6-3.1
				h0.7v-0.5c0-1.6-0.6-2.3-1.6-2.3c-0.7,0-1.3,0.4-1.7,1l-0.6-0.7c0.5-0.8,1.5-1.2,2.4-1.2c1.9,0,2.6,1.3,2.6,3.6v3.7
				c0,0.5,0.1,1.5,0.1,1.9H309.2z M309.1,417.8h-0.7c-1.2,0-2.4,0.3-2.4,2c0,1.2,0.7,1.8,1.3,1.8c1.4,0,1.8-1.8,1.8-3.2V417.8z"/>
		</g>
		<g>
			<path class="st4" d="M206.9,394.1h-1.5v5.1h-2.1v-12.8h3.6c1.7,0,3.6,0.9,3.6,3.8C210.4,392.8,208.7,394.1,206.9,394.1z
				 M206.6,388.2h-1.2v4.1h1.2c1,0,1.7-0.7,1.7-2.1C208.4,388.8,207.6,388.2,206.6,388.2z"/>
			<path class="st4" d="M216.5,399.2v-1.5h0c-0.3,1-1.2,1.8-2.3,1.8c-2,0-2.4-1.8-2.4-3.7V390h2v5.8c0,0.9,0.1,2,1.1,2
				c0.9,0,1.5-1,1.5-2.4V390h2v9.2H216.5z"/>
			<path class="st4" d="M225.4,389.7c0.1,0,0.2,0,0.3,0l-0.1,2.1c-0.1,0-0.3-0.1-0.4-0.1c-1.1,0-1.7,1.4-1.7,2.8v4.6h-2.1V390h2v1.8
				h0C223.7,390.4,224.5,389.7,225.4,389.7z"/>
			<path class="st4" d="M230.1,399.5c-2.3,0-3.5-2-3.5-4.9c0-2.9,1.2-4.9,3.5-4.9c1,0,1.7,0.4,2.1,0.8l-0.9,1.5
				c-0.3-0.3-0.6-0.5-1.1-0.5c-1,0-1.5,1.2-1.5,3.1s0.5,3,1.6,3c0.5,0,0.9-0.2,1.1-0.5l0.9,1.6C231.7,399.2,231,399.5,230.1,399.5z"
				/>
			<path class="st4" d="M238.4,399.2v-5.8c0-0.9-0.1-2-1.1-2c-0.9,0-1.5,1-1.5,2.4v5.3h-2.1v-13.7h2.1v5.9h0
				c0.3-0.9,1.1-1.7,2.2-1.7c2,0,2.4,1.8,2.4,3.7v5.8H238.4z"/>
			<path class="st4" d="M246.9,397.8c-0.3,1-1,1.6-2.1,1.6c-1.1,0-2.3-0.7-2.3-2.8c0-2.6,2.1-3.2,3.8-3.2h0.5v-0.3
				c0-1.2-0.5-1.7-1.4-1.7c-0.7,0-1.3,0.4-1.7,0.9l-1-1.3c0.7-0.9,1.8-1.3,2.8-1.3c2.3,0,3.1,1.5,3.1,4.1v5.5H247L246.9,397.8
				L246.9,397.8z M246.9,394.9h-0.6c-1,0-2,0.3-2,1.6c0,1,0.5,1.4,1.1,1.4c1.1,0,1.5-1.4,1.5-2.5V394.9z"/>
			<path class="st4" d="M255,392.1c-0.3-0.5-0.9-0.8-1.5-0.8c-0.6,0-1.1,0.5-1.1,1.2c0,0.7,0.4,0.9,1.4,1.3c1.1,0.4,2.2,1.1,2.2,2.8
				c0,2-1.4,3-3,3c-1.1,0-2.2-0.5-2.9-1.3l1.1-1.3c0.4,0.5,1,0.9,1.8,0.9c0.7,0,1.1-0.5,1.1-1.2c0-0.9-0.6-1.1-1.6-1.5
				c-0.9-0.3-2-0.9-2-2.6c0-1.8,1.4-2.8,2.9-2.8c1.1,0,2,0.4,2.6,1.1L255,392.1z"/>
			<path class="st4" d="M258.7,388.6c-0.7,0-1.2-0.5-1.2-1.3c0-0.7,0.5-1.3,1.2-1.3s1.2,0.6,1.2,1.3
				C259.9,388,259.3,388.6,258.7,388.6z M257.7,399.2V390h2v9.2H257.7z"/>
			<path class="st4" d="M264.1,390v1.5h0c0.3-1,1.2-1.8,2.3-1.8c2,0,2.4,1.8,2.4,3.7v5.8h-2v-5.8c0-0.9-0.1-2-1.1-2
				c-0.9,0-1.5,1-1.5,2.4v5.3h-2.1V390H264.1z"/>
			<path class="st4" d="M274.2,403.6c-1.3,0-2.5-0.5-3.3-1.4l1.1-1.5c0.5,0.6,1.3,1,2.1,1c1.4,0,1.8-1.2,1.8-2.6V398h0
				c-0.3,0.8-1,1.5-2,1.5c-2,0-3-2-3-4.9c0-2.8,1.1-4.9,3-4.9c1.2,0,1.8,0.7,2,1.6h0.1V390h2v9C278,401.7,276.9,403.6,274.2,403.6z
				 M274.5,391.4c-1.1,0-1.5,1.4-1.5,3.1s0.5,3.2,1.5,3.2c1,0,1.5-1.4,1.5-3.2S275.5,391.4,274.5,391.4z"/>
			<path class="st4" d="M292.7,399.2l0-9.9h-0.1l-2.6,9.9h-1.7l-2.5-9.9h-0.1l0,9.9h-2v-12.8h2.9l2.5,9.4h0.1l2.4-9.4h3.1v12.8
				H292.7z"/>
			<path class="st4" d="M300.4,403.6c-1.3,0-2.5-0.5-3.3-1.4l1.1-1.5c0.5,0.6,1.3,1,2.1,1c1.4,0,1.8-1.2,1.8-2.6V398h0
				c-0.3,0.8-1,1.5-2,1.5c-2,0-3-2-3-4.9c0-2.8,1.1-4.9,3-4.9c1.2,0,1.8,0.7,2,1.6h0.1V390h2v9C304.1,401.7,303.1,403.6,300.4,403.6
				z M300.6,391.4c-1.1,0-1.5,1.4-1.5,3.1s0.5,3.2,1.5,3.2c1,0,1.5-1.4,1.5-3.2S301.7,391.4,300.6,391.4z"/>
			<path class="st4" d="M310.4,389.7c0.1,0,0.2,0,0.3,0l-0.1,2.1c-0.1,0-0.3-0.1-0.4-0.1c-1.1,0-1.7,1.4-1.7,2.8v4.6h-2.1V390h2v1.8
				h0C308.7,390.4,309.5,389.7,310.4,389.7z"/>
			<path class="st4" d="M313.1,399.4c-0.7,0-1.2-0.6-1.2-1.3c0-0.7,0.5-1.3,1.2-1.3c0.7,0,1.3,0.6,1.3,1.3
				C314.4,398.8,313.9,399.4,313.1,399.4z"/>
		</g>
	</g>
	<g>
		<g>
			<path class="st1" d="M231.7,294.6H95.2v-13.3c0-6.2,5.1-11.3,11.3-11.3h113.8c6.2,0,11.3,5.1,11.3,11.3V294.6z"/>
			<rect x="95.2" y="294.6" class="st2" width="136.4" height="24.6"/>
		</g>
		<g>
			<path class="st3" d="M138.3,312v-8.8h0l-2.5,8.8h-0.9l-2.5-8.8h0v8.8h-0.9v-10.1h1.5l2.4,8.5h0.1l2.4-8.5h1.5V312H138.3z"/>
			<path class="st3" d="M144.4,306.2c-0.2-0.4-0.6-0.7-1.2-0.7c-0.6,0-1,0.5-1,1.2c0,0.8,0.4,1,1.1,1.3c0.8,0.3,1.6,0.8,1.6,2.1
				c0,1.4-0.8,2.2-2,2.2c-0.8,0-1.5-0.4-1.9-1l0.6-0.6c0.3,0.5,0.8,0.8,1.4,0.8c0.7,0,1.1-0.5,1.1-1.3c0-0.9-0.7-1.2-1.3-1.5
				c-0.7-0.3-1.4-0.7-1.4-1.9c0-1.2,0.9-2,2-2c0.8,0,1.4,0.3,1.7,0.8L144.4,306.2z"/>
			<path class="st3" d="M147.3,312.1c-0.4,0-0.7-0.3-0.7-0.7c0-0.4,0.3-0.7,0.7-0.7s0.7,0.3,0.7,0.7
				C147.9,311.8,147.6,312.1,147.3,312.1z"/>
			<path class="st3" d="M156.4,312h-1.7l-3.2-12.8h1.4l2.6,11.4h0l2.6-11.4h1.3L156.4,312z"/>
			<path class="st3" d="M164.6,312c0-0.4-0.1-1.2-0.1-1.7h0c-0.3,1.2-1,1.9-2.2,1.9c-1,0-2.2-0.8-2.2-2.6c0-2.6,2.1-3.1,3.6-3.1h0.7
				V306c0-1.6-0.6-2.3-1.6-2.3c-0.7,0-1.3,0.4-1.7,1l-0.6-0.7c0.5-0.8,1.5-1.2,2.4-1.2c1.9,0,2.6,1.3,2.6,3.6v3.7
				c0,0.5,0.1,1.5,0.1,1.9H164.6z M164.5,307.5h-0.7c-1.2,0-2.4,0.3-2.4,2c0,1.2,0.7,1.8,1.3,1.8c1.4,0,1.8-1.8,1.8-3.2V307.5z"/>
			<path class="st3" d="M171.6,304.6c-0.3-0.5-0.8-0.9-1.5-0.9c-0.8,0-1.3,0.6-1.3,1.5c0,1,0.5,1.3,1.5,1.6c1,0.4,2,1.1,2,2.6
				c0,1.8-1.1,2.8-2.6,2.8c-1,0-1.9-0.5-2.4-1.3l0.7-0.8c0.4,0.6,1,1.1,1.7,1.1c0.8,0,1.4-0.7,1.4-1.7c0-1.2-0.8-1.5-1.7-1.8
				c-0.9-0.3-1.8-0.9-1.8-2.5c0-1.5,1.1-2.6,2.5-2.6c1,0,1.8,0.4,2.2,1.1L171.6,304.6z"/>
			<path class="st3" d="M178.4,312c0-0.4-0.1-1.2-0.1-1.7h0c-0.3,1.2-1,1.9-2.2,1.9c-1,0-2.2-0.8-2.2-2.6c0-2.6,2.1-3.1,3.6-3.1h0.7
				V306c0-1.6-0.6-2.3-1.6-2.3c-0.7,0-1.3,0.4-1.7,1l-0.6-0.7c0.5-0.8,1.5-1.2,2.4-1.2c1.9,0,2.6,1.3,2.6,3.6v3.7
				c0,0.5,0.1,1.5,0.1,1.9H178.4z M178.3,307.5h-0.7c-1.2,0-2.4,0.3-2.4,2c0,1.2,0.7,1.8,1.3,1.8c1.4,0,1.8-1.8,1.8-3.2V307.5z"/>
			<path class="st3" d="M186.6,312v-5.8c0-1.1-0.2-2.4-1.4-2.4c-1.2,0-1.9,1.4-1.9,3v5.2H182v-6.7c0-0.8,0-1.9-0.1-2.3h1.2
				c0,0.5,0.1,1.2,0.1,1.8h0c0.3-1.2,1.1-2,2.3-2c1.9,0,2.2,1.8,2.2,3.5v5.8H186.6z"/>
			<path class="st3" d="M194.4,312c0-0.4-0.1-1.2-0.1-1.7h0c-0.3,1.2-1,1.9-2.2,1.9c-1,0-2.2-0.8-2.2-2.6c0-2.6,2.1-3.1,3.6-3.1h0.7
				V306c0-1.6-0.6-2.3-1.6-2.3c-0.7,0-1.3,0.4-1.7,1l-0.6-0.7c0.5-0.8,1.5-1.2,2.4-1.2c1.9,0,2.6,1.3,2.6,3.6v3.7
				c0,0.5,0.1,1.5,0.1,1.9H194.4z M194.3,307.5h-0.7c-1.2,0-2.4,0.3-2.4,2c0,1.2,0.7,1.8,1.3,1.8c1.4,0,1.8-1.8,1.8-3.2V307.5z"/>
		</g>
		<g>
			<path class="st4" d="M118,288.8l-0.6-2.7H114l-0.7,2.7h-2.2l3.2-12.8h2.8l3.1,12.8H118z M115.8,278.1L115.8,278.1l-1.5,6.4h2.8
				L115.8,278.1z"/>
			<path class="st4" d="M124.8,289.1c-2.3,0-3.5-2-3.5-4.9c0-2.9,1.2-4.9,3.5-4.9c1,0,1.7,0.4,2.1,0.8l-0.9,1.5
				c-0.3-0.3-0.6-0.5-1.1-0.5c-1,0-1.5,1.2-1.5,3.1s0.5,3,1.6,3c0.5,0,0.9-0.2,1.1-0.5l0.9,1.6C126.4,288.8,125.7,289.1,124.8,289.1
				z"/>
			<path class="st4" d="M131.3,289.1c-2.3,0-3.5-2-3.5-4.9c0-2.9,1.2-4.9,3.5-4.9c1,0,1.7,0.4,2.1,0.8l-0.9,1.5
				c-0.3-0.3-0.6-0.5-1.1-0.5c-1,0-1.5,1.2-1.5,3.1s0.5,3,1.6,3c0.5,0,0.9-0.2,1.1-0.5l0.9,1.6C132.9,288.8,132.2,289.1,131.3,289.1
				z"/>
			<path class="st4" d="M137,281.2v4.7c0,1,0.3,1.4,0.9,1.4c0.2,0,0.5-0.1,0.6-0.1l0,1.6c-0.3,0.1-0.8,0.3-1.3,0.3
				c-1.6,0-2.2-1-2.2-2.7v-5.2h-1.2v-1.6h1.2v-2.4h1.9v2.4h1.6v1.6H137z"/>
			<path class="st4" d="M141,289c-0.7,0-1.2-0.6-1.2-1.3c0-0.7,0.5-1.3,1.2-1.3c0.7,0,1.3,0.6,1.3,1.3
				C142.3,288.4,141.8,289,141,289z"/>
			<path class="st4" d="M157,288.8l0-9.9H157l-2.6,9.9h-1.7l-2.5-9.9h-0.1l0,9.9h-2V276h2.9l2.5,9.4h0.1l2.4-9.4h3.1v12.8H157z"/>
			<path class="st4" d="M164.7,293.2c-1.3,0-2.5-0.5-3.3-1.4l1.1-1.5c0.5,0.6,1.3,1,2.1,1c1.4,0,1.8-1.2,1.8-2.6v-1.1h0
				c-0.3,0.8-1,1.5-2,1.5c-2,0-3-2-3-4.9c0-2.8,1.1-4.9,3-4.9c1.2,0,1.8,0.7,2,1.6h0.1v-1.3h2v9
				C168.4,291.3,167.4,293.2,164.7,293.2z M164.9,281.1c-1.1,0-1.5,1.4-1.5,3.1s0.5,3.2,1.5,3.2c1,0,1.5-1.4,1.5-3.2
				S166,281.1,164.9,281.1z"/>
			<path class="st4" d="M174.7,279.3c0.1,0,0.2,0,0.3,0l-0.1,2.1c-0.1,0-0.3-0.1-0.4-0.1c-1.1,0-1.7,1.4-1.7,2.8v4.6h-2.1v-9.2h2
				v1.8h0C173,280,173.8,279.3,174.7,279.3z"/>
			<path class="st4" d="M177.4,289c-0.7,0-1.2-0.6-1.2-1.3c0-0.7,0.5-1.3,1.2-1.3c0.7,0,1.3,0.6,1.3,1.3
				C178.7,288.4,178.2,289,177.4,289z"/>
			<path class="st4" d="M184.6,289.5l-1.2-0.3l3.4-14.1l1.2,0.3L184.6,289.5z"/>
			<path class="st4" d="M197.6,289.1c-3.1,0-4.9-2.7-4.9-6.7c0-3.9,1.8-6.7,4.7-6.7c1.5,0,2.6,0.6,3.3,1.6l-1.3,1.5
				c-0.5-0.7-1.2-1.1-2-1.1c-1.8,0-2.6,2.2-2.6,4.7c0,2.6,0.9,4.7,2.7,4.7c0.6,0,1.1-0.1,1.4-0.4v-3.3h-1.6v-1.9h3.5v6.5
				C200.2,288.7,199.1,289.1,197.6,289.1z"/>
			<path class="st4" d="M212.3,288.8l0-9.9h-0.1l-2.6,9.9H208l-2.5-9.9h-0.1l0,9.9h-2V276h2.9l2.5,9.4h0.1l2.4-9.4h3.1v12.8H212.3z"
				/>
		</g>
	</g>
	<g>
		<g>
			<path class="st1" d="M807.7,294.6H671.2v-13.3c0-6.2,5.1-11.3,11.3-11.3h113.8c6.2,0,11.3,5.1,11.3,11.3V294.6z"/>
			<rect x="671.2" y="294.6" class="st2" width="136.4" height="24.6"/>
		</g>
		<g>
			<path class="st3" d="M714.5,312v-8.8h0L712,312H711l-2.5-8.8h0v8.8h-0.9v-10.1h1.5l2.4,8.5h0.1l2.4-8.5h1.5V312H714.5z"/>
			<path class="st3" d="M720.4,304.7c0.1,0,0.1,0,0.2,0l0,1c-0.1,0-0.1,0-0.2,0c-1,0-1.5,1.4-1.5,2.7v3.6h-0.9v-5.3
				c0-0.6,0-1.5-0.1-1.8h0.9c0,0.4,0.1,0.9,0.1,1.5h0C719.1,305.2,719.7,304.7,720.4,304.7z"/>
			<path class="st3" d="M722.3,312.1c-0.4,0-0.7-0.3-0.7-0.7c0-0.4,0.3-0.7,0.7-0.7s0.7,0.3,0.7,0.7
				C723,311.8,722.7,312.1,722.3,312.1z"/>
			<path class="st3" d="M728,312v-12.8h1.3v11.6h3.7v1.2H728z"/>
			<path class="st3" d="M735.1,307.8c0,2,0.7,3.4,2,3.4c0.9,0,1.4-0.6,1.7-1.4l0.9,0.5c-0.4,1.1-1.3,1.9-2.6,1.9
				c-2,0-3.2-1.8-3.2-4.8c0-2.8,1.2-4.8,3.2-4.8c2.1,0,2.9,2,2.9,4.4v0.7H735.1z M737,303.8c-1.4,0-1.9,1.9-1.9,3h3.6
				C738.7,305,738.2,303.8,737,303.8z"/>
			<path class="st3" d="M745.6,302.8c0.1,0,0.1,0,0.2,0l0,1.2c-0.1,0-0.2,0-0.3,0c-1.2,0-1.9,1.8-1.9,3.5v4.6h-1.2v-6.7
				c0-0.8,0-1.9-0.1-2.3h1.2c0,0.5,0.1,1.2,0.1,2h0C744,303.4,744.8,302.8,745.6,302.8z"/>
			<path class="st3" d="M749.3,312.2c-1.3,0-1.7-0.9-1.7-2.4V304h-1.2v-1h1.2v-2.5h1.2v2.5h1.6v1h-1.6v5.6c0,1.1,0.3,1.6,0.9,1.6
				c0.2,0,0.5-0.1,0.7-0.1l0.1,1C750.1,312.1,749.7,312.2,749.3,312.2z"/>
			<path class="st3" d="M758.6,312h-1.4l-1.5-7.3h0l-1.5,7.3h-1.4l-1.8-9h1.2l1.4,7.6h0l1.6-7.6h1.2l1.6,7.6h0l1.4-7.6h1.2
				L758.6,312z"/>
			<path class="st3" d="M765.8,312c0-0.4-0.1-1.2-0.1-1.7h0c-0.3,1.2-1,1.9-2.2,1.9c-1,0-2.2-0.8-2.2-2.6c0-2.6,2.1-3.1,3.6-3.1h0.7
				V306c0-1.6-0.6-2.3-1.6-2.3c-0.7,0-1.3,0.4-1.7,1l-0.6-0.7c0.5-0.8,1.5-1.2,2.4-1.2c1.9,0,2.6,1.3,2.6,3.6v3.7
				c0,0.5,0.1,1.5,0.1,1.9H765.8z M765.6,307.4h-0.7c-1.2,0-2.4,0.3-2.4,2c0,1.2,0.7,1.8,1.3,1.8c1.4,0,1.8-1.8,1.8-3.2V307.4z"/>
			<path class="st3" d="M771.1,312.2c-1.3,0-1.7-0.9-1.7-2.4V304h-1.2v-1h1.2v-2.5h1.2v2.5h1.6v1h-1.6v5.6c0,1.1,0.3,1.6,0.9,1.6
				c0.2,0,0.5-0.1,0.7-0.1l0.1,1C772,312.1,771.5,312.2,771.1,312.2z"/>
		</g>
		<g>
			<path class="st4" d="M684.2,278v3.5h3.3v1.9h-3.3v5.5h-2.2V276h5.8v2H684.2z"/>
			<path class="st4" d="M693.4,287.5c-0.3,1-1,1.6-2.1,1.6c-1.1,0-2.3-0.7-2.3-2.8c0-2.6,2.1-3.2,3.8-3.2h0.5v-0.3
				c0-1.2-0.5-1.7-1.4-1.7c-0.7,0-1.3,0.4-1.7,0.9l-1-1.3c0.7-0.9,1.8-1.3,2.8-1.3c2.3,0,3.1,1.5,3.1,4.1v5.5h-1.7L693.4,287.5
				L693.4,287.5z M693.3,284.5h-0.6c-1,0-2,0.3-2,1.6c0,1,0.5,1.4,1.1,1.4c1.1,0,1.5-1.4,1.5-2.5V284.5z"/>
			<path class="st4" d="M700.4,289.1c-2.3,0-3.5-2-3.5-4.9c0-2.9,1.2-4.9,3.5-4.9c1,0,1.7,0.4,2.1,0.8l-0.9,1.5
				c-0.3-0.3-0.6-0.5-1.1-0.5c-1,0-1.5,1.2-1.5,3.1s0.5,3,1.6,3c0.5,0,0.9-0.2,1.1-0.5l0.9,1.6C702,288.8,701.3,289.1,700.4,289.1z"
				/>
			<path class="st4" d="M705.9,281.2v4.7c0,1,0.3,1.4,0.9,1.4c0.2,0,0.5-0.1,0.6-0.1l0,1.6c-0.3,0.1-0.8,0.3-1.3,0.3
				c-1.6,0-2.2-1-2.2-2.7v-5.2h-1.2v-1.6h1.2v-2.4h1.9v2.4h1.6v1.6H705.9z"/>
			<path class="st4" d="M712,289.1c-2.2,0-3.6-2-3.6-4.9c0-3,1.3-4.9,3.6-4.9c2.2,0,3.6,2,3.6,4.9
				C715.6,287.1,714.2,289.1,712,289.1z M712,281.1c-1.1,0-1.5,1.4-1.5,3.2c0,1.8,0.5,3.1,1.5,3.1c1.1,0,1.5-1.4,1.5-3.1
				C713.5,282.4,713,281.1,712,281.1z"/>
			<path class="st4" d="M721.5,279.3c0.1,0,0.2,0,0.3,0l-0.1,2.1c-0.1,0-0.3-0.1-0.4-0.1c-1.1,0-1.7,1.4-1.7,2.8v4.6h-2.1v-9.2h2
				v1.8h0C719.9,280,720.6,279.3,721.5,279.3z"/>
			<path class="st4" d="M726.6,290.1c-0.5,1.8-1.3,3.1-3.1,3.1c-0.5,0-1-0.1-1.3-0.2l0.3-1.8c0.2,0.1,0.5,0.1,0.8,0.1
				c0.7,0,1-0.4,1.1-1.1l0.3-1.1l-2.7-9.5h2.2l1.6,7h0.1l1.5-7h2.1L726.6,290.1z"/>
			<path class="st4" d="M734.4,289.5l-1.2-0.3l3.4-14.1l1.2,0.3L734.4,289.5z"/>
			<path class="st4" d="M746.7,288.8c-2.8,0-4.6-2.5-4.6-6.5c0-4,1.8-6.6,4.6-6.6c2.8,0,4.6,2.7,4.6,6.6c0,2-0.8,4.1-1.7,4.7v0.1
				l2.3,0v1.9H746.7z M746.8,277.8c-1.5,0-2.4,2-2.4,4.5c0,2.6,0.9,4.5,2.4,4.5c1.6,0,2.4-2.1,2.4-4.5
				C749.1,279.8,748.3,277.8,746.8,277.8z"/>
			<path class="st4" d="M759.1,288.8l-0.6-2.7h-3.4l-0.7,2.7h-2.2l3.2-12.8h2.8l3.1,12.8H759.1z M756.9,278.1L756.9,278.1l-1.5,6.4
				h2.8L756.9,278.1z"/>
			<path class="st4" d="M775.5,288.8l0-9.9h-0.1l-2.6,9.9h-1.7l-2.5-9.9h-0.1l0,9.9h-2V276h2.9l2.5,9.4h0.1l2.4-9.4h3.1v12.8H775.5z
				"/>
			<path class="st4" d="M783.1,293.2c-1.3,0-2.5-0.5-3.3-1.4l1.1-1.5c0.5,0.6,1.3,1,2.1,1c1.4,0,1.8-1.2,1.8-2.6v-1.1h0
				c-0.3,0.8-1,1.5-2,1.5c-2,0-3-2-3-4.9c0-2.8,1.1-4.9,3-4.9c1.2,0,1.8,0.7,2,1.6h0.1v-1.3h2v9
				C786.9,291.3,785.8,293.2,783.1,293.2z M783.4,281.1c-1.1,0-1.5,1.4-1.5,3.1s0.5,3.2,1.5,3.2c1,0,1.5-1.4,1.5-3.2
				S784.4,281.1,783.4,281.1z"/>
			<path class="st4" d="M793.1,279.3c0.1,0,0.2,0,0.3,0l-0.1,2.1c-0.1,0-0.3-0.1-0.4-0.1c-1.1,0-1.7,1.4-1.7,2.8v4.6h-2.1v-9.2h2
				v1.8h0C791.5,280,792.2,279.3,793.1,279.3z"/>
			<path class="st4" d="M795.9,289c-0.7,0-1.2-0.6-1.2-1.3c0-0.7,0.5-1.3,1.2-1.3c0.7,0,1.3,0.6,1.3,1.3
				C797.1,288.4,796.6,289,795.9,289z"/>
		</g>
	</g>
	<g>
		<g>
			<path class="st1" d="M1095.7,294.6H959.2v-13.3c0-6.2,5.1-11.3,11.3-11.3h113.8c6.2,0,11.3,5.1,11.3,11.3V294.6z"/>
			<rect x="959.2" y="294.6" class="st2" width="136.4" height="24.6"/>
		</g>
		<g>
			<path class="st3" d="M995.2,312v-8.8h0l-2.5,8.8h-0.9l-2.5-8.8h0v8.8h-0.9v-10.1h1.5l2.4,8.5h0.1l2.4-8.5h1.5V312H995.2z"/>
			<path class="st3" d="M1001.1,304.7c0.1,0,0.1,0,0.2,0l0,1c-0.1,0-0.1,0-0.2,0c-1,0-1.5,1.4-1.5,2.7v3.6h-0.9v-5.3
				c0-0.6,0-1.5-0.1-1.8h0.9c0,0.4,0.1,0.9,0.1,1.5h0C999.8,305.2,1000.4,304.7,1001.1,304.7z"/>
			<path class="st3" d="M1003,312.1c-0.4,0-0.7-0.3-0.7-0.7c0-0.4,0.3-0.7,0.7-0.7s0.7,0.3,0.7,0.7
				C1003.7,311.8,1003.4,312.1,1003,312.1z"/>
			<path class="st3" d="M1011,312.3c-1.3,0-2.5-0.6-3.1-1.5l0.8-0.9c0.6,0.8,1.5,1.2,2.3,1.2c1.1,0,2-0.9,2-2.4
				c0-1.4-1.1-2.2-2.2-2.8c-1.4-0.7-2.6-1.6-2.6-3.6c0-2.4,1.6-3.5,3.3-3.5c1.1,0,2.1,0.4,2.7,1.2l-0.8,0.9c-0.5-0.7-1.1-1-1.9-1
				c-1,0-2.1,0.7-2.1,2.4c0,1.4,1,2.1,2,2.6c1.4,0.7,2.8,1.6,2.8,3.7C1014.3,311,1012.8,312.3,1011,312.3z"/>
			<path class="st3" d="M1019.2,312.3c-1.9,0-3.1-1.9-3.1-4.8c0-2.9,1.1-4.8,3.1-4.8c2,0,3.1,1.9,3.1,4.8
				C1022.3,310.4,1021.2,312.3,1019.2,312.3z M1019.2,303.8c-1.3,0-1.9,1.6-1.9,3.7c0,2.1,0.6,3.7,1.9,3.7c1.3,0,1.9-1.6,1.9-3.7
				C1021.1,305.4,1020.5,303.8,1019.2,303.8z"/>
			<path class="st3" d="M1028.1,302.7c1.3,0,1.9,1,2,2.1h0c0.3-1,1.1-2.1,2.4-2.1c1.9,0,2.2,1.8,2.2,3.5v5.8h-1.2v-5.8
				c0-1.1-0.2-2.4-1.4-2.4c-1.2,0-1.9,1.4-1.9,3v5.2h-1.2v-5.8c0-1.1-0.1-2.4-1.4-2.4c-1.2,0-1.9,1.4-1.9,3v5.2h-1.2v-6.7
				c0-0.8,0-1.9-0.1-2.3h1.2c0,0.5,0.1,1.2,0.1,1.8h0C1026.1,303.6,1026.9,302.7,1028.1,302.7z"/>
			<path class="st3" d="M1040.2,312.3c-2,0-3.1-2-3.1-4.8c0-2.8,1.1-4.8,3.1-4.8c0.9,0,1.6,0.4,2,0.9l-0.6,0.9
				c-0.3-0.4-0.7-0.7-1.3-0.7c-1.3,0-1.9,1.6-1.9,3.7c0,2.1,0.6,3.7,2,3.7c0.6,0,1.1-0.3,1.4-0.7l0.5,0.9
				C1041.7,312,1041.1,312.3,1040.2,312.3z"/>
			<path class="st3" d="M1048,312v-5.8c0-1.1-0.2-2.4-1.4-2.4c-1.2,0-1.9,1.4-1.9,3v5.2h-1.2v-13.7h1.2v6.4h0c0.3-1.1,1.1-2,2.3-2
				c1.9,0,2.2,1.8,2.2,3.5v5.8H1048z"/>
			<path class="st3" d="M1056,312c0-0.4-0.1-1.2-0.1-1.7h0c-0.3,1.2-1,1.9-2.2,1.9c-1,0-2.2-0.8-2.2-2.6c0-2.6,2.1-3.1,3.6-3.1h0.7
				V306c0-1.6-0.6-2.3-1.6-2.3c-0.7,0-1.3,0.4-1.7,1l-0.6-0.7c0.5-0.8,1.5-1.2,2.4-1.2c1.9,0,2.6,1.3,2.6,3.6v3.7
				c0,0.5,0.1,1.5,0.1,1.9H1056z M1055.8,307.4h-0.7c-1.2,0-2.4,0.3-2.4,2c0,1.2,0.7,1.8,1.3,1.8c1.4,0,1.8-1.8,1.8-3.2V307.4z"/>
			<path class="st3" d="M1062.7,302.8c0.1,0,0.1,0,0.2,0l0,1.2c-0.1,0-0.2,0-0.3,0c-1.2,0-1.9,1.8-1.9,3.5v4.6h-1.2v-6.7
				c0-0.8,0-1.9-0.1-2.3h1.2c0,0.5,0.1,1.2,0.1,2h0C1061.1,303.4,1061.8,302.8,1062.7,302.8z"/>
			<path class="st3" d="M1066.4,312.2c-1.3,0-1.7-0.9-1.7-2.4V304h-1.2v-1h1.2v-2.5h1.2v2.5h1.6v1h-1.6v5.6c0,1.1,0.3,1.6,0.9,1.6
				c0.2,0,0.5-0.1,0.7-0.1l0.1,1C1067.2,312.1,1066.8,312.2,1066.4,312.2z"/>
		</g>
		<g>
			<path class="st4" d="M990.2,288.8h-3.8V276h3.4c1.5,0,3.6,0.6,3.6,3.2c0,1.6-0.8,2.5-1.7,2.8v0c1,0.2,2.1,1.2,2.1,3.1
				C993.8,287.9,991.8,288.8,990.2,288.8z M989.6,277.8h-1.2v3.6h1.2c0.9,0,1.8-0.5,1.8-1.8C991.4,278.3,990.5,277.8,989.6,277.8z
				 M989.7,283h-1.3v4h1.4c1.1,0,1.9-0.6,1.9-2C991.7,283.6,990.6,283,989.7,283z"/>
			<path class="st4" d="M999,288.8h-3.2V276h3.2c3.3,0,5,2.4,5,6.4C1004.1,286.5,1002.3,288.8,999,288.8z M999,277.9h-1v9h1
				c1.7,0,2.8-1.5,2.8-4.5C1001.9,279.4,1000.7,277.9,999,277.9z"/>
			<path class="st4" d="M1018.4,288.8l0-9.9h-0.1l-2.6,9.9h-1.7l-2.5-9.9h-0.1l0,9.9h-2V276h2.9l2.5,9.4h0.1l2.4-9.4h3.1v12.8
				H1018.4z"/>
			<path class="st4" d="M1027.2,287.5c-0.3,1-1,1.6-2.1,1.6c-1.1,0-2.3-0.7-2.3-2.8c0-2.6,2.1-3.2,3.8-3.2h0.5v-0.3
				c0-1.2-0.5-1.7-1.4-1.7c-0.7,0-1.3,0.4-1.7,0.9l-1-1.3c0.7-0.9,1.8-1.3,2.8-1.3c2.3,0,3.1,1.5,3.1,4.1v5.5h-1.7L1027.2,287.5
				L1027.2,287.5z M1027.1,284.5h-0.6c-1,0-2,0.3-2,1.6c0,1,0.5,1.4,1.1,1.4c1.1,0,1.5-1.4,1.5-2.5V284.5z"/>
			<path class="st4" d="M1033.4,279.6v1.5h0c0.3-1,1.2-1.8,2.3-1.8c2,0,2.4,1.8,2.4,3.7v5.8h-2V283c0-0.9-0.1-2-1.1-2
				c-0.9,0-1.5,1-1.5,2.4v5.3h-2.1v-9.2H1033.4z"/>
			<path class="st4" d="M1044.6,287.5c-0.3,1-1,1.6-2.1,1.6c-1.1,0-2.3-0.7-2.3-2.8c0-2.6,2.1-3.2,3.8-3.2h0.5v-0.3
				c0-1.2-0.5-1.7-1.4-1.7c-0.7,0-1.3,0.4-1.7,0.9l-1-1.3c0.7-0.9,1.8-1.3,2.8-1.3c2.3,0,3.1,1.5,3.1,4.1v5.5h-1.7L1044.6,287.5
				L1044.6,287.5z M1044.5,284.5h-0.6c-1,0-2,0.3-2,1.6c0,1,0.5,1.4,1.1,1.4c1.1,0,1.5-1.4,1.5-2.5V284.5z"/>
			<path class="st4" d="M1051.5,293.2c-1.3,0-2.5-0.5-3.3-1.4l1.1-1.5c0.5,0.6,1.3,1,2.1,1c1.4,0,1.8-1.2,1.8-2.6v-1.1h0
				c-0.3,0.8-1,1.5-2,1.5c-2,0-3-2-3-4.9c0-2.8,1.1-4.9,3-4.9c1.2,0,1.8,0.7,2,1.6h0.1v-1.3h2v9
				C1055.2,291.3,1054.2,293.2,1051.5,293.2z M1051.8,281.1c-1.1,0-1.5,1.4-1.5,3.1s0.5,3.2,1.5,3.2c1,0,1.5-1.4,1.5-3.2
				S1052.8,281.1,1051.8,281.1z"/>
			<path class="st4" d="M1058.9,284.7c0,1.4,0.6,2.6,1.6,2.6c0.7,0,1.2-0.6,1.4-1.2l1.5,0.9c-0.5,1.3-1.5,2.1-3,2.1
				c-2.1,0-3.6-1.8-3.6-4.9c0-3,1.4-4.9,3.5-4.9c2.4,0,3.3,2,3.3,4.7v0.8H1058.9z M1060.4,280.9c-1.1,0-1.5,1.4-1.5,2.3h2.8
				C1061.8,281.9,1061.4,280.9,1060.4,280.9z"/>
			<path class="st4" d="M1069.5,279.3c0.1,0,0.2,0,0.3,0l-0.1,2.1c-0.1,0-0.3-0.1-0.4-0.1c-1.1,0-1.7,1.4-1.7,2.8v4.6h-2.1v-9.2h2
				v1.8h0C1067.9,280,1068.6,279.3,1069.5,279.3z"/>
		</g>
	</g>
	<g>
		<g>
			<path class="st1" d="M519.7,294.6H383.2v-13.3c0-6.2,5.1-11.3,11.3-11.3h113.8c6.2,0,11.3,5.1,11.3,11.3V294.6z"/>
			<rect x="383.2" y="294.6" class="st2" width="136.4" height="24.6"/>
		</g>
		<g>
			<path class="st3" d="M423.2,312v-8.8h0l-2.5,8.8h-0.9l-2.5-8.8h0v8.8h-0.9v-10.1h1.5l2.4,8.5h0.1l2.4-8.5h1.5V312H423.2z"/>
			<path class="st3" d="M429.1,304.7c0.1,0,0.1,0,0.2,0l0,1c-0.1,0-0.1,0-0.2,0c-1,0-1.5,1.4-1.5,2.7v3.6h-0.9v-5.3
				c0-0.6,0-1.5-0.1-1.8h0.9c0,0.4,0.1,0.9,0.1,1.5h0C427.8,305.2,428.4,304.7,429.1,304.7z"/>
			<path class="st3" d="M431,312.1c-0.4,0-0.7-0.3-0.7-0.7c0-0.4,0.3-0.7,0.7-0.7s0.7,0.3,0.7,0.7
				C431.7,311.8,431.4,312.1,431,312.1z"/>
			<path class="st3" d="M439.8,306.3h-1.9v5.7h-1.3v-12.8h3c1.5,0,3.3,0.8,3.3,3.5C443,305,441.5,306.3,439.8,306.3z M439.6,300.3
				h-1.7v4.9h1.7c1.1,0,2.1-0.8,2.1-2.5S440.8,300.3,439.6,300.3z"/>
			<path class="st3" d="M449.1,312c0-0.4-0.1-1.2-0.1-1.7h0c-0.3,1.2-1,1.9-2.2,1.9c-1,0-2.2-0.8-2.2-2.6c0-2.6,2.1-3.1,3.6-3.1h0.7
				V306c0-1.6-0.6-2.3-1.6-2.3c-0.7,0-1.3,0.4-1.7,1L445,304c0.5-0.8,1.5-1.2,2.4-1.2c1.9,0,2.6,1.3,2.6,3.6v3.7
				c0,0.5,0.1,1.5,0.1,1.9H449.1z M448.9,307.5h-0.7c-1.2,0-2.4,0.3-2.4,2c0,1.2,0.7,1.8,1.3,1.8c1.4,0,1.8-1.8,1.8-3.2V307.5z"/>
			<path class="st3" d="M456.9,312l-3.1-4.5h0v4.5h-1.2v-13.7h1.2v8.7h0l2.9-4h1.4l-3.2,4.2l3.4,4.8H456.9z"/>
			<path class="st3" d="M463.6,312c0-0.4-0.1-1.2-0.1-1.7h0c-0.3,1.2-1,1.9-2.2,1.9c-1,0-2.2-0.8-2.2-2.6c0-2.6,2.1-3.1,3.6-3.1h0.7
				V306c0-1.6-0.6-2.3-1.6-2.3c-0.7,0-1.3,0.4-1.7,1l-0.6-0.7c0.5-0.8,1.5-1.2,2.4-1.2c1.9,0,2.6,1.3,2.6,3.6v3.7
				c0,0.5,0.1,1.5,0.1,1.9H463.6z M463.5,307.5h-0.7c-1.2,0-2.4,0.3-2.4,2c0,1.2,0.7,1.8,1.3,1.8c1.4,0,1.8-1.8,1.8-3.2V307.5z"/>
			<path class="st3" d="M473.8,312h-1.4l-1.5-7.3h0l-1.5,7.3H468l-1.8-9h1.2l1.4,7.6h0l1.6-7.6h1.2l1.6,7.6h0l1.4-7.6h1.2L473.8,312
				z"/>
			<path class="st3" d="M481.1,312c0-0.4-0.1-1.2-0.1-1.7h0c-0.3,1.2-1,1.9-2.2,1.9c-1,0-2.2-0.8-2.2-2.6c0-2.6,2.1-3.1,3.6-3.1h0.7
				V306c0-1.6-0.6-2.3-1.6-2.3c-0.7,0-1.3,0.4-1.7,1L477,304c0.5-0.8,1.5-1.2,2.4-1.2c1.9,0,2.6,1.3,2.6,3.6v3.7
				c0,0.5,0.1,1.5,0.1,1.9H481.1z M480.9,307.5h-0.7c-1.2,0-2.4,0.3-2.4,2c0,1.2,0.7,1.8,1.3,1.8c1.4,0,1.8-1.8,1.8-3.2V307.5z"/>
			<path class="st3" d="M486.4,312.3c-1.3,0-1.7-0.9-1.7-2.4V304h-1.2v-1h1.2v-2.5h1.2v2.5h1.6v1h-1.6v5.6c0,1.1,0.3,1.6,0.9,1.6
				c0.2,0,0.5-0.1,0.7-0.1l0.1,1C487.2,312.1,486.8,312.3,486.4,312.3z"/>
		</g>
		<g>
			<path class="st4" d="M414.6,282.7h-1.5v5.1h-2.1V275h3.6c1.7,0,3.6,0.9,3.6,3.8C418.1,281.4,416.4,282.7,414.6,282.7z
				 M414.3,276.8h-1.2v4.1h1.2c1,0,1.7-0.7,1.7-2.1C416,277.4,415.3,276.8,414.3,276.8z"/>
			<path class="st4" d="M423.9,278.3c0.1,0,0.2,0,0.3,0l-0.1,2.1c-0.1,0-0.3-0.1-0.4-0.1c-1.1,0-1.7,1.4-1.7,2.8v4.6h-2.1v-9.2h2
				v1.8h0C422.2,279,423,278.3,423.9,278.3z"/>
			<path class="st4" d="M428.4,288.1c-2.2,0-3.6-2-3.6-4.9c0-3,1.3-4.9,3.6-4.9c2.2,0,3.6,2,3.6,4.9
				C432,286.1,430.6,288.1,428.4,288.1z M428.4,280c-1.1,0-1.5,1.4-1.5,3.2c0,1.8,0.5,3.1,1.5,3.1c1.1,0,1.5-1.4,1.5-3.1
				C429.9,281.4,429.5,280,428.4,280z"/>
			<path class="st4" d="M433.1,292.2c-0.3,0-0.7,0-0.9-0.1l0.1-1.8c0.2,0.1,0.3,0.1,0.5,0.1c0.9,0,1.1-0.8,1.1-1.7v-10h2v10.1
				C436,290.7,435.3,292.2,433.1,292.2z M434.9,277.2c-0.7,0-1.2-0.5-1.2-1.3c0-0.7,0.5-1.3,1.2-1.3s1.2,0.6,1.2,1.3
				C436.1,276.6,435.6,277.2,434.9,277.2z"/>
			<path class="st4" d="M439.9,283.7c0,1.4,0.6,2.6,1.6,2.6c0.7,0,1.2-0.6,1.4-1.2l1.5,0.9c-0.5,1.3-1.5,2.1-3,2.1
				c-2.1,0-3.6-1.8-3.6-4.9c0-3,1.4-4.9,3.5-4.9c2.4,0,3.3,2,3.3,4.7v0.8H439.9z M441.4,279.9c-1.1,0-1.5,1.4-1.5,2.3h2.8
				C442.7,280.9,442.3,279.9,441.4,279.9z"/>
			<path class="st4" d="M449.5,288.1c-2.3,0-3.5-2-3.5-4.9c0-2.9,1.2-4.9,3.5-4.9c1,0,1.7,0.4,2.1,0.8l-0.9,1.5
				c-0.3-0.3-0.6-0.5-1.1-0.5c-1,0-1.5,1.2-1.5,3.1s0.5,3,1.6,3c0.5,0,0.9-0.2,1.1-0.5l0.9,1.6C451.1,287.8,450.4,288.1,449.5,288.1
				z"/>
			<path class="st4" d="M455,280.2v4.7c0,1,0.3,1.4,0.9,1.4c0.2,0,0.5-0.1,0.6-0.1l0,1.6c-0.3,0.1-0.8,0.3-1.3,0.3
				c-1.6,0-2.2-1-2.2-2.7v-5.2h-1.2v-1.6h1.2v-2.4h1.9v2.4h1.6v1.6H455z"/>
			<path class="st4" d="M470.6,287.8l0-9.9h-0.1l-2.6,9.9h-1.7l-2.5-9.9h-0.1l0,9.9h-2V275h2.9l2.5,9.4h0.1l2.4-9.4h3.1v12.8H470.6z
				"/>
			<path class="st4" d="M478.3,292.2c-1.3,0-2.5-0.5-3.3-1.4l1.1-1.5c0.5,0.6,1.3,1,2.1,1c1.4,0,1.8-1.2,1.8-2.6v-1.1h0
				c-0.3,0.8-1,1.5-2,1.5c-2,0-3-2-3-4.9c0-2.8,1.1-4.9,3-4.9c1.2,0,1.8,0.7,2,1.6h0.1v-1.3h2v9C482,290.3,481,292.2,478.3,292.2z
				 M478.5,280c-1.1,0-1.5,1.4-1.5,3.1s0.5,3.2,1.5,3.2c1,0,1.5-1.4,1.5-3.2S479.5,280,478.5,280z"/>
			<path class="st4" d="M488.3,278.3c0.1,0,0.2,0,0.3,0l-0.1,2.1c-0.1,0-0.3-0.1-0.4-0.1c-1.1,0-1.7,1.4-1.7,2.8v4.6h-2.1v-9.2h2
				v1.8h0C486.6,279,487.3,278.3,488.3,278.3z"/>
			<path class="st4" d="M491,288c-0.7,0-1.2-0.6-1.2-1.3c0-0.7,0.5-1.3,1.2-1.3c0.7,0,1.3,0.6,1.3,1.3
				C492.3,287.4,491.7,288,491,288z"/>
		</g>
	</g>
	<g>
		<g>
			<rect x="383.2" y="405" class="st2" width="136.4" height="24.6"/>
			<path class="st1" d="M519.7,405H383.2v-13.3c0-6.2,5.1-11.3,11.3-11.3h113.8c6.2,0,11.3,5.1,11.3,11.3V405z"/>
		</g>
		<g>
			<path class="st3" d="M423.1,422.4v-8.8h0l-2.5,8.8h-0.9l-2.5-8.8h0v8.8h-0.9v-10.1h1.5l2.4,8.5h0.1l2.4-8.5h1.5v10.1H423.1z"/>
			<path class="st3" d="M429,415.1c0.1,0,0.1,0,0.2,0l0,1c-0.1,0-0.1,0-0.2,0c-1,0-1.5,1.4-1.5,2.7v3.6h-0.9v-5.3
				c0-0.6,0-1.5-0.1-1.8h0.9c0,0.4,0.1,0.9,0.1,1.5h0C427.7,415.6,428.3,415.1,429,415.1z"/>
			<path class="st3" d="M430.9,422.5c-0.4,0-0.7-0.3-0.7-0.7c0-0.4,0.3-0.7,0.7-0.7s0.7,0.3,0.7,0.7
				C431.6,422.2,431.3,422.5,430.9,422.5z"/>
			<path class="st3" d="M438.8,422.7c-1.3,0-2.5-0.6-3.1-1.5l0.8-0.9c0.6,0.8,1.5,1.2,2.3,1.2c1.1,0,2-0.9,2-2.4
				c0-1.4-1.1-2.2-2.2-2.8c-1.4-0.7-2.6-1.6-2.6-3.6c0-2.4,1.6-3.5,3.3-3.5c1.1,0,2.1,0.4,2.7,1.2l-0.8,0.9c-0.5-0.7-1.1-1-1.9-1
				c-1,0-2.1,0.7-2.1,2.4c0,1.4,1,2.1,2,2.6c1.4,0.7,2.8,1.6,2.8,3.7C442.1,421.4,440.7,422.7,438.8,422.7z"/>
			<path class="st3" d="M448.2,422.4c0-0.4-0.1-1.2-0.1-1.7h0c-0.3,1.2-1,1.9-2.2,1.9c-1,0-2.2-0.8-2.2-2.6c0-2.6,2.1-3.1,3.6-3.1
				h0.7v-0.5c0-1.6-0.6-2.3-1.6-2.3c-0.7,0-1.3,0.4-1.7,1l-0.6-0.7c0.5-0.8,1.5-1.2,2.4-1.2c1.9,0,2.6,1.3,2.6,3.6v3.7
				c0,0.5,0.1,1.5,0.1,1.9H448.2z M448.1,417.8h-0.7c-1.2,0-2.4,0.3-2.4,2c0,1.2,0.7,1.8,1.3,1.8c1.4,0,1.8-1.8,1.8-3.2V417.8z"/>
			<path class="st3" d="M456.3,422.4v-5.8c0-1.1-0.2-2.4-1.4-2.4c-1.2,0-1.9,1.4-1.9,3v5.2h-1.2v-6.7c0-0.8,0-1.9-0.1-2.3h1.2
				c0,0.5,0.1,1.2,0.1,1.8h0c0.3-1.2,1.1-2,2.3-2c1.9,0,2.2,1.8,2.2,3.5v5.8H456.3z"/>
			<path class="st3" d="M462.3,422.6c-1.3,0-1.7-0.9-1.7-2.4v-5.9h-1.2v-1h1.2v-2.5h1.2v2.5h1.6v1h-1.6v5.6c0,1.1,0.3,1.6,0.9,1.6
				c0.2,0,0.5-0.1,0.7-0.1l0.1,1C463.1,422.5,462.7,422.6,462.3,422.6z"/>
			<path class="st3" d="M469.3,422.4v-5.8c0-1.1-0.2-2.4-1.4-2.4c-1.2,0-1.9,1.4-1.9,3v5.2h-1.2v-13.7h1.2v6.4h0
				c0.3-1.1,1.1-2,2.3-2c1.9,0,2.2,1.8,2.2,3.5v5.8H469.3z"/>
			<path class="st3" d="M477.3,422.4c0-0.4-0.1-1.2-0.1-1.7h0c-0.3,1.2-1,1.9-2.2,1.9c-1,0-2.2-0.8-2.2-2.6c0-2.6,2.1-3.1,3.6-3.1
				h0.7v-0.5c0-1.6-0.6-2.3-1.6-2.3c-0.7,0-1.3,0.4-1.7,1l-0.6-0.7c0.5-0.8,1.5-1.2,2.4-1.2c1.9,0,2.6,1.3,2.6,3.6v3.7
				c0,0.5,0.1,1.5,0.1,1.9H477.3z M477.1,417.8h-0.7c-1.2,0-2.4,0.3-2.4,2c0,1.2,0.7,1.8,1.3,1.8c1.4,0,1.8-1.8,1.8-3.2V417.8z"/>
			<path class="st3" d="M485.3,422.4v-1.6h0c-0.3,1.1-0.9,1.9-2.2,1.9c-1.8,0-2.8-2-2.8-4.8c0-2.8,1-4.7,2.8-4.7
				c1.1,0,1.9,0.7,2.1,1.8h0v-6.2h1.2v13.7H485.3z M483.4,414.2c-1.3,0-1.9,1.6-1.9,3.7c0,2.1,0.6,3.7,1.9,3.7
				c1.3,0,1.9-1.6,1.9-3.7C485.3,415.8,484.6,414.2,483.4,414.2z"/>
		</g>
		<g>
			<path class="st4" d="M392.4,399.2v-12.8h5.8v1.9h-3.7v3.4h3.4v1.8h-3.4v3.8h3.8v1.9H392.4z"/>
			<path class="st4" d="M402.3,390v1.5h0c0.3-1,1.2-1.8,2.3-1.8c2,0,2.4,1.8,2.4,3.7v5.8h-2v-5.8c0-0.9-0.1-2-1.1-2
				c-0.9,0-1.5,1-1.5,2.4v5.3h-2.1V390H402.3z"/>
			<path class="st4" d="M412.5,403.6c-1.3,0-2.5-0.5-3.3-1.4l1.1-1.5c0.5,0.6,1.3,1,2.1,1c1.4,0,1.8-1.2,1.8-2.6V398h0
				c-0.3,0.8-1,1.5-2,1.5c-2,0-3-2-3-4.9c0-2.8,1.1-4.9,3-4.9c1.2,0,1.8,0.7,2,1.6h0.1V390h2v9C416.2,401.7,415.2,403.6,412.5,403.6
				z M412.7,391.4c-1.1,0-1.5,1.4-1.5,3.1s0.5,3.2,1.5,3.2c1,0,1.5-1.4,1.5-3.2S413.8,391.4,412.7,391.4z"/>
			<path class="st4" d="M419.5,388.6c-0.7,0-1.2-0.5-1.2-1.3c0-0.7,0.5-1.3,1.2-1.3s1.2,0.6,1.2,1.3
				C420.7,388,420.1,388.6,419.5,388.6z M418.5,399.2V390h2v9.2H418.5z"/>
			<path class="st4" d="M424.9,390v1.5h0c0.3-1,1.2-1.8,2.3-1.8c2,0,2.4,1.8,2.4,3.7v5.8h-2v-5.8c0-0.9-0.1-2-1.1-2
				c-0.9,0-1.5,1-1.5,2.4v5.3h-2.1V390H424.9z"/>
			<path class="st4" d="M433.7,395.1c0,1.4,0.6,2.6,1.6,2.6c0.7,0,1.2-0.6,1.4-1.2l1.5,0.9c-0.5,1.3-1.5,2.1-3,2.1
				c-2.1,0-3.6-1.8-3.6-4.9c0-3,1.4-4.9,3.5-4.9c2.4,0,3.3,2,3.3,4.7v0.8H433.7z M435.2,391.3c-1.1,0-1.5,1.4-1.5,2.3h2.8
				C436.6,392.3,436.2,391.3,435.2,391.3z"/>
			<path class="st4" d="M441.7,395.1c0,1.4,0.6,2.6,1.6,2.6c0.7,0,1.2-0.6,1.4-1.2l1.5,0.9c-0.5,1.3-1.5,2.1-3,2.1
				c-2.1,0-3.6-1.8-3.6-4.9c0-3,1.4-4.9,3.5-4.9c2.4,0,3.3,2,3.3,4.7v0.8H441.7z M443.2,391.3c-1.1,0-1.5,1.4-1.5,2.3h2.8
				C444.6,392.3,444.2,391.3,443.2,391.3z"/>
			<path class="st4" d="M452.3,389.7c0.1,0,0.2,0,0.3,0l-0.1,2.1c-0.1,0-0.3-0.1-0.4-0.1c-1.1,0-1.7,1.4-1.7,2.8v4.6h-2.1V390h2v1.8
				h0C450.7,390.4,451.4,389.7,452.3,389.7z"/>
			<path class="st4" d="M455.1,388.6c-0.7,0-1.2-0.5-1.2-1.3c0-0.7,0.5-1.3,1.2-1.3s1.2,0.6,1.2,1.3
				C456.3,388,455.8,388.6,455.1,388.6z M454.1,399.2V390h2v9.2H454.1z"/>
			<path class="st4" d="M460.5,390v1.5h0c0.3-1,1.2-1.8,2.3-1.8c2,0,2.4,1.8,2.4,3.7v5.8h-2v-5.8c0-0.9-0.1-2-1.1-2
				c-0.9,0-1.5,1-1.5,2.4v5.3h-2.1V390H460.5z"/>
			<path class="st4" d="M470.7,403.6c-1.3,0-2.5-0.5-3.3-1.4l1.1-1.5c0.5,0.6,1.3,1,2.1,1c1.4,0,1.8-1.2,1.8-2.6V398h0
				c-0.3,0.8-1,1.5-2,1.5c-2,0-3-2-3-4.9c0-2.8,1.1-4.9,3-4.9c1.2,0,1.8,0.7,2,1.6h0.1V390h2v9C474.4,401.7,473.4,403.6,470.7,403.6
				z M470.9,391.4c-1.1,0-1.5,1.4-1.5,3.1s0.5,3.2,1.5,3.2c1,0,1.5-1.4,1.5-3.2S471.9,391.4,470.9,391.4z"/>
			<path class="st4" d="M489.1,399.2l0-9.9h-0.1l-2.6,9.9h-1.7l-2.5-9.9h-0.1l0,9.9h-2v-12.8h2.9l2.5,9.4h0.1l2.4-9.4h3.1v12.8
				H489.1z"/>
			<path class="st4" d="M496.8,403.6c-1.3,0-2.5-0.5-3.3-1.4l1.1-1.5c0.5,0.6,1.3,1,2.1,1c1.4,0,1.8-1.2,1.8-2.6V398h0
				c-0.3,0.8-1,1.5-2,1.5c-2,0-3-2-3-4.9c0-2.8,1.1-4.9,3-4.9c1.2,0,1.8,0.7,2,1.6h0.1V390h2v9C500.5,401.7,499.5,403.6,496.8,403.6
				z M497.1,391.4c-1.1,0-1.5,1.4-1.5,3.1s0.5,3.2,1.5,3.2c1,0,1.5-1.4,1.5-3.2S498.1,391.4,497.1,391.4z"/>
			<path class="st4" d="M506.8,389.7c0.1,0,0.2,0,0.3,0l-0.1,2.1c-0.1,0-0.3-0.1-0.4-0.1c-1.1,0-1.7,1.4-1.7,2.8v4.6h-2.1V390h2v1.8
				h0C505.2,390.4,505.9,389.7,506.8,389.7z"/>
			<path class="st4" d="M509.6,399.4c-0.7,0-1.2-0.6-1.2-1.3c0-0.7,0.5-1.3,1.2-1.3c0.7,0,1.3,0.6,1.3,1.3
				C510.8,398.8,510.3,399.4,509.6,399.4z"/>
		</g>
	</g>
	<g>
		<g>
			<path class="st1" d="M673.7,24.6H517.2V11.3c0-6.2,5.1-11.3,11.3-11.3h133.8c6.2,0,11.3,5.1,11.3,11.3V24.6z"/>
			<rect x="517.2" y="24.6" class="st2" width="156.4" height="24.6"/>
		</g>
		<g>
			<path class="st3" d="M541.3,41.7v-8.8h0l-2.5,8.8h-0.9l-2.5-8.8h0v8.8h-0.9V31.6h1.5l2.4,8.5h0.1l2.4-8.5h1.5v10.1H541.3z"/>
			<path class="st3" d="M547.2,34.4c0.1,0,0.1,0,0.2,0l0,1c-0.1,0-0.1,0-0.2,0c-1,0-1.5,1.4-1.5,2.7v3.6h-0.9v-5.3
				c0-0.6,0-1.5-0.1-1.8h0.9c0,0.4,0.1,0.9,0.1,1.5h0C545.9,35,546.5,34.4,547.2,34.4z"/>
			<path class="st3" d="M549.1,41.8c-0.4,0-0.7-0.3-0.7-0.7c0-0.4,0.3-0.7,0.7-0.7s0.7,0.3,0.7,0.7
				C549.7,41.5,549.4,41.8,549.1,41.8z"/>
			<path class="st3" d="M557.9,36H556v5.7h-1.3V28.9h3c1.5,0,3.3,0.8,3.3,3.5C561,34.8,559.5,36,557.9,36z M557.7,30H556v4.9h1.7
				c1.1,0,2.1-0.8,2.1-2.5C559.8,30.7,558.8,30,557.7,30z"/>
			<path class="st3" d="M566.8,41.7c0-0.4-0.1-1.2-0.1-1.7h0c-0.3,1.2-1,1.9-2.2,1.9c-1,0-2.2-0.8-2.2-2.6c0-2.6,2.1-3.1,3.6-3.1
				h0.7v-0.5c0-1.6-0.6-2.3-1.6-2.3c-0.7,0-1.3,0.4-1.7,1l-0.6-0.7c0.5-0.8,1.5-1.2,2.4-1.2c1.9,0,2.6,1.3,2.6,3.6v3.7
				c0,0.5,0.1,1.5,0.1,1.9H566.8z M566.6,37.2h-0.7c-1.2,0-2.4,0.3-2.4,2c0,1.2,0.7,1.8,1.3,1.8c1.4,0,1.8-1.8,1.8-3.2V37.2z"/>
			<path class="st3" d="M573.6,32.5c0.1,0,0.1,0,0.2,0l0,1.2c-0.1,0-0.2,0-0.3,0c-1.2,0-1.9,1.8-1.9,3.5v4.6h-1.2V35
				c0-0.8,0-1.9-0.1-2.3h1.2c0,0.5,0.1,1.2,0.1,2h0C571.9,33.1,572.7,32.5,573.6,32.5z"/>
			<path class="st3" d="M579.1,41.7c0-0.4-0.1-1.2-0.1-1.7h0c-0.3,1.2-1,1.9-2.2,1.9c-1,0-2.2-0.8-2.2-2.6c0-2.6,2.1-3.1,3.6-3.1
				h0.7v-0.5c0-1.6-0.6-2.3-1.6-2.3c-0.7,0-1.3,0.4-1.7,1l-0.6-0.7c0.5-0.8,1.5-1.2,2.4-1.2c1.9,0,2.6,1.3,2.6,3.6v3.7
				c0,0.5,0.1,1.5,0.1,1.9H579.1z M578.9,37.2h-0.7c-1.2,0-2.4,0.3-2.4,2c0,1.2,0.7,1.8,1.3,1.8c1.4,0,1.8-1.8,1.8-3.2V37.2z"/>
			<path class="st3" d="M587.1,41.7v-1.6h0c-0.3,1.1-0.9,1.9-2.2,1.9c-1.8,0-2.8-2-2.8-4.8c0-2.8,1-4.7,2.8-4.7
				c1.1,0,1.9,0.7,2.1,1.8h0V28h1.2v13.7H587.1z M585.2,33.5c-1.3,0-1.9,1.6-1.9,3.7c0,2.1,0.6,3.7,1.9,3.7c1.3,0,1.9-1.6,1.9-3.7
				C587.1,35.1,586.5,33.5,585.2,33.5z"/>
			<path class="st3" d="M594.9,41.7c0-0.4-0.1-1.2-0.1-1.7h0c-0.3,1.2-1,1.9-2.2,1.9c-1,0-2.2-0.8-2.2-2.6c0-2.6,2.1-3.1,3.6-3.1
				h0.7v-0.5c0-1.6-0.6-2.3-1.6-2.3c-0.7,0-1.3,0.4-1.7,1l-0.6-0.7c0.5-0.8,1.5-1.2,2.4-1.2c1.9,0,2.6,1.3,2.6,3.6v3.7
				c0,0.5,0.1,1.5,0.1,1.9H594.9z M594.7,37.2H594c-1.2,0-2.4,0.3-2.4,2c0,1.2,0.7,1.8,1.3,1.8c1.4,0,1.8-1.8,1.8-3.2V37.2z"/>
			<path class="st3" d="M605.1,41.7h-3.3V28.9h2.9c1.4,0,3.3,0.7,3.3,3.1c0,1.7-0.9,2.6-1.8,2.9v0c0.9,0.2,2.2,1.1,2.2,3.3
				C608.5,40.9,606.6,41.7,605.1,41.7z M604.6,30H603v4.5h1.6c1.1,0,2.2-0.7,2.2-2.3C606.9,30.5,605.7,30,604.6,30z M604.8,35.5H603
				v5.1h1.8c1.3,0,2.4-0.8,2.4-2.5C607.2,36.2,605.9,35.5,604.8,35.5z"/>
			<path class="st3" d="M614.2,42c-2.8,0-3.6-2.1-3.6-4.8v-8.3h1.3v8.2c0,1.9,0.4,3.8,2.4,3.8c2,0,2.4-1.9,2.4-3.8v-8.2h1.3v8.3
				C617.8,39.9,616.9,42,614.2,42z"/>
			<path class="st3" d="M626.4,41.7l-4.5-10.7h-0.1v10.7h-1.2V28.9h1.6l4.4,10.7h0.1V28.9h1.2v12.8H626.4z"/>
			<path class="st3" d="M636.5,41.7l-4.5-10.7H632v10.7h-1.2V28.9h1.6l4.4,10.7h0.1V28.9h1.2v12.8H636.5z"/>
			<path class="st3" d="M646.5,41.7l-0.8-3.2h-4l-0.8,3.2h-1.3l3.3-12.8h1.7l3.2,12.8H646.5z M643.8,30L643.8,30l-1.8,7.5h3.6
				L643.8,30z"/>
			<path class="st3" d="M653.4,42c-2.9,0-4.6-2.6-4.6-6.7c0-3.8,1.6-6.7,4.4-6.7c1.3,0,2.3,0.5,3,1.6l-0.8,0.8
				c-0.5-0.9-1.3-1.3-2.2-1.3c-2.1,0-3.1,2.5-3.1,5.6c0,3.2,1.1,5.5,3.2,5.5c0.8,0,1.4-0.2,1.8-0.6v-4.3h-1.8v-1.1h3.1v6.1
				C655.8,41.5,654.8,42,653.4,42z"/>
		</g>
		<g>
			<path class="st4" d="M541.7,17.8l0-9.9h-0.1l-2.6,9.9h-1.7L534.9,8h-0.1l0,9.9h-2V5h2.9l2.5,9.4h0.1l2.4-9.4h3.1v12.8H541.7z"/>
			<path class="st4" d="M550.2,16.4c-0.3,1-1,1.6-2.1,1.6c-1.1,0-2.3-0.7-2.3-2.8c0-2.6,2.1-3.2,3.8-3.2h0.5v-0.3
				c0-1.2-0.5-1.7-1.4-1.7c-0.7,0-1.3,0.4-1.7,0.9l-1-1.3c0.7-0.9,1.8-1.3,2.8-1.3c2.3,0,3.1,1.5,3.1,4.1v5.5h-1.7L550.2,16.4
				L550.2,16.4z M550.1,13.5h-0.6c-1,0-2,0.3-2,1.6c0,1,0.5,1.4,1.1,1.4c1.1,0,1.5-1.4,1.5-2.5V13.5z"/>
			<path class="st4" d="M556.3,8.6V10h0c0.3-1,1.2-1.8,2.3-1.8c2,0,2.4,1.8,2.4,3.7v5.8H559V12c0-0.9-0.1-2-1.1-2
				c-0.9,0-1.5,1-1.5,2.4v5.3h-2.1V8.6H556.3z"/>
			<path class="st4" d="M567.2,16.4c-0.3,1-1,1.6-2.1,1.6c-1.1,0-2.3-0.7-2.3-2.8c0-2.6,2.1-3.2,3.8-3.2h0.5v-0.3
				c0-1.2-0.5-1.7-1.4-1.7c-0.7,0-1.3,0.4-1.7,0.9l-1-1.3c0.7-0.9,1.8-1.3,2.8-1.3c2.3,0,3.1,1.5,3.1,4.1v5.5h-1.7L567.2,16.4
				L567.2,16.4z M567.2,13.5h-0.6c-1,0-2,0.3-2,1.6c0,1,0.5,1.4,1.1,1.4c1.1,0,1.5-1.4,1.5-2.5V13.5z"/>
			<path class="st4" d="M574.1,22.2c-1.3,0-2.5-0.5-3.3-1.4l1.1-1.5c0.5,0.6,1.3,1,2.1,1c1.4,0,1.8-1.2,1.8-2.6v-1.1h0
				c-0.3,0.8-1,1.5-2,1.5c-2,0-3-2-3-4.9c0-2.8,1.1-4.9,3-4.9c1.2,0,1.8,0.7,2,1.6h0.1V8.6h2v9C577.8,20.3,576.8,22.2,574.1,22.2z
				 M574.3,10c-1.1,0-1.5,1.4-1.5,3.1s0.5,3.2,1.5,3.2c1,0,1.5-1.4,1.5-3.2S575.4,10,574.3,10z"/>
			<path class="st4" d="M581.3,7.2c-0.7,0-1.2-0.5-1.2-1.3c0-0.7,0.5-1.3,1.2-1.3s1.2,0.6,1.2,1.3C582.5,6.6,581.9,7.2,581.3,7.2z
				 M580.3,17.8V8.6h2v9.2H580.3z"/>
			<path class="st4" d="M586.8,8.6V10h0c0.3-1,1.2-1.8,2.3-1.8c2,0,2.4,1.8,2.4,3.7v5.8h-2V12c0-0.9-0.1-2-1.1-2
				c-0.9,0-1.5,1-1.5,2.4v5.3h-2V8.6H586.8z"/>
			<path class="st4" d="M596.7,22.2c-1.3,0-2.5-0.5-3.3-1.4l1.1-1.5c0.5,0.6,1.3,1,2.1,1c1.4,0,1.8-1.2,1.8-2.6v-1.1h0
				c-0.3,0.8-1,1.5-2,1.5c-2,0-3-2-3-4.9c0-2.8,1.1-4.9,3-4.9c1.2,0,1.8,0.7,2,1.6h0.1V8.6h2v9C600.4,20.3,599.4,22.2,596.7,22.2z
				 M596.9,10c-1.1,0-1.5,1.4-1.5,3.1s0.5,3.2,1.5,3.2c1,0,1.5-1.4,1.5-3.2S598,10,596.9,10z"/>
			<path class="st4" d="M609.7,17.8h-3.2V5h3.2c3.3,0,5,2.4,5,6.4C614.7,15.5,613,17.8,609.7,17.8z M609.7,6.9h-1v9h1
				c1.7,0,2.8-1.5,2.8-4.5C612.6,8.4,611.4,6.9,609.7,6.9z"/>
			<path class="st4" d="M617.7,7.2c-0.7,0-1.2-0.5-1.2-1.3c0-0.7,0.5-1.3,1.2-1.3s1.2,0.6,1.2,1.3C618.9,6.6,618.4,7.2,617.7,7.2z
				 M616.7,17.8V8.6h2v9.2H616.7z"/>
			<path class="st4" d="M625.3,8.3c0.1,0,0.2,0,0.3,0l-0.1,2.1c-0.1,0-0.3-0.1-0.4-0.1c-1.1,0-1.7,1.4-1.7,2.8v4.6h-2.1V8.6h2v1.8h0
				C623.6,9,624.4,8.3,625.3,8.3z"/>
			<path class="st4" d="M628.3,13.7c0,1.4,0.6,2.6,1.6,2.6c0.7,0,1.2-0.6,1.4-1.2l1.5,0.9c-0.5,1.3-1.5,2.1-3,2.1
				c-2.1,0-3.6-1.8-3.6-4.9c0-3,1.4-4.9,3.5-4.9c2.4,0,3.3,2,3.3,4.7v0.8H628.3z M629.8,9.9c-1.1,0-1.5,1.4-1.5,2.3h2.8
				C631.1,10.9,630.7,9.9,629.8,9.9z"/>
			<path class="st4" d="M637.9,18.1c-2.3,0-3.5-2-3.5-4.9c0-2.9,1.2-4.9,3.5-4.9c1,0,1.7,0.4,2.1,0.8l-0.9,1.5
				c-0.3-0.3-0.6-0.5-1.1-0.5c-1,0-1.5,1.2-1.5,3.1s0.5,3,1.6,3c0.5,0,0.9-0.2,1.1-0.5l0.9,1.6C639.5,17.8,638.8,18.1,637.9,18.1z"
				/>
			<path class="st4" d="M643.4,10.2v4.7c0,1,0.3,1.4,0.9,1.4c0.2,0,0.5-0.1,0.6-0.1l0,1.6c-0.3,0.1-0.8,0.3-1.3,0.3
				c-1.6,0-2.2-1-2.2-2.7v-5.2h-1.2V8.6h1.2V6.2h1.9v2.4h1.6v1.6H643.4z"/>
			<path class="st4" d="M649.5,18.1c-2.2,0-3.6-2-3.6-4.9c0-3,1.3-4.9,3.6-4.9c2.2,0,3.6,2,3.6,4.9C653,16.1,651.7,18.1,649.5,18.1z
				 M649.5,10c-1.1,0-1.5,1.4-1.5,3.2c0,1.8,0.5,3.1,1.5,3.1c1.1,0,1.5-1.4,1.5-3.1C651,11.4,650.5,10,649.5,10z"/>
			<path class="st4" d="M659,8.3c0.1,0,0.2,0,0.3,0l-0.1,2.1c-0.1,0-0.3-0.1-0.4-0.1c-1.1,0-1.7,1.4-1.7,2.8v4.6H655V8.6h2v1.8h0
				C657.3,9,658.1,8.3,659,8.3z"/>
		</g>
	</g>
	<g>
		<g>
			<path class="st1" d="M673.7,159.6H517.2v-13.3c0-6.2,5.1-11.3,11.3-11.3h133.8c6.2,0,11.3,5.1,11.3,11.3V159.6z"/>
			<rect x="517.2" y="159.6" class="st2" width="156.4" height="24.6"/>
		</g>
		<g>
			<path class="st3" d="M531.4,176.7v-8.8h0l-2.5,8.8h-0.9l-2.5-8.8h0v8.8h-0.9v-10.1h1.5l2.4,8.5h0.1l2.4-8.5h1.5v10.1H531.4z"/>
			<path class="st3" d="M537.4,170.9c-0.2-0.4-0.6-0.7-1.2-0.7c-0.6,0-1,0.5-1,1.2c0,0.8,0.4,1,1.1,1.3c0.8,0.3,1.6,0.8,1.6,2.1
				c0,1.4-0.8,2.2-2,2.2c-0.8,0-1.5-0.4-1.9-1l0.6-0.6c0.3,0.5,0.8,0.8,1.4,0.8c0.7,0,1.1-0.5,1.1-1.3c0-0.9-0.7-1.2-1.3-1.5
				c-0.7-0.3-1.4-0.7-1.4-1.9c0-1.2,0.9-2,2-2c0.8,0,1.4,0.3,1.7,0.8L537.4,170.9z"/>
			<path class="st3" d="M540.3,176.8c-0.4,0-0.7-0.3-0.7-0.7c0-0.4,0.3-0.7,0.7-0.7s0.7,0.3,0.7,0.7
				C541,176.5,540.7,176.8,540.3,176.8z"/>
			<path class="st3" d="M549.1,171h-1.9v5.7H546v-12.8h3c1.5,0,3.3,0.8,3.3,3.5C552.2,169.8,550.8,171,549.1,171z M548.9,165h-1.7
				v4.9h1.7c1.1,0,2.1-0.8,2.1-2.5C551,165.7,550.1,165,548.9,165z"/>
			<path class="st3" d="M558,176.7c0-0.4-0.1-1.2-0.1-1.7h0c-0.3,1.2-1,1.9-2.2,1.9c-1,0-2.2-0.8-2.2-2.6c0-2.6,2.1-3.1,3.6-3.1h0.7
				v-0.5c0-1.6-0.6-2.3-1.6-2.3c-0.7,0-1.3,0.4-1.7,1l-0.6-0.7c0.5-0.8,1.5-1.2,2.4-1.2c1.9,0,2.6,1.3,2.6,3.6v3.7
				c0,0.5,0.1,1.5,0.1,1.9H558z M557.9,172.2h-0.7c-1.2,0-2.4,0.3-2.4,2c0,1.2,0.7,1.8,1.3,1.8c1.4,0,1.8-1.8,1.8-3.2V172.2z"/>
			<path class="st3" d="M563.4,177c-1.3,0-1.7-0.9-1.7-2.4v-5.9h-1.2v-1h1.2v-2.5h1.2v2.5h1.6v1h-1.6v5.6c0,1.1,0.3,1.6,0.9,1.6
				c0.2,0,0.5-0.1,0.7-0.1l0.1,1C564.2,176.9,563.8,177,563.4,177z"/>
			<path class="st3" d="M568.7,177c-2.1,0-3.1-2-3.1-4.8c0-2.8,1.1-4.8,3.1-4.8c0.9,0,1.6,0.4,2,0.9l-0.6,0.9
				c-0.3-0.4-0.7-0.7-1.3-0.7c-1.3,0-1.9,1.6-1.9,3.7c0,2.1,0.6,3.7,2,3.7c0.6,0,1.1-0.3,1.4-0.7l0.5,0.9
				C570.2,176.7,569.5,177,568.7,177z"/>
			<path class="st3" d="M576.7,176.7v-5.8c0-1.1-0.2-2.4-1.4-2.4c-1.2,0-1.9,1.4-1.9,3v5.2h-1.2V163h1.2v6.4h0c0.3-1.1,1.1-2,2.3-2
				c1.9,0,2.2,1.8,2.2,3.5v5.8H576.7z"/>
			<path class="st3" d="M584.4,176.7c0-0.4-0.1-1.2-0.1-1.7h0c-0.3,1.2-1,1.9-2.2,1.9c-1,0-2.2-0.8-2.2-2.6c0-2.6,2.1-3.1,3.6-3.1
				h0.7v-0.5c0-1.6-0.6-2.3-1.6-2.3c-0.7,0-1.3,0.4-1.7,1l-0.6-0.7c0.5-0.8,1.5-1.2,2.4-1.2c1.9,0,2.6,1.3,2.6,3.6v3.7
				c0,0.5,0.1,1.5,0.1,1.9H584.4z M584.3,172.2h-0.7c-1.2,0-2.4,0.3-2.4,2c0,1.2,0.7,1.8,1.3,1.8c1.4,0,1.8-1.8,1.8-3.2V172.2z"/>
			<path class="st3" d="M591.2,167.5c0.1,0,0.1,0,0.2,0l0,1.2c-0.1,0-0.2,0-0.3,0c-1.2,0-1.9,1.8-1.9,3.5v4.6h-1.2V170
				c0-0.8,0-1.9-0.1-2.3h1.2c0,0.5,0.1,1.2,0.1,2h0C589.6,168.1,590.4,167.5,591.2,167.5z"/>
			<path class="st3" d="M593.6,172.5c0,2,0.7,3.4,2,3.4c0.9,0,1.4-0.6,1.7-1.4l0.9,0.5c-0.4,1.1-1.3,1.9-2.6,1.9
				c-2,0-3.2-1.8-3.2-4.8c0-2.8,1.2-4.8,3.2-4.8c2.1,0,2.9,2,2.9,4.4v0.7H593.6z M595.5,168.5c-1.4,0-1.9,1.9-1.9,3h3.6
				C597.3,169.7,596.7,168.5,595.5,168.5z"/>
			<path class="st3" d="M601.3,172.5c0,2,0.7,3.4,2,3.4c0.9,0,1.4-0.6,1.7-1.4l0.9,0.5c-0.4,1.1-1.3,1.9-2.6,1.9
				c-2,0-3.2-1.8-3.2-4.8c0-2.8,1.2-4.8,3.2-4.8c2.1,0,2.9,2,2.9,4.4v0.7H601.3z M603.2,168.5c-1.4,0-1.9,1.9-1.9,3h3.6
				C604.9,169.7,604.4,168.5,603.2,168.5z"/>
			<path class="st3" d="M615,176.7h-3.3v-12.8h2.9c1.4,0,3.3,0.7,3.3,3.1c0,1.7-0.9,2.6-1.8,2.9v0c0.9,0.2,2.2,1.1,2.2,3.3
				C618.4,175.9,616.5,176.7,615,176.7z M614.5,165H613v4.5h1.6c1.1,0,2.2-0.7,2.2-2.3C616.8,165.5,615.7,165,614.5,165z
				 M614.7,170.5H613v5.1h1.8c1.3,0,2.4-0.8,2.4-2.5C617.1,171.2,615.8,170.5,614.7,170.5z"/>
			<path class="st3" d="M624.1,177c-2.8,0-3.6-2.1-3.6-4.8v-8.3h1.3v8.2c0,1.9,0.4,3.8,2.4,3.8c2,0,2.4-1.9,2.4-3.8v-8.2h1.3v8.3
				C627.8,174.9,626.8,177,624.1,177z"/>
			<path class="st3" d="M636.3,176.7l-4.5-10.7h-0.1v10.7h-1.2v-12.8h1.6l4.4,10.7h0.1v-10.7h1.2v12.8H636.3z"/>
			<path class="st3" d="M646.5,176.7l-4.5-10.7h-0.1v10.7h-1.2v-12.8h1.6l4.4,10.7h0.1v-10.7h1.2v12.8H646.5z"/>
			<path class="st3" d="M656.4,176.7l-0.8-3.2h-4l-0.8,3.2h-1.3l3.3-12.8h1.7l3.2,12.8H656.4z M653.7,165L653.7,165l-1.9,7.5h3.6
				L653.7,165z"/>
			<path class="st3" d="M663.3,177c-2.9,0-4.6-2.6-4.6-6.7c0-3.8,1.6-6.7,4.4-6.7c1.3,0,2.3,0.5,3,1.6l-0.8,0.8
				c-0.5-0.9-1.3-1.3-2.2-1.3c-2.1,0-3.1,2.5-3.1,5.6c0,3.2,1.1,5.5,3.2,5.5c0.8,0,1.4-0.2,1.8-0.6v-4.3h-1.8v-1.1h3.1v6.1
				C665.7,176.5,664.7,177,663.3,177z"/>
		</g>
		<g>
			<path class="st4" d="M561.5,152.8h-3.2V140h3.2c3.3,0,5,2.4,5,6.4C566.5,150.5,564.8,152.8,561.5,152.8z M561.5,141.9h-1v9h1
				c1.7,0,2.8-1.5,2.8-4.5C564.4,143.4,563.2,141.9,561.5,141.9z"/>
			<path class="st4" d="M570,148.7c0,1.4,0.6,2.6,1.6,2.6c0.7,0,1.2-0.6,1.4-1.2l1.5,0.9c-0.5,1.3-1.5,2.1-3,2.1
				c-2.1,0-3.6-1.8-3.6-4.9c0-3,1.4-4.9,3.5-4.9c2.4,0,3.3,2,3.3,4.7v0.8H570z M571.5,144.9c-1.1,0-1.5,1.4-1.5,2.3h2.8
				C572.8,145.9,572.4,144.9,571.5,144.9z"/>
			<path class="st4" d="M580.7,153.1c-1.1,0-1.8-0.7-2-1.5h0v5.6h-2v-13.6h2v1.3h0c0.3-0.9,0.9-1.6,2.1-1.6c1.9,0,3,2.1,3,4.9
				C583.7,151,582.7,153.1,580.7,153.1z M580.2,145c-1,0-1.5,1.4-1.5,3.1s0.5,3.2,1.5,3.2c1.1,0,1.5-1.4,1.5-3.2
				S581.2,145,580.2,145z"/>
			<path class="st4" d="M590.3,152.8v-1.5h0c-0.3,1-1.2,1.8-2.3,1.8c-2,0-2.4-1.8-2.4-3.7v-5.8h2v5.8c0,0.9,0.1,2,1.1,2
				c0.9,0,1.5-1,1.5-2.4v-5.3h2v9.2H590.3z"/>
			<path class="st4" d="M596.9,145.2v4.7c0,1,0.3,1.4,0.9,1.4c0.2,0,0.5-0.1,0.6-0.1l0,1.6c-0.3,0.1-0.8,0.3-1.3,0.3
				c-1.6,0-2.2-1-2.2-2.7v-5.2h-1.2v-1.6h1.2v-2.4h1.9v2.4h1.6v1.6H596.9z"/>
			<path class="st4" d="M603.5,154.1c-0.5,1.8-1.3,3.1-3.1,3.1c-0.5,0-1-0.1-1.3-0.2l0.3-1.8c0.2,0.1,0.5,0.1,0.8,0.1
				c0.7,0,1-0.4,1.1-1.1l0.3-1.1l-2.7-9.5h2.2l1.6,7h0.1l1.5-7h2.1L603.5,154.1z"/>
			<path class="st4" d="M620.2,152.8l0-9.9h-0.1l-2.6,9.9h-1.7l-2.5-9.9h-0.1l0,9.9h-2V140h2.9l2.5,9.4h0.1l2.4-9.4h3.1v12.8H620.2z
				"/>
			<path class="st4" d="M628.1,152.8h-3.2V140h3.2c3.3,0,5,2.4,5,6.4C633.1,150.5,631.4,152.8,628.1,152.8z M628.1,141.9h-1v9h1
				c1.7,0,2.8-1.5,2.8-4.5C631,143.4,629.8,141.9,628.1,141.9z"/>
		</g>
	</g>
</g>
</svg>
