<?xml version="1.0" encoding="utf-8"?>
<!-- Generator: Adobe Illustrator 25.1.0, SVG Export Plug-In . SVG Version: 6.00 Build 0)  -->
<svg version="1.1" id="レイヤー_1" xmlns="http://www.w3.org/2000/svg" xmlns:xlink="http://www.w3.org/1999/xlink" x="0px"
	 y="0px" viewBox="0 0 1730.9 1785.1" style="enable-background:new 0 0 1730.9 1785.1;" xml:space="preserve">
<style type="text/css">
	.st0{clip-path:url(#SVGID_2_);}
	.st1{clip-path:url(#SVGID_4_);}
	.st2{opacity:0.51;fill:url(#SVGID_5_);enable-background:new    ;}
	.st3{opacity:0.51;fill:url(#SVGID_6_);enable-background:new    ;}
	.st4{opacity:0.51;fill:url(#SVGID_7_);enable-background:new    ;}
	.st5{opacity:0.51;fill:url(#SVGID_8_);enable-background:new    ;}
	.st6{opacity:0.51;fill:url(#SVGID_9_);enable-background:new    ;}
	.st7{opacity:0.51;fill:url(#SVGID_10_);enable-background:new    ;}
	.st8{opacity:0.51;fill:url(#SVGID_11_);enable-background:new    ;}
</style>
<g id="レイヤー_1_1_">
	<g>
		<g>
			<defs>
				<path id="SVGID_1_" d="M1496,815.1c7.8-15.7,22.4-46.6,37.7-87c11.5-30.4,20.7-59.3,28.2-86.1c5.5-16,7.3-25.9,10.8-45.4
					c0.9-4.9,0.7-9.6,0.7-14.1l0.7-90.1c-0.7-2-2.1-5.4-5.2-8.4c-6.2-5.9-14-5.8-15.7-5.8l17.9-10.4c4.1-0.2,14-1.9,20.6-4.2
					c3.3-1.1,11.1-4.3,19.2-11.3c10.9-9.6,24.8-28.7,18.6-39.9c-1.6-2.9-4.2-4.6-6.1-5.5c-14.9-6.2-26.8-12-34.9-16.3
					c-13.1-6.8-20.3-11.4-44.2-24.1c-9.1-4.8-19.6-10.3-34.3-13.4c-9.3-1.9-14.4-1.7-16.9-1.5c-9.7,0.9-16.6,4.5-25.9,9.6
					c-5.7,3.1-13.3,7.8-21.6,14.7c-22.9-27.1-47-42.5-63.4-50.7c-11.8-5.9-62.6-29-89.6-42.2c-18.3-8.9-28.7-14-43.3-17.7
					c-15.9-4-25-3.7-31.1-2.9c-6.8,0.9-12.2,2.6-16,4.1c-0.2-1.7-0.8-4.7-2.6-7.9c-2.6-4.6-6.3-7-8.1-8.1
					c-20-12.7-44.5-24.4-44.5-24.4c-7.1-3.4-8.6-4.2-11.6-5.2c-11-3.9-20.3-4.6-25.3-4.9c-7.6-0.5-13.7,0-17.5,0.3
					c-6.5,0.5-12,1.4-16.2,2.3c-20.2-8.3-39.5-15.8-50.3-20.2c-49.9-20.1-50-19.6-59.1-24.2c-6.6-3.3-17.5-9-33.6-15.1
					c-7.8-2.9-14.3-5-18.8-6.3c-11.3-3.9-21.8-8.4-35.5-15.2c-20-9.9-47.5-20.7-75.6-21.4c-4.2-0.1-8.3,1-12.2,1.7
					c-7.3-2.7-17.4-6.8-30.9-12.2c-12.6-5.1-16.1-6.4-30-12c-9.4-3.8-22.1-8.8-37.5-14.4c-19.5-7.1-27.4-9.2-36.7-10.7
					c-6.8-1.1-12.5-1.5-16.4-1.6c-13.3-6.9-24.8-12.9-33.6-16.5c-21.6-8.8-30.3-9.2-35.8-9.7c-8.8-0.9-16.1-1.2-20.9-0.6v-0.7
					c-7.7-3.6-19.6-9-34.7-14.5c-12.1-4.4-11.6-3.2-28.4-9.5c-21-7.9-28.1-10.9-39.7-13C439.8,1,432.4,0.2,424.4,0
					c-4.6-0.1-19.9,0.9-24,1.7c-9.3,2.3-19.5,6-27.2,11.9c-20.7,15.9-38.4,34.4-51.9,56.8c-8.6,14.2-12.6,25.7-15.7,34
					c-2.3,6.1,0-0.5-31.2,68.1c-18.4,40.3-27.5,60.4-34.7,77.2c-8.6,20-4.3,10.8-22.9,55.4c-13.9,33.3-17.2,40.5-20.9,54.5
					c-4,15.2-7.9,29.8-8.1,49.5c-0.2,27.7,7.2,48.6,12.2,62.8c8.4,24,18.7,40.2,22.9,46.9c12.2,19.7,28.1,49.3,46,94.7L0,745.9
					L1043,1785l687.9-844.7L1496,815.1z M352.4,552.3c-1.9-5.6-8.8-29.1-12.8-55.3c-1.6-10.4-1.2-19.2-0.3-28.8
					c0.7-7.4,2-13.6,3.9-22.3c1.3-5.6,2.6-11.6,5.2-19.2c2.3-6.6,4.4-11.3,5.2-13.1c6.7-14.9,11.1-27.6,17.9-44.1
					c10.1-24.5,14-29.1,34-72c12.7-27.2,9.8-23.9,26.6-58.7c16.7-34.6,26.4-50.5,30.1-62.8c1.8-6,9.6-23.4,24-45.7
					c2.2-2.9,4.5-5.2,6.5-7l44.5,12.2c-3.8,5.7-10.9,14.2-16.1,26.2c-12.7,28.8-25.7,52.9-29.3,62C472.2,274,442.9,332.2,426.4,369
					c-18.2,40.5-30,63.6-41.1,99.1c-3.3,10.6-7.7,24.3-9.2,42.3c-1.1,13.4-0.6,26-0.7,37.9c0.9,4,1.8,7.8,2.6,11.6l-19.9,9.8
					C357.1,566.2,355.4,561.1,352.4,552.3z"/>
			</defs>
			<clipPath id="SVGID_2_">
				<use xlink:href="#SVGID_1_"  style="overflow:visible;"/>
			</clipPath>
			<g id="P1180174.psd_1_" class="st0">
				
					<image style="overflow:visible;enable-background:new    ;" width="2049" height="1537" id="P1180174_6_" xlink:href="30626177.avif"  transform="matrix(0.9995 0 0 0.9995 -315.8872 -1.2503)">
				</image>
			</g>
		</g>
		<g>
			<defs>
				<path id="SVGID_3_" d="M1496,815.1c7.8-15.7,22.4-46.6,37.7-87c11.5-30.4,20.7-59.3,28.2-86.1c5.5-16,7.3-25.9,10.8-45.4
					c0.9-4.9,0.7-9.6,0.7-14.1l0.7-90.1c-0.7-2-2.1-5.4-5.2-8.4c-6.2-5.9-14-5.8-15.7-5.8l17.9-10.4c4.1-0.2,14-1.9,20.6-4.2
					c3.3-1.1,11.1-4.3,19.2-11.3c10.9-9.6,24.8-28.7,18.6-39.9c-1.6-2.9-4.2-4.6-6.1-5.5c-14.9-6.2-26.8-12-34.9-16.3
					c-13.1-6.8-20.3-11.4-44.2-24.1c-9.1-4.8-19.6-10.3-34.3-13.4c-9.3-1.9-14.4-1.7-16.9-1.5c-9.7,0.9-16.6,4.5-25.9,9.6
					c-5.7,3.1-13.3,7.8-21.6,14.7c-22.9-27.1-47-42.5-63.4-50.7c-11.8-5.9-62.6-29-89.6-42.2c-18.3-8.9-28.7-14-43.3-17.7
					c-15.9-4-25-3.7-31.1-2.9c-6.8,0.9-12.2,2.6-16,4.1c-0.2-1.7-0.8-4.7-2.6-7.9c-2.6-4.6-6.3-7-8.1-8.1
					c-20-12.7-44.5-24.4-44.5-24.4c-7.1-3.4-8.6-4.2-11.6-5.2c-11-3.9-20.3-4.6-25.3-4.9c-7.6-0.5-13.7,0-17.5,0.3
					c-6.5,0.5-12,1.4-16.2,2.3c-20.2-8.3-39.5-15.8-50.3-20.2c-49.9-20.1-50-19.6-59.1-24.2c-6.6-3.3-17.5-9-33.6-15.1
					c-7.8-2.9-14.3-5-18.8-6.3c-11.3-3.9-21.8-8.4-35.5-15.2c-20-9.9-47.5-20.7-75.6-21.4c-4.2-0.1-8.3,1-12.2,1.7
					c-7.3-2.7-17.4-6.8-30.9-12.2c-12.6-5.1-16.1-6.4-30-12c-9.4-3.8-22.1-8.8-37.5-14.4c-19.5-7.1-27.4-9.2-36.7-10.7
					c-6.8-1.1-12.5-1.5-16.4-1.6c-13.3-6.9-24.8-12.9-33.6-16.5c-21.6-8.8-30.3-9.2-35.8-9.7c-8.8-0.9-16.1-1.2-20.9-0.6v-0.7
					c-7.7-3.6-19.6-9-34.7-14.5c-12.1-4.4-11.6-3.2-28.4-9.5c-21-7.9-28.1-10.9-39.7-13C439.8,1,432.4,0.2,424.4,0
					c-4.6-0.1-19.9,0.9-24,1.7c-9.3,2.3-19.5,6-27.2,11.9c-20.7,15.9-38.4,34.4-51.9,56.8c-8.6,14.2-12.6,25.7-15.7,34
					c-2.3,6.1,0-0.5-31.2,68.1c-18.4,40.3-27.5,60.4-34.7,77.2c-8.6,20-4.3,10.8-22.9,55.4c-13.9,33.3-17.2,40.5-20.9,54.5
					c-4,15.2-7.9,29.8-8.1,49.5c-0.2,27.7,7.2,48.6,12.2,62.8c8.4,24,18.7,40.2,22.9,46.9c12.2,19.7,28.1,49.3,46,94.7L0,745.9
					L1043,1785l687.9-844.7L1496,815.1z M352.4,552.3c-1.9-5.6-8.8-29.1-12.8-55.3c-1.6-10.4-1.2-19.2-0.3-28.8
					c0.7-7.4,2-13.6,3.9-22.3c1.3-5.6,2.6-11.6,5.2-19.2c2.3-6.6,4.4-11.3,5.2-13.1c6.7-14.9,11.1-27.6,17.9-44.1
					c10.1-24.5,14-29.1,34-72c12.7-27.2,9.8-23.9,26.6-58.7c16.7-34.6,26.4-50.5,30.1-62.8c1.8-6,9.6-23.4,24-45.7
					c2.2-2.9,4.5-5.2,6.5-7l44.5,12.2c-3.8,5.7-10.9,14.2-16.1,26.2c-12.7,28.8-25.7,52.9-29.3,62C472.2,274,442.9,332.2,426.4,369
					c-18.2,40.5-30,63.6-41.1,99.1c-3.3,10.6-7.7,24.3-9.2,42.3c-1.1,13.4-0.6,26-0.7,37.9c0.9,4,1.8,7.8,2.6,11.6l-19.9,9.8
					C357.1,566.2,355.4,561.1,352.4,552.3z"/>
			</defs>
			<clipPath id="SVGID_4_">
				<use xlink:href="#SVGID_3_"  style="overflow:visible;"/>
			</clipPath>
			<g id="P1180174.psd_6_" class="st1">
				
					<image style="overflow:visible;enable-background:new    ;" width="2049" height="1537" id="P1180174_5_" xlink:href="30626177.avif"  transform="matrix(0.9995 0 0 -0.9995 -422.8629 3067.9087)">
				</image>
			</g>
		</g>
	</g>
</g>
<g id="レイヤー_2_1_">
	<g>
		
			<linearGradient id="SVGID_5_" gradientUnits="userSpaceOnUse" x1="614.7431" y1="268.516" x2="1524.9784" y2="1121.7808" gradientTransform="matrix(1 0 0 -1 0 1783.8898)">
			<stop  offset="0" style="stop-color:#535455"/>
			<stop  offset="0.6761" style="stop-color:#1E2420"/>
		</linearGradient>
		<path class="st2" d="M1272.9,939.4l42.2-59.8l-38.7-21.3c-1.9-1-4.6-0.4-6,1.4l-45.4,57.2l41.2,24.3
			C1268.3,942.4,1271.3,941.6,1272.9,939.4z"/>
		
			<linearGradient id="SVGID_6_" gradientUnits="userSpaceOnUse" x1="440.093" y1="454.8271" x2="1350.3282" y2="1308.0919" gradientTransform="matrix(1 0 0 -1 0 1783.8898)">
			<stop  offset="0" style="stop-color:#535455"/>
			<stop  offset="0.6761" style="stop-color:#1E2420"/>
		</linearGradient>
		<path class="st3" d="M707.6,1076.6c-4-1.6-9.2-1.8-14.5,0.2c-10.5,3.8-17.3,14-13.3,22.1c1.2,2.4,3.1,4.2,5.5,5.4
			c5.3,1.2,11.3,0.4,16.2-2.8c8.2-5.4,11.2-15.1,7.7-22.5C708.7,1078.2,708.2,1077.4,707.6,1076.6z"/>
		
			<linearGradient id="SVGID_7_" gradientUnits="userSpaceOnUse" x1="97.9126" y1="819.854" x2="1008.1479" y2="1673.1188" gradientTransform="matrix(1 0 0 -1 0 1783.8898)">
			<stop  offset="0" style="stop-color:#535455"/>
			<stop  offset="0.6761" style="stop-color:#1E2420"/>
		</linearGradient>
		<path class="st4" d="M583.4,538.9c9.5-7.5,13.8-8.4,17.7-15.1c3.1-5.4,1.7-7.2,5.7-12.9c3.9-5.5,6.3-5.2,9.2-10.5
			c2.3-4.3,1.4-5.8,4.1-11.8c0.4-1,2.3-5,5.2-8.7c6.5-8.4,12.2-7.6,20.3-15.9c3-3.1,5.7-5.7,8-9.4c4.7-7.5,5.6-12.8,8.8-22.9
			c2.4-7.8,3.2-8.3,5.5-14.2l-46,22.6c-18.4,37.3-35.9,73.6-50.4,109.4C576.1,544.9,580.3,541.4,583.4,538.9z"/>
		
			<linearGradient id="SVGID_8_" gradientUnits="userSpaceOnUse" x1="265.653" y1="640.9141" x2="1175.8883" y2="1494.1788" gradientTransform="matrix(1 0 0 -1 0 1783.8898)">
			<stop  offset="0" style="stop-color:#535455"/>
			<stop  offset="0.6761" style="stop-color:#1E2420"/>
		</linearGradient>
		<path class="st5" d="M490.7,919.4c-9,4.4-13.9,13-11.5,19.8c4.7,2.5,11.5,2.5,17.9-0.5c9.1-4.4,13.9-13.6,10.7-20.5
			C503.1,916.2,496.7,916.5,490.7,919.4z"/>
		
			<linearGradient id="SVGID_9_" gradientUnits="userSpaceOnUse" x1="653.9545" y1="226.6865" x2="1564.1898" y2="1079.9514" gradientTransform="matrix(1 0 0 -1 0 1783.8898)">
			<stop  offset="0" style="stop-color:#535455"/>
			<stop  offset="0.6761" style="stop-color:#1E2420"/>
		</linearGradient>
		<path class="st6" d="M923.1,1298.6c1.3,2.8,3.3,4.9,5.7,6.4c6.3,2.4,14.2,1.7,20.7-2.2c9.2-5.6,12.6-16,8.7-23.9
			c-1.2-2.5-3.1-4.7-5.4-6.3c-4.6-2.5-10.6-3-16.5-0.8C924.9,1276,918.1,1288.3,923.1,1298.6z"/>
		
			<linearGradient id="SVGID_10_" gradientUnits="userSpaceOnUse" x1="111.8658" y1="804.9692" x2="1022.1011" y2="1658.234" gradientTransform="matrix(1 0 0 -1 0 1783.8898)">
			<stop  offset="0" style="stop-color:#535455"/>
			<stop  offset="0.6761" style="stop-color:#1E2420"/>
		</linearGradient>
		<path class="st7" d="M314,800.2c8.6-4.2,13.2-12.6,10.5-19c-4.3-1.3-9.7-0.9-14.9,1.6c-8.6,4.2-13.2,12.6-10.5,19
			C303.4,803.2,308.8,802.7,314,800.2z"/>
	</g>
</g>
<linearGradient id="SVGID_11_" gradientUnits="userSpaceOnUse" x1="446.4294" y1="448.0677" x2="1356.6647" y2="1301.3326" gradientTransform="matrix(1 0 0 -1 0 1783.8898)">
	<stop  offset="0" style="stop-color:#535455"/>
	<stop  offset="0.6761" style="stop-color:#1E2420"/>
</linearGradient>
<path class="st8" d="M1496,815.1c-0.1,0.3-0.3,0.5-0.4,0.8c-12.1,24.3-17,31.1-46,82.9c-15.9,28.4-28.5,51.5-36.4,66
	c-10.7,14.1-19.3,25.4-24.7,32.6l-52.9,68.9c-7.6,9-15.7,14.8-23.6,27.6c-3.1,5.1-11.5,2.3-11.9,2.3c-9.2,0.2-16.1-3.4-19.2-5.2
	l-146.2-94.9c-1.4,6.3-2.9,14-4.5,23c-0.3,2-2.3,13.3-3.8,25c-2.2,17.8-2.6,30.5-3.2,43.1c-0.6,13.3-1.8,32.5-4.1,56.4
	c0,7.6-0.1,18.2-0.3,30.8c-0.2,15.9-0.4,24.1-0.9,33.7c-0.4,8-1.2,18.9-2.6,32c-0.1,9.8-1.3,24.3-7,40.4c-6.6,19-19,34-43.6,64
	c-21.9,26.6-32.8,39.9-39,45.1l-19.2,25.6c-1.5,0.7-3.4,0.6-8.7-1.7c-6.9-3-11.9-6.2-14.3-8.1c-7-5.9-28.5-24.3-57-50l-73-61.4
	c-5.2-5.5-14-11.3-23-17.5c-1.3-0.8-5.7-3.7-9.9-7.2c-0.7-0.6-3.4-3-6.1-7.9c-4.1-7.4-4.9-14.8-4.9-19.8c1.1-2.2,2.9-5.6,5.5-9.3
	c2.9-4.1,5.4-6.8,6.7-8.1c8.2-8.8,6.7-7.3,19.8-21.7c7.4-8.2,6.3-6.5,17.2-18.3c0,0,5.1-6.5,15.4-18.5c5.1-5.8,6.7-7.9,8.7-11.1
	c3.6-5.7,6.7-9,8-12.3c1.4-3.7,2.8-7.8,3.5-10.5c2.4-9.8,1-16.9-3.7-35.4c-6.3-24.9-7.8-52.4-22.9-186c0.1-7.9,0.2-15.8,0.3-23.7
	c0.1-11.7-1-17.1,0.2-26.6c0.3-2.6,1.3-6.9,3.3-15.3c3.8-16.4,5.7-24.6,8.3-32.5c1.3-4,1.8-6,2.8-9.1c0.7-2.3,2.1-6.1,4.1-11.4
	c11.6-30.2,21.7-51.3,21.7-51.3c12.2-25.4,11.7-21.5,17.9-34.9c0.1-0.3,0.3-0.6,0.4-0.9l-7.9,8.3c-36.5,33.3-63.8,60.4-76.8,77.4
	c-1.8,2.4-7,7.9-13.1,6.3c-4.5-1.2-10.2-3.7-11.3-4.7l-8.7-4.7c0.3,4,0.7,9.6,1.3,16.4c0.4,3.9,0.5,16.9,1.8,26.6
	c-0.2,14.3,28.7,180,28.7,180l2.6,28.8c0,0,4.8,21.9-0.3,36.4c-6,17.1-16.1,30.6-38.3,57.6c-19.7,23.9-30.3,38.4-35.9,43
	c2.9-7.7-12.2,14.4-23.6,20.9c-1.8,1-8.7-0.4-10.6-1.3c-11.7-5.3-14.5-11.2-16.4-13.3c-3.3-3.7,3.1,4.2-34.9-26.7
	c-14.6-11.9-52.2-42.7-65.7-55.2c-1.6-1.5-4.6-4.3-9-7.6c-3.2-2.4-6.4-4.6-11.6-8.1c-5.4-3.6-6.7-4.4-8.9-6.5
	c-2.5-2.5-4.3-5.1-5.5-7.1c-2.5-4.3-6.7-11.3-4.5-17.8c0.9-2.6,2.8-5.3,5-8.4c1.2-1.7,2.3-3.1,2.5-3.4c1.2-1.5,2.2-2.6,3.5-4
	c2.7-2.9,4.7-5.1,5.2-5.6c1.2-1.3,0.9-1,6.2-6.9c3.7-4.1,5.2-5.7,6.4-7.1c2.4-2.6,3.5-3.8,4.1-4.5c1.1-1.1,2.5-2.6,4.3-4.5
	c2.8-2.9,4.3-4.3,7-7.5c5.6-6.7,9.8-10.6,13.9-15.6c2.4-3,4.8-6.9,7.9-10.9c4.8-6.3,5.1-8.8,6.2-11c0,0,2-3.3,3.1-8.4
	c3.4-15.4-3.6-29.1-5.3-32.9c-11.5-26.6-25.2-85.3-47.3-162.2c0,0-4.1-12.1-7.4-37.2c-3.3-24.7-5.3-36.8-3.4-52.8
	c0.7-6.1,0.8-11,1.6-14.3l-32.1-20c0.3,5.9,0.9,14.3,2.3,24.3c2,13.8,4.6,24,5.8,28.8c13.9,53.9,18.9,71,18.9,71
	c6.6,22.6,12,45.5,17.2,68.4c2.4,10.8,4.5,21.8,7.3,32.5c2.7,10.6,6.6,21,7.4,32c0.2,2.4,0.2,4.8,0,7.2
	c-1.5,20.3-15.9,34.6-28.9,48.7c-15.4,16.6-30.6,33.5-46.6,49.6c-6.6,6.7-11.8,12.1-14.8,15.1c-1.9-0.5-4.9-1.4-8.1-3.2
	c-5.7-3.2-9-7.4-9.9-8.4c-3.3-4-5.5-4.9-31.4-25.6c-37.8-30.2-36.7-31.4-47.7-38.4c-8-5.1-14.9-12.2-23.6-16.3
	c-1.5-0.7-5.1-2.3-7.9-6.1c-2-2.8-2.8-5.9-3.5-8.7c-0.8-3.3-1.6-6.2-1.2-9.6c0.5-4.1,2.5-7.3,5.8-11.3c6.3-7.6,12.3-12.5,14.5-14.3
	c0.9-0.7,6.9-6.9,18.9-19.2c11.9-12.2,11.5-11.8,13.4-13.7c5.9-6,1.5-4.4,7.6-10.2c1.6-1.4,2.5-1.9,3.5-3.5c3.3-5,6.8-20.8,5.4-25.6
	c-4.7-15.7-12.4-30.5-14.9-35.3c-9-17.2-23.7-50.9-47.2-122.1c-7-21.3-15.8-47.8-24-82.7l-19.9,9.8c3.7,12.1,1.4,8.4,21.2,67.2
	c10.5,31.2,13.9,40.6,26.6,78.5c5,14.9,9.1,27.2,11.8,35.3c1.1,3.9,2.4,9.9,1.7,17c-1,11-5.9,18.8-8.7,23.1
	c-9,13.9-35.3,41.2-73.7,73.3c-1.1,0.6-2.8,1.3-4.8,1.3c-6.2,0-10.7-6.8-12.9-9.8c-6.3-8.6-16.4-13.7-24.4-20.7
	c-19.9-17.3-16.6-13.5-37.1-31c-10.3-8.8-12.4-10.6-16.8-12c-1.1-0.3-7.1-3.5-10.5-7c-0.3-0.3,0.1-0.9-1-2.4
	c-3.2-4.3-6.8-9.3-6.3-14.8c0.2-2.8,0.4-4.6,1.8-7c3.4-5.4,7.2-7.1,12.7-11.6c3.6-3,2.5-2.8,10-10.3c9.6-9.5,11.4-9.2,20.1-17.7
	c5.8-5.7,9.3-10.2,12.7-14.4c8.1-5.5,8.6-10.3,8.5-13.3c-0.1-3.3,2-7.4,1.1-16.1c-1.5-15.2-8.5-30.1-8.5-30.1
	c-4.3-12.2-8.6-23.4-12.7-33.8L0,745.9L1043,1785l687.9-844.7L1496,815.1z"/>
</svg>
