<?xml version="1.0" encoding="utf-8"?>
<!-- Generator: Adobe Illustrator 25.1.0, SVG Export Plug-In . SVG Version: 6.00 Build 0)  -->
<svg version="1.1" id="レイヤー_1" xmlns="http://www.w3.org/2000/svg" xmlns:xlink="http://www.w3.org/1999/xlink" x="0px"
	 y="0px" viewBox="0 0 1443.1 1415.8" style="enable-background:new 0 0 1443.1 1415.8;" xml:space="preserve">
<style type="text/css">
	.st0{clip-path:url(#SVGID_2_);}
</style>
<g>
	<defs>
		<path id="SVGID_1_" d="M1441.6,412.4c-1.6-2.9-4.2-4.6-6.1-5.5c-14.9-6.2-26.8-12-34.9-16.3c-13.1-6.8-20.3-11.4-44.2-24.1
			c-9.1-4.8-19.6-10.3-34.3-13.4c-9.3-1.9-14.4-1.7-16.9-1.5c-9.7,0.9-16.6,4.5-25.9,9.6c-5.7,3.1-13.3,7.8-21.6,14.7
			c-22.9-27.1-47-42.5-63.4-50.7c-11.8-5.9-62.6-29-89.6-42.2c-18.3-8.9-28.7-14-43.3-17.7c-15.9-4-25-3.7-31.1-2.9
			c-6.8,0.9-12.2,2.6-16,4.1c-0.2-1.7-0.8-4.7-2.6-7.9c-2.6-4.6-6.3-7-8.1-8.1c-20-12.7-44.5-24.4-44.5-24.4
			c-7.1-3.4-8.6-4.2-11.6-5.2c-11-3.9-20.3-4.6-25.3-4.9c-7.6-0.5-13.7,0-17.5,0.3c-6.5,0.5-12,1.4-16.2,2.3
			c-20.2-8.3-39.5-15.8-50.3-20.2c-49.9-20.1-50-19.6-59.1-24.2c-6.6-3.3-17.5-9-33.6-15.1c-7.8-2.9-14.3-5-18.8-6.3
			c-11.3-3.9-21.8-8.4-35.5-15.2c-20-9.9-47.5-20.7-75.6-21.4c-4.2-0.1-8.3,1-12.2,1.7c-7.3-2.7-17.4-6.8-30.9-12.2
			c-12.6-5.1-16.1-6.4-30-12c-9.4-3.8-22.1-8.8-37.5-14.4c-19.5-7.1-27.4-9.2-36.7-10.7c-6.8-1.1-12.5-1.5-16.4-1.6
			c-13.3-6.9-24.8-12.9-33.6-16.5c-21.6-8.8-30.3-9.2-35.8-9.7c-8.8-0.9-16.1-1.2-20.9-0.6v-0.7c-7.7-3.6-19.6-9-34.7-14.5
			c-12.1-4.4-11.6-3.2-28.4-9.5c-21-7.9-28.1-10.9-39.7-13C251.9,1,244.6,0.2,236.6,0c-4.6-0.1-19.9,0.9-24,1.7
			c-9.3,2.3-19.5,6-27.2,11.9c-20.7,15.9-38.4,34.4-51.9,56.8c-8.6,14.2-12.6,25.7-15.7,34c-2.3,6.1,0-0.5-31.2,68.1
			c-18.4,40.3-27.5,60.4-34.7,77.2c-8.6,20-4.3,10.8-22.9,55.4c-13.9,33.3-17.2,40.5-20.9,54.5C4,375,0.1,389.5,0,409.3
			c-0.2,27.7,7.2,48.6,12.2,62.8c8.4,24,18.7,40.2,22.9,46.9c15,24.2,35.6,63.4,58.7,128.5c0,0,7,14.9,8.5,30.1
			c0.9,8.7-1.2,12.9-1.1,16.1c0.1,3-0.4,7.8-8.5,13.3c-3.3,4.2-6.9,8.7-12.7,14.4c-8.6,8.5-10.5,8.2-20.1,17.7
			c-7.6,7.5-6.4,7.3-10,10.3c-5.4,4.4-9.3,6.1-12.7,11.6c-1.5,2.3-1.6,4.2-1.8,7c-0.5,5.5,3.2,10.5,6.3,14.8c1.1,1.5,0.7,2.1,1,2.4
			c3.5,3.5,9.5,6.7,10.5,7c4.4,1.4,6.5,3.1,16.8,12c20.5,17.5,17.2,13.6,37.1,31c8.1,7,18.2,12.1,24.4,20.7c2.2,3,6.7,9.8,12.9,9.8
			c2,0,3.7-0.7,4.8-1.3c38.5-32.1,64.7-59.4,73.7-73.3c2.8-4.3,7.7-12.1,8.7-23.1c0.6-7.2-0.6-13.1-1.7-17
			c-2.7-8.2-6.8-20.4-11.8-35.3c-12.7-37.9-16.2-47.4-26.6-78.5c-25.7-76.7-14-47.2-27-84.8c-1.9-5.6-8.8-29.1-12.8-55.3
			c-1.6-10.4-1.2-19.2-0.3-28.8c0.7-7.4,2-13.6,3.9-22.3c1.3-5.6,2.6-11.6,5.2-19.2c2.3-6.6,4.4-11.3,5.2-13.1
			c6.7-14.9,11.1-27.6,17.9-44.1c10.1-24.5,14-29.1,34-72c12.7-27.2,9.8-23.9,26.6-58.7c16.7-34.6,26.4-50.5,30.1-62.8
			c1.8-6,9.6-23.4,24-45.7c2.2-2.9,4.5-5.2,6.5-7l44.5,12.2c-3.8,5.7-10.9,14.2-16.1,26.2c-12.7,28.8-25.7,52.9-29.3,62
			c-19.6,50.3-48.9,108.5-65.4,145.3c-18.2,40.5-30,63.6-41.1,99.1c-3.3,10.6-7.7,24.3-9.2,42.3c-1.1,13.4-0.6,26-0.7,37.9
			c8.9,40.8,18.8,70.7,26.6,94.3c23.5,71.2,38.2,105,47.2,122.1c2.5,4.7,10.2,19.5,14.9,35.3c1.4,4.8-2.1,20.5-5.4,25.6
			c-1,1.6-1.9,2.1-3.5,3.5c-6.1,5.8-1.7,4.2-7.6,10.2c-1.9,1.9-1.5,1.5-13.4,13.7c-12,12.3-18,18.5-18.9,19.2
			c-2.2,1.8-8.3,6.6-14.5,14.3c-3.4,4.1-5.3,7.2-5.8,11.3c-0.4,3.4,0.4,6.3,1.2,9.6c0.7,2.9,1.4,5.9,3.5,8.7
			c2.7,3.8,6.4,5.4,7.9,6.1c8.6,4.1,15.5,11.1,23.6,16.3c11,7,10,8.2,47.7,38.4c25.9,20.7,28.1,21.6,31.4,25.6
			c0.9,1.1,4.2,5.3,9.9,8.4c3.2,1.8,6.2,2.7,8.1,3.2c3-3.1,8.3-8.4,14.8-15.1c15.9-16.2,31.1-33,46.6-49.6
			c13.1-14.1,27.4-28.4,28.9-48.7c0.2-2.4,0.2-4.8,0-7.2c-0.8-11-4.7-21.4-7.4-32c-2.8-10.7-4.8-21.7-7.3-32.5
			c-5.2-22.9-10.5-45.9-17.2-68.4c0,0-5-17.1-18.9-71c-1.2-4.8-3.8-15-5.8-28.8c-1.4-10-2-18.3-2.3-24.3l32.1,20
			c-0.8,3.3-0.9,8.2-1.6,14.3c-2,16,0,28.1,3.4,52.8c3.4,25.1,7.4,37.2,7.4,37.2c22,77,35.7,135.6,47.3,162.2
			c1.6,3.8,8.7,17.5,5.3,32.9c-1.1,5.1-3.1,8.4-3.1,8.4c-1,2.2-1.4,4.7-6.2,11c-3.1,4.1-5.4,8-7.9,10.9c-4.1,5-8.3,8.9-13.9,15.6
			c-2.6,3.2-4.1,4.6-7,7.5c-1.9,1.9-3.3,3.4-4.3,4.5c-0.7,0.7-1.8,1.9-4.1,4.5c-1.2,1.3-2.8,3-6.4,7.1c-5.3,5.9-5,5.6-6.2,6.9
			c-0.4,0.5-2.5,2.7-5.2,5.6c-1.3,1.4-2.3,2.4-3.5,4c-0.2,0.3-1.3,1.7-2.5,3.4c-2.2,3.1-4.1,5.8-5,8.4c-2.2,6.5,1.9,13.5,4.5,17.8
			c1.2,2,3,4.6,5.5,7.1c2.2,2.1,3.5,2.9,8.9,6.5c5.2,3.5,8.5,5.6,11.6,8.1c4.4,3.4,7.4,6.2,9,7.6c13.6,12.5,51.1,43.4,65.7,55.2
			c38.1,30.9,31.6,23,34.9,26.7c1.9,2.1,4.7,8.1,16.4,13.3c1.8,0.8,8.8,2.3,10.6,1.3c11.5-6.6,26.5-28.6,23.6-20.9
			c5.6-4.7,16.2-19.1,35.9-43c22.2-27,32.3-40.5,38.3-57.6c5.1-14.5,0.3-36.4,0.3-36.4l-2.6-28.8c0,0-28.9-165.7-28.7-180
			c-1.3-9.7-1.5-22.7-1.8-26.6c-0.6-6.7-1-12.3-1.3-16.4l8.7,4.7c1.1,1,6.8,3.5,11.3,4.7c6.1,1.6,11.3-4,13.1-6.3
			c12.9-17,40.2-44.2,76.8-77.4l7.9-8.3c-0.1,0.3-0.3,0.6-0.4,0.9c-6.2,13.4-5.7,9.5-17.9,34.9c0,0-10.1,21-21.7,51.3
			c-2,5.3-3.4,9.1-4.1,11.4c-1,3.1-1.5,5.1-2.8,9.1c-2.6,7.9-4.5,16.1-8.3,32.5c-1.9,8.4-2.9,12.6-3.3,15.3
			c-1.2,9.5-0.1,14.9-0.2,26.6c-0.1,7.9-0.2,15.9-0.3,23.7c15.1,133.5,16.6,161,22.9,186c4.7,18.5,6.1,25.6,3.7,35.4
			c-0.6,2.6-2.1,6.8-3.5,10.5c-1.3,3.3-4.4,6.6-8,12.3c-2,3.2-3.7,5.2-8.7,11.1c-10.4,12-15.4,18.5-15.4,18.5
			c-10.9,11.8-9.7,10.1-17.2,18.3c-13.1,14.3-11.6,12.9-19.8,21.7c-1.3,1.4-3.8,4.1-6.7,8.1c-2.6,3.8-4.4,7.1-5.5,9.3
			c0,4.9,0.9,12.4,4.9,19.8c2.7,4.8,5.4,7.3,6.1,7.9c4.2,3.6,8.6,6.4,9.9,7.2c9,6.1,17.8,12,23,17.5l73,61.4
			c28.6,25.7,50,44.2,57,50c2.3,1.9,7.3,5.1,14.3,8.1c5.3,2.3,7.2,2.4,8.7,1.7l19.2-25.6c6.2-5.2,17.1-18.5,39-45.1
			c24.7-30,37-45,43.6-64c5.6-16.2,6.9-30.6,7-40.4c1.5-13.1,2.2-24,2.6-32c0.5-9.7,0.6-17.8,0.9-33.7c0.2-12.6,0.3-23.2,0.3-30.8
			c2.3-23.9,3.5-43.1,4.1-56.4c0.6-12.5,1-25.2,3.2-43.1c1.5-11.7,3.4-23,3.8-25c1.6-9,3.1-16.7,4.5-23l146.2,94.9
			c3.1,1.9,10,5.4,19.2,5.2c0.4,0,8.8,2.8,11.9-2.3c7.9-12.8,16-18.6,23.6-27.6l52.9-68.9c5.4-7.2,14-18.5,24.7-32.6
			c7.9-14.6,20.5-37.7,36.4-66c29-51.8,33.8-58.7,46-82.9c7.7-15.4,22.6-46.8,38.1-87.9c11.5-30.4,20.7-59.3,28.2-86.1
			c5.5-16,7.3-25.9,10.8-45.4c0.9-4.9,0.7-9.6,0.7-14.1l0.7-90.1c-0.7-2-2.1-5.4-5.2-8.4c-6.2-5.9-14-5.8-15.7-5.8l17.9-10.4
			c4.1-0.2,14-1.9,20.6-4.2c3.3-1.1,11.1-4.3,19.2-11.3C1433.9,442.7,1447.7,423.5,1441.6,412.4z M126.1,800.2
			c-5.2,2.5-10.6,2.9-14.9,1.6c-2.7-6.4,1.9-14.8,10.5-19c5.2-2.5,10.6-2.9,14.9-1.6C139.3,787.7,134.7,796.1,126.1,800.2z
			 M309.3,938.6c-6.3,3.1-13.1,3.1-17.9,0.5c-2.4-6.8,2.5-15.4,11.5-19.8c6-2.9,12.4-3.2,17.1-1.3
			C323.1,925,318.4,934.2,309.3,938.6z M474.5,431.8c-3.2,10.2-4.1,15.4-8.8,22.9c-2.3,3.7-5,6.3-8,9.4c-8.1,8.3-13.7,7.5-20.3,15.9
			c-2.9,3.7-4.8,7.7-5.2,8.7c-2.7,6-1.8,7.5-4.1,11.8c-2.9,5.3-5.2,4.9-9.2,10.5c-4,5.6-2.6,7.5-5.7,12.9
			c-3.8,6.7-8.1,7.6-17.7,15.1c-3.1,2.4-7.3,6-11.8,10.7c25-61.9,59.1-125.4,91.2-192.4c7.4-15.4,15.4-31.1,23.6-45.9
			c1.8,17.1,0.8,30.9-0.6,40.6c-1.5,10.4-4.1,20.5-6.1,28.4c-1.5,6-4.2,16.6-8.9,29.9C478,423.9,477.8,421.6,474.5,431.8z
			 M513.6,1101.5c-4.9,3.2-10.8,4-16.2,2.8c-2.4-1.2-4.3-2.9-5.5-5.4c-3.9-8.1,2.8-18.3,13.3-22.1c5.3-1.9,10.5-1.8,14.5-0.2
			c0.6,0.7,1.1,1.5,1.5,2.4C524.9,1086.4,521.9,1096.1,513.6,1101.5z M761.6,1302.7c-6.5,3.9-14.3,4.6-20.7,2.2
			c-2.4-1.5-4.3-3.6-5.7-6.4c-5-10.2,1.8-22.6,13.1-26.9c5.9-2.2,11.9-1.7,16.5,0.8c2.3,1.7,4.2,3.8,5.4,6.3
			C774.2,1286.7,770.8,1297.1,761.6,1302.7z M1085,939.4c-1.6,2.2-4.6,3-6.7,1.8l-41.2-24.3l45.4-57.2c1.4-1.8,4.1-2.4,6-1.4
			l38.7,21.3L1085,939.4z"/>
	</defs>
	<clipPath id="SVGID_2_">
		<use xlink:href="#SVGID_1_"  style="overflow:visible;"/>
	</clipPath>
	<g id="P1180174.psd" class="st0">
		
			<image style="overflow:visible;" width="2048" height="1536" id="P1180174_2_" xlink:href="30626177.avif
			"  transform="matrix(1 0 0 1 -503.7842 -1.2441)">
		</image>
	</g>
</g>
</svg>
