<?xml version="1.0" encoding="utf-8"?>
<!-- Generator: Adobe Illustrator 25.1.0, SVG Export Plug-In . SVG Version: 6.00 Build 0)  -->
<svg version="1.1" id="レイヤー_1" xmlns="http://www.w3.org/2000/svg" xmlns:xlink="http://www.w3.org/1999/xlink" x="0px"
	 y="0px" viewBox="0 0 24 24" style="enable-background:new 0 0 24 24;" xml:space="preserve">
<style type="text/css">
	.st0{opacity:0.35;fill:#FFFFFF;enable-background:new    ;}
</style>
<path class="st0" d="M12,22c-1.4,0-2.7-0.3-3.9-0.8S5.8,20,4.9,19c-0.9-0.9-1.6-2-2.1-3.2S2,13.4,2,12s0.3-2.7,0.8-3.9
	S4,5.8,4.9,4.9s2-1.6,3.2-2.1S10.6,2,12,2s2.7,0.3,3.9,0.8s2.3,1.2,3.2,2.1s1.6,2,2.1,3.2S22,10.6,22,12s-0.3,2.7-0.8,3.9
	s-1.2,2.3-2.1,3.2c-0.9,0.9-2,1.6-3.2,2.2C14.7,21.7,13.4,22,12,22z M12,19.9c0.4-0.6,0.8-1.2,1.1-1.9c0.3-0.6,0.6-1.3,0.8-2.1h-3.8
	c0.2,0.7,0.5,1.4,0.8,2.1S11.6,19.3,12,19.9z M9.4,19.5c-0.3-0.6-0.6-1.1-0.8-1.7S8.2,16.6,8,16H5c0.5,0.8,1.1,1.6,1.8,2.2
	S8.5,19.2,9.4,19.5z M14.6,19.5c0.9-0.3,1.8-0.8,2.5-1.4s1.3-1.3,1.8-2.2H16c-0.1,0.6-0.3,1.2-0.6,1.8C15.2,18.4,14.9,19,14.6,19.5z
	 M4.2,14h3.4c-0.1-0.3-0.1-0.7-0.1-1s0-0.7,0-1c0-0.4,0-0.7,0-1s0.1-0.7,0.1-1H4.2c-0.1,0.3-0.1,0.7-0.2,1c0,0.3,0,0.6,0,1
	c0,0.3,0,0.7,0.1,1C4.1,13.3,4.2,13.7,4.2,14z M9.7,14h4.7c0.1-0.3,0.1-0.7,0.1-1s0-0.7,0-1c0-0.4,0-0.7,0-1s-0.1-0.7-0.1-1H9.7
	c-0.1,0.3-0.1,0.7-0.1,1s0,0.7,0,1s0,0.7,0,1C9.6,13.3,9.6,13.7,9.7,14z M16.4,14h3.4c0.1-0.3,0.1-0.7,0.2-1c0-0.3,0.1-0.7,0.1-1
	c0-0.4,0-0.7-0.1-1c0-0.3-0.1-0.7-0.2-1h-3.4c0,0.3,0.1,0.7,0.1,1s0,0.7,0,1s0,0.7,0,1C16.4,13.3,16.4,13.7,16.4,14z M15.9,8h2.9
	c-0.5-0.8-1.1-1.6-1.8-2.2c-0.7-0.6-1.6-1.1-2.5-1.4c0.3,0.5,0.6,1.1,0.8,1.7C15.6,6.8,15.8,7.4,15.9,8z M10.1,8h3.8
	c-0.2-0.7-0.5-1.4-0.8-2.1C12.8,5.3,12.4,4.6,12,4c-0.4,0.6-0.8,1.2-1.1,1.9S10.3,7.3,10.1,8z M5.1,8h3c0.1-0.6,0.3-1.2,0.6-1.8
	S9.1,5,9.4,4.4C8.5,4.7,7.6,5.2,6.9,5.8S5.6,7.2,5.1,8z"/>
</svg>
