<?xml version="1.0" encoding="utf-8"?>
<!-- Generator: Adobe Illustrator 25.1.0, SVG Export Plug-In . SVG Version: 6.00 Build 0)  -->
<svg version="1.1" id="レイヤー_1" xmlns="http://www.w3.org/2000/svg" xmlns:xlink="http://www.w3.org/1999/xlink" x="0px"
	 y="0px" viewBox="0 0 317.4 261" style="enable-background:new 0 0 317.4 261;" xml:space="preserve">
<style type="text/css">
	.st0{fill:#1F4C9E;}
	.st1{fill:none;}
</style>
<g>
	<path class="st0" d="M260.1,200.5c-7,10.1-15.9,19.9-25.6,27.6l-1.7-0.2c-4.2-2.7-8.7-4.8-12.7-7.5c5.4-6.5,10.6-13,14.6-20.1h-5.2
		c-4.2,6.1-8.5,12.6-14,18.1c-7.4-3-14-5.7-21.6-7.7l-0.8-0.7c1.2-3.3,3.3-6.5,4-9.8h-4.5l-4.5,9c-9.9-2.2-20.7-3.3-30.8-4
		c-0.5-1.5,0.2-3.7-0.5-5h-4.4c-0.3,2,0.5,3.5-0.5,5.1c-10.4,0.5-20.4,1.7-30.1,3.7l-4.5-8.8l0,0c-1.7,0-3.5-0.3-4.7,0.2l4.2,9.8
		l-0.5,0.5c-7.5,2.1-14.9,4.8-22.1,7.8l-0.7-0.3c-4.7-5.1-9.2-10.8-12.9-16.4c-0.8-2.8-4.2-1.2-6-1.5c4,7.3,9.4,13.8,14.7,20.4
		c-4.5,2.7-9,5.7-13.7,7.8c-10-7.7-19.4-17.6-26.4-28.1c-2-0.3-3.4-0.2-5.4,0c12,18.9,30.8,35.6,50.3,45.3l0.2-0.2l0.2,0.5
		c13.2,6.5,27.2,11.1,42.1,13.1C188,266.1,237,244,265.4,200.5C263.9,200.3,261.7,200.3,260.1,200.5z M190.4,215.4l0.5-0.3
		c7.2,1.7,14.1,4,20.4,7.2l0,0l0,0l0,0c-5.4,6.1-12.2,11.5-18.6,15.9c-3.8,2.3-7.7,4.8-11.7,6.8l-7.2-3.2l0.5-1.2
		C180.3,232.5,185.7,224.2,190.4,215.4z M157.4,210.4c9.5,0.2,19,1.2,27.9,3.3l0.1,0.5c-4.6,9-10.5,17.6-16.9,25.7
		c-2.8,0.3-5.5-0.8-8.4-1l-2.8-0.3C157.1,228.9,156.9,220.2,157.4,210.4z M125.2,213.4c8.7-1.6,17.7-3,27.1-3l0.2,28.1l0,0l0,0l0,0
		c-3.5,0.8-7.4,0.8-10.7,1.7c-6.9-8.1-12.5-17-17.4-26.1L125.2,213.4z M98.2,222.4c6.5-3.1,13.4-5.5,20.4-7.3l0.7,0.2
		c4.8,9.1,10.9,17.8,16.9,26.4c-2.4,1.3-5.2,2.2-7.5,3.5c-11-5.5-21.6-13.1-30.4-22.3V222.4L98.2,222.4z M119.8,250.8
		c-14-3.7-27.1-10-39.1-18.6v-0.5c4-2.5,8-5.1,12.4-7c9.5,9.5,19.4,16.6,30.1,23.4L119.8,250.8z M183,252l-1.2,1
		c-17.7,3.8-37.4,4-55.1-0.3l1.3-1.5C143.6,241,167.8,241,183,252L183,252z M229.1,231.7c-9.4,7.5-20.2,12.5-31.3,16.6l-7.9,2.5
		c-1.3-0.7-2.5-1.7-3.7-2.7l0.3-0.5c10.7-6.3,20.4-14,29.6-23.1C220.8,226.4,225.1,228.9,229.1,231.7L229.1,231.7z"/>
	<path class="st0" d="M11.3,72.7L0.9,72.9c-0.2,9.4-0.2,18.7,0,28.1c5.7,0.2,11,0,16.6,0.5V158l-0.2,2.3l-16.6,0.3
		c-0.3,9.1-0.3,18.3,0,27.4h73.7v-27.4c-5.5-0.3-11.7,0.1-17-0.5l0.2-58.3l0.3-0.5l16.6-0.2c0.2-9.5,0.3-19.6-0.2-28.2L11.3,72.7
		L11.3,72.7z"/>
	<g>
		<path class="st0" d="M295.4,82.7L295.4,82.7L295.4,82.7z"/>
		<path class="st0" d="M312.1,103c-3-8-9.2-15.1-16.7-20.3c-21.7-14-54.9-15-77.2-2.3c-12.2,6.3-20.3,18.8-22.7,31.6
			c-4.5,21.1-3.4,46.2,12.7,62c18.8,16.6,46,20.3,70.2,13.5c1.1-0.2,4.8-1.2,7.3-2.5l0.7-0.3c7.5-3.1,14.7-8.3,20-15.3
			C318.8,151,319.6,123.6,312.1,103z M277.5,150.3c-0.9,4-3.5,8.1-7.8,9.6c-6.8,3-16,2.1-22.3-1.3c-5.3-3.7-5.9-9.8-6.6-15.6
			c-0.5-11.5-1.4-23.6,1.9-34.1c2.6-6.5,9.5-8.1,15.8-8.6c6.6,0,13.1,1,17.2,6.3l0,0c2.6,3.8,2.4,8.8,2.9,13.3
			C278.3,129.4,279.2,140.7,277.5,150.3z"/>
	</g>
	<path class="st0" d="M153.6,77.4c-18.4-7.8-44.1-8.6-60.9,3.5c-10.9,8-14.2,22.3-11.4,34.9c2.2,12,13.5,20.8,24.4,24.9
		c14.9,5.3,30.4,9.1,45.5,14.3c1.5,0.7,3.5,2.1,3.2,4c0,1.5-1.5,2.3-2.7,3c-15.7,4.3-32.8,1-44.1-11c-1.3-1.7-2.2-3.7-3.5-5.3
		l-22.6,0.2c-0.3,13.5-0.5,28.9,0,42.2l25.1-0.2l0.3-8c2.8,1.3,5.7,3,8.5,4.5c17.4,7.3,39.8,8.9,57,0c12.5-7,19.2-20.4,17.4-34.9
		c-1.8-14.1-15.2-26.9-28.7-30.4l-40.5-11.8l-3-1.5c-1.3-1.2-2.2-2.7-1.8-4.5c3.2-5.5,10.5-3.8,16.1-3.7
		c11.7,1.7,23.7,5.7,30.6,16.4c7.4,0,15.9,0.2,23.9-0.2c0.3-13.6-0.2-25.6-0.3-39.4c-7.5-0.2-16.7-0.2-24.2,0.2
		c-0.3,2,0.3,4.8-0.5,6.8L153.6,77.4z"/>
	<path class="st0" d="M165.3,0.9l-0.2,0.3l-0.3-0.3l0,0c-4.5-0.5-10-0.7-14.9-0.2c-1.8-0.2-4,0-6.2,0.2
		C103.6,4.1,66.6,24.9,43.6,60.3c1.7-0.2,3.7,0.5,5.3-0.2c4-5.6,8.5-11.1,13.5-16.4c4.3-4.2,8.4-8.1,13-11.1
		c4.4,2.8,9.2,5.1,13.4,7.8c-5.2,6.5-10.5,13-14.4,20c1.2,0.5,3.4,0.3,5,0c4.2-6.1,8.7-12.3,14-17.8c7.2,2.7,14.2,5.5,21.6,7.5
		l0.7,0.7l-4.2,9.6c1.8,0.3,3,0.2,4.8,0c1.5-2.8,2.7-6,4.3-8.8c9.7,2.1,19.9,3.3,30.3,3.7c1.3,1.1,0.3,3.7,0.9,5.1h4.5
		c0.5-1.7-0.1-3.5,0.5-5c9.7-0.5,19.9-1.5,29.3-3.8l0.8,0.2l4.5,8.6c1.5,0,3.5,0.3,4.7-0.3l-4.2-9.6l0.3-0.3c7.7-2,14.9-5,22.2-8
		c5.2,5.5,10,12,14.4,18.3c1.8,0,3.7,0.2,5-0.3c-2-3.7-4.4-7.2-7.2-10.5c-2.2-3.2-4.5-6-7.4-9v-0.8l11.7-6.8l1.7-0.7
		c10.2,7.8,19.2,17.3,26.4,27.7c2,0,3.7,0.7,5.4-0.2C242.2,25.9,205.3,4.1,165.3,0.9z M92.7,36.3c-4.5-1.7-8.7-4.1-12.7-7V29
		c10.5-7.8,22.2-13.6,34.6-17.6l1.5-1v0.3c1.3,0.3,2.4-1.2,3.5-0.2l3,2.3l0,0C112.3,19.4,102.1,27,92.7,36.3z M118.3,45.5l-0.7,0.2
		c-6.9-1.8-13.6-4-19.9-6.8l0.3-1c9.2-8.8,18.9-16.1,29.6-21.8c2.5,1,5,1.8,7.5,3l0,0l-0.5,1.3C128.3,28.4,123.3,37,118.3,45.5z
		 M151.6,50c-4.7,0.7-8.9-0.2-13.5-0.5c-4.5-0.7-10.2-1.2-14.7-2.7c4.8-9.1,10.5-17.9,17.4-26.1l10.7,1.5l0,0
		C151.9,30.8,151.6,40.8,151.6,50z M128.5,10.6l-2.7-2.2c17.7-4.2,38.6-4.5,56.2,0l0,0v0.3C167.4,19.4,143.9,20.4,128.5,10.6z
		 M156.8,50.1c-0.3-8.8-0.2-18.6,0-27.7c3.4-0.5,7-1,10.3-1.5c6.5,8.3,12.9,16.8,17.2,25.9C175.3,49,166.1,50.1,156.8,50.1z
		 M210.1,38.5c-6.5,2.8-13.2,5.5-20.4,7c-5.2-8.8-10.8-17.6-17.2-26.1c2.4-1.3,5.2-2.3,7.7-3.7C191,21.2,201.6,29,210.4,38
		L210.1,38.5z M227.7,29.3l-11.5,6.5h-0.9c-8.8-9-19.2-16.8-29.8-22.9l3.2-2.8c14,3.7,27.2,10,39.3,18.6l0,0L227.7,29.3z"/>
</g>
<rect x="0.5" y="0.5" class="st1" width="316.4" height="260"/>
</svg>
