<?xml version="1.0" encoding="utf-8"?>
<!-- Generator: Adobe Illustrator 25.1.0, SVG Export Plug-In . SVG Version: 6.00 Build 0)  -->
<svg version="1.1" baseProfile="basic" id="レイヤー_1"
	 xmlns="http://www.w3.org/2000/svg" xmlns:xlink="http://www.w3.org/1999/xlink" x="0px" y="0px" viewBox="0 0 2121.5 1743.4"
	 xml:space="preserve">
<style type="text/css">
	.st0{fill:#1F4C9E;}
</style>
<g>
	<path class="st0" d="M1740.4,1341c-46.9,68-106.4,133.7-171.4,184.9l-11.2-1.1c-28.1-17.8-58.5-32.4-85.4-50.1
		c36-43.5,70.8-86.9,97.7-134.8h-34.8c-28.1,41.2-57.3,84.5-94.2,121.3c-49.4-20-94.2-37.9-144.6-51.3l-5.6-4.4
		c7.9-22.3,22.3-43.5,26.9-65.7h-30.2l-30.4,60.1c-66.2-14.5-139-22.3-206.4-26.7c-3.3-10,1.4-24.5-3.3-33.4h-29.2
		c-2.2,13.3,3.4,23.4-3.3,34.4c-69.6,3.4-136.8,11.2-201.9,24.5l-30.2-58.9l0,0c-11.2,0-23.6-2.3-31.4,1.1l28,65.7l-3.3,3.4
		c-50.5,14.4-99.9,32.3-148,52.4l-4.6-2.3c-31.4-34.4-61.6-72.3-86.3-110.3c-5.5-18.8-27.9-7.8-40.2-9.9
		c26.9,48.9,62.7,92.4,98.7,136.9c-30.3,17.9-60.6,38-92,52.4c-67.3-51.3-130.1-118.1-177.1-188.3c-13.5-2.2-22.5-1.1-35.9,0
		c80.6,127,206.3,238.4,337.5,304l1.1-1.1l1.2,3.4c88.5,43.4,182.6,74.6,282.5,88c344.1,45.7,672.6-102.5,863.2-394.3
		C1766.4,1339.9,1751.7,1339.9,1740.4,1341z M1273.1,1441.3l3.3-2.3c48.3,11.1,94.3,26.8,136.9,48l0,0l0,0l0,0
		c-36,41.2-81.9,76.8-124.6,106.9c-25.8,15.6-51.5,32.3-78.5,45.7l-48.3-21.2l3.5-7.8C1205.8,1556,1241.7,1500.3,1273.1,1441.3z
		 M1052.3,1407.8c63.9,1.2,127.7,7.8,187.1,22.3l1,3.4c-31.1,60.1-70.6,118-113.1,172.6c-19,2.2-36.9-5.6-56.2-6.7l-18.8-2.1
		C1050,1531.4,1048.9,1473.4,1052.3,1407.8z M835.8,1427.8c58.3-11,118.8-20,181.6-20l1.1,188.3l0,0l0,0l0,0
		c-23.5,5.6-49.3,5.6-71.7,11.2c-46-54.6-84.1-113.7-116.6-174.9L835.8,1427.8z M655.3,1488c43.7-21.1,89.7-36.7,136.7-49l4.6,1.1
		c32.5,61.3,72.8,119.1,113.2,177c-15.8,9-34.8,14.6-50.5,23.5c-73.9-36.7-144.6-88-204-149.2L655.3,1488L655.3,1488z M799.9,1678.5
		c-94.2-24.5-181.6-66.8-262.4-124.7v-3.4c27-16.7,53.9-34.5,83-46.7c63.9,63.4,130,111.3,201.8,157L799.9,1678.5z M1223.7,1686.2
		l-7.9,6.7c-118.6,25.6-251.1,26.6-369.8-2.3l8.9-10C959.2,1612.7,1121.7,1612.7,1223.7,1686.2L1223.7,1686.2z M1533.1,1550.4
		c-62.7,50.1-135.6,83.6-209.6,111.4l-52.7,16.7c-8.8-4.5-16.7-11.1-24.6-17.8l2.1-3.4c71.9-42.3,136.9-93.6,198.5-154.8
		C1477.1,1514.8,1506.2,1531.4,1533.1,1550.4L1533.1,1550.4z"/>
	<path class="st0" d="M72.3,484.3l-69.5,1.2c-1.1,62.7-1.1,125.5,0,188.2c38.2,1.2,74,0,111.1,3.4V1056l-1.2,15.5l-111,2.3
		c-2.3,61.2-2.3,122.5,0,183.8h494.4v-183.8c-37-2.3-78.5,1-114.3-3.4l1.1-391l2.3-3.4l111-1.1c1.2-63.6,2.3-131.4-1.1-189.4
		L72.3,484.3L72.3,484.3z"/>
	<g>
		<path class="st0" d="M1977.1,551.2L1977.1,551.2L1977.1,551.2z"/>
		<path class="st0" d="M2089.1,687.1c-20-53.5-61.5-101.4-111.9-135.9c-145.8-93.6-367.9-100.3-517.9-15.7
			c-81.9,42.3-135.8,126-152.5,211.6c-30.4,141.5-22.5,309.7,85,415.6c125.8,111.3,308.5,135.9,471,90.2c7.7-1.5,32.3-7.8,49-16.8
			l4.8-2.1c50.4-21.1,98.7-55.8,134.4-102.5C2134.1,1009,2139.6,825.2,2089.1,687.1z M1857.1,1004.5c-5.8,26.8-23.8,54.6-52.3,64.7
			c-45.6,20-107.1,14.4-149.2-8.9c-35.4-24.5-39.8-65.7-44.4-104.7c-3.5-76.9-9.2-158.2,12.5-228.5c17.1-43.4,63.8-54.5,106-57.9
			c44.4,0,87.7,6.7,115,42.4l0,0c17.1,25.6,16,59,19.4,89C1862.9,864.2,1868.5,939.9,1857.1,1004.5z"/>
	</g>
	<path class="st0" d="M1026.4,515.6c-123.4-52.4-296-57.9-408.1,23.4c-72.9,53.5-95.3,149.2-76.2,233.9
		c14.6,80.2,90.8,139.2,163.7,167c99.9,35.7,204.1,61.3,304.9,95.9c10.2,4.4,23.6,14.4,21.5,26.7c0,10-10.2,15.6-18.1,20
		c-105.3,29-219.7,6.7-295.9-73.5c-8.9-11.2-14.6-24.5-23.6-35.7l-151.4,1.2c-2.2,90.2-3.4,193.8,0,282.9l168.2-1.1l2.3-53.6
		c19.1,9,38.1,20.1,57.2,30.2c116.6,48.9,266.9,60,382.3,0c84-46.9,129-137.1,116.5-233.9c-12.3-94.7-101.9-180.5-192.7-203.9
		l-271.4-79L785.4,706c-8.9-7.8-14.6-17.8-12.4-30c21.3-36.7,70.7-25.6,107.7-24.5c78.5,11.2,159.1,37.9,205.1,110.3
		c49.4,0,106.5,1.1,160.4-1.1c2.1-91.4-1.2-171.6-2.3-264.1c-50.4-1.1-112.1-1.1-162.5,1.2c-2.3,13.4,2.1,32.2-3.5,45.7
		L1026.4,515.6z"/>
	<path class="st0" d="M1104.8,3.1l-1.2,2.2l-2.1-2.2l0,0c-30.4-3.4-67.3-4.4-99.9-1.2c-12.3-1.1-26.9,0-41.4,1.2
		C691.1,24.3,443.4,163.5,288.7,400.8c11.2-1.2,24.6,3.3,35.8-1.2c26.9-37.8,57.2-74.6,90.8-110.3c29.1-27.9,56.1-54.5,87.5-74.6
		c29.2,18.9,61.6,34.5,89.6,52.3c-34.8,43.5-70.6,86.9-96.4,133.8c7.9,3.3,22.5,2.2,33.7,0c28-41.2,58.3-82.5,94.1-119.2
		c48.3,17.8,95.3,36.7,144.7,50.1l4.4,4.4l-28,64.7c12.3,2.2,20.2,1.1,32.5,0c10.1-19,17.9-40.2,29.1-59
		c65,14.4,133.4,22.2,202.9,24.5c8.9,7.7,2.3,24.5,5.7,34.5h30.1c3.5-11.2-1-23.5,3.5-33.5c65-3.4,133.3-10.1,196.2-25.6l5.6,1.1
		l30.2,58c10.2,0,23.7,2.2,31.5-2.3l-28.1-64.5l2.3-2.3c51.6-13.4,99.8-33.4,149-53.5c34.8,36.7,67.3,80.3,96.6,122.6
		c12.3,0,24.6,1.1,33.5-2.3c-13.7-24.9-29.8-48.4-48.1-70.2c-14.6-21.2-30.4-40-49.4-60.1v-5.6l78.5-45.7l11.3-4.4
		c68.3,52.3,128.9,115.8,176.9,186c13.5,0,24.8,4.5,36-1.1C1620.6,170.3,1372.9,24.3,1104.8,3.1z M618.3,240.4
		c-30.2-11.2-58.3-27.8-85.2-46.8v-2.1c70.6-52.4,149.1-91.3,232.1-118.2l10-6.5v2.1c8.9,2.3,15.8-7.8,23.6-1.1l20.1,15.6l0,0
		C749.5,126.8,681.1,178,618.3,240.4z M789.8,301.7l-4.4,1.1c-46-12.2-90.9-26.7-133.4-45.7l2.3-6.7
		c61.6-58.9,126.6-108,198.4-145.9c16.8,6.6,33.6,12.3,50.4,20.1l0,0l-3.3,8.8C857.1,186.9,823.5,244.9,789.8,301.7z M1012.9,331.7
		c-31.4,4.4-59.4-1.1-90.8-3.4c-30.3-4.4-68.5-7.8-98.7-17.8c32.5-61.3,70.6-120.3,116.5-174.9l71.8,10.1l0,0
		C1015.2,203.6,1012.9,270.5,1012.9,331.7z M858.3,67.8l-17.9-14.5c118.8-27.9,258.9-30.1,376.6,0l0,0v2.2
		C1119.4,126.8,961.3,133.4,858.3,67.8z M1047.7,332.8c-2.3-58.9-1.2-124.7,0-186c22.5-3.4,47.1-6.7,69.4-10
		c43.8,55.7,86.3,112.5,115.6,173.8C1172.1,325.1,1110.6,332.8,1047.7,332.8z M1405.4,254.9c-43.8,18.9-88.7,36.7-136.9,46.8
		c-34.6-59.1-72.7-118.1-115.4-174.9c15.8-8.9,34.8-15.7,51.5-24.5c72.9,36.7,143.5,89.1,202.9,149.3L1405.4,254.9z M1523.1,193.5
		l-77.3,43.6h-5.8c-59.2-60.2-128.8-112.5-199.6-153.8l21.5-18.9c94,24.5,182.7,66.8,263.3,124.7l0,0L1523.1,193.5z"/>
</g>
</svg>
