<?xml version="1.0" encoding="utf-8"?>
<!-- Generator: Adobe Illustrator 25.1.0, SVG Export Plug-In . SVG Version: 6.00 Build 0)  -->
<svg version="1.1" baseProfile="basic" id="Layer_2"
	 xmlns="http://www.w3.org/2000/svg" xmlns:xlink="http://www.w3.org/1999/xlink" x="0px" y="0px" viewBox="0 0 316.4 260"
	 xml:space="preserve">
<style type="text/css">
	.st0{fill:url(#SVGID_1_);}
	.st1{opacity:0.44;}
	.st2{fill:#009444;}
	.st3{fill:#ED1C24;}
	.st4{fill:none;}
</style>
<g>
	
		<radialGradient id="SVGID_1_" cx="157.8005" cy="130.1972" r="90.7934" gradientTransform="matrix(1 0 0 -1 0 259.975)" gradientUnits="userSpaceOnUse">
		<stop  offset="0.3952" style="stop-color:#169D54;stop-opacity:0"/>
		<stop  offset="1" style="stop-color:#009444;stop-opacity:0.4"/>
	</radialGradient>
	<circle class="st0" cx="157.8" cy="129.8" r="90.8"/>
	<g class="st1">
		<path class="st2" d="M233.1,143.2c-0.7-2.4-1.5-3.3-2.1-3.8c0.3-2.8-0.9-4-1.4-4.5c0.3-2.1,0.7-2.9-2.2-11c-1-2.8,0.5-1.5,0.5-1.5
			s2.1,3.1,2.1,5.2c0.2,0.3,0.5,0.7,0.9,1.5c0.3,1,0,2.1,0.3,3.1c0,0.2,0.2,0.2,0.2,0.3c0.2,0.3,1,1.4,1.5,3.8
			c0.3,1.7,0.3,2.2,0.3,7.4C233.1,143.5,233.1,143.4,233.1,143.2 M226.8,122.6c-0.7-1.7-1.7-4.1-2.8-5.2c1.4,1.2,2.6,4.6,2.9,5.3
			C226.9,122.7,226.8,122.7,226.8,122.6 M218.2,107.6L218.2,107.6L218.2,107.6L218.2,107.6L218.2,107.6 M248.6,129.8
			c0-38.9-24.4-72.1-58.8-84.9l0,0c2.4,1,2.4,1,5.3,2.2c0.5,0.2,1.2,0.5,1.9,0.9c-0.5-0.2-1.2-0.5-1.7-0.9c4,1.9,4,1.9,4.3,2.1
			c-2.2-0.9-4.3-2.1-6.5-3.1c0.2,0,9.8,4.3,17,9.3c-1-0.7-2.2-1.4-3.3-2.2c2.1,1.5,4.3,2.9,6.2,4.8c-4.8-3.1-9.3-6.7-14.4-9.3
			c-1.9-0.9-3.8-1.9-5.7-2.6c3.3,1.7,10.1,5.3,12.7,7.1c-1-0.5-1-0.5-6.2-2.8c5,2.9,5,2.9,5.8,3.6c-0.5-0.3-1.2-0.7-1.7-1
			c0.2,0.5,0.5,1,0.9,1.4c-0.5-0.2-1-0.5-1.4-0.9c-0.2,0.9-0.2,1.2,1.7,2.9c-1.7-0.5-2.8-2.1-4.3-2.8c1.5,1.7,3.4,2.8,5.2,4.3
			c-0.2,0-0.5,0-0.7,0c0,0.9,0,0.9,2.2,3.1c-1,0-1,0-2.4-1c0.5,0.9,1.4,1.2,1.9,2.1c-0.2,0-0.2,0-7.7-5.5c4.1,1.4,4.1,1.4,4.3,1.4
			c0-0.2,0-0.5,0.2-0.9c-1.4-1.5-15-9.5-15.3-5.3l1,15.5c0,0.3,1.7,6.9,4.3,5.7c0.9-0.3,0.9-1.4,1.5-1.9c4,5.5,5,6.7,5.3,6.7
			c0.7-1.4,0.7-1.4,1.5-1.7c-0.5-1.2-1.2-2.9-1.7-4.3c0.2-0.2,0.5-0.3,0.7-0.5c-0.5-3.3-4.1-5.5-3.3-9.3c-1.2-1.7-1.2-1.7-1.7-2.9
			c0.2-0.2,0.5-0.3,0.7-0.3c3.3,1.7,2.6,4.3,2.2,5.3c3.4,5.2,4.3,6.5,6.9,4.6c0.5,0.2,1.2,0.5,1.5,0.9c-0.9,0.9-2.2,0.5-3.3,1
			c0.2,1.9,2.4,2.4,2.9,4.1c-0.3,0.5-0.3,0.5-0.3,0.5l0,0l0,0l0,0l0,0l0,0l0,0l0,0c-0.3-0.5-0.9-0.9-1.2-1.2c-0.2,0-0.5,0.2-0.9,0.2
			c0,1.2,0.9,2.8,1.4,4c-0.2,0.3-0.3,1-0.3,1.5c-0.5-0.2-1.2-0.5-1.5-0.7c-0.2,0.2-0.5,0.2-0.7,0.3c-0.9,2.2-5.5,1.2-6.2-0.3
			c-0.7-1.5-0.9-3.3-1.5-4.8c-0.5,0.7-0.5,0.7,1,6.4c-3.4,1.9-2.9,7.2-7.4,8.1c-0.9,1.4-2.8,0.7-3.6,1.9c1.4,2.8,6.9,4,4.8,7.7
			c-2.4,0.5-5.2-0.7-7.6,0.7c-0.3,1.5,0.2,3.8,0.3,5.3c-0.3,0.3-0.7,1-0.7,1.5c0.3,0.2,0.7,0.3,1,0.5c0,0.7,0.2,1.4,0.2,2.1
			c1.5,0,2.4,2.6,4.3,1.5c1.5-0.9,3.4-0.5,4.8-1.9c1.9-1.9,1.7-5,3.6-6.9c0-0.9-0.2-1.5-0.3-2.2c5.8-1.5,5.8-1.5,6-1.7
			c9.8,8.4,8.8,9.1,4.5,9.8c1,0.7,2.2,1.5,3.3,2.2c-0.3-1.9,2.2-3.6,0.5-5.7c0.2-0.2,0.5-0.3,0.7-0.5c0.2,0.2,0.5,0.3,0.7,0.3
			c-0.3-1.4-1.9-1.9-2.4-3.1c-0.2,0-0.5,0.2-0.7,0.3c-1.7-1.4-3.1-3.6-3.6-4.8c0.3-0.3,0.9-0.7,1.4-0.7c5,4.6,5,4.6,5.8,5.3
			c1.2,5,5,8.4,5,8.4c0.2-0.3,0.3-1,0.2-1.5c1,0.2,1,0.2,1.7,0.2c-0.7-0.5-1.5-1.2-2.8-3.3c0.2,0,0.5-0.2,0.7-0.2
			c0.2-0.5,0.2-1,0-1.5c3.8,1,2.6,6.2,6.2,7.4c0.3-0.3,0.7-1,0.9-1.5c1.4,1.9,1.7,1.5,3.3,0.7c2.6,1.4,0.7,7.9-0.7,8.3
			c-4,0.9-6.9-3.4-10.8-2.4c-0.2,0.7-0.2,0.7-0.3,2.9c-0.2,0.2-0.5,0.3-0.7,0.5c-2.6-0.7-9.5-4.6-9.5-4.6c0-6,0-6-7.9-4.6
			c-9.1,1.5-9.1,1.5-9.3,1.5c-0.9,0.7-1.4,1.5-1.9,2.2c-0.2,0.2-0.2,0.2-0.2,0.2l0,0l0,0l0,0l0,0l0,0l0,0l0,0l-11.9,17.9
			c1.5,3.3,1.5,3.3,0,9.1c-1.2,4.5,8.3,12,8.3,12c0.9,0.7,2.1,1.5,3.1,1.7c0.3,0,0.7-0.2,1-0.2c1.9-0.5,10-2.1,10-2.1
			c2.8,0,4.8,2.1,7.4,2.1c-0.2,3.3-2.1,6.5-0.5,10c1.4,3.1,1.2,5,0.7,7.7c-0.5,3.3-3.3,5.5-4.1,8.6c-0.7,2.2,0.3,4.5-0.3,6.5
			c-1,3.1-1,6.5-2.4,9.6c0.2,0.2,0.2,0.5,0.3,0.7c6.5-1.5,6.5-1.5,9.3-3.6c4.1-3.3,16-16.2,16.5-17c2.9-3.6,2.1-8.4,4.3-12.4
			c2.6-4.6,7.4-7.7,9.6-12.6c1.5-3.3,1.9-5.2,1.9-7.4c-2.1,1.9-3.1,2.1-4.5,2.2c0-0.5-0.2-1.2-0.3-1.9c8.6-8.1,14.3-13.4,8.3-17.2
			c0-0.7-0.2-1.7-0.2-2.6c-0.2,1.5-0.2,2.8-2.2,3.1c-0.7-2.6-2.2-5-2.2-7.7c0.2-0.2,0.5-0.3,0.7-0.5c1.4,1.5,1.4,3.6,2.8,5
			c0.2-0.2,0.5-0.3,0.9-0.3c0-0.2,0.2-0.5,0.2-0.9c0.7,1.9,0.7,1.9,4.3,2.8c0.3,1.4,0.5,2.8,1.2,4c-0.2,0.5-0.2,1.2-0.2,1.7
			c0.2-0.2,0.3-0.3,0.5-0.5c0,0.2,0,9.6-1,17.5c0.9-1.9,1.4-6,2.2-11.9C248.4,134.4,248.6,132.2,248.6,129.8"/>
		<path class="st2" d="M190.5,82.5c0,0.9-0.2,1.5,0,2.4c0,0.2,0.3,0.5,0.5,0.7c0.3,0.3,0.2,0.5-0.7,0.5c-3.8,0.3-4.8,0.5-6.5,1.5
			c1.4-2.1,1.5-2.2,1.7-2.4c-0.3-0.5-1.2-0.7-1.2-1.5c0-0.3,0.5-0.2,0.9-0.3c0.2-0.2,0-0.3,0-0.5c-0.2-0.3-0.3-0.9-0.2-1.2
			c0.2-0.3,0.9-0.2,0.9-0.5c0-0.2-0.5-1.4-0.5-1.4c-0.2-0.2-0.3-0.9-1.7-0.5c-0.2-0.2-0.2-0.3-0.3-0.5c-0.3-0.7-0.2-1.4-0.5-2.1
			c-0.2-0.2-0.2-0.3-0.7-0.3c-0.5-0.2-0.7-0.3-0.7-1c-0.3-2.4-0.2-2.8,1.4-3.3c0.5,0.7,0.3,1.4,0.2,1.9c-0.2,0.3-0.2,0.5,0,0.5
			c0.7,0.7,1.4-1.2,1.9-0.3c0.2,0.3,0.2,0.7,0,1.5c-0.2,1-0.3,1.9,0.9,1.5c1.2,2.1,1.2,2.1,1.7,2.4c0.7,0.5,1.4,1.2,1.9,2.9
			C189.4,82.3,190,82.3,190.5,82.5L190.5,82.5"/>
		<path class="st2" d="M182.4,79.7c0,0.3-0.2,0.5-0.5,1c0.5,1.7,0.3,2.4,0.2,2.6c0,0.2-0.2,0.3-0.3,0.3c-0.3,0.3-0.9,0.2-1.2,0.5
			c-0.3,0.2-0.2,0.7-0.5,0.9c-0.2,0-0.2,0-0.2,0c-0.2,0-0.9-0.5-0.9-0.9c0-0.2,0-0.3,0.2-0.5c0.7-1.2,0.7-2.1,0.7-2.1
			c0-0.2,0-0.2-0.3,0c-0.3,0.2-0.9,0.5-1.2-0.7c-0.2-0.5,0.3-0.7,0.5-0.7c0.5-0.2,1,0,1.5-0.3c0-0.5-0.5-0.9-0.5-1.5
			c0-0.5,0.5-0.5,0.7-0.5C181.4,78.2,182.4,79.1,182.4,79.7"/>
		<path class="st2" d="M170,60c0.2,0.7,0,1.4,0,1.4c-0.2,0.2-0.3,0-0.5,0.2c-0.3,0.3-0.5,0.9-1,1.4c0,0-0.3,0.3-0.9,0.5
			c-0.5,0.2-0.9,0.2-1.2,0c-0.7-0.2-1.4-0.7-2.1-0.7c-0.5,0-0.9,0-0.9-0.2l0,0c0.2-0.3,0.9-0.3,0.7-0.9c-0.2-0.3-0.7-0.7-1.4-0.9
			c1.4,0,1.2-0.9,0.9-1c-0.2-0.2-0.5-0.2-0.9-0.2c-0.3,0-0.7,0-0.9,0c-0.2-0.2,0-0.9,0.5-0.9c0.2,0,0.3,0,0.9,0.2
			c-0.3-0.5-1-1.2,0-1.2c0.7,0.5,0.7,0.5,0.9,1.2c0,0.3,0.3,0.5,0.5,0.5h0.2c0.3-0.2,0.5-0.5,0.9-0.7c0.3-0.2,0.7-0.2,1-0.3
			C166.7,58.2,169.5,57,170,60"/>
		<path class="st2" d="M246.2,150.1c-0.2,0.5-0.3,1.2-0.3,1.4c0-0.2,0.9-4.3,0.9-4.3C246.7,148.3,246.4,149.7,246.2,150.1"/>
		<path class="st2" d="M227.3,175.7c-0.9,1.7-7.9,12.2-9.8,11.9c0-0.2,0-0.7,1.5-3.6c0.5-0.9,1.4-1.5,2.1-2.4c0.7-1,1-2.2,1.5-3.3
			c0-0.2,0.2-0.2,0.2-0.3c0.3-0.3,0.7-0.5,1.2-0.7c0.7-0.2,1.4-0.7,2.2-1.5c0.7-0.7,1-1.7,1.7-2.4c0,0,0,0,0.2,0
			C228.5,173.5,228.1,174.1,227.3,175.7"/>
		<path class="st2" d="M176,40.9c4.1,0.9,8.3,2.4,9.8,3.1c4.1,1.7,8.1,4,12.2,5.8c-0.9,0-1.4,0-5.5-2.1c-1.9-0.9-3.6-2.1-5.5-2.8
			c-8.4-3.1-8.4-3.1-10.1-3.6c0.2,0,0.3,0,0.3,0c-1.2-0.5-2.4-0.5-3.6-0.9C174.1,40.5,175.3,40.9,176,40.9"/>
		<path class="st2" d="M150.8,168.5c-0.2,1-5.3,14.3-5.5,14.3c-1.5,2.6-7.6,1.9-6.5,5.8c0.9,3.1-2.4,7.6-2.4,7.6
			c-0.7,0.9-1,1-2.4,0.5c0,0.3,0,0.7,0,0.9c0.2,0,0.5,0.2,0.9,0.3c0.9,1.5,0.7,1.7,0.2,2.9c-0.5,0.2-1.2,0.2-1.7,0.2
			c-0.2,0.2-0.3,0.5-0.5,0.7c0.2,0.3,0.3,0.7,0.3,0.9c-0.2,0.2-0.5,0.3-0.7,0.5c0,0.3,0,0.7,0,0.9c1.2,0.3,1.2,0.3,1.7,2.6
			c-0.2,0-0.5,0.2-0.9,0.2l9.5,8.3c-1.7,0.5-6.5,0.5-15.5-11.7c0.2,0.5,0.5,1.2,0.7,1.7c-0.9-0.5-1-0.7-4.3-6
			c-4-6.4-2.2-15.3-8.9-20.5c-6-4.6-13.6-10.5-12.7-15.3c1.5-10.5,0.5-12.4-0.9-14.6c-0.7,0.2-0.7,0.2-1.9,1.7
			c-3.4-3.4-8.1-5.5-10.8-9.6c-2.2-3.1-7.1-2.8-9.1-6.2c0,0-3.6-11.7-4.1-16.9c-3.1,4.3,1.5,7.7,1.2,11.7c-1.4-2.1-1.4-4.6-2.4-6.7
			c3.1-6.5-1.9-13.1,0-19.6c0.5-2.1,0.9-2.9,1.9-5.2l4.6-11c-0.5-2.1,6.4-13.1,9.8-17.4l0,0c1.2-1.2,2.4-2.6,3.6-3.8
			c3.3-3.3,6.9-6.4,10.5-9.1c2.6-1.9,5.2-3.6,8.1-5.2c-0.5,0.3-1.5,1-3.4,2.1c5-2.6,5-2.6,5-2.6c-0.3,0.2-0.3,0.2-2.9,2.1
			c0.9-0.3,1.5-0.9,2.4-1.2c-1.7,2.4-1.7,2.4-3.1,3.3c0.9,0.2,1.7,0.5,4.5-1.4c-0.2,0.3-0.5,0.7-0.7,1c0.2,0.2,0.3,0.5,0.5,0.7
			c2.2-0.7,3.6-2.6,5.7-3.6c-0.2,0.3-0.2,0.3-2.6,2.8c3.4-1.7,5.8-5.2,9.5-6.5c-2.4,1.9-4.5,4.3-6.9,6c0.5-0.3,1.2-0.7,1.7-1
			c-0.5,0.9-0.5,0.9-2.9,2.9c2.9-0.5,4.3-3.4,6.7-4.5c0,0.3,0,0.7,0,1c-1,1-1,1-10.8,7.2c0.2,0.2,0.3,0.5,0.5,0.7
			c-4.1,4-10.3,5.3-12.6,11.2c0.3,0,0.7,0,0.9,0c0,0.9,0,0.9-1.4,3.1c0.5,0,1.2,0,1.7,0.2c1.5,3.3,1.5,3.3,2.8,3.3
			c-0.3,1-0.9,2.6-1.2,3.8c0.2,1.7,0.2,1.7,0.9,2.8c1.9-0.3,5.7-7.7,5.8-7.7c1.2-2.4,1-4.3,1-5.3c2.6-2.1,3.4-6,7.4-6.4
			c0.7,1.9,0.7,1.9,1.5,2.2c-0.3,1.2-0.9,2.8-1.4,3.8c0.3,0.3,1,0.7,1.5,0.9c1.4-0.7,1.7-2.1,2.9-2.9c1.7,2.9-0.9,7.9,3.6,9.5
			c-0.9,2.9,0.3,6.4-1.4,9.1c0.7,0.3,0.7,0.3,2.6,0.2c0.2,0.3,0.3,0.9,0.5,1c-0.7,1.7-0.7,1.7-6.5,2.2c1-1.9,2.4-4.3,3.4-6.2
			l-8.9,1.2c0,0-1.5,0.9-5.8,5.7c4-3.8,4.8-3.8,6.4-3.8c0.2,0.2,0.3,0.5,0.5,0.9c-0.3,0.5-1.2,0.9-1.7,1c0.3,0.9,0.3,0.9,0.2,2.9
			c0.9,0.3,1.5,1,2.4,1.5c0.9-0.5,1.4-1.2,2.1-1.7c0,0.3,0.2,0.7,0.3,1c-1,1.7-2.4,2.4-6.4,3.8c-0.2-1.4-0.2-1.4,0.9-3.1
			c-0.5,0.3-1.2,0.7-1.7,0.9l0,0c0,0.3-0.2,0.7-0.2,0.9c-5,2.1-8.6,7.6-8.6,7.7c-8.8,15.6-8.8,15.6-7.9,21.8c-0.3,0-0.9-0.2-1.2-0.3
			c-1-2.2-0.3-4.6-1-6.9c-3.3,0-3.3,0-4.8-0.7c-0.3,0.3-0.7,1-0.9,1.5c-0.7,0.2-0.7,0.2-3.8-0.3c-6.5,11.5-0.5,17,1.5,16.2
			c1.7-0.9,2.1-5.3,4.3-3.8c-0.3,2.4-0.7,4.6-0.9,7.1c1.4,1,3.1,0.3,4.5,1c1.4,7.7,1.4,7.7,1.9,8.3c3.8-0.5,3.8-0.5,4.6,0.3
			c0.9-0.9,0.9-0.9,1-3.1c1.9,0.2,3.3-1.4,5-1.9c4.1,2.6,9.3,3.3,13.1,6.4c0.9,0.7,1.7,1.4,2.4,2.1c1.9,1.5,4.5,0.7,6.4,2.1
			c1.5,1.2,0.7,3.8,2.6,4.8l16.5,6.2C150.2,165.5,150.9,166.2,150.8,168.5"/>
		<path class="st2" d="M160.4,40.4C160.4,40.5,160.4,40.5,160.4,40.4c-0.3,0.2-0.5,0.2-0.5,0.5c0.3,0.5,1,0.5,1.4,1
			c0.3,0.5,0.5,1.2,0.9,1.9c-0.2,0.2-0.2,0.2-0.3,0.3c0,0.3,0.3,0.7,0.2,1c-0.3,0.2-0.7,0.2,0,1.4c0,0,1.5,3.6,0.3,5
			c-0.7,0.9-2.6,2.9-5.7,2.8c-0.7,0-0.9,0-0.9,0.2c-0.3,0.3-0.2,1-0.5,1.4c-0.2,0.3-0.5,0.5-1.7,1.7c-0.2,0.2-0.3,0.3-0.5,0.3
			c-0.5,0.5-0.9,0.7-2.1,1.2c-2.6,1.2-3.1,1.7-2.9,2.9c0,0.9,0,0.9-0.2,1c-0.2,0.2-0.5,0.5-0.9,0.7c-0.3,0.2-0.5,0.3-0.9,1.7
			c-0.5,2.2-0.9,3.4-2.1,4c-0.5,0.2-2.1-0.3-1.9-1.5c0-0.2,0-0.3,0-0.3c-0.7-0.3-1.4,0.3-2.1,0l-0.2-0.2c0,0-1.7-7.1,0-10.8
			c1.2-2.8,2.1-2.9,2.6-3.1c0.7-0.2,1.9-1.4,1.9-2.2c-1.4-1.4-1.4-1.4-1.4-1.7c0.7,0,1,0.9,1.7,0.7c0.5-0.9,0.2-1.9,0.3-2.8
			c-0.7,0-0.9,0.9-1.4,1.2c0-0.2,0-0.2,5.2-7.1c-0.5-0.7-1.2-0.3-1.7-0.2c0.3-0.7,4.3-2.6,11-2.8l0,0
			C157.8,39.2,160.2,40.2,160.4,40.4"/>
	</g>
	<g>
		<path class="st2" d="M185.3,246c2.1-0.5,2.9-0.7,5-1.4l0,0c-1.5-2.2-2.4-3.3-3.8-5.5C186.2,241.9,185.8,243.3,185.3,246z"/>
		<path class="st2" d="M52.7,79.7c-1.7-0.7-2.9-1-3.8-0.7c-0.9,0.2-1.5,1-2.2,2.2l-0.5,1.2l0,0l8.8,4l0.5-1.2c0.5-1,0.7-1.9,0.7-2.4
			c0-0.5-0.3-1-0.7-1.5C54.8,80.8,53.9,80.3,52.7,79.7z"/>
		<path class="st2" d="M111,231.1c-0.2-0.2-1-0.5-2.4-1.2c-1-0.5-1.5-0.7-2.6-1.4c-0.7,1.5-1,2.4-1.7,4l0,0c1,0.5,1.5,0.9,2.4,1.4
			c1.5,0.9,2.6,1.2,3.1,1.4c0.5,0,0.9,0,1.2-0.2s0.7-0.5,0.9-1c0.2-0.5,0.2-1,0-1.5C111.9,231.7,111.5,231.4,111,231.1z"/>
		<path class="st2" d="M225.7,220.2c-1.2-0.2-2.6,0-3.8,1c-1.2,1-2.1,2.1-2.4,3.4c-0.3,1.4-0.2,2.9,0.9,4.6l0,0
			c0.9,1.7,2.1,2.8,3.3,3.1c1.4,0.3,2.8,0,4-1c1.4-0.9,2.2-2.1,2.4-3.6c0.3-1.4,0-3.1-1-4.6C228.1,221.3,226.9,220.4,225.7,220.2z"
			/>
		<path class="st2" d="M64.3,54.8c-0.5-0.3-0.9-0.5-1.4-0.3s-1,0.5-1.5,1.4L60,57.7l2.8,2.1l0,0l1.4-1.7c0.2-0.2,0.3-0.7,0.7-1.4
			c0.2-0.3,0.2-0.7,0.2-1C64.8,55.3,64.6,55,64.3,54.8z"/>
		<path class="st2" d="M158.1,0c-71.7,0-130,58.3-130,130c0,71.9,58.3,130,130,130c71.9,0,130-58.3,130-130
			C288.3,58.2,230,0,158.1,0z M284,130.6l-3.8,0.2l-0.5-9.1l-2.8,0.2l0.5,8.4l-3.6,0.2l-0.3-8.4l-3.4,0.2l0.5,9.3l-4,0.2l-0.9-14.6
			l17.5-1L284,130.6z M282.8,112.1l-4.3,0.9l-1.2-5.3l-12.9,2.8l-1.2-5.3l12.9-2.8l-1.2-5.3l4.1-0.9L282.8,112.1z M276.1,85.8
			c0.9,2.1,1,3.8,0.7,5.2c-0.3,1.4-1.4,2.6-2.9,3.4l-2.1-4.6c0.7-0.3,1-0.9,1.4-1.4c0.2-0.5,0.2-1.2-0.2-1.9c-0.2-0.5-0.5-1-0.9-1.2
			c-0.3-0.2-0.7-0.2-1-0.2c-0.3,0.2-0.5,0.3-0.5,0.7c-0.2,0.3-0.2,1,0,1.9c0.3,2.4,0.5,4.1,0.3,5.3s-0.5,2.1-1,2.8
			c-0.5,0.7-1.4,1.2-2.2,1.5c-1,0.3-2.1,0.5-3.3,0.2c-1.2-0.2-2.1-0.9-2.9-1.7c-0.9-0.9-1.5-2.1-2.2-3.6c-1-2.8-1.2-5-0.5-6.4
			c0.7-1.5,1.7-2.6,3.4-3.4l0,0l0,0l0,0l2.1,4.6c-0.7,0.3-1.2,0.9-1.5,1.4c-0.5,0.9-0.5,1.7-0.2,2.6c0.3,0.7,0.7,1.2,1,1.4
			c0.5,0.3,1,0.3,1.4,0.2s0.7-0.5,1-1c0.2-0.5,0.2-1.4,0-2.9c-0.3-2.4-0.3-4.3,0.2-5.5c0.5-1.2,1.4-2.1,2.6-2.6
			c0.9-0.3,1.7-0.3,2.6-0.2c0.9,0.2,1.7,0.7,2.6,1.5C274.7,82.8,275.4,84,276.1,85.8z M266.1,65.8l-3.4,6l6.9,0.2l2.9,5.2l-12.2-0.9
			l-6.4,3.6l-2.6-4.8l6.4-3.6l5.5-10.8L266.1,65.8z M245.7,61.3c0.5,0.5,1,1,1.5,1c0.5,0,1,0,1.4-0.3c0.3-0.3,0.5-0.7,0.5-1.2
			s-0.3-1.5-0.9-2.8c-1-2.2-1.5-4-1.4-5.3c0-1.4,0.5-2.4,1.7-3.3c0.7-0.5,1.5-0.9,2.4-1s1.9,0.2,2.9,0.7c1,0.5,2.1,1.5,3.3,2.9
			c1.4,1.7,2.1,3.4,2.2,4.8s-0.5,2.8-1.7,4.1l-3.4-3.8c0.5-0.5,0.9-1.2,0.9-1.7s-0.2-1.2-0.7-1.7c-0.3-0.5-0.9-0.7-1.2-0.9
			c-0.3-0.2-0.7,0-1,0.2c-0.2,0.2-0.3,0.3-0.3,0.7c0,0.3,0.2,1,0.7,1.9c1,2.1,1.7,3.8,1.9,5c0.2,1,0.2,2.1-0.2,2.9
			c-0.3,0.9-0.9,1.5-1.5,2.1c-0.9,0.7-1.9,1.2-2.9,1.2c-1.2,0-2.2-0.2-3.3-0.7s-2.1-1.5-3.3-2.8c-1.9-2.4-2.6-4.3-2.4-6
			c0.2-1.5,0.9-2.9,2.2-4.3l0,0l3.4,3.8c-0.5,0.5-1,1.2-1,1.7C244.8,59.6,245,60.5,245.7,61.3z M243.3,37.4l-2.4,2.9l-6.2-5
			l-1.9,2.4l5.3,4.3l-2.2,2.8l-5.2-4.3l-4.5,5.5l-4.1-3.4L233.3,29L243.3,37.4z M209.4,24.5c1.4-2.4,3.3-4,5.5-4.5s4.5-0.2,6.9,1.4
			c2.6,1.5,4.1,3.3,4.6,5.5c0.5,2.1,0.2,4.5-1.2,6.9c-1,1.7-2.2,3.1-3.4,3.8c-1.2,0.7-2.6,1.2-4.1,1c-1.5,0-3.1-0.5-4.8-1.5
			c-1.7-1-2.9-2.1-3.8-3.3c-0.9-1.2-1.2-2.6-1.2-4.1C207.8,28.2,208.4,26.4,209.4,24.5z M186.9,7.5l8.6,2.6c1.5,0.5,2.8,1,3.6,1.5
			c0.7,0.5,1.2,1.2,1.5,2.1c0.3,0.9,0.3,1.9,0,2.9c-0.3,0.9-0.7,1.7-1.4,2.2c-0.5,0.5-1.4,0.9-2.1,1.2c-0.5,0.2-1.2,0.2-2.1,0.2
			c0.5,0.3,1,0.7,1.2,1c0.2,0.2,0.3,0.5,0.5,1c0.2,0.5,0.3,1,0.3,1.2l1,5.5l-5.8-1.7l-1.2-6c-0.2-0.7-0.3-1.2-0.5-1.5
			c-0.3-0.3-0.7-0.7-1.2-0.9l-0.5-0.2l-2.1,6.9l-5.2-1.5l0,0l0,0l0,0L186.9,7.5z M154.7,4.4c1.7,0,2.9,0,3.8,0.3
			c0.9,0.3,1.7,0.9,2.2,1.5c0.5,0.9,0.9,1.7,0.9,2.8s-0.2,1.7-0.5,2.6c-0.3,0.7-0.9,1.4-1.7,1.7c-0.3,0.3-1,0.5-1.9,0.9
			c0.7,0.2,1.2,0.3,1.4,0.5c0.2,0.2,0.5,0.3,0.9,0.9c0.3,0.5,0.7,0.9,0.9,1l2.2,4l8.1-15.5l5.8,0.7l4.5,18.1l-5.7-0.7l-0.5-2.9l0,0
			l-6-0.9l-1.2,2.9l-5-0.7l-5.5,0.2l-3.1-5.2c-0.3-0.7-0.7-1-1-1.4c-0.3-0.2-0.9-0.3-1.4-0.3h-0.5l0.3,7.1l-5.3,0.3l0,0l0,0l0,0l0,0
			l-0.7-17.5L154.7,4.4z M141.5,5.3l0.9,4.3l-5.3,1l2.6,12.9l-5.3,1l-2.6-12.9l-5.3,1l-0.9-4.1L141.5,5.3z M109.7,16.5
			c0.2-0.9,0.7-1.7,1.5-2.6s2.1-1.5,3.8-2.1c2.1-0.9,3.8-1,5.2-0.5c1.4,0.3,2.6,1.4,3.3,3.1l-4.6,2.1c-0.3-0.7-0.9-1-1.4-1.4
			c-0.5-0.2-1.2-0.2-1.9,0.2c-0.5,0.2-1,0.5-1.2,0.9s-0.3,0.7-0.2,1c0.2,0.2,0.3,0.5,0.7,0.5c0.3,0.2,1,0.2,1.9,0
			c2.6-0.5,4.3-0.5,5.5-0.5c1.2,0.2,2.1,0.5,2.8,1c0.7,0.5,1.2,1.2,1.5,2.2c0.3,1,0.3,2.1,0.2,3.3c-0.2,1-0.9,2.1-1.7,2.9
			c-0.9,0.9-2.1,1.5-3.6,2.1c-2.8,1-5,1.2-6.4,0.5c-1.5-0.7-2.6-1.9-3.3-3.4l0,0l4.6-2.1c0.3,0.7,0.9,1.2,1.4,1.5
			c0.7,0.5,1.7,0.5,2.6,0.2c0.7-0.3,1.2-0.7,1.5-1c0.3-0.5,0.3-1,0.2-1.4c-0.2-0.3-0.5-0.7-1-0.9c-0.5-0.2-1.5-0.2-2.9,0
			c-2.4,0.3-4.1,0.2-5.5-0.3c-1.2-0.5-2.1-1.4-2.6-2.6C109.5,18.2,109.5,17.3,109.7,16.5z M104,16.6l7.9,15.6l-4.8,2.4L99.2,19
			L104,16.6z M84.4,29c0.7-1.2,1.7-2.2,3.4-3.4c1.5-1,2.9-1.7,4-2.1s1.9-0.3,2.9,0c0.9,0.2,1.9,0.7,2.8,1.5l-3.8,3.6
			c-0.5-0.3-1.2-0.7-1.7-0.7c-0.5,0-1.2,0.2-1.9,0.7c-1,0.7-1.5,1.5-1.7,2.6c-0.2,1,0.3,2.4,1.4,3.8c1,1.5,2.1,2.4,3.1,2.8
			c1,0.3,2.1,0,3.1-0.7c0.5-0.3,1-0.7,1.4-1.2c0.3-0.5,0.7-1,1-1.9l-0.9-1.4l-2.9,2.1l0,0l-2.1-3.1l6.9-4.6l4.1,6.2
			c-0.7,1.7-1.5,3.3-2.2,4.3c-0.9,1-1.9,2.1-3.3,2.9c-1.7,1.2-3.3,1.9-4.8,2.1s-2.9-0.2-4.3-0.9c-1.4-0.9-2.6-1.9-3.6-3.4
			c-1-1.5-1.7-3.3-1.9-4.8C83.2,31.9,83.5,30.4,84.4,29z M77,33.8l2.6,2.8L73,42.9l1.9,2.1l6-5.8l2.4,2.6l-6,5.7l2.4,2.4l6.7-6.4
			l2.8,2.9L78.5,56.5l-12-12.7L77,33.8z M59.3,52.7c1-1.4,1.9-2.2,2.6-2.8c0.9-0.5,1.5-0.7,2.6-0.7s1.9,0.3,2.8,1
			c0.7,0.7,1.4,1.2,1.5,2.1c0.3,0.9,0.3,1.5,0.3,2.4c0,0.5-0.2,1.2-0.5,1.9c0.5-0.3,1-0.7,1.4-0.7c0.2,0,0.7-0.2,1.2-0.2
			c0.5,0,1,0,1.4,0l5.7,1l-3.6,4.8l-6-1c-0.7-0.2-1.4-0.2-1.7,0c-0.5,0.2-0.9,0.3-1.2,0.7l-0.3,0.5l5.7,4.3l-3.3,4.3l0,0L53.8,59.8
			L59.3,52.7z M40.4,85.8L40.4,85.8l3.3-7.4c0.7-1.4,1.4-2.6,2.2-3.3c0.9-0.7,1.7-1.2,2.6-1.4c1-0.3,2.1-0.3,3.1-0.2
			c1,0.2,2.2,0.5,3.3,1c1.7,0.9,2.9,1.5,3.8,2.4c0.7,0.9,1.4,1.7,1.7,2.8c0.3,1,0.3,1.9,0.3,2.8c-0.2,1.2-0.5,2.2-0.9,3.1l-3.3,7.2
			L40.4,85.8L40.4,85.8L40.4,85.8z M38.6,90.4l3.6,1l-2.4,8.8l2.6,0.7l2.4-8.1l3.4,0.9l-2.1,8.1l3.3,0.9l2.4-9.1l3.8,1l-3.8,14.3
			L35,104.5L38.6,90.4z M34.2,108.3l4.3,0.5l-0.5,5.5l13.1,1.4l-0.5,5.3l-13.1-1.4l-0.5,5.5l-4.3-0.5L34.2,108.3z M50,128.2v5.3
			l-17.5,0.3v-5.3L50,128.2z M34.2,150.4l8.8-7.7l-9.6,1.2l-0.7-5.2l17.4-2.4l0.7,5l-8.6,7.7l9.5-1.2l0.7,5l-17.5,2.6L34.2,150.4z
			 M41.2,176.7l-1.7-5.2l10.1-3.3c0.9-0.3,1.5-0.9,1.9-1.4c0.3-0.7,0.3-1.4,0-2.4c-0.3-0.9-0.7-1.5-1.4-1.9c-0.7-0.3-1.4-0.3-2.4,0
			l-10.1,3.3l0,0l-1.7-5.2l10-3.1c1-0.3,1.9-0.5,2.9-0.5c0.9,0,1.9,0.2,2.8,0.7c0.9,0.5,1.5,1,2.1,1.5c0.7,0.9,1.2,2.1,1.7,3.4
			c0.3,0.9,0.5,1.7,0.7,2.8c0.2,1,0.2,1.9,0.2,2.6c-0.2,0.7-0.3,1.5-0.9,2.2c-0.3,0.7-0.9,1.4-1.5,1.7c-1,0.7-1.9,1-2.8,1.4
			L41.2,176.7z M60.1,186.4c-0.2,1-0.7,1.9-1.4,2.6c-0.9,0.7-1.9,0.9-2.9,0.9c-1-0.2-1.9-0.7-2.6-1.5s-1-1.9-0.9-2.9
			c0.2-1,0.7-1.9,1.5-2.6l0,0c0.9-0.7,1.7-0.9,2.9-0.9c1,0.2,1.9,0.7,2.8,1.4C60,184.3,60.3,185.3,60.1,186.4z M54.6,129.9
			c0-57.3,46.4-103.5,103.5-103.5c57.3,0,103.5,46.4,103.5,103.5c0,57.3-46.4,103.5-103.5,103.5C101.1,233.6,54.6,187.2,54.6,129.9z
			 M76.5,223.3c-1.5-0.2-3.3-1.2-5-2.8c-2.1-1.9-3.3-4.3-3.4-6.7c-0.3-2.4,0.5-4.6,2.2-6.5c1.9-2.1,3.8-2.9,6-2.9c2.1,0,4.1,1,6,2.9
			c1.7,1.5,2.8,3.3,3.1,5.2c0.2,1.2,0.2,2.4-0.3,3.8c-1.4-0.7-2.1-1.2-3.4-1.9c0.3-0.9,0.3-1.7,0.2-2.6c-0.2-0.9-0.7-1.7-1.5-2.4
			c-1-1-2.1-1.5-3.3-1.4c-1.2,0-2.4,0.9-3.8,2.2c-1.4,1.5-2.1,3.1-1.9,4.5s0.7,2.6,1.9,3.6c0.9,0.9,1.7,1.2,2.6,1.4
			c0.9,0.2,1.9-0.2,2.9-1l0,0c0.9,1.4,1.4,2.1,2.4,3.4C79.6,223.2,78,223.7,76.5,223.3z M95.2,235.2c-0.5,1-0.7,1.5-1.4,2.6
			c-5.3-3.3-7.9-5-12.9-8.9l0,0c3.6-5.7,5.5-8.4,9.1-14.1c4.3,3.4,6.5,5,11,7.7c-0.5,1-0.9,1.5-1.4,2.6c-3.4-2.1-5-3.3-8.3-5.7
			c-0.9,1.2-1.2,1.9-1.9,3.1c3.1,2.4,4.6,3.4,7.9,5.5c-0.5,1-0.9,1.5-1.4,2.6c-3.3-2.1-5-3.1-8.1-5.5c-0.9,1.5-1.4,2.4-2.4,4
			C89.5,231.6,91.4,232.8,95.2,235.2z M115.5,235c-0.3,1.2-1.2,2.1-2.2,2.6c-1,0.5-2.4,0.5-4,0c0.5,0.7,1,1.5,1.4,2.2
			c0.3,0.7,0.7,1.9,1,3.4c0.3,1.5,0.7,2.4,1.2,4.1c-1.7-0.7-2.6-1-4.5-1.9c-0.5-1.9-0.9-2.8-1.4-4.6c-0.3-1.7-0.7-2.8-0.9-3.3
			c-0.2-0.5-0.5-0.9-0.9-1.2c-0.3-0.3-0.9-0.7-1.7-1c-0.3-0.2-0.3-0.2-0.7-0.3c-1.2,2.6-1.7,4-2.9,6.5c-1.4-0.7-2.1-1.2-3.6-2.1l0,0
			c2.9-6.2,4.3-9.1,7.2-15.3c2.6,1.5,4,2.2,6.7,3.6c1.7,0.9,2.9,1.5,3.6,2.2c0.7,0.7,1.2,1.4,1.4,2.4
			C116,233.1,115.8,234.2,115.5,235z M123.1,250.8c-1.5-0.5-2.2-0.7-3.8-1.2l0,0c1.5-5.5,2.2-8.3,3.8-13.8c-2.1-0.7-2.9-1-5-1.9
			c0.3-1,0.5-1.7,0.9-2.8c5.2,2.1,7.7,2.9,13.1,4.3c-0.2,1.2-0.3,1.7-0.7,2.9c-2.1-0.5-3.1-0.9-5-1.4
			C125.1,242.6,124.4,245.3,123.1,250.8z M134.8,253.8c-1.5-0.3-2.2-0.5-3.8-0.9l0,0c1.4-6.7,1.9-10.1,3.3-16.9
			c1.4,0.3,2.1,0.5,3.4,0.7C136.5,243.6,136,246.9,134.8,253.8z M152.3,241.5c-3.4-0.2-5-0.3-8.4-0.9c-0.2,1.5-0.3,2.4-0.5,4.1
			c2.9,0.3,4.5,0.5,7.4,0.7c0,1.2,0,1.7-0.2,2.9c-3.1-0.2-4.6-0.3-7.6-0.7c-0.3,2.9-0.5,4.3-0.9,7.2c-1.5-0.2-2.2-0.3-3.8-0.5l0,0
			l0,0l0,0c0.9-6.9,1.4-10.3,2.4-17c4.6,0.9,6.9,1,11.7,1.2C152.5,239.8,152.5,240.3,152.3,241.5z M154.9,256
			c0.2-6.9,0.2-10.3,0.3-17.2c1.4,0,2.1,0,3.4,0c0,6.9,0,10.3,0,17.2C157.1,256,156.4,256,154.9,256z M175.5,253.8
			c-1.2,1-2.9,1.7-5,2.1c-2.6,0.3-4.8-0.3-6.4-1.9c-1.7-1.5-2.6-3.6-2.6-6.4c0-2.9,0.7-5.2,2.1-6.9s3.3-2.6,5.7-2.8
			c2.1-0.2,3.8,0.2,5.3,1.2c0.9,0.7,1.5,1.5,2.2,2.9c-1.4,0.5-2.1,0.9-3.4,1.4c-0.3-0.9-0.9-1.5-1.5-1.9c-0.7-0.3-1.5-0.7-2.4-0.5
			c-1.4,0.2-2.2,0.7-3.1,1.7s-1,2.6-1,4.5c0.2,2.2,0.7,3.8,1.5,4.6c0.9,0.9,2.1,1.2,3.4,1c1-0.2,1.9-0.5,2.6-1.2s1-1.7,1.2-2.9l0,0
			l0,0l0,0c1.5,0.2,2.2,0.3,3.8,0.5C177.6,251.2,176.7,252.7,175.5,253.8z M194.8,250.5c-1-1.4-1.5-1.9-2.6-3.3
			c-2.9,0.9-4.3,1.2-7.4,1.9c-0.3,1.7-0.5,2.6-0.9,4.1c-1.7,0.3-2.4,0.5-4.1,0.9c1.9-7.4,2.8-11,4-18.4c1.4-0.3,2.1-0.5,3.6-1
			c4.3,6,6.5,8.8,11.3,14.4l0,0C197.2,249.6,196.3,250,194.8,250.5z M206.8,246c-1.5,0.7-2.2,0.9-3.6,1.5l0,0l0,0
			c-1.7-5.3-2.6-8.1-4.5-13.6c-2.1,0.9-2.9,1.2-5,1.9c-0.3-1-0.5-1.7-0.9-2.8c5.2-1.7,7.7-2.9,12.9-5.3c0.3,1,0.7,1.5,1,2.8
			c-1.9,0.9-2.9,1.4-4.8,2.2C203.9,237.9,204.9,240.5,206.8,246z M214.4,242.4L214.4,242.4c-2.6-6.2-4-9.5-6.7-15.6
			c1.2-0.7,1.9-1,3.1-1.7c2.8,6.2,4.3,9.3,7.1,15.5C216.4,241.2,215.8,241.5,214.4,242.4z M233.8,227.4c-0.5,2.4-2.1,4.5-4.6,6.4
			c-2.6,1.7-5,2.4-7.1,1.9c-2.2-0.5-3.8-1.9-5-4.3l0,0l0,0c-0.7-1.5-1.2-3.1-1.2-4.3c0-1,0.2-2.1,0.3-2.9c0.3-1,0.7-1.9,1.4-2.6
			c0.7-1,1.7-1.9,2.9-2.8c2.2-1.5,4.3-2.2,6.4-1.9c2.1,0.3,4,1.5,5.5,3.8C233.8,222.6,234.3,225,233.8,227.4z M248.8,216.6
			c-5.2-0.7-7.7-1.4-12.7-2.6c2.6,3.4,4,5.2,6.5,8.6c-1.2,1-1.7,1.5-2.9,2.6l0,0l0,0l0,0l0,0l0,0l0,0c-3.8-5.5-5.8-8.3-9.6-13.6
			c1-1,1.7-1.4,2.8-2.4c5,1.5,7.6,2.1,12.7,2.9c-2.9-3.3-4.3-5-7.2-8.4c1-1,1.5-1.5,2.4-2.6c4.5,4.8,6.7,7.4,11,12.2
			C250.7,214.6,250,215.2,248.8,216.6z M266.5,184.5c-0.7,0.9-1.5,1.4-2.8,1.4c-1,0.2-2.1-0.2-2.9-0.9c-0.9-0.7-1.4-1.5-1.4-2.6
			c-0.2-1,0.2-2.1,0.9-2.9c0.7-0.9,1.5-1.4,2.6-1.4c1-0.2,2.1,0.2,2.9,0.9c0.9,0.7,1.4,1.5,1.4,2.6
			C267.5,182.7,267.2,183.6,266.5,184.5z M278.5,167.1c-0.7,2.1-1.5,3.6-2.8,4.5s-2.6,1.2-4.5,0.9l1.2-5c0.9,0.2,1.4,0,1.9-0.3
			c0.5-0.3,0.9-0.9,1-1.5s0.2-1.2,0-1.5c-0.2-0.3-0.3-0.7-0.9-0.7c-0.2-0.2-0.5,0-0.9,0.2c-0.3,0.2-0.7,0.7-1.2,1.5
			c-1.2,2.1-2.2,3.6-2.9,4.3c-0.9,0.9-1.7,1.4-2.6,1.5c-0.9,0.2-1.7,0.2-2.8-0.2c-1-0.3-1.9-0.9-2.8-1.7c-0.7-0.9-1.2-1.9-1.4-3.1
			c-0.2-1.2,0-2.6,0.5-4.3c0.9-2.9,2.1-4.6,3.4-5.5c1.4-0.7,3.1-1,4.8-0.5l0,0l-1.2,5c-0.9-0.2-1.5-0.2-2.1,0
			c-0.9,0.3-1.4,1-1.7,1.9c-0.2,0.7-0.2,1.4,0,1.9s0.5,0.9,1,1c0.3,0.2,0.9,0,1.4-0.2c0.5-0.3,1-1,1.7-2.4c1.2-2.1,2.4-3.4,3.4-4.1
			c1.2-0.7,2.4-0.9,3.6-0.5c0.9,0.3,1.5,0.9,2.2,1.5c0.7,0.7,1,1.7,1,2.8C279.2,164,279,165.4,278.5,167.1z M282.6,148l-0.9,7.1
			l-17.4-2.1l0.5-4.3l13.2,1.5l-12.7-5l0.5-4l13.6-1.7l-13.2-1.5l0.5-4.5l17.4,2.1l-0.9,7.1l-10.8,1.4L282.6,148z"/>
		<path class="st2" d="M214.5,33.5c1,0.5,2.1,0.7,2.9,0.3c0.9-0.3,1.9-1.4,2.9-3.1c0.9-1.4,1.2-2.6,1-3.6s-0.9-1.9-1.7-2.4
			c-1-0.5-1.9-0.7-2.8-0.3c-1,0.3-1.9,1.2-2.8,2.8l0,0c-0.9,1.5-1.2,2.8-1,3.8C213,32.1,213.7,33,214.5,33.5z"/>
		<path class="st2" d="M192.2,16.5c0.2,0,0.7,0.2,1.4,0.2c0.3,0,0.7,0,1-0.3c0.3-0.2,0.5-0.5,0.7-0.9c0.2-0.5,0.2-1-0.2-1.4
			c-0.3-0.3-0.9-0.7-1.7-1l-2.2-0.7l-1,3.4l0,0L192.2,16.5z"/>
		<polygon class="st2" points="174.5,16.5 173.3,9.9 170.7,15.9 		"/>
		<path class="st2" d="M151.3,11.6L151.3,11.6h2.2c0.3,0,0.7-0.2,1.4-0.3c0.3-0.2,0.7-0.3,0.9-0.5c0.2-0.3,0.3-0.7,0.3-1
			c0-0.5-0.2-1-0.5-1.2c-0.3-0.3-1-0.3-2.1-0.3h-2.4L151.3,11.6z"/>
		<polygon class="st2" points="162.8,21.6 163.5,21.6 163,20.6 162.4,21.6 		"/>
	</g>
	<g>
		<path class="st3" d="M140.1,115.3c-2.6,0.3-3.4,0.9-3.4,4v15.1c0,2.8-0.7,7.1-2.6,9.1c-2.2,2.6-6.2,3.4-8.9,3.4
			c-2.1,0-6.4-0.3-9.3-2.9c-1.9-1.9-3.1-3.4-3.1-8.6v-15.8c0-4-1.2-4.1-3.8-4.3v-1.2h15v1.2c-2.9,0.2-4.5,0.2-4.5,4.3v15.8
			c0,2.8,0.3,9.3,7.1,9.3c8.1,0,8.4-7.2,8.4-10.3V120c0-2.9-0.9-4.5-4.8-4.6v-1.2h10V115.3L140.1,115.3L140.1,115.3z"/>
		<path class="st3" d="M200.8,123.2c-0.9-3.3-3.3-8.8-8.6-8.8c-2.4,0-4.8,1.4-4.8,4.5c0,2.6,0.9,3.6,4.6,5.5l6.7,3.4
			c1.5,0.9,5,3.1,5,8.3c0,4.1-2.9,9.3-11.3,9.3c-4.3,0-5.8-1.7-7.2-1.7c-1,0-1.2,0.9-1.4,1.7h-1.4l-5-11.9h1
			c1.2,3.6,7.6,10.1,14.1,10.1c5.5,0,5.7-4.8,5.7-5.3c0-3.3-2.1-3.8-5.2-5.3l-3.1-1.5c-7.7-4-7.7-7.2-7.7-9.5c0-2.9,1.4-9.3,10-9.3
			c3.6,0,3.6,1.4,5,1.4c1.4,0,1.7-1.4,1.9-1.4h0.7l1.4,10.3L200.8,123.2L200.8,123.2L200.8,123.2z"/>
		<path class="st3" d="M158.7,145.4h-12.4v-0.9c1.9-0.2,3.3-0.3,3.3-3.3v-22.2c0-3.1-1.7-3.1-3.3-3.3v-1.5h8.9V141
			c0,2.9,1.4,3.1,3.4,3.3V145.4z"/>
		<path class="st3" d="M156.8,114.3c0,0,12.6-1.2,12.6,7.9c0,2.9,0,4.8-5.2,7.2c0,0,6.5,6.2,11,13.6c4.6,7.9,15.8,26.5,42,33.7
			c0,0-20.1,6-40.9-19.9c-6.7-7.9-12.6-23.4-19.3-26v-0.7c0,0,6.7,0.7,6.7-8.1c0-7.9-6.7-6.9-6.7-6.9L156.8,114.3L156.8,114.3
			L156.8,114.3z"/>
	</g>
	<path class="st2" d="M241.9,130.1c0-19.4-37.1-35.1-83.1-35.1s-83.1,15.6-83.1,35.1s37.1,35.1,83.1,35.1c6.2,0,12.2-0.3,17.9-0.9
		l-2.4-3.1c-5,0.5-10.3,0.9-15.6,0.9c-38.7,0-69.8-14.4-69.8-32.2s31.3-32,70-32s69.8,14.4,69.8,32.2c0,12-14.4,22.7-35.9,28
		l3.1,3.4C223.1,155.9,241.9,143.9,241.9,130.1"/>
</g>
<rect class="st4" width="316.4" height="260"/>
</svg>
