<?xml version="1.0" encoding="utf-8"?>
<!-- Generator: Adobe Illustrator 25.1.0, SVG Export Plug-In . SVG Version: 6.00 Build 0)  -->
<svg version="1.1" id="レイヤー_1" xmlns="http://www.w3.org/2000/svg" xmlns:xlink="http://www.w3.org/1999/xlink" x="0px"
	 y="0px" viewBox="0 0 297.1 261" style="enable-background:new 0 0 297.1 261;" xml:space="preserve">
<style type="text/css">
	.st0{fill:url(#SVGID_2_);stroke:#1F4CA0;stroke-miterlimit:10;}
	.st1{fill:#FFFFFF;stroke:#1F4CA0;stroke-width:0.75;stroke-linecap:round;stroke-linejoin:round;stroke-miterlimit:10;}
	
		.st2{fill-rule:evenodd;clip-rule:evenodd;fill:#1F4CA0;stroke:#1F4CA0;stroke-width:5;stroke-linejoin:round;stroke-miterlimit:10;}
	.st3{fill:#FFFFFF;stroke:#1F4CA0;stroke-width:3;stroke-linejoin:round;stroke-miterlimit:10;}
</style>
<g id="レイヤー_3">
</g>
<g id="レイヤー_1_1_">
</g>
<g>
	
		<radialGradient id="SVGID_2_" cx="150.8045" cy="464.5" r="130" gradientTransform="matrix(1 0 0 1 0 -334)" gradientUnits="userSpaceOnUse">
		<stop  offset="0" style="stop-color:#1F4CA0;stop-opacity:0"/>
		<stop  offset="1" style="stop-color:#1F4CA0;stop-opacity:0.8"/>
	</radialGradient>
	<path class="st0" d="M20.8,130.5c0,71.8,58.2,130,130,130s130-58.2,130-130s-58.2-130-130-130S20.8,58.7,20.8,130.5"/>
	<path class="st1" d="M113.1,59.5c-0.1,0-0.2,0.1-0.3,0.1c-0.3,0.1-0.5,0.1-0.7,0.2c-0.2,0-0.3,0.1-0.5,0.2h-0.2
		c-0.1,0-0.2,0.1-0.2,0.1c-0.2,0-0.4,0.1-0.5,0.2c-0.1,0-0.2,0.1-0.2,0.1c-0.1,0-0.2,0.1-0.2,0.2c-0.3,0.1-0.5,0.3-0.8,0.3h-0.2
		c-0.1,0-0.1,0.1-0.2,0.1c-0.2,0-0.3,0-0.5,0s-0.3,0.2-0.5,0.2c0.1,0.3,0.2,0.5,0.4,0.7c0,0.1,0.2,0.1,0.2,0.2
		c0.1,0.1,0.1,0.2,0.2,0.2s0.2,0.1,0.2,0.2c0.1,0.1,0.1,0.2,0.2,0.2s0.2,0,0.2,0.1c0.1,0,0.2,0.1,0.2,0.2c0.1,0,0.2,0,0.2,0.1
		c0.1,0,0.2,0.1,0.2,0.2c0.2,0.1,0.3,0.1,0.5,0.2c0.1,0,0.2,0.1,0.2,0.2c0.2,0.1,0.3,0.1,0.5,0.2c0.1,0,0.1,0.1,0.2,0.1h0.4
		c0.4,0,0.6,0,0.9-0.2c0.1,0,0.2-0.1,0.2-0.2c0-0.1,0.1-0.2,0.1-0.2c0.2-0.4,0.2-0.7,0.2-1.2c0-0.3,0-0.4,0-0.7
		c0-0.1-0.1-0.2-0.2-0.2c0-0.2-0.1-0.3-0.1-0.5c0-0.1-0.1-0.1-0.1-0.2s0.1-0.1,0.1-0.2C113,59.7,113,59.6,113.1,59.5z"/>
	<path class="st1" d="M248.8,56.4c-0.4,0-0.6,0.1-1,0.1c-0.4,0.1-0.8,0.2-1.2,0.4c-0.2,0.1-0.4,0.3-0.6,0.4
		c-0.4,0.5-0.5,1.1-0.7,1.8c-0.1,0.2-0.2,0.4-0.3,0.6c-0.3,0.8-0.4,1.4-0.6,2.2c0,0.3-0.3,0.4-0.3,0.7s0,0.5,0,0.8s-0.1,0.5,0,0.8
		c0.1,0.3,0.3,0.4,0.4,0.6c0.4,0.5,0.7,0.7,1.2,1.2c0.4,0.4,0.8,0.7,1.2,1.2c0.1,0.2,0.1,0.5,0.3,0.6c0.4,0.3,0.8,0.3,1.2,0.4
		c0.4,0.2,0.8,0.5,1.2,0.7c0.6,0.3,1,0.6,1.6,0.6c0.4,0,0.5-0.4,0.9-0.6c0.2-0.1,0.4-0.3,0.6-0.4c0.2-0.1,0.4-0.1,0.6-0.3
		c0.1-0.1,0-0.4,0.1-0.6c0.2-0.2,0.5-0.2,0.7-0.4c0.1-0.2,0.1-0.4,0.3-0.6s0.5-0.2,0.6-0.4c0.1-0.2,0.1-0.4,0.1-0.6s0-0.4,0-0.6
		c0.1-0.4,0.1-0.7,0.3-1.2c0.1-0.2,0.2-0.4,0.3-0.6c0.3-0.5,0.7-0.6,0.9-1.2c0.1-0.2,0.3-0.3,0.3-0.6s-0.1-0.4-0.1-0.7
		c0-0.6-0.3-0.9-0.6-1.3c-0.3-0.5-0.6-0.8-1-1.2c-0.2-0.1-0.4-0.2-0.6-0.3c-0.3-0.1-0.5-0.3-0.7-0.3c-0.5-0.1-0.8-0.2-1.3-0.3
		c-0.2,0-0.4-0.2-0.6-0.3c-0.6-0.2-1-0.3-1.6-0.4C249.8,56.6,249.4,56.4,248.8,56.4z"/>
	<path class="st1" d="M199.4,97.2c-0.5,0.4-0.7,0.8-1.1,1.3c-0.2,0.2-0.3,0.4-0.4,0.7c-0.1,0.2-0.3,0.2-0.3,0.4
		c0,0.2,0.2,0.3,0.4,0.3c0.4,0.2,0.7,0.1,1.1,0.1c0.6,0,0.9,0.2,1.5,0.2c0.2,0,0.3-0.2,0.4-0.3c0.3-0.3,0.3-0.6,0.6-0.9
		c0.3-0.4,0.7-0.6,0.7-1.1c0-0.2,0-0.3-0.1-0.5C201.2,97.5,200.4,97.5,199.4,97.2z"/>
	<path class="st1" d="M190.3,98.6l-0.2,1c0,0.1,0,0.3,0.1,0.3c0.2,0.2,0.4,0.2,0.7,0.2s0.5-0.1,0.7-0.1c0.8,0,1.2,0.2,2,0.3
		c0-0.1,0.1-0.2,0.1-0.3c0-0.4-0.4-0.5-0.8-0.7c-0.4-0.3-0.6-0.5-1-0.8c-0.2-0.1-0.3-0.2-0.5-0.3c-0.3-0.4-0.4-0.7-0.7-1.1
		c-0.2-0.3-0.4-0.6-0.8-0.6c-0.1,0-0.1,0.1-0.2,0.1C189.7,97.3,190,97.8,190.3,98.6z"/>
	<path class="st1" d="M209.3,92.3c-0.1,0-0.2,0-0.2,0.1c-0.4,0.3-0.4,0.8-0.8,1.2c-0.5,0.5-0.9,0.7-1.3,1.3c0.5,0.6,1.1,0.6,1.9,0.7
		c0.8,0.1,1.2,0.6,2.1,0.6h0.9c0-0.2,0.1-0.2,0.1-0.4c0-0.2-0.2-0.3-0.3-0.4s-0.2-0.3-0.4-0.4c-0.3-0.3-0.5-0.6-0.7-0.9
		s-0.4-0.4-0.5-0.7c-0.2-0.4-0.3-0.8-0.7-1L209.3,92.3z"/>
	<path class="st1" d="M120.6,73.5c0,0.3,0.2,0.4,0.3,0.7c0.1,0.2,0.2,0.3,0.3,0.5c0,0.1,0.2,0.2,0.2,0.2c0,0.1,0.1,0.2,0.2,0.2
		c0,0.1,0.1,0.2,0.1,0.2c0,0.1,0.2,0.2,0.2,0.2c0,0.1,0,0.2,0,0.4c0,0.2,0,0.4-0.1,0.6c0,0.2-0.2,0.3-0.2,0.5c0,0.1-0.1,0.2-0.2,0.2
		c0,0.1-0.1,0.2-0.1,0.2c-0.1,0.1-0.2,0.1-0.3,0.2c-0.2,0.1-0.3,0.3-0.5,0.4c-0.1,0-0.2,0.1-0.2,0.2c-0.1,0.1-0.1,0.2-0.1,0.3
		c0,0.1-0.1,0.2-0.1,0.4c0,0.1,0.1,0.3,0.2,0.4c0,0.1,0.2,0.1,0.2,0.2c0.2,0.2,0.5,0.4,0.5,0.7c0,0.1-0.1,0.2-0.1,0.4
		c0,0.1-0.1,0.2-0.2,0.2c0,0.1,0,0.1,0,0.2c0,0.2,0,0.4,0.1,0.5c0.1,0.2,0.2,0.3,0.3,0.5c0.1,0.3,0.3,0.4,0.4,0.7
		c0,0.1,0.1,0.2,0.1,0.2c0.1,0.2,0.2,0.3,0.2,0.5c0,0.1,0,0.2,0,0.2c0,0.2,0.1,0.3,0.2,0.5c0,0.2,0,0.3,0,0.5s0.1,0.3,0.2,0.5
		s0.1,0.3,0.2,0.5s0.3,0.2,0.5,0.3c0.1,0,0.1,0.2,0.2,0.2c0.2,0.1,0.3,0.2,0.5,0.3c0.1,0.1,0.1,0.2,0.2,0.2c0.1,0.1,0.2,0,0.3,0.1
		c0.1,0,0.2,0.1,0.2,0.2c0.1,0,0.2,0.1,0.2,0.2c0.1,0,0.2,0.1,0.2,0.1c0.1,0,0.2,0.1,0.3,0.1c0.2,0.1,0.3,0.2,0.5,0.2s0.4,0,0.5,0.1
		c0.1,0,0.2,0.1,0.3,0.1c0.1,0,0.2,0,0.2,0c0.1,0,0.2,0.2,0.2,0.2h0.1c0.1,0,0.2-0.1,0.4-0.1c0.2,0,0.3-0.1,0.5-0.1h0.2
		c0.3,0,0.5-0.1,0.7-0.1c0.3-0.1,0.5-0.2,0.7-0.5c0.1-0.1,0.1-0.2,0.2-0.2c0-0.1,0-0.1,0-0.2s0.1-0.1,0.1-0.2s-0.1-0.2-0.1-0.3v-1.5
		c0-0.1,0.1-0.2,0.1-0.3c0.1-0.2,0.2-0.3,0.2-0.5c0-0.1,0.1-0.2,0.2-0.2c0-0.2-0.1-0.4-0.1-0.6c0-0.1,0-0.3,0.1-0.4
		c0-0.1,0.2-0.1,0.2-0.2c0.2-0.1,0.3-0.1,0.5-0.2c0.1,0,0.2-0.1,0.2-0.2c0.1-0.1,0.1-0.2,0.2-0.2c0.1,0,0.2,0,0.2-0.1s0-0.2,0.1-0.2
		c0.1-0.2,0.2-0.3,0.2-0.5c0-0.1,0-0.2,0-0.2c0-0.1,0.1-0.2,0.1-0.2c0-0.1,0-0.2,0-0.2c0.1-0.2,0.2-0.3,0.4-0.3
		c0.1,0,0.2-0.1,0.2-0.1c0.2,0,0.3,0,0.5,0c0.1,0,0.2-0.1,0.3-0.1s0.2-0.1,0.2-0.1c0.1,0,0.2,0,0.2,0c0.1,0,0.2,0,0.2-0.1
		c0.1,0,0.1-0.2,0.2-0.2c0.1,0,0.2,0,0.2-0.1c0.1,0,0.1-0.2,0.2-0.2c0.1,0,0.2-0.1,0.2-0.2c0.1-0.2,0.2-0.3,0.3-0.5s0.3-0.3,0.3-0.5
		c0-0.1,0-0.2,0-0.2c0-0.2,0.1-0.4,0.2-0.5c0.1-0.1,0.2-0.1,0.3-0.2c0.1,0,0.2-0.1,0.2-0.2c0.2-0.1,0.4-0.1,0.5-0.2
		c0.1,0,0.2-0.1,0.2-0.2c0.1,0,0.2-0.1,0.2-0.2c0.2-0.1,0.3-0.2,0.5-0.2c0.1,0,0.2,0,0.2-0.1c0.2-0.1,0.3-0.3,0.5-0.5
		c0.1-0.1,0.2-0.1,0.3-0.2c0.3-0.2,0.4-0.4,0.5-0.7c0.1-0.2,0.1-0.3,0.2-0.5c0-0.2,0-0.3,0-0.5c0-0.1,0.1-0.2,0.2-0.2
		c0-0.1,0-0.2,0-0.2c0-0.1,0.1-0.2,0.2-0.2c0-0.1,0.1-0.2,0.1-0.2c0.1-0.3,0.2-0.5,0.2-0.8s-0.1-0.5-0.2-0.7c0-0.1-0.1-0.2-0.1-0.2
		c0-0.1,0-0.2,0-0.2c-0.1-0.2-0.2-0.3-0.3-0.5c0-0.1,0-0.2,0-0.3c0-0.1-0.2-0.1-0.2-0.2s0-0.2-0.1-0.2c-0.2-0.3-0.3-0.5-0.5-0.8
		c0-0.1,0-0.2-0.1-0.2c0-0.1-0.1-0.2-0.2-0.2c-0.2-0.4-0.2-0.6-0.5-0.9c0-0.1-0.2-0.1-0.2-0.2c-0.4-0.4-0.7-0.6-1.3-0.8
		c-0.2-0.1-0.4-0.2-0.6-0.2c-1.5,0-2.3-0.1-3.7-0.1c-0.1,0-0.2,0.1-0.3,0.1c-0.4,0-0.7,0.1-1.1,0.1c-0.5,0-0.8,0-1.3,0.1
		c-0.1,0-0.1,0.1-0.2,0.1c-0.1,0-0.2,0-0.3,0c-0.2,0-0.4,0.2-0.6,0.2c-0.1,0-0.3,0-0.4,0.1c-0.2,0.1-0.3,0.2-0.6,0.2
		c-0.4,0.2-0.7,0.3-1.2,0.5c-0.2,0.1-0.3,0.2-0.5,0.3c-0.1,0-0.2,0.1-0.2,0.1c-0.3,0.1-0.5,0.3-0.8,0.4c-0.1,0-0.2,0-0.2,0.1
		c-0.1,0-0.2,0-0.2,0.1c-0.1,0-0.1,0.2-0.2,0.2c-0.1,0.1-0.3,0.1-0.4,0.2c-0.1,0-0.2,0.1-0.2,0.2c-0.1,0-0.1,0.2-0.2,0.2
		s-0.2,0-0.2,0c-0.2,0.1-0.4,0.2-0.6,0.2c-0.1,0-0.2,0.1-0.3,0.1c-0.2,0-0.4,0-0.5,0.1c-0.2,0.1-0.2,0.4-0.3,0.6
		c0,0.1-0.1,0.2-0.2,0.2c0,0.1-0.1,0.2-0.2,0.3c0,0.1,0,0.2,0,0.3c0,0.1-0.1,0.1-0.1,0.2c0,0.3,0,0.4,0,0.7c0,0.2,0.1,0.3,0.1,0.5
		c0,0.1-0.1,0.1-0.1,0.2C120.7,73.2,120.6,73.3,120.6,73.5"/>
	<path class="st1" d="M102,66.8c0,0.1,0.1,0.2,0.1,0.4v0.3c0,0.1,0.1,0.1,0.1,0.2v0.2c0,0.1,0,0.2,0.1,0.2c0,0.1,0,0.2,0.1,0.2
		c0.1,0.1,0.2,0,0.3,0.1c0.1,0.1,0.2,0.2,0.3,0.2c0.2,0.1,0.3,0.1,0.5,0.2c0.3,0.1,0.5,0.2,0.7,0.4c0,0.1,0.1,0.2,0,0.2
		c-0.1,0.1-0.2,0-0.2,0.1s-0.1,0.2-0.2,0.2c0,0.1,0,0.1,0,0.2s-0.1,0.1-0.1,0.2s0.1,0.2,0.2,0.2c0,0.1,0.2,0.1,0.2,0.2
		c0.1,0,0.2,0,0.2,0c0.3,0.1,0.5,0.2,0.9,0.2c0.1,0,0.2,0.1,0.2,0.1c0.2,0,0.3,0,0.5,0.1c0.1,0,0.2,0.1,0.2,0.2
		c0.2,0.1,0.4,0.1,0.5,0.2c0.2,0.1,0.3,0.2,0.4,0.4c0,0.1,0.1,0.2,0.2,0.2c0,0.1,0.1,0.2,0.1,0.2c0,0.1-0.1,0.2-0.1,0.2
		c0,0.1,0.2,0.2,0.2,0.2c0,0.3,0,0.5,0,0.8c0,0.1,0.1,0.1,0.1,0.2v0.6c0,0.2-0.1,0.3-0.1,0.5s-0.1,0.3-0.1,0.5v0.2
		c0,0.3-0.1,0.5-0.2,0.7c0,0.1-0.1,0.2-0.2,0.2c-0.1,0.2-0.1,0.3-0.2,0.5c-0.2,0.2-0.4,0.2-0.6,0.3s-0.2,0.4-0.3,0.5
		c-0.1,0.2-0.3,0.2-0.5,0.3c-0.2,0.1-0.4,0.1-0.5,0.2c-0.1,0-0.2,0.1-0.2,0.2c-0.1,0-0.2,0.1-0.2,0.1c-0.2,0-0.3,0-0.5,0
		s-0.3,0.1-0.5,0.2c-0.3,0.1-0.5,0.3-0.7,0.5s-0.3,0.4-0.4,0.6c-0.1,0.3-0.1,0.5-0.1,0.7s0,0.3,0,0.4s0.1,0.2,0.2,0.2
		c0,0.1,0.1,0.2,0.2,0.2c0.1,0.1,0.2,0.1,0.3,0.2c0.1,0.1,0.3,0.1,0.4,0.1c0.5,0.1,0.9,0.1,1.4,0.2h0.5c0.2,0,0.2,0.1,0.4,0.1h0.2
		c0.1,0,0.2,0.1,0.2,0.1c0.1,0,0.2,0,0.2,0c0.1,0,0.1,0.2,0.2,0.2s0.2,0,0.2,0.1c0.2,0.1,0.4,0.2,0.5,0.4c0,0.1,0,0.2,0,0.2
		c0.1,0.1,0.1,0.2,0.2,0.3c0.1,0,0.2,0.1,0.2,0.1c0.2,0,0.3,0,0.5,0c0.1,0,0.2,0,0.2,0c0.1,0,0.2,0.2,0.2,0.2c0.1,0,0.1,0.2,0.2,0.2
		c0.1,0.1,0.2,0.2,0.2,0.2c0.1,0.1,0.1,0.2,0.2,0.3c0.1,0.1,0.2,0.1,0.2,0.2c0.1,0.1,0.1,0.2,0.2,0.2c0.2,0.1,0.3,0.1,0.5,0.2
		c0.1,0,0.2,0.1,0.3,0.1h0.5v-0.8c0-0.1-0.1-0.2-0.2-0.3c-0.1-0.2-0.2-0.3-0.3-0.5c0-0.1-0.1-0.2-0.2-0.2c-0.1-0.1-0.1-0.3-0.1-0.4
		c0.1,0,0.1-0.1,0.2-0.1h0.1c0.2,0,0.2,0.2,0.4,0.2c0.1,0,0.2,0,0.2,0.1c0.1,0.1,0.1,0.2,0.2,0.2s0.2,0.1,0.2,0.2
		c0.1,0,0.2,0.1,0.2,0.1c0.1,0,0.1,0.2,0.3,0.2h0.7v-1.1c0-0.2-0.2-0.3-0.2-0.5c0-0.1,0-0.2-0.1-0.2c-0.1-0.2-0.3-0.3-0.4-0.5
		c-0.1-0.1-0.2-0.2-0.2-0.2c-0.1-0.1-0.1-0.3-0.2-0.4v-0.2c0-0.1-0.1-0.2-0.1-0.3v-0.9h0.4c0.2,0,0.4,0.1,0.5,0.2
		c0.2,0.1,0.3,0.2,0.5,0.4c0.1,0.1,0.1,0.2,0.2,0.2c0,0.1,0.2,0.1,0.2,0.2c0.1,0.1,0.1,0.2,0.2,0.2c0.2,0.1,0.3,0.3,0.6,0.3
		c0.2,0,0.4-0.2,0.5-0.4c0-0.1,0.1-0.2,0.2-0.2c0-0.1,0-0.2,0-0.3c0-0.2,0.1-0.3,0.2-0.5c0-0.2-0.1-0.3,0-0.5c0-0.1,0.1-0.2,0.2-0.2
		c0-0.1,0.2,0,0.2-0.1s0-0.1,0-0.2s0-0.2,0-0.2c0-0.1-0.1-0.2-0.2-0.2c0-0.1,0-0.2-0.1-0.2c-0.2-0.3-0.4-0.5-0.7-0.7
		c-0.2-0.2-0.3-0.3-0.5-0.5c-0.1-0.1-0.2-0.1-0.3-0.2c0-0.1-0.1-0.2-0.1-0.2c0-0.1-0.1-0.2-0.1-0.3c0-0.1,0.1-0.1,0.1-0.2
		c0-0.2,0.1-0.3,0.1-0.5v-0.2c0-0.1,0.1-0.1,0.1-0.2v-0.1c0-0.2-0.1-0.3-0.1-0.4c0-0.3,0-0.4-0.1-0.7c0-0.1-0.1-0.2-0.1-0.2
		c0-0.1-0.1-0.2-0.2-0.2c0-0.1-0.1-0.2-0.2-0.2c0-0.1,0-0.2-0.1-0.2c-0.1-0.1-0.2-0.2-0.2-0.2c0-0.1,0-0.2-0.1-0.2
		c0-0.1-0.2-0.1-0.2-0.2c-0.2-0.3-0.4-0.5-0.6-0.7c-0.2-0.1-0.3-0.2-0.5-0.4c-0.2-0.2-0.3-0.3-0.4-0.5c0-0.1-0.2-0.1-0.2-0.2
		s-0.1-0.2-0.2-0.2c-0.1-0.1-0.2-0.2-0.2-0.2c-0.1-0.1-0.2-0.1-0.2-0.2c-0.1-0.1-0.1-0.2-0.2-0.2c-0.1-0.1-0.2-0.1-0.2-0.2
		s0-0.2-0.1-0.2c0-0.1-0.1-0.2-0.2-0.2c0-0.2,0-0.3,0-0.5v-0.2c0-0.1-0.1-0.2-0.2-0.2c0-0.1,0-0.2,0-0.2c-0.1-0.2-0.2-0.3-0.4-0.3
		c-0.2,0-0.3,0-0.5,0c-0.3-0.1-0.6-0.3-0.6-0.6c0-0.1,0.1-0.2,0.2-0.4c0-0.1,0.1-0.2,0.2-0.3c-0.1-0.1-0.1-0.2-0.2-0.2
		s-0.2-0.1-0.4-0.1c-0.1,0-0.2,0-0.4,0.1c-0.1,0-0.1,0.2-0.2,0.2c-0.2,0.1-0.3,0.3-0.5,0.4s-0.3,0.1-0.5,0.1c-0.1,0,0-0.2-0.1-0.2
		c0.1-0.1,0.1-0.2,0.2-0.3c0-0.1,0.2-0.1,0.2-0.2s-0.1-0.1-0.1-0.2v-0.3H105c-0.2,0-0.3,0.1-0.5,0.2c-0.1,0-0.3,0-0.4,0
		s-0.2,0.1-0.2,0.2c-0.1,0-0.2,0-0.2,0c-0.1,0-0.2,0.1-0.2,0.1c-0.1,0-0.2,0-0.2,0c-0.1,0-0.2,0.1-0.2,0.2c-0.2,0.1-0.3,0.1-0.5,0.2
		S102.2,66.6,102,66.8c0,0.1-0.1,0.2-0.2,0.2C102.1,66.5,102,66.6,102,66.8"/>
	<path class="st1" d="M145.9,75.9c-0.1,0-0.2,0.1-0.4,0.2s-0.3,0.3-0.5,0.5c-0.1,0.1-0.2,0.2-0.2,0.2c-0.1,0-0.2,0-0.2,0.1
		c-0.1,0.1-0.1,0.2-0.2,0.2c-0.1,0.1-0.2,0.1-0.3,0.2c-0.2,0.1-0.3,0.2-0.5,0.2c-0.1,0-0.2,0.1-0.2,0.2c-0.2,0.1-0.3,0.1-0.5,0.2
		c-0.1,0-0.2,0.2-0.2,0.2c-0.2,0.2-0.4,0.3-0.5,0.5c-0.1,0.1-0.2,0.3-0.2,0.5c0,0.1,0.1,0.2,0.2,0.2c0,0.1,0.2,0,0.2,0.1
		c0.1,0.1,0,0.2,0.1,0.2c0,0.1,0.2,0.1,0.2,0.2s0,0.2,0.1,0.2s0.1,0.2,0.2,0.2c0,0.1,0,0.2,0.1,0.2c0.1,0.2,0.4,0.2,0.5,0.3
		c0.1,0,0.2,0.1,0.2,0.2c0.1,0,0.2,0,0.2,0c0.1,0,0.2,0.2,0.2,0.2h0.1c0.1,0,0.2-0.1,0.4-0.1s0.3-0.1,0.5-0.1
		c0.4-0.1,0.6-0.1,0.9-0.1c0.1,0,0.1-0.1,0.2-0.1c0.4,0,0.6,0,1,0c0.2,0,0.4,0,0.5-0.1c0.1,0,0.2-0.1,0.2-0.1c0.1,0,0.2-0.1,0.2-0.2
		c0.1,0,0.2-0.1,0.2-0.2c0.1-0.1,0.1-0.3,0.2-0.5c0-0.1,0-0.2,0-0.2c0.1-0.2,0.3-0.2,0.5-0.2c0.3-0.1,0.5,0,0.7-0.2
		c0.1,0,0.2-0.2,0.2-0.2c0-0.1,0.1-0.2,0.2-0.2c0-0.1,0.1-0.1,0.1-0.2s-0.1-0.2-0.2-0.3c-0.2-0.2-0.5-0.2-0.8-0.2
		c-0.2,0-0.4,0.1-0.5,0c-0.1,0-0.2-0.1-0.3-0.1c-0.2-0.2-0.2-0.4-0.4-0.6c-0.1-0.2-0.3-0.3-0.5-0.4c-0.1,0-0.2,0-0.2-0.1
		c-0.2-0.1-0.4-0.2-0.5-0.3c-0.3-0.1-0.5-0.3-0.8-0.4C146.2,75.9,146.1,75.9,145.9,75.9"/>
	<path class="st1" d="M278.2,154.1c-0.2-0.1-0.3-0.5-0.4-0.6c-0.3-0.2-0.5-0.4-0.8-0.6c-0.6-0.4-1.1-0.6-1.5-1s-0.5-0.8-0.8-1.2
		c-0.4-0.4-0.9-0.6-1.2-1c-0.4-0.5-0.7-0.9-1-1.5c-0.2-0.3-0.5-0.5-0.6-0.8c-0.1-0.2,0-0.4,0-0.6c-0.1-0.2-0.1-0.4-0.2-0.6
		c-0.4-0.6-1.1-0.8-1.1-1.5c0-0.4,0.2-0.6,0.4-1c0.1-0.2,0.2-0.4,0.3-0.6c0.1-0.3,0.5-0.4,0.6-0.6c0.2-0.4,0.4-0.7,0.4-1.2
		c0-0.3-0.3-0.4-0.4-0.6c-0.2-0.4-0.5-0.5-0.6-0.8c-0.3-0.5-0.5-0.8-0.7-1.3c-0.3-0.7-0.4-1.1-0.4-1.8c0-0.5,0.1-0.8,0.2-1.2
		c0.1-0.2,0.1-0.4,0.2-0.6c0.1-0.2,0.5-0.4,0.7-0.7c0.1-0.2,0.3-0.4,0.4-0.6c0.1-0.2,0.1-0.4,0.2-0.6c0.1-0.2,0.5-0.2,0.6-0.4
		c0.3-0.5,0.4-0.9,0.6-1.4c0.3-0.7,0.5-1.2,0.6-1.9v-0.6c0.1-0.4,0.2-0.6,0.2-1c0.1-0.8,0.2-1.3,0.4-2c0-0.2,0.1-0.5,0.2-0.7
		c0.2-0.5,0.4-0.8,0.6-1.2c0.1-0.2,0.1-0.4,0.2-0.6c0.7-1.3,1.7-1.9,1.7-3.4c0-0.7-0.3-1.2-0.8-1.5c-0.4-0.3-0.8-0.2-1.3-0.2
		c0-0.2-0.1-0.5,0-0.6c0.1-0.2,0.5-0.3,0.6-0.4c0.2-0.3,0.5-0.4,0.7-0.6c0.1-0.2,0.4-0.4,0.4-0.6s0-0.4,0-0.6c0-0.3,0-0.5,0-0.7
		c-0.1-0.2-0.4-0.4-0.4-0.6c-0.1-0.3-0.4-0.4-0.5-0.6c-0.1-0.3,0-0.6,0-0.8c-0.1-0.5-0.4-0.7-0.4-1.2v-0.7c0-0.9,0.4-1.3,0.4-2.2
		c0-0.4-0.2-0.6-0.2-0.9c0-0.2,0.1-0.4,0-0.6s-0.5-0.4-0.6-0.6c-0.2-0.3-0.4-0.5-0.6-0.7c-0.2-0.1-0.4-0.1-0.6-0.2s-0.4-0.1-0.6-0.2
		c-0.3-0.1-0.4-0.5-0.6-0.6c-0.7-0.4-1.2-0.4-1.9-0.6l-9.6,3.9h-3c0-0.3-0.1-0.6,0-0.8c0.2-0.5,0.5-0.8,1-1c0.2,0,0.4,0,0.6,0
		c0.8-0.1,1.3,0.2,2,0c0.2-0.1,0.5-0.1,0.7-0.2s0.3-0.5,0.4-0.6c0.2-0.2,0.5-0.4,0.6-0.6c0.4-0.5,0.8-0.8,1.2-1.2
		c0.1-0.2,0.3-0.5,0.4-0.6c0.2-0.2,0.5-0.4,0.6-0.6s0.1-0.5,0.2-0.6s0.5-0.1,0.6-0.3c0.2-0.2,0.4-0.4,0.5-0.6s0.1-0.4,0.2-0.6
		c0-0.2-0.1-0.4,0-0.6c0-0.2,0.4-0.4,0.4-0.6s0-0.4,0-0.6s0.2-0.4,0.2-0.6c0-0.3-0.2-0.4-0.2-0.6c0-0.3,0.2-0.5,0.2-0.7v-0.6
		c0-0.7,0-1.2,0-1.9c0-0.3-0.2-0.4-0.2-0.6c0-0.5,0-0.8,0-1.2c-0.1-0.5-0.4-0.8-0.6-1.3c-0.1-0.3-0.4-0.4-0.5-0.6
		c-0.1-0.4,0.1-0.8,0.1-1.2c0-0.3-0.2-0.5-0.2-0.7c0-0.3,0.2-0.5,0.2-0.7c0-0.6,0-1-0.1-1.5c0-0.2-0.2-0.4-0.2-0.6s-0.2-0.4-0.2-0.6
		v-0.6c0-0.6,0.3-0.9,0.3-1.5c0-0.5-0.4-0.8-0.5-1.3c-0.1-0.2,0.1-0.4,0-0.6s-0.3-0.4-0.4-0.6s-0.6-0.2-0.6-0.4
		c-0.1-0.3-0.2-0.6-0.2-0.9c0-0.4,0.3-0.6,0.4-0.9c0.2-0.6,0.4-1,0.4-1.6c0-0.4-0.5-0.5-0.8-0.7c-0.2-0.1-0.4-0.3-0.6-0.4
		s-0.4-0.2-0.6-0.2c-0.8-0.3-1.3-0.4-2.1-0.6c0.1-0.3-0.1-0.4,0-0.6c0.3-0.7,0.9-1.1,0.9-1.9c0-0.3-0.2-0.4-0.2-0.6
		c-0.1-0.3-0.6-0.2-0.7-0.4c-0.1-0.3,0.1-0.6,0-0.8c-0.1-0.2-0.2-0.5-0.4-0.6c-0.2-0.1-0.5,0-0.7,0c-0.9,0-1.4,0.2-2.3,0.2
		c-0.5,0-0.8,0.2-1.3,0.2c-0.2,0-0.4-0.2-0.6-0.2c-0.5,0-0.8,0-1.2,0.2c-0.2,0-0.4,0.1-0.6,0.2s-0.2,0.5-0.4,0.6s-0.4,0.2-0.6,0.2
		c-0.2,0.1-0.4,0.2-0.6,0.2c-0.7,0-1-0.5-1.7-0.6h-0.6c-0.8,0-1.3,0.3-2,0.4c-0.3,0.1-0.6,0-0.9,0c-0.2,0-0.4,0.2-0.6,0.2
		c-0.2,0-0.4,0.4-0.6,0.4c-0.5,0.2-0.9,0.4-1.4,0.6c-0.4,0.2-0.6,0.6-1,0.9c-0.2,0.1-0.4,0.3-0.6,0.4c-1,0.7-1.6,1.1-2.3,2
		c-0.2,0.3-0.5,0.5-0.6,0.8c-0.1,0.2-0.1,0.4-0.2,0.6c-0.6,1.1-1.4,1.5-1.8,2.7c-0.3,0.7-0.3,1.4-0.7,2c-0.3,0.4-0.8,0.5-1,0.9
		c-0.1,0.2,0.1,0.4,0,0.6s-0.3,0.4-0.4,0.6c-0.1,0.2-0.3,0.5-0.4,0.6c-0.3,0.4-0.8,0.4-1,0.8c-0.3,0.5-0.5,0.9-0.8,1.4
		c-0.1,0.2,0,0.6-0.2,0.7s-0.5,0.1-0.7,0.2c-0.3,0.2-0.5,0.5-0.8,0.6c-0.3,0.2-0.6,0.4-0.8,0.6c-0.3,0.2-0.6,0.3-0.8,0.6
		c-0.1,0.2-0.1,0.4-0.2,0.6c-0.2,0.2-0.3,0.4-0.4,0.6c-0.2,0.2-0.5,0.2-0.6,0.4c-0.2,0.2-0.1,0.4-0.2,0.6c-0.2,0.3-0.3,0.5-0.5,0.7
		c-0.1,0.2-0.2,0.5-0.4,0.6s-0.4,0-0.6,0c-0.2,0.1-0.4,0.4-0.6,0.4l0.6,0.4c-0.6,0.1-1,0.4-1.6,0.4h-0.6c-0.2,0-0.4-0.3-0.6-0.3
		s-0.4,0.3-0.6,0.3c-0.5,0-0.8-0.1-1.3,0c-0.3,0-0.4,0.2-0.6,0.2c-0.5,0.2-0.8,0.5-1.2,0.6c-0.2,0-0.4-0.1-0.6,0
		c-0.2,0-0.4,0.3-0.6,0.4c-0.2,0.1-0.5,0.1-0.7,0.2s-0.2,0.5-0.4,0.6s-0.5,0.1-0.6,0.2c-0.2,0.2-0.4,0.4-0.6,0.5
		c-0.2,0.1-0.3,0.5-0.4,0.6c-0.2,0.1-0.4,0.1-0.6,0.2c-0.2,0.1-0.2,0.5-0.4,0.6s-0.4,0-0.6,0c-0.2,0-0.4,0.2-0.6,0.2
		c-0.3,0-0.5-0.2-0.7-0.2h-0.6c-0.6,0.1-1,0.5-1.4,0.8c-0.2,0.1-0.1,0.5-0.2,0.6c-0.3,0.3-0.6,0.3-0.8,0.6c-0.1,0.2,0,0.5-0.2,0.6
		c-0.1,0.1-0.4,0.1-0.6,0.2c-0.2,0.1-0.4,0.3-0.6,0.5c0.5,0.3,0.8,0.5,1.2,0.8c0.2,0.1,0.1,0.5,0.2,0.6c0.1,0.2,0.5,0.1,0.6,0.2
		c0.2,0.2,0.1,0.4,0.2,0.6c-0.2,0.1-0.4,0.4-0.6,0.4c-0.2,0.1-0.4,0-0.6,0c-0.7,0.2-1.2,0.4-1.9,0.6c-0.5,0.1-0.8,0.3-1.2,0.4
		c-0.5,0.2-0.7,0.4-1.2,0.4c-0.3,0-0.4-0.4-0.6-0.4c-0.2,0-0.4-0.2-0.6-0.2h-0.7c-0.5,0-0.8,0.2-1.2,0.2c-0.2,0-0.4,0.2-0.6,0.2
		c-0.5,0-0.8-0.2-1.2-0.2c-0.5,0-0.9,0.1-1.3,0.2c-0.2,0-0.4,0.3-0.6,0.4c-0.5,0.2-0.7,0.7-1.2,0.7c-0.3,0-0.4-0.4-0.6-0.5
		c-0.2-0.2-0.3-0.5-0.4-0.6c-0.4-0.4-0.8-0.6-1.2-0.8c-0.2-0.1-0.5-0.1-0.6-0.2c-0.6-0.5-0.8-1.1-1.1-1.8c-0.2,0-0.4-0.1-0.6,0
		c-0.2,0.1-0.2,0.5-0.4,0.6s-0.4,0.1-0.6,0.2c-0.5,0.3-0.8,0.6-1.2,0.8c-0.2,0.1-0.4,0.3-0.6,0.4c-0.3,0.2-0.6,0.3-0.9,0.4
		c-0.2,0.1-0.2,0.5-0.4,0.6c-0.3,0.2-0.5,0.3-0.8,0.4c-0.2,0.1-0.4,0-0.6,0.1c-0.3,0.1-0.4,0.5-0.6,0.6c-0.4,0.2-0.7,0.4-1,0.6
		s-0.4,0.5-0.7,0.6c-0.3,0.2-0.8,0.2-1,0.4c-0.2,0.1-0.3,0.5-0.4,0.6c-0.4,0.4-0.7,0.8-1,1.2c-0.8,1.1-1.3,1.7-1.8,2.9
		c-0.2,0.5-0.3,0.9-0.5,1.4c-0.1,0.4-0.4,0.7-0.4,1s0.1,0.6,0,0.9c0,0.2-0.2,0.4-0.2,0.6v0.8c-0.1,0.4-0.4,0.7-0.4,1v0.6
		c0,0.2-0.2,0.4-0.2,0.6c-0.1,0.6-0.1,0.9-0.2,1.5c-0.1,0.3-0.2,0.5-0.2,0.8c0,0.5-0.2,0.8-0.2,1.2v0.8c0,0.6-0.3,1.1-0.4,1.7v0.8
		c0,0.3-0.2,0.5-0.2,0.8c0,0.7-0.1,1.2-0.2,1.8c-0.2,0.9-0.4,1.4-0.6,2.3c-0.1,0.5-0.4,0.9-0.4,1.4c0,0.4,0,0.6,0,1
		c0,0.5-0.2,0.7-0.2,1.1v0.8c0,0.3-0.2,0.4-0.2,0.6v0.6c0,0.5-0.2,0.8-0.2,1.2c-0.1,0.3-0.1,0.6-0.2,0.9c-0.1,0.2,0.1,0.4,0,0.6
		c-0.1,0.3-0.4,0.4-0.5,0.6c-0.1,0.2,0,0.4,0,0.6c0,0.2-0.2,0.4-0.2,0.6c-0.1,0.6-0.1,0.9-0.2,1.4c0,0.2-0.4,0.4-0.4,0.6
		c-0.2,0.5-0.5,0.8-0.6,1.3c0,0.2,0.1,0.4,0,0.6c-0.1,0.2-0.3,0.4-0.4,0.6c-0.1,0.3-0.5,0.4-0.6,0.6c-0.1,0.2,0.1,0.4,0,0.6
		c0,0.2-0.1,0.4-0.2,0.6c0,0.3-0.4,0.4-0.4,0.7c0,0.5,0.5,0.8,0.8,1c0.4,0.3,0.8,0.5,1.2,0.8c0.2,0.1,0.2,0.5,0.4,0.6
		c0.5,0.4,0.9,0.6,1.5,0.8c0.2,0.1,0.4,0.4,0.6,0.4c0.6,0.2,1.1,0.1,1.6,0.4c0.3,0.1,0.3,0.5,0.6,0.7c0.3,0.1,0.6,0.1,0.8,0.2
		c0.3,0.1,0.4,0.5,0.7,0.6c0.8,0.5,1.1,0.9,1.8,1.4c0.2,0.1,0.5,0.3,0.6,0.4c0.3,0.3,0.5,0.4,0.8,0.6c0.2,0.1,0.2,0.5,0.4,0.6
		s0.4-0.2,0.6,0c0.5,0.4,0.6,0.9,1.1,1.3c0.2,0.1,0.4,0.1,0.6,0.2c0.2,0.1,0.4,0.4,0.6,0.4c0.3,0.1,0.6,0.2,0.9,0.2
		c0.9,0,1.4-0.4,2.2-0.6c0.8-0.2,1.4-0.3,2.2-0.4c0.3,0,0.6,0.1,0.8,0c0.3,0,0.4-0.4,0.6-0.5c0.2-0.1,0.5-0.1,0.6-0.2
		c0.2-0.1,0.1-0.5,0.3-0.6c0.2-0.2,0.4-0.5,0.6-0.6c0.2-0.1,0.4-0.2,0.6-0.2c0.7-0.3,1.1-0.2,1.8-0.2c0.2,0,0.4,0.2,0.6,0.2
		s0.4-0.2,0.6-0.2s0.5-0.2,0.7-0.2c0.5-0.1,0.1-0.1,0.6-0.3c0.2,0,0.2-0.5,0.4-0.5c0.2-0.1,0.9,0.1,1.1,0.1c0.3,0,0.3,0.1,0.6,0.1
		h0.8c0.7,0,0.5,0.1,1.2,0.1c0-0.7,1-1.6,1.2-2.2c0.1-0.5,0.3-0.9,0.6-1.2c0.4-0.4,0.8-0.5,1.2-0.6c0.5-0.2,0.8-0.3,1.2-0.4h0.7
		c0,0.2,0.1,0.4,0.2,0.6c0.1,0.2,0,0.6,0.2,0.6c0.4,0.2,0.6,0.2,1,0.2s0.7-0.3,1-0.4c0.5-0.2,0.8-0.3,1.2-0.4c0.2,0,0.5-0.2,0.7-0.2
		c0.2-0.1,0.4,0.1,0.6,0c0.2-0.1,0.4-0.4,0.6-0.4c0.2,0,0.4-0.2,0.6-0.2c0.4,0,0.8,0,1.2,0c0.3,0,0.5-0.2,0.8-0.2h0.9
		c0.3,0,0.3,0.2,0.6,0.2c0.2,0.1,0.6,0.2,0.8,0.4c0.4,0.4,0.6,0.8,0.8,1.2c0.1,0.2,0,0.4,0,0.6l-0.2,0.3c-0.5,0.3-1,0.4-1.4,0.9
		c-0.1,0.2-0.2,0.4-0.2,0.6c-0.2,0.5-0.4,0.9-0.4,1.5c0,0.4,0.2,0.6,0.2,0.9c0.1,0.8,0.2,1.3,0.6,1.9c0.1,0.2,0.5,0.3,0.6,0.4
		c0.2,0.2,0.4,0.5,0.6,0.6c0.5,0.3,0.9,0.4,1.4,0.6c0.5,0.3,0.9,0.7,1.3,1c0.2,0.1,0.5,0.3,0.6,0.4c0.2,0.2,0.4,0.5,0.6,0.6
		c0.7,0.5,1.2,0.7,1.8,1.1c0.3,0.2,0.6,0.3,0.8,0.4c0.3,0.2,0.4,0.5,0.6,0.6c0.5,0.3,0.9,0.3,1.3,0.6c0.3,0.2,0.6,0.4,0.8,0.6
		c0.2,0.2,0.1,0.5,0.2,0.6c0.1,0.2,0.5,0.2,0.6,0.4c0.2,0.4,0.3,0.8,0.4,1.3c0.1,0.2,0.4,0.4,0.4,0.6c0.1,0.2,0,0.4,0,0.6
		c0,0.2,0.2,0.4,0.2,0.6v0.9c0,0.4,0,0.6,0,0.9c0,0.3-0.4,0.4-0.4,0.7l0.6,1.8c-0.2,0.1-0.4,0.3-0.6,0.4c-0.3,0.1-0.6,0.1-0.8,0.2
		c-0.1,0.1-0.4,0.4-0.4,0.6c-0.1,0.2,0.2,0.4,0.2,0.6v0.7c0,0.5-0.2,0.8-0.2,1.3v0.6c0,0.3,0,0.6,0,0.8c-0.1,0.2-0.4,0.4-0.4,0.6
		c-0.1,0.2-0.2,0.4-0.2,0.6c-0.2,0.5-0.3,0.8-0.4,1.3c-0.1,0.2-0.3,0.4-0.4,0.6c-0.1,0.2-0.1,0.5-0.2,0.6c-0.2,0.2-0.5,0.2-0.7,0.4
		c-0.1,0.2-0.4,0.4-0.4,0.6c0,0.5,0.5,0.8,0.9,1c0.6,0.4,1,0.5,1.6,0.8c0.2,0.1,0.4,0,0.6,0.2c0.5,0.3,0.7,0.8,1,1.3
		s0.5,0.8,0.8,1.2c0.1,0.2,0.4,0.4,0.5,0.6c0.1,0.2,0.4,0.4,0.4,0.6c0,0.2,0,0.4,0,0.6c0.1,0.4,0.5,0.6,0.6,0.9
		c0.1,0.2,0.3,0.4,0.4,0.6c0.1,0.3,0.1,0.6,0.2,0.8c0,0.2,0.4,0.4,0.4,0.6c0.2,0.5,0.4,0.9,0.4,1.4v0.8c0.1,0.5,0.4,0.8,0.4,1.3
		c0,0.3-0.2,0.4-0.2,0.6c0,0.3,0.2,0.4,0.2,0.6c0,0.3-0.2,0.4-0.2,0.6v0.4c0,0.8-0.1,1.5,0.4,2.1c0.1,0.2,0.6,0,0.6,0.2
		s0.2,0.4,0.2,0.6v0.3c0,0.5-0.4,0.7-0.4,1.2c0,1.3,1.9,1.4,1.9,2.6c0,0.6-0.6,0.8-0.8,1.2c-0.1,0.2-0.2,0.4-0.3,0.6
		c-0.1,0.2-0.6,0.2-0.6,0.4v0.3c0,0.4,0.3,0.6,0.4,0.9c0.1,0.3,0.4,0.4,0.5,0.7c0,0.2,0.2,0.4,0.2,0.6c0.2,0.5,0.3,0.8,0.4,1.2
		c0.3,0.7,0.6,1.3,1.2,1.4c0.4,0.1,0.8,0,1.2,0c0.2,0,0.4-0.2,0.6-0.2c0.5,0,0.8,0,1.3,0c0.7,0,1.2,0.3,1.8,0.4c0.6,0,1,0,1.6,0
		s1,0.1,1.6,0c0.2,0,0.4-0.4,0.6-0.4c0.2,0,0.4,0.1,0.6,0c0.2,0,0.4-0.4,0.6-0.4c0.5-0.2,0.8-0.5,1.2-0.6c0.2,0,0.4,0,0.6,0
		c0.3,0,0.4-0.4,0.7-0.4c0,0,0,0,0.1,0c13.1-16.3,22.3-35.9,26.3-57.3C278.5,154.3,278.4,154.3,278.2,154.1z"/>
	<path class="st1" d="M99.2,245.7c0.7-1,1.6-1.6,1.6-2.9c0-1.2-1.4-1.5-1.4-2.7c0-0.6,0.5-1,0.9-1.4c0.2-0.3,0.7-0.2,0.7-0.5
		c0-1.1-0.9-1.5-0.9-2.6v-1.4c1.5-0.2,3,0.4,3.8-0.9c0.1-0.2-0.2-0.4-0.2-0.8c0-0.6,0.5-0.9,0.9-1.4c0.9-1.2,2.1-1.1,3.6-1.4
		c0.9-0.2,1.3-0.7,2.1-1.1c0.9-0.5,2.2-0.7,2.2-1.8c0-0.4-0.4-0.4-0.5-0.7c-0.7-1.3-2-1.8-2-3.3c0-0.6,0.6-1.1,1.3-1.1
		c0.4,0,0.4,0.6,0.8,0.7c1,0.5,1.8,0.9,3,0.9c1.1,0,1.8-0.1,2.7-0.7c0.2-0.1,0.5-0.1,0.7-0.4c0.1-0.2,0-0.5,0.2-0.7
		c0.6-1,1-1.8,1.8-2.7c0.8-0.8,1.3-1.4,2.4-2c0.7-0.4,1.3,0,2-0.5c0.9-0.8,1.3-1.6,2.4-2c-0.1-0.7-0.2-1.2-0.7-1.6
		c-0.4-0.4-1.1-0.5-1.1-1.1c0-0.4,0.5-0.6,0.8-0.9c1.5-1.6,2.9-1.9,4.9-2.7c1.2-0.5,1.7-1.5,3-1.6s2.1-0.4,3.4-0.7
		c0.9-0.2,1.6,0,2.3-0.5c1.3-1.1,0.7-2.6,0.9-4.3c0.3-1.8,1.3-2.8,1.3-4.6c0-1-0.4-1.7-1.1-2.5c1.5-0.8,2.1-1.7,3-3.1
		c0.1-0.2,0-0.5,0.2-0.7c0.2-0.3,0.7-0.2,0.9-0.5c0.4-0.5,0.4-0.9,0.7-1.4c1.2-2.2,3.6-2.9,3.6-5.4c0-0.9-0.8-1.1-1.4-1.7
		c-1.1-1.1-2.4-0.6-3.8-1.1c-0.6-0.2-0.9-0.6-1.4-0.9c-0.9-0.5-1.4-1.1-2.5-1.3c-1.5-0.2-2.3,0.1-3.8,0c-1.4-0.1-2.3,0.1-3.6-0.4
		c-0.9-0.3-1.4-0.9-2.4-1.1c-2.1-0.6-3.3-0.6-5.4-0.9c-0.5,0-0.9-0.4-1.4-0.4c-1.1,0-1.3,1.4-2.5,1.4c-0.8,0-1.7-0.3-1.7-1.1
		c0-1.5,2.2-1.7,2.2-3.1c0-0.5-0.4-0.8-0.8-1c-0.8-0.6-1.5-0.8-2.1-1.6c-0.8-0.9-1-1.7-2-2.4c-1.4-1-2.7-1.1-4.5-1.3
		c-2.9-0.3-4.5-1.3-6.7-3.1c-1-0.8-1.5-1.6-2.7-2l0.2-0.7c-0.5-1-1.3-1.3-2.4-1.6c-0.3,0-0.5,0.2-0.9,0.2s-0.6-0.3-1.1-0.4
		c-1.5-0.1-2.4,0.2-3.8,0c-0.8-0.1-1.3-0.1-2-0.4c-0.6-0.3-0.5-1-1.1-1.4c-1.1-0.9-2.1-1-3.6-1.3c-0.3,0.9-0.5,1.5-0.9,2.3
		c-0.4-0.8-0.6-1.3-1.1-2.1c-0.3-0.6-0.7-1.3-1.4-1.3c-1.8,0-3,0.1-4.7,0.5l0,0c-0.9-0.9-1.7-1.9-2.8-2.6c-0.9-0.6-1.9-1-2.9-1.5
		c-0.4-0.3-0.7-0.7-1.1-1c-0.6-0.5-1.3-1-1.9-1.5c-0.5-0.8-1-1.7-1.6-2.5c-0.7-0.9-1.7-1.8-2.6-2.5c-0.7-0.5-2.7-1.7-3.5-1.6
		c-0.2-0.1-0.3-0.1-0.3-0.1c0-0.2,0-0.4,0.1-0.7c0.1-0.6,0.2-1.2,0.2-1.8c0-1.3,0-2.5,0-3.8c1.7-0.4,3.8-1,5.8-1.9
		c0.1,0.3,0.3,0.5,0.6,0.5c0.8,0,1.3-0.3,2.1-0.5c0,0.1,0,0.2,0,0.2c0.1,1.1,0,2.6,0.7,3.5c0.9,1.2,3.1,1.3,3.4-0.4
		c0.3-1.6,0.5-3.1,0.5-4.7c0.1,0,0.2-0.1,0.3-0.2c0.3-0.3,0.2-0.8,0.3-1.2c0.1-0.4,0.3-0.7,0.3-1.2c0.1-1.4,0-2.1,0-3.5
		c0-0.6-0.3-0.9-0.3-1.5s0.2-1.1,0.5-1.5l0,0c0.2-0.3,0.4-0.5,0.7-0.8c0.4-0.3,0.7-0.4,1.2-0.6c0.8-0.4,1.5-0.7,2.3-0.9
		c0.4-0.1,0.7,0.3,1.2,0.3c0.6-0.1,0.7-0.7,1.2-0.9c0.5-0.1,1-0.4,1.5-0.6c0.4-0.1,0.7-0.4,1.2-0.6c0.4-0.1,0.8-0.1,1.2-0.3
		c0.5-0.2,0.7-0.7,1.2-0.9l-0.6-2.3c0.3-0.1,0.4-0.3,0.6-0.5c1.4,0.4,3,0.3,4.3-0.5c1.1-0.7,2.1-1.2,2.9-2c0.6-0.3,1.1-0.6,1.5-1.2
		c0.1-0.1,0.2-0.2,0.3-0.5c0.9-0.1,1.7-0.3,2.6-0.3c0.5,0,1,0,1.6-0.1c0.4,0,0.8,0.1,1.2,0c0.1,0,0.2,0,0.3-0.1
		c0.6-0.1,1.1-0.2,1.6-0.5s0.6-0.8,0.3-1.3c-0.1-0.2-0.3-0.5-0.5-0.7c0.4-0.2,0.6-0.6,0.8-1c0.4,0,0.8,0.1,0.9,0.1
		c1.4,0.1,3-0.4,4.2-1.3c0.2-0.1,0.5-0.1,0.7-0.2c1.5-0.6,2.8-1.6,4.3-1.9c0.8-0.2,1.4-1,1.4-1.8c-0.1-1.2-0.6-1.8-1.4-2.6
		c-0.1,0-0.1-0.1-0.2-0.2v-0.1v-1.3c0-0.1,0.1-0.2,0-0.3c0-0.1-0.1-0.2-0.1-0.3c0-0.1-0.1-0.2-0.2-0.3c-0.1-0.1-0.2-0.2-0.3-0.3
		c-0.2-0.2-0.3-0.4-0.6-0.6c-0.2-0.1-0.4-0.2-0.6-0.3c-0.1-0.1-0.2-0.1-0.3-0.1c-0.1-0.1-0.1-0.2-0.2-0.3c-0.1-0.2-0.2-0.4-0.2-0.6
		c0-0.1,0-0.1-0.1-0.2c0.2-0.3,0.3-0.6,0.4-0.9c0.4-0.4,0.8-0.9,0.9-1.2c0.2-1-0.7-2-1.2-2.9s-0.9-1.8-1.9-2.1
		c-1.2-0.4-2.6,0.2-3.8,0.2c-0.3,0-0.5,0-0.7,0.1l0,0c0-0.1-0.1-0.2-0.2-0.3c-1-1.1-2.4-1.6-3.6-2.5c-0.2-0.2-0.5-0.2-0.7-0.1
		c-0.5-0.3-1.4-0.1-1.5,0.8c-0.1,1-0.2,2.1-0.2,3.1c0,0.3,0,0.6,0,0.9l-0.1,0.1c-0.3-0.1-0.6-0.1-0.9-0.1c-0.8-0.1-1.4-0.1-2.1,0.1
		c0,0.1-0.1,0.1-0.2,0.2l-0.3,0.3c0,0.2,0.1,0.4,0,0.6c-0.2,1.4-0.4,2.6-0.4,4c0,1.9-3,1.9-3,0c0-1.2,0-2.5,0.1-3.7
		c-0.9-1-1.9-1.9-2.9-2.7c-0.3-0.2-0.5-0.5-0.8-0.7c0.9-1,1.5-2.2,1.6-3.4c0.1-0.4,0.1-0.7,0.1-1.1c1.2-0.8,2.6-1.4,3.7-2.3
		c0-0.1,0-0.3,0-0.4l0,0c0.2-0.7,0.8-1,1.4-1.1c0.1,0,0.1,0,0.2,0c0-0.1,0.1-0.1,0.1-0.2c0.4-0.6,1-0.8,1.7-0.7
		c0.3-0.8,0.5-1.6,0.6-2.5c0-0.2,0-0.5,0-0.7l1.4-0.5h2c0.1,0,0.2-0.1,0.3-0.1h0.5c0.2,0,0.3,0,0.5-0.1c0.1,0,0.1-0.2,0.2-0.2
		c0-0.1,0-0.2-0.1-0.2c-0.1-0.1-0.2-0.1-0.2-0.2c-0.4-0.3-0.6-0.5-0.9-0.9c-0.2-0.2-0.3-0.4-0.4-0.7c0-0.2,0-0.3,0-0.5
		c0-0.1,0-0.2-0.1-0.2c0-0.1-0.2,0-0.2-0.1s0-0.2,0-0.2c0-0.2,0-0.3,0-0.5s-0.1-0.3-0.1-0.5c0-0.1,0.1-0.2,0.1-0.2
		c0-0.1-0.1-0.2-0.1-0.2c0-0.1-0.4-0.1-0.5-0.1c-0.3,0.2-0.5,0.4-0.8,0.6c-0.1,0.1-0.1,0.2-0.2,0.2s-0.2,0.1-0.2,0.2
		c-0.1,0-0.2,0.1-0.2,0.2c-0.1,0-0.1,0.2-0.2,0.2s-0.2,0.1-0.2,0.2c-0.2,0.2-0.3,0.3-0.4,0.5c-0.1,0.1-0.2,0.1-0.2,0.2
		c-0.1,0.2-0.1,0.4-0.2,0.5s-0.2,0.2-0.2,0.3c0,0.1,0,0.2-0.1,0.2l-0.1,0.1c-0.3-0.4-0.6-0.9-1-1.2l0,0c0.2-0.1,0.4-0.3,0.5-0.5
		c0.1-0.1,0.1-0.2,0.2-0.2c0.1-0.1,0.2-0.1,0.2-0.2c0.1-0.1,0.2-0.2,0.2-0.2c0.3-0.2,0.4-0.4,0.6-0.6c0.1-0.2,0.3-0.3,0.3-0.5
		c0.1-0.3,0-0.4,0-0.7s0.1-0.5,0.1-0.7c0.1-0.4,0.2-0.6,0.3-0.9c0-0.2,0.1-0.3,0.1-0.5c0-0.4-0.1-0.6-0.2-0.9
		c-0.1-0.2-0.2-0.3-0.2-0.5c0-0.1-0.1-0.1-0.1-0.2s0.1-0.2,0.1-0.3c-0.1,0.1-0.2,0.2-0.3,0.2c-0.1,0-0.2,0-0.2,0.1
		c-0.2,0.1-0.3,0.2-0.5,0.2c-0.1,0-0.2,0.1-0.2,0.2c-0.1,0.1-0.2,0.2-0.3,0.2c-0.2,0.1-0.3,0.1-0.5,0.2c-0.1,0.1-0.1,0.2-0.2,0.2
		c-0.1,0.1-0.1,0.2-0.2,0.3c0,0.1-0.2,0-0.2,0.1c-0.1,0.1-0.1,0.2-0.2,0.3c-0.3,0.2-0.5,0.3-0.8,0.5c-0.1,0-0.1,0.2-0.2,0.2
		c-0.3,0.2-0.5,0.4-0.8,0.5c-0.1,0-0.2,0-0.2,0.1c-0.2,0.1-0.3,0.3-0.4,0.5c-0.7-1.3-1.8-2.4-3.2-2.9c-0.7-0.7-1.4-1.4-2.1-2.1
		c0.1-0.2,0.2-0.6,0-0.9c-0.4-0.7-0.7-1.3-1.1-2c-0.4-0.8-0.7-1.7-1.2-2.5c-0.1-0.2-0.2-0.5-0.3-0.7c-0.6-1.4-1.4-2.9-1.8-4.4
		c-0.1-0.3-0.1-0.6-0.2-0.9c0-0.2-0.1-0.3-0.2-0.5s-0.2-0.3-0.3-0.5c0-0.2,0-0.5,0-0.7c0-0.5-0.1-1.1-0.2-1.6c0-0.4,0.1-0.8,0.2-1.2
		c0.1-0.3,0.4-0.5,0.6-0.9c0.2-0.3,0.3-0.5,0.4-0.9c0.3-0.6,0.7-1,0.9-1.7c0.1-0.3,0-0.6,0-0.9c0-0.3,0.2-0.5,0.2-0.9v-1.1
		c0-0.3,0.2-0.5,0.2-0.9V39c0-0.3,0.2-0.5,0.2-0.9s-0.3-0.5-0.4-0.9c-0.2-0.4-0.6-0.5-0.9-0.9C86,36,86,35.7,85.8,35.4
		S85.3,35.1,85,35c-0.3-0.2-0.5-0.5-0.8-0.6c-0.6-0.2-1.1,0-1.7,0s-1.1,0-1.7-0.2c-0.3-0.1-0.6-0.1-0.9-0.2
		c-0.8-0.6-0.6-1.6-0.6-2.6c-0.3,0.1-0.6-0.1-0.8,0c-0.6,0.4-1,0.9-1.5,1.5c-0.3,0.3-0.4,0.5-0.6,0.9c-0.2,0.3-0.1,0.9-0.4,1
		S75.5,35,75.1,35s-0.6-0.4-0.9-0.6c-0.3-0.3-0.4-0.5-0.6-0.9c-0.2-0.2-0.1-0.6-0.2-0.9c-0.3-0.4-0.8-0.4-1.4-0.4s-0.8,0.4-1.4,0.4
		h-0.9c-0.6,0-1.1-0.1-1.7,0c-0.4,0.1-0.5,0.4-0.9,0.6c-0.3,0.2-0.6,0.4-0.9,0.6c-0.2,0.3-0.2,0.6-0.4,0.8c-0.3,0.2-0.6,0.2-0.9,0.4
		s-0.4,0.6-0.6,0.9c-0.3,0.2-0.6,0.4-0.9,0.6c-0.8,0.8-1.2,1.7-2.4,1.7c-0.4,0-0.5-0.4-0.9-0.4c-0.1,0.3-0.5,0.5-0.6,0.9
		c-0.1,0.3,0,0.5,0,0.9c0,0.6-0.2,1.2,0.2,1.7c0.2,0.2,0.5,0.1,0.8,0.2c0.6,0.4,1,0.6,1.7,0.9c0.3,0.1,0.6,0.1,0.9,0.2
		c0.3,0.1,0.6,0.1,0.9,0.2c0.3,0.2,0.3,0.5,0.4,0.9c0.2,0.3-0.1,0.6,0,0.8c0.2,0.3,0.6,0.4,0.9,0.6c0.3,0.2,0.7,0.1,0.9,0.4
		c0.1,0.1,0,0.3,0,0.4c0,0.5-0.4,0.8-0.6,1.3c-0.2,0.4-0.6,0.4-0.6,0.9c0,0.7,0.4,1.1,0.6,1.7c0.1,0.3,0.4,0.4,0.4,0.8
		c0,1.1-0.8,1.6-1.3,2.5c-0.1,0.3-0.1,0.6-0.2,0.8c-1.4,1-2.3,2.6-3.1,4.3c0.6-1.3-0.2,0.3-0.3,0.5c-0.3,0.5-0.5,1.1-0.9,1.6
		c-0.1,0.2-0.2,0.3-0.3,0.5c0.2-0.3,0.1-0.3-0.1,0c-0.6,0.7-1.1,1.3-1.5,2.1c-0.4,0.7-0.7,1.4-0.9,2.2c0,0.1-0.1,0.2-0.1,0.3
		c0,0.1-0.1,0.2-0.2,0.5c-0.1,1.8-0.1,1.9-0.1,2c0,0-0.1,0.1-0.3,0.3c-0.3,0.4-0.6,0.7-1,1c-1.4,1.5-2.7,3-3.6,4.8
		c-0.1,0.1-0.1,0.2-0.3,0.2c-0.4,0.1-0.8-0.2-1.2,0c-0.3,0.1-0.4,0.3-0.6,0.4c-0.2,0.2,0,0.5-0.1,0.7c-0.3,0.5-0.8,0.6-1.2,1
		c-0.1,0.2-0.1,0.4-0.3,0.6c-0.4,0.3-0.8,0.5-1.2,0.7c-0.3,0.1-0.3,0.4-0.6,0.6c-0.2,0.1-0.4,0.2-0.6,0.3c-0.5,0.3-0.7,0.6-1.2,0.9
		c-0.2,0.1-0.4,0.2-0.6,0.3c-0.3,0.1-0.3,0.4-0.6,0.6c-0.2,0.1-0.4,0.2-0.6,0.3c-0.2,0.1-0.4,0.3-0.6,0.4c-0.4,0.2-0.7,0.5-1.2,0.7
		c-0.2,0.1-0.5,0.2-0.7,0.3c-0.3,0.1-0.5,0.4-0.7,0.6c-0.5,0.4-0.8,0.7-1.2,1.2c-0.3,0.4-0.5,0.8-0.7,1.2c-0.4,0.6-0.9,1-0.9,1.8
		c0,0.5,0.3,0.7,0.4,1.2c0,0.2,0.1,0.4,0.1,0.6c-0.4,0.2-0.8,0.3-1.2,0.6c-0.2,0.1-0.3,0.4-0.4,0.6c-0.1,0.2-0.3,0.4-0.4,0.6
		c-0.1,0.2-0.3,0.3-0.4,0.6c-0.1,0.2-0.2,0.4-0.3,0.6s-0.1,0.4-0.1,0.6c-0.1,0.2-0.3,0.4-0.3,0.6s0,0.4,0,0.6c0,0.9,0.2,1.5,0.4,2.3
		c0.1,0.7,0.4,1.1,0.4,1.8c0,0.3,0,0.6,0,0.9s0.1,0.6,0,0.9c0,0.2-0.2,0.4-0.3,0.6c-0.1,0.4-0.3,0.7-0.4,1.2c0,0.2-0.1,0.4-0.1,0.6
		c-0.2,0.4-0.5,0.7-0.6,1.2c0,0.2,0,0.4,0,0.6c0,0.4-0.1,0.8-0.1,1.2c0,0.2,0,0.4,0,0.6s-0.3,0.4-0.3,0.6s-0.1,0.4-0.1,0.6
		s0,0.4,0,0.6s-0.1,0.4-0.1,0.6s0.1,0.4,0.1,0.6c0,0.7,0,1.1,0,1.8c0,0.2,0.1,0.4,0.1,0.6v0.6c0,0.2,0.1,0.4,0.1,0.6v0.6
		c0,0.2,0.1,0.4,0.1,0.6c0,0.5-0.2,0.7-0.3,1.2c0,0.2-0.1,0.4-0.1,0.6s0.1,0.4,0.1,0.6c0,0.5-0.3,0.7-0.3,1.2c0,0.2,0.1,0.4,0.1,0.6
		s0.2,0.4,0.3,0.6c0.1,0.3,0.3,0.4,0.6,0.6c0.4,0.2,0.7,0.4,1.2,0.6c0-0.2,0.1-0.4,0.1-0.6s0.2-0.3,0.2-0.5c0-0.7-0.1-0.9-0.1-1.6
		c0-0.2-0.2-0.7-0.1-0.8c0.1-0.4,0.2-0.7,0.3-1.2v-0.6c0-0.2,0.1-0.4,0.1-0.6c0.1-0.9-0.1-1.4,0-2.3c0-0.2-0.1-0.7,0-0.9
		c0.1-0.8,0.2-1.1,0.2-1.9c0-0.3,0.1-0.3,0.1-0.7c0-0.2,0-0.4,0-0.6c0.1-0.4,0.4-0.6,0.6-0.9l0.6,0.1c0,0.3,0.1,0.4,0.1,0.6
		c0,0.6-0.3,0.8-0.6,1.3c-0.1,0.3-0.1,0.4-0.1,0.6c-0.2,0.6-0.2,1.1-0.2,1.8c0,0.4,0,0.8,0.1,1.2c0,0.2,0,0.4,0,0.6s0,0.3,0,0.5
		c0,0.4,0,0.7,0,1.2c0,0.4,0,0.8,0.1,1.2c0.3,0.9,0.9,1.4,1,2.3c0.1,0.7-0.1,1.1,0,1.8c0.1,0.5,0.3,0.8,0.4,1.3
		c0,0.2,0.1,0.4,0.1,0.6c0.2,0.5,0.4,0.7,0.6,1.2c0.1,0.2,0.1,0.4,0.1,0.6c0.1,0.2,0.3,0.3,0.3,0.6v0.3c0,0.4-0.1,0.6-0.3,0.9
		c-0.1,0.3-0.3,0.3-0.4,0.6c-0.3,0.5-0.4,0.9-0.4,1.5c0,0.7,0.2,1,0.4,1.6c0.1,0.2,0.1,0.4,0.1,0.6c0.1,0.3,0.4,0.3,0.4,0.6
		c0.2,0.4,0.2,0.7,0.3,1.2c0.1,0.4,0.1,0.8,0.3,1.2c0.1,0.3,0.3,0.4,0.4,0.6c0.1,0.2,0.1,0.4,0.3,0.6c0.1,0.2,0.4,0.3,0.6,0.4
		c0.1,0.2,0.3,0.4,0.4,0.6c0.4,0.4,0.6,0.8,1,1.2c0.2,0.1,0.4,0.3,0.6,0.4c0.4,0.4,0.5,0.8,0.9,1.2c0.2,0.2,0.4,0.3,0.6,0.4
		c0.2,0.2,0.3,0.4,0.4,0.6c0.2,0.2,0.4,0.3,0.6,0.4c0.4,0.4,0.7,0.6,1.2,0.9c0.4,0.2,0.7,0.4,1.1,0.6c0.6,0.5,1.3,1.1,1.9,1.6
		c1.1,1.4,2.4,2.6,3.7,3.7c0.4,0.3,0.9,0.5,1.3,0.5c1.7,1.3,3.4,2.5,5.2,3.6c1.6,0.9,2.9,1,4.7,1.2c1.3,0.1,2.6,0.6,3.8,1.3
		c0.1,0.2,0.2,0.3,0.4,0.4c0.8,0.8,1.7,1.4,2.6,1.9c0.8,0.8,1.6,1.6,2.4,2.4c0.6,0.6,1.1,1.3,1.7,2c-0.2,0.3-0.4,0.5-0.7,1
		c0.4,1.7,0.5,2.6,0.5,4.3s-1.3,2.6-2.5,3.8c-0.2,0.2-0.2,0.5-0.4,0.8c-1.4,1.6-2.5,2.7-2.5,4.8c0,1,0.4,1.6,0.4,2.6
		c0,0.4-0.3,0.7-0.3,1.1c0,0.4,0.3,0.7,0.3,1.1c-0.1,1.4-0.7,2.1-0.7,3.6c0,2.2,1.8,3,2.9,4.9s1.2,3.4,2,5.4
		c0.5,1.3,0.6,2.2,1.2,3.4c0.3,0.6,1,0.5,1.6,0.7s0.9,0.8,1.6,0.8c1.2,0,2.1-0.8,3,0c0.2,0.1-0.2,0.4-0.2,0.7c0,0.4,0.5,0.3,0.7,0.5
		c0.3,0.3,0.5,0.5,0.9,0.7c0.8,0.5,1.4,1,2,1.8c0.6,0.9,1,1.4,1.4,2.4c0.1,0.3,0.5,0.4,0.5,0.7c0,0.6-0.5,0.8-0.5,1.4v5.3
		c0,0.5-0.5,0.7-0.5,1.3s0.3,0.9,0.4,1.4c0.1,1-0.1,1.7,0,2.7c0,0.3,0.4,0.4,0.4,0.7c0,0.5-0.2,0.9-0.2,1.4c0,0.9,0.4,1.3,0.4,2.2
		c0,0.5-0.2,0.8-0.2,1.3c0,0.6,0.4,1,0.4,1.6c0,0.5,0.1,0.9-0.2,1.3c-0.1,0.2-0.6,0.1-0.7,0.4c-0.6,1-0.9,1.8-0.9,3
		c0,1.7-0.1,2.9,0.7,4.2c0.3,0.5,0.9,0.6,1.3,1.1c1,1.2,1.3,2.2,1.3,3.8c0,0.3-0.2,0.4-0.2,0.7v5.3c0,0.7,0.8,0.9,0.9,1.6
		c0.2,0.9,0.5,1.6,0.9,2.3c2.7,1.4,5.5,2.8,8.4,4c-0.2-0.9-0.4-1.9-0.4-3.1C98.5,246.2,99,246.1,99.2,245.7z M76.4,96.4
		c0.2-0.4,0.7-0.8,1.5-1c1.2-0.2,2.2-0.2,3.3-0.2c0.1,0,0.1,0,0.2,0c0.3,0.1,0.7,0.2,1,0.2c0.4,0.2,0.8,0.3,1.1,0.5
		c1.3,1.1,2.6,2.4,3.7,3.6c-0.3-0.4,0,0.2,0.1,0.2c0.1,0.3,0.2,0.6,0.2,0.7c0.5,1.5,0.3,1.7,0.6,3.2c-0.3,0.5-0.5,1-0.6,1.5
		c-0.2,0.1-0.3,0.3-0.5,0.4c-0.5,0.4-0.9,1-1.2,1.6c-0.1,0.1-0.1,0.1-0.2,0.2c-0.6,0.6-1.1,1.2-1.6,1.9c-0.2,0-0.4,0-0.6,0
		c-1.4-0.2-2.5-0.7-2.1-1.4c0.1-0.2,0.4-0.4,0.7-0.5c0.2-0.1,0.4-0.2,0.6-0.3c0.7-0.2,1.4-0.5,1.6-1.2c-0.6,0-1.2,0.2-1.7-0.3
		c-0.7-0.8-0.2-2.5-1.3-2.5c-0.3,0-0.5,0-0.7,0.1c-0.3,0.2-0.6,0.6-0.8,1c-0.3,0.9-0.4,2-1.8,2c-0.2,0-0.4,0-0.5,0
		c-0.5-0.1-0.9-0.2-0.9-0.7c0-2.4,0.4-2.9,2.1-4.5c0.5-0.5,1.9-0.1,2-0.9c-0.7-0.2-0.6-0.6-0.7-1.2l-0.1-0.2v-0.1
		C77,98.6,75.8,97.4,76.4,96.4z"/>
	<path class="st1" d="M80.9,22.2c0,0.7,0,1.4,0.6,1.8c0.4,0.2,0.7,0.5,1.2,0.6c0.4,0.1,0.7-0.1,1.2,0l0.3,1.2
		c-0.3,0.4-0.2,1-0.6,1.2s-0.8,0.4-1.2,0.6c-0.4,0.3-0.7,0.6-1.2,0.9C80.7,28.9,80,29,80,29.7c0,1.5,1,2.6,2.3,2.9
		c0.4,0.1,0.7,0.3,1.2,0.3s0.2-1,0.6-1.2c0.4-0.3,0.7-0.6,1.2-0.9c0.4-0.2,0.7-0.4,1.2-0.6c0.8-0.4,1.5-0.7,2.3-0.9
		c0.4-0.1,0.8-0.2,1.2-0.3c0.4-0.1,0.8,0.1,1.2,0c0.9-0.2,1.4-0.9,2.3-0.9c0.6,0,0.6,0.9,1.2,0.9c0.7,0,0.7-0.7,1.2-1.2
		c0.4-0.4,0.7-0.8,1.2-1.2c0.5-0.4,1-0.5,1.5-0.9s0.7-0.9,1.2-1.2c0.8-0.4,1.4-0.9,2.3-1.2c0.4-0.1,0.8-0.2,1.2-0.3
		c0.9-0.2,1.4-0.6,2.3-0.6c0.4,0,0.7,0.3,1.2,0.3h2.3c0.4,0,0.7-0.3,1.2-0.3c0.6,0,0.9,0.3,1.5,0.3c0.4,0,0.7-0.3,1.2-0.3
		c1.5,0,2.3,0.1,3.8,0c0.4,0,0.8,0.1,1.2,0c0.4-0.1,0.7-0.4,1.2-0.6c1-0.4,1.2-1.5,2.3-1.8c0.4-0.1,0.8,0.1,1.2,0
		c0.4-0.1,0.7-0.3,1.2-0.3h3.9c0.1,1.5,0.1,2.3,0,3.8h2.2c0.4,0,0.7,0.3,1.1,0.3c0.6,0,0.7-0.8,1.2-0.9c0.4-0.1,0.7-0.3,1.2-0.3
		s0.7,0.4,1.2,0.6c0.4,0.1,0.7,0.4,1.2,0.6c0.4,0.1,0.8,0.2,1.2,0.3c0.4,0.1,0.8,0.3,1.2,0.3h1.2c0.4,0,0.7,0.2,1.2,0.3
		c-0.5,0.3-1,0.6-1.5,0.9c-1,0.5-2.3,0.9-2.3,2.1c0,0.7,0.1,1.2,0.6,1.8c0.6,0.8,1,1.8,2.1,1.8c0.5,0,0.7-0.6,1.2-0.6
		c0.4,0,0.7-0.3,1.2-0.3s0.7,0.4,1.2,0.6c1.4,0.5,2.1,1.4,3.5,1.8c0.4,0.1,0.8,0,1.2,0c0.7,0.1,1.2,0.3,2.1,0.3
		c0.7,0,1.2-0.1,1.8-0.3c0.4-0.1,0.8-0.1,1.2-0.3c0.5-0.2,0.7-0.7,1.2-0.9l1.2-0.6c0.4-0.1,0.8-0.2,1.2-0.3l0.3,1.2
		c-0.9,1.1-1.5,1.8-1.5,3.2c0,0.7,0.3,1.4,0.9,1.8c0.4,0.2,0.8,0.1,1.2,0.3s0.7,0.4,1.2,0.6c1,0.4,1.7,0.7,2.6,1.2
		c0.4,0.1,0.8,0.1,1.2,0.3c0.5,0.2,0.6,0.7,0.9,1.2c0.3,0.5-0.3,1.2,0,1.8c0.3,0.7,1,0.7,1.5,1.2c0.9,0.7,1.3,1.5,2.1,2.3
		c0.4,0.4,0.8,0.7,1.2,1.2s0.9,0.9,1.2,1.5c0.5,1,0.7,1.8,0.9,2.9c0.1,0.6,0.3,1.1,0.3,1.8c0,1.2-0.4,2.1-0.6,3.2
		c0,0.4-0.3,0.7-0.3,1.2c-0.1,0.7,0,1.1,0,1.8c0,1.5,0.3,2.4,0.6,3.8s0.6,2.2,1.2,3.5c0.1,0.4,0.4,0.7,0.6,1.2
		c0.4,0.9,0.9,1.4,1.2,2.3c0.1,0.4-0.1,0.8,0,1.2c0.2,1.2,0.9,1.9,0.9,3.2c0,0.1,0,0.1,0,0.2c0.3,0.3,0.7,0.5,1,0.8l1.3,2.4l0.6-0.5
		l0.2,0.5l-0.2,0.7l1.7,0.2l1.4-3.4l0.9,0.4l0.1,0.5l4,3.6v-0.1c0.1,0.6,0.1,1.3-0.1,1.9l-0.6,0.6l-0.4-0.3l-0.7,0.2l-0.8-0.7v-2.2
		l-0.7-0.1l-0.5-1.3l-0.7,2.8l2.1,2.2l-2.4,3.9l0.4,1.1l-2,4.4l-1.3,0.2l0.7,1l-0.5,0.5l-0.9,0.1l-0.7,1.1l0.1,0.1l2.5,0.1l1.8,1.6
		l0.9,2.3l-4.9,2.2l-0.6,1.4l2,4.4l0.7,0.2l1,1.4l1-0.8l1.6,0.6l2-1.9l0,0l0.9-3.1l-0.5-0.3l0.9-4.4l-0.5-0.6l0.4-1.2l1.7-0.5
		l0.8-1.3c-0.1-0.2-0.2-0.4-0.3-0.6c0.4-0.2,0.8-0.2,1.3-0.2s0.7,0.5,1.2,0.6c0.4,0.1,0.8,0.3,1.2,0.3c0.5,0,0.9,0,1.3,0
		c0.7,0.5,1.2,0.9,2.1,0.9c0.4,0,0.6-0.2,0.9-0.3c0.5-0.3,1.9-0.2,2.7-0.2c0.4,0.1,0.8,0.1,1.2,0c0.3,0.1,0.6,0.1,1,0.1
		s0.7,0,1.1-0.1c0.1,0,0.2,0,0.2-0.1c0.2-0.2,0.3-0.4,0.3-0.7c0-0.3-0.2-0.4-0.3-0.7c-0.2-0.3-0.4-0.6-0.6-0.8c0-0.2,0-0.4-0.2-0.4
		c-0.2-0.1-0.5-0.1-0.7-0.2c-0.1-0.1-0.3-0.2-0.4-0.3c-0.2-0.2-0.3-0.3-0.5-0.3c-0.1,0-0.2,0.1-0.3,0.3c-0.1,0-0.3,0-0.5,0h-6
		l-0.1-0.1c-0.5-0.5-0.9-0.8-0.9-1.5c0-0.1,0-0.1,0-0.2c0.3-0.2,0.6-0.5,0.9-0.6c0.1,0.1,0.1,0.2,0.2,0.3c0.3,0.2,0.5,0.4,0.9,0.6
		c0.4,0.1,0.6,0.2,1,0.2c0.3,0,0.4-0.1,0.6-0.2c0.2,0,0.3,0.1,0.4,0.1c0.4,0.1,0.7,0,1.2,0c0.9,0,1.5-0.1,2.3,0
		c0.4,0,0.8,0.3,1.2,0.3c0.3,0,0.7-0.1,1.1,0c0.2,0.3,0.3,0.6,0.7,0.9c0.2,0.2,0.4,0.2,0.7,0.3c0.7,0.3,1.2,0.3,1.9,0.5
		c0.3,0,0.4,0.2,0.7,0.2c0.7,0.1,1.1,0.2,1.9,0.3c0-0.6,0-1.1,0.4-1.5c0.2-0.2,0.5-0.2,0.7-0.4c0.2-0.2,0.2-0.4,0.2-0.6
		c0-0.4-0.1-0.7-0.3-1.1c0-0.1-0.1-0.2-0.2-0.2c-0.3-0.4-0.9-0.5-0.9-1c0-0.3,0.2-0.5,0.3-0.7c0.2-0.3,0.2-0.6,0.4-0.9
		c0.3-0.4,0.7-0.3,0.9-0.8c0.2-0.4,0.3-0.7,0.4-1.1c0.2,0.2,0.6,0.4,0.6,0.8c0.1,0.4-0.3,0.7-0.3,1.2c0.1,0.9-0.4,0.3-0.3,1.1
		c0.4-0.1,1.3,0.6,1.8,0.6l1.3,0.5c0.5,0,1,0.3,1.4,0.4h1.4c0.9,0,1.6,0,2.4-0.2c0.5-0.1,0.4-0.8,0.9-1c0.5-0.3-0.3-1.2-0.1-1.7
		c0.2-0.4,0.8-0.2,1-0.5s0.9-0.3,1.1-0.6c0.3-0.4,0.7-0.7,0.9-1.2c0.2-0.4-0.2-0.8,0-1.2c0.2-0.4,0.4-0.9,0.9-1.2
		c0.3-0.2,0.8,0.1,1.2,0c1.7-0.7,2.7-1.2,3.8-2.6c0.6-0.8,1-1.5,1.5-2.3c0.3-0.5,0.9-0.7,1.2-1.2c0.4-0.8,0.8-1.5,1.2-2.3
		s0.9-1.4,0.9-2.3c0-0.6-0.5-1-0.6-1.5c-0.1-0.4-0.3-0.8-0.3-1.2c-0.1-1,0-1.6,0-2.6V64c0-1.1,0.9-1.6,1.2-2.6
		c0.2-0.7,0.1-1.2,0.3-2.1c0.2-1.4,0.8-2.1,1.5-3.2c1.1-1.9,2.1-3,2.9-5c0.1-0.4,0.1-0.8,0.3-1.2c0.3-0.6,0.8-0.9,1.2-1.5
		c0.3-0.5,0.7-1,0.9-1.5c0.8-1.5,1.2-2.6,2.1-4.1c0.4-0.6,0.9-0.8,1.2-1.5c0.1-0.4,0.2-0.8,0.3-1.2c0.1-0.3,0.2-0.6,0.4-0.9
		C219,14.9,186.6,0.5,150.9,0.5c-25.1,0-48.5,7.1-68.3,19.4c-0.1,0.2-0.3,0.4-0.5,0.6C81.6,21,80.9,21.4,80.9,22.2z"/>
	<path class="st2" d="M15.8,93.5l23.9,113.9c0,0-3.6,2.1-8.5,10.6c-5.7,9.9-4,18.4-4,18.4L3.7,123.9c0,0-1.8-8.5,1.4-15.4
		C8.6,101.1,15.8,93.5,15.8,93.5 M54.7,66.5c0,0-3.7,44.3-5.3,66.1s-4.3,69.9-4.3,69.9s5.3-5.3,12.9-10.3s14.1-8.4,14.8-8.8L74,162
		c0,0,7.9-3.5,14.1-6.5c6.2-2.9,20.4-7.8,20.4-7.8l9,16.6c0,0,9.7-1.8,16.1-3.5c6.5-1.8,17.3-4.1,17-5.3
		C150.4,154.2,88,52.4,88,52.4S75.7,56.9,70.2,59C64.1,61.3,54.7,66.5,54.7,66.5 M109.3,45.6l6.3,28c0,0,12.2-3.2,16.6-4.3
		c4.4-1.1,16.1-3.2,16.1-3.2s16.7,86.3,17.9,86c0.5-0.1,5.1-1,14.4-2.4c9.4-1.4,18.2-1.9,18.2-1.9l-18.2-86.2c0,0,10-0.9,19.2-1.2
		c7.5-0.3,14.5,0.1,14.5-0.3c0-0.9-6.2-27.6-6.2-27.6s-28.5-0.3-49,2.6C138.7,38.3,109.3,45.6,109.3,45.6 M213.2,32.7l24.1,114.2
		c0,0,10.6,0,15,0.6s17.6,3.2,17.6,3.2l-9.8-46.2c0,0,12,2.6,20.3,6.6c7.5,3.6,14.2,11.5,14.2,11.5l-4.1-21.1c0,0-6.8-9.4-15.3-13.2
		c-8.5-3.8-19.7-6.8-19.7-6.8l-4.3-19.7c0,0,8.5,1.1,18.3,5.6c13.2,6,18.2,16.1,18.2,16.1l-5-22.6c0,0-5.3-17.3-32-23.2
		C233.9,34,213.2,32.7,213.2,32.7 M77,88.5l-2,46.1c0,0,3.6-1.9,9.2-4.3c5.6-2.3,12.2-5.1,12.2-5.1L77,88.5z"/>
	<g>
		<path id="SVGID_1_" class="st3" d="M3.4,106.5C0.2,113.4,2,121.9,2,121.9l23.5,112.4c0-0.1-1.6-8.5,4-18.4
			c4.9-8.5,8.5-10.6,8.5-10.6L14.1,91.5C14.1,91.5,6.9,99.1,3.4,106.5"/>
		<path id="SVGID_4_" class="st3" d="M157.5,33.3c-20.6,2.9-49.9,10.3-49.9,10.3l6.3,28c0,0,12.2-3.2,16.6-4.3
			c4.4-1.1,16.1-3.2,16.1-3.2s16.7,86.3,17.9,86c0.5-0.1,5.1-1,14.4-2.4c9.4-1.4,18.2-1.9,18.2-1.9l-18.1-86c0,0,10-0.9,19.2-1.2
			c3.4-0.1,6.6-0.1,9.2-0.1c3.2,0,5.3,0,5.3-0.2c0-0.9-6.2-27.6-6.2-27.6s-0.8,0-2.2,0C197.3,30.7,174.7,30.9,157.5,33.3"/>
		<path id="SVGID_7_" class="st3" d="M235.7,144.9c0,0,10.6,0,15,0.6s17.6,3.2,17.6,3.2l-9.8-46.2c0,0,12,2.6,20.3,6.6
			c7.5,3.6,14.2,11.5,14.2,11.5l-4.1-21.1c0,0-6.8-9.4-15.3-13.2c-8.5-3.8-19.7-6.8-19.7-6.8l-4.3-19.7c0,0,8.5,1.1,18.4,5.6
			c13.2,6,18.2,16.1,18.2,16.1l-5-22.6c0,0-5.3-17.3-32-23.2c-16.9-3.7-37.6-5-37.6-5L235.7,144.9z"/>
		<path id="SVGID_10_" class="st3" d="M75.3,86.5l19.5,36.7c0,0-6.7,2.8-12.2,5.1c-5.6,2.4-9.2,4.3-9.2,4.3L75.3,86.5z M68.6,57
			C62.4,59.3,53,64.5,53,64.5s-3.7,44.3-5.3,66.1c-1.5,21.7-4.3,69.9-4.3,69.9s5.3-5.3,12.9-10.3s14.1-8.4,14.8-8.8l1.2-21.4
			c0,0,7.9-3.5,14.1-6.5c6.2-2.9,20.4-7.8,20.4-7.8l9,16.6c0,0,9.7-1.8,16.1-3.5c6.5-1.8,17.3-4.1,17-5.3S86.2,50.4,86.2,50.4
			S74,54.9,68.6,57"/>
	</g>
</g>
</svg>
