<?xml version="1.0" encoding="utf-8"?>
<!-- Generator: Adobe Illustrator 25.1.0, SVG Export Plug-In . SVG Version: 6.00 Build 0)  -->
<svg version="1.1" baseProfile="basic" id="レイヤー_2_1_"
	 xmlns="http://www.w3.org/2000/svg" xmlns:xlink="http://www.w3.org/1999/xlink" x="0px" y="0px" viewBox="0 0 146.7 143.7"
	 xml:space="preserve">
<style type="text/css">
	.st0{fill:#FFFFFF;}
</style>
<g>
	<path class="st0" d="M87.4,65.1c-3.2,0-5.8-2.6-5.8-5.8V5.8c0-3.2,2.6-5.8,5.8-5.8h53.4c3.2,0,5.8,2.6,5.8,5.8v53.4
		c0,3.2-2.6,5.8-5.8,5.8L87.4,65.1L87.4,65.1z M93.5,9.1c-1.6,0-2.8,1.3-2.8,2.8v41.2c0,1.6,1.3,2.8,2.8,2.8h41.2
		c1.6,0,2.8-1.3,2.8-2.8V11.9c0-1.6-1.3-2.8-2.8-2.8C134.7,9.1,93.5,9.1,93.5,9.1z"/>
	<path class="st0" d="M76.1,67.6c-1.3-1.3-3.4-1.8-5-1.1l-34,12.6c-1.6,0.6-2.6,1.9-3,3.5s0.1,3.2,1.3,4.4l4.8,4.8L2.4,129.5
		c-3.2,3.2-3.2,8.6,0,11.8c1.7,1.7,3.8,2.4,5.9,2.4s4.3-0.8,5.9-2.4L52,103.5l4.8,4.8c1,1,2.2,1.4,3.4,1.4c0.4,0,0.7,0,1.1-0.1
		c1.6-0.4,2.9-1.4,3.5-3l12.6-34C77.8,70.9,77.4,68.9,76.1,67.6z"/>
	<path class="st0" d="M27.5,26.5h48.3v-12H15.5C10.8,14.5,7,18.3,7,23v90l12-12V35C19,30.3,22.8,26.5,27.5,26.5z"/>
	<path class="st0" d="M117.2,70.9v45.3c0,4.7-3.8,8.5-8.5,8.5h-66l-12,12h90c4.7,0,8.5-3.8,8.5-8.5V70.9H117.2z"/>
</g>
</svg>
