<svg xmlns="http://www.w3.org/2000/svg" xml:space="preserve" id="レイヤー_2_1_" x="0" y="0" style="enable-background:new 0 0 174.9 174.9" version="1.1" viewBox="0 0 174.9 174.9"><style>.st0{fill:#fff}</style><path d="M101.6 80.7c-3.2 0-5.8-2.6-5.8-5.8V21.4c0-3.2 2.6-5.8 5.8-5.8H155c3.2 0 5.8 2.6 5.8 5.8v53.4c0 3.2-2.6 5.8-5.8 5.8l-53.4.1zm6.1-56c-1.6 0-2.8 1.3-2.8 2.8v41.2c0 1.6 1.3 2.8 2.8 2.8h41.2c1.6 0 2.8-1.3 2.8-2.8V27.5c0-1.6-1.3-2.8-2.8-2.8h-41.2zM90.3 83.2c-1.3-1.3-3.4-1.8-5-1.1l-34 12.6c-1.6.6-2.6 1.9-3 3.5-.4 1.6.1 3.2 1.3 4.4l4.8 4.8-37.8 37.7c-3.2 3.2-3.2 8.6 0 11.8 1.7 1.7 3.8 2.4 5.9 2.4s4.3-.8 5.9-2.4l37.8-37.8 4.8 4.8c1 1 2.2 1.4 3.4 1.4.4 0 .7 0 1.1-.1 1.6-.4 2.9-1.4 3.5-3l12.6-34c.4-1.7 0-3.7-1.3-5zM41.7 42.1H90v-12H29.7c-4.7 0-8.5 3.8-8.5 8.5v90l12-12v-66c0-4.7 3.8-8.5 8.5-8.5zM131.4 86.5v45.3c0 4.7-3.8 8.5-8.5 8.5h-66l-12 12h90c4.7 0 8.5-3.8 8.5-8.5V86.5h-12z" class="st0"/><path d="M0 0h174.9v174.9H0z" style="fill:none" transform="rotate(90 87.473 87.473)"/></svg>