<?xml version="1.0" encoding="utf-8"?>
<!-- Generator: Adobe Illustrator 25.1.0, SVG Export Plug-In . SVG Version: 6.00 Build 0)  -->
<svg version="1.1" id="レイヤー_1" xmlns="http://www.w3.org/2000/svg" xmlns:xlink="http://www.w3.org/1999/xlink" x="0px"
	 y="0px" viewBox="0 0 316.4 260" style="enable-background:new 0 0 316.4 260;" xml:space="preserve">
<style type="text/css">
	.st0{fill:url(#SVGID_1_);stroke:#1F4CA0;stroke-miterlimit:10;}
	.st1{fill:url(#SVGID_2_);}
	.st2{fill:none;}
	.st3{fill:#FFFFFF;stroke:#1F4CA0;stroke-width:0.75;stroke-linecap:round;stroke-linejoin:round;stroke-miterlimit:10;}
	.st4{fill:#1F4CA0;}
</style>
<g id="レイヤー_3_1_">
</g>
<g id="レイヤー_2_1_">
	<g>
		
			<radialGradient id="SVGID_1_" cx="160.4445" cy="799.0003" r="130.0003" gradientTransform="matrix(1 0 0 1 0 -669.0005)" gradientUnits="userSpaceOnUse">
			<stop  offset="0" style="stop-color:#1F4CA0;stop-opacity:0"/>
			<stop  offset="1" style="stop-color:#1F4CA0;stop-opacity:0.8"/>
		</radialGradient>
		<path class="st0" d="M84.6,84.5c-0.7,0.2-1.1,0.7-1.2,1.4L81.5,132c0,0.5,0.2,1,0.7,1.3c0.2,0.2,0.5,0.2,0.8,0.2
			c0.2,0,0.5-0.1,0.7-0.2c0,0,3.6-1.9,9.1-4.2L105,124c0.4-0.2,0.7-0.5,0.8-0.9s0.1-0.8-0.1-1.2L86.3,85.3
			C86,84.7,85.3,84.4,84.6,84.5z"/>
		
			<radialGradient id="SVGID_2_" cx="160.4" cy="799.0006" r="130" gradientTransform="matrix(1 0 0 1 0 -669.0005)" gradientUnits="userSpaceOnUse">
			<stop  offset="0.4397" style="stop-color:#1F4CA0;stop-opacity:0"/>
			<stop  offset="1" style="stop-color:#1F4CA0;stop-opacity:0.8"/>
		</radialGradient>
		<path class="st1" d="M268.5,100.5c-0.5-0.1-1,0-1.4,0.4s-0.5,0.9-0.4,1.4l9.3,44c-4-0.8-12.1-2.3-15.5-2.8c-3.6-0.5-11-0.6-14-0.6
			L223.1,31.8c4.3,0.3,15,1.3,25.9,3C225.8,13.2,194.7,0,160.4,0c-71.8,0-130,58.2-130,130c0,0.1,0,0.1,0,0.2l10.9,52
			C61.5,228,107.2,260,160.4,260c71.8,0,130-58.2,130-130c0-7.9-0.7-15.6-2-23.1C280.1,103.1,268.9,100.6,268.5,100.5z M146.8,155.4
			c-2,0.5-3.9,1-5.6,1.5c-5,1.3-12.2,2.8-14.9,3.3l-8.5-15.6c-0.4-0.6-1.1-0.9-1.8-0.7c-0.6,0.2-14.3,5-20.6,7.9
			c-6.1,3-14,6.4-14.1,6.5c-0.5,0.2-0.9,0.7-0.9,1.3L79.3,180c-2.1,1.1-7.7,4.2-14.2,8.5c-4.4,2.9-8,5.9-10.4,7.9
			c0.7-11.7,2.8-48.2,4.1-66.2c1.5-19.9,4.7-59.2,5.2-65.3c2.3-1.2,9.6-5.1,14.7-7l0,0c4.4-1.7,13.2-5,16.4-6.2
			c20.1,32.8,56.4,92.3,61.4,100.9C154.7,153.4,150,154.6,146.8,155.4z M217,56.5c-2.6,0-5.8,0-9.2,0.1c-9.1,0.3-19.2,1.2-19.3,1.2
			c-0.4,0-0.8,0.3-1.1,0.6s-0.3,0.8-0.3,1.2l17.7,84.3c-3,0.2-9.7,0.8-16.6,1.8c-6.9,1-11.2,1.8-13.3,2.2
			c-2.2-7.4-11.4-53.6-17.3-84.6c-0.1-0.7-0.8-1.2-1.5-1.2c-0.1,0-0.2,0-0.3,0c-0.5,0.1-11.8,2.1-16.2,3.2c-3.4,0.9-11.7,3-15.1,3.9
			l-5.5-25c6.1-1.5,30.6-7.4,48.3-9.9c17.2-2.4,40-2.6,46.6-2.6h1c2,8.7,4.8,20.6,5.6,24.8C219.6,56.5,218.3,56.5,217,56.5z"/>
		<polyline class="st2" points="0,260 0,0 316.4,0 316.4,260 		"/>
		<path class="st3" d="M122.7,59c-0.1,0-0.2,0.1-0.3,0.1c-0.3,0.1-0.5,0.1-0.7,0.2c-0.2,0-0.3,0.1-0.5,0.2H121
			c-0.1,0-0.2,0.1-0.2,0.1c-0.2,0-0.4,0.1-0.5,0.2c-0.1,0-0.2,0.1-0.2,0.1c-0.1,0-0.2,0.1-0.2,0.2c-0.3,0.1-0.5,0.3-0.8,0.3h-0.2
			c-0.1,0-0.1,0.1-0.2,0.1c-0.2,0-0.3,0-0.5,0s-0.3,0.2-0.5,0.2c0.1,0.3,0.2,0.5,0.4,0.7c0,0.1,0.2,0.1,0.2,0.2
			c0.1,0.1,0.1,0.2,0.2,0.2s0.2,0.1,0.2,0.2c0.1,0.1,0.1,0.2,0.2,0.2s0.2,0,0.2,0.1c0.1,0,0.2,0.1,0.2,0.2c0.1,0,0.2,0,0.2,0.1
			c0.1,0,0.2,0.1,0.2,0.2c0.2,0.1,0.3,0.1,0.5,0.2c0.1,0,0.2,0.1,0.2,0.2c0.2,0.1,0.3,0.1,0.5,0.2c0.1,0,0.1,0.1,0.2,0.1h0.4
			c0.4,0,0.6,0,0.9-0.2c0.1,0,0.2-0.1,0.2-0.2c0-0.1,0.1-0.2,0.1-0.2c0.2-0.4,0.2-0.7,0.2-1.2c0-0.3,0-0.4,0-0.7
			c0-0.1-0.1-0.2-0.2-0.2c0-0.2-0.1-0.3-0.1-0.5c0-0.1-0.1-0.1-0.1-0.2c0-0.1,0.1-0.1,0.1-0.2C122.6,59.2,122.6,59.1,122.7,59z"/>
		<path class="st3" d="M209,96.7c-0.5,0.4-0.7,0.8-1.1,1.3c-0.2,0.2-0.3,0.4-0.4,0.7c-0.1,0.2-0.3,0.2-0.3,0.4
			c0,0.2,0.2,0.3,0.4,0.3c0.4,0.2,0.7,0.1,1.1,0.1c0.6,0,0.9,0.2,1.5,0.2c0.2,0,0.3-0.2,0.4-0.3c0.3-0.3,0.3-0.6,0.6-0.9
			c0.3-0.4,0.7-0.6,0.7-1.1c0-0.2,0-0.3-0.1-0.5C210.8,97,210,97,209,96.7z"/>
		<path class="st3" d="M199.9,98.1l-0.2,1c0,0.1,0,0.3,0.1,0.3c0.2,0.2,0.4,0.2,0.7,0.2s0.5-0.1,0.7-0.1c0.8,0,1.2,0.2,2,0.3
			c0-0.1,0.1-0.2,0.1-0.3c0-0.4-0.4-0.5-0.8-0.7c-0.4-0.3-0.6-0.5-1-0.8c-0.2-0.1-0.3-0.2-0.5-0.3c-0.3-0.4-0.4-0.7-0.7-1.1
			c-0.2-0.3-0.4-0.6-0.8-0.6c-0.1,0-0.1,0.1-0.2,0.1C199.3,96.8,199.6,97.3,199.9,98.1z"/>
		<path class="st3" d="M218.9,91.8c-0.1,0-0.2,0-0.2,0.1c-0.4,0.3-0.4,0.8-0.8,1.2c-0.5,0.5-0.9,0.7-1.3,1.3
			c0.5,0.6,1.1,0.6,1.9,0.7c0.8,0.1,1.2,0.6,2.1,0.6h0.9c0-0.2,0.1-0.2,0.1-0.4c0-0.2-0.2-0.3-0.3-0.4s-0.2-0.3-0.4-0.4
			c-0.3-0.3-0.5-0.6-0.7-0.9s-0.4-0.4-0.5-0.7c-0.2-0.4-0.3-0.8-0.7-1L218.9,91.8z"/>
		<g>
			<path class="st4" d="M111.4,66.5c0.1,0,0.2-0.1,0.2-0.2C111.6,66.1,111.7,66,111.4,66.5z"/>
			<path class="st4" d="M27.9,92.5c-0.2-0.9-0.9-1.6-1.8-1.9s-1.9,0-2.5,0.7c-0.3,0.3-7.5,8-11.2,15.7c-3.5,7.6-1.7,16.6-1.6,17
				l23.5,112.5c0.2,1.2,1.3,2,2.4,2c0.2,0,0.3,0,0.5-0.1c1.3-0.3,2.2-1.6,2-2.9c0-0.1-1.5-7.7,3.7-16.7c4.4-7.6,7.6-9.7,7.6-9.7
				c0.9-0.5,1.4-1.6,1.2-2.7L27.9,92.5z M37.8,214.7c-1.7,3-2.7,5.8-3.4,8.4l-21.3-102c0-0.1-1.7-8.1,1.3-14.5
				c2.3-4.8,6.1-9.7,8.5-12.4l23.1,110C44.5,205.3,41.5,208.3,37.8,214.7z"/>
			<path class="st4" d="M306.7,121.6l-4.1-21.1c-0.1-0.4-0.2-0.7-0.4-1c-0.3-0.4-7.3-10-16.3-14c-3.4-1.5-7.1-2.9-10.4-4
				c0-0.1-0.1-0.1-0.1-0.2c-0.1-0.2,0.1-0.4,0-0.6s-0.3-0.4-0.4-0.6s-0.6-0.2-0.6-0.4c-0.1-0.3-0.2-0.6-0.2-0.9
				c0-0.4,0.3-0.6,0.4-0.9c0.2-0.6,0.4-1,0.4-1.6c0-0.4-0.5-0.5-0.8-0.7c-0.2-0.1-0.4-0.3-0.6-0.4S273.2,75,273,75
				c-0.8-0.3-1.3-0.4-2.1-0.6c0.1-0.3-0.1-0.4,0-0.6c0.3-0.7,0.9-1.1,0.9-1.9c0-0.3-0.2-0.4-0.2-0.6c-0.1-0.3-0.6-0.2-0.7-0.4
				c-0.1-0.3,0.1-0.6,0-0.8c-0.1-0.2-0.2-0.5-0.4-0.6c-0.2-0.1-0.5,0-0.7,0c-0.9,0-1.4,0.2-2.3,0.2c-0.5,0-0.8,0.2-1.3,0.2
				c-0.2,0-0.4-0.2-0.6-0.2c-0.1,0-0.2,0-0.3,0l-1.1-5.2c3.3,0.7,8.4,2.2,14,4.7c12.2,5.5,17,14.8,17,14.9c0.6,1.1,1.9,1.7,3.1,1.2
				c1.2-0.4,1.9-1.7,1.6-2.9l-5-22.6c0-0.1,0-0.1-0.1-0.2c-0.2-0.8-6-18.8-33.9-24.9c-4.8-1.1-10-1.9-14.9-2.6
				C222.5,11.8,192.9,0,160.5,0C135.4,0,112,7.1,92.2,19.4c-0.1,0.2-0.3,0.4-0.5,0.6c-0.5,0.5-1.2,0.9-1.2,1.7c0,0.7,0,1.4,0.6,1.8
				c0.4,0.2,0.7,0.5,1.2,0.6c0.4,0.1,0.7-0.1,1.2,0l0.3,1.2c-0.3,0.4-0.2,1-0.6,1.2s-0.8,0.4-1.2,0.6c-0.4,0.3-0.7,0.6-1.2,0.9
				c-0.5,0.4-1.2,0.5-1.2,1.2c0,1.5,1,2.6,2.3,2.9c0.4,0.1,0.7,0.3,1.2,0.3s0.2-1,0.6-1.2c0.4-0.3,0.7-0.6,1.2-0.9
				c0.4-0.2,0.7-0.4,1.2-0.6c0.8-0.4,1.5-0.7,2.3-0.9c0.4-0.1,0.8-0.2,1.2-0.3c0.4-0.1,0.8,0.1,1.2,0c0.9-0.2,1.4-0.9,2.3-0.9
				c0.6,0,0.6,0.9,1.2,0.9c0.7,0,0.7-0.7,1.2-1.2c0.4-0.4,0.7-0.8,1.2-1.2c0.5-0.4,1-0.5,1.5-0.9s0.7-0.9,1.2-1.2
				c0.8-0.4,1.4-0.9,2.3-1.2c0.4-0.1,0.8-0.2,1.2-0.3c0.9-0.2,1.4-0.6,2.3-0.6c0.4,0,0.7,0.3,1.2,0.3h2.3c0.4,0,0.7-0.3,1.2-0.3
				c0.6,0,0.9,0.3,1.5,0.3c0.4,0,0.7-0.3,1.2-0.3c1.5,0,2.3,0.1,3.8,0c0.4,0,0.8,0.1,1.2,0c0.4-0.1,0.7-0.4,1.2-0.6
				c1-0.4,1.2-1.5,2.3-1.8c0.4-0.1,0.8,0.1,1.2,0s0.7-0.3,1.2-0.3h3.9c0.1,1.5,0.1,2.3,0,3.8h2.2c0.4,0,0.7,0.3,1.1,0.3
				c0.6,0,0.7-0.8,1.2-0.9c0.4-0.1,0.7-0.3,1.2-0.3s0.7,0.4,1.2,0.6c0.4,0.1,0.7,0.4,1.2,0.6c0.4,0.1,0.8,0.2,1.2,0.3
				c0.4,0.1,0.8,0.3,1.2,0.3h1.2c0.4,0,0.7,0.2,1.2,0.3c-0.5,0.3-1,0.6-1.5,0.9c-1,0.5-2.3,0.9-2.3,2.1c0,0.7,0.1,1.2,0.6,1.8
				c0.6,0.8,1,1.8,2.1,1.8c0.5,0,0.7-0.6,1.2-0.6c0.4,0,0.7-0.3,1.2-0.3s0.7,0.4,1.2,0.6c1.4,0.5,2.1,1.4,3.5,1.8
				c0.4,0.1,0.8,0,1.2,0c0.7,0.1,1.2,0.3,2.1,0.3c0.7,0,1.2-0.1,1.8-0.3c0.4-0.1,0.8-0.1,1.2-0.3c0.5-0.2,0.7-0.7,1.2-0.9l1.2-0.6
				c0.4-0.1,0.8-0.2,1.2-0.3l0.3,1.2c-0.4,0.4-0.7,0.8-0.9,1.2c-20.1,3.4-47,10-47.3,10.1c-1.3,0.3-2.1,1.6-1.8,3l6,26.9l0,0
				c0-0.1-0.1-0.2-0.2-0.2c0-0.1,0-0.2-0.1-0.2c-0.1-0.1-0.2-0.2-0.2-0.2c0-0.1,0-0.2-0.1-0.2c0-0.1-0.2-0.1-0.2-0.2
				c-0.2-0.3-0.4-0.5-0.6-0.7c-0.2-0.1-0.3-0.2-0.5-0.4c-0.2-0.2-0.3-0.3-0.4-0.5c0-0.1-0.2-0.1-0.2-0.2s-0.1-0.2-0.2-0.2
				c-0.1-0.1-0.2-0.2-0.2-0.2c-0.1-0.1-0.2-0.1-0.2-0.2c-0.1-0.1-0.1-0.2-0.2-0.2c-0.1-0.1-0.2-0.1-0.2-0.2s0-0.2-0.1-0.2
				c0-0.1-0.1-0.2-0.2-0.2c0-0.2,0-0.3,0-0.5v-0.2c0-0.1-0.1-0.2-0.2-0.2c0-0.1,0-0.2,0-0.2c-0.1-0.2-0.2-0.3-0.4-0.3
				c-0.2,0-0.3,0-0.5,0c-0.3-0.1-0.6-0.3-0.6-0.6c0-0.1,0.1-0.2,0.2-0.4c0-0.1,0.1-0.2,0.2-0.3c-0.1-0.1-0.1-0.2-0.2-0.2
				s-0.2-0.1-0.4-0.1c-0.1,0-0.2,0-0.4,0.1c-0.1,0-0.1,0.2-0.2,0.2c-0.2,0.1-0.3,0.3-0.5,0.4s-0.3,0.1-0.5,0.1c-0.1,0,0-0.2-0.1-0.2
				c0.1-0.1,0.1-0.2,0.2-0.3c0-0.1,0.2-0.1,0.2-0.2s-0.1-0.1-0.1-0.2V65h-0.8c-0.2,0-0.3,0.1-0.5,0.2c-0.1,0-0.3,0-0.4,0
				s-0.2,0.1-0.2,0.2c-0.1,0-0.2,0-0.2,0c-0.1,0-0.2,0.1-0.2,0.1c-0.1,0-0.2,0-0.2,0c-0.1,0-0.2,0.1-0.2,0.2
				c-0.2,0.1-0.3,0.1-0.5,0.2s-0.4,0.3-0.6,0.5c0,0.1,0.1,0.2,0.1,0.4V67c0,0.1,0.1,0.1,0.1,0.2v0.2c0,0.1,0,0.2,0.1,0.2
				c0,0.1,0,0.2,0.1,0.2c0.1,0.1,0.2,0,0.3,0.1c0.1,0.1,0.2,0.2,0.3,0.2c0.2,0.1,0.3,0.1,0.5,0.2c0.3,0.1,0.5,0.2,0.7,0.4
				c0,0.1,0.1,0.2,0,0.2c-0.1,0.1-0.2,0-0.2,0.1s-0.1,0.2-0.2,0.2c0,0.1,0,0.1,0,0.2s-0.1,0.1-0.1,0.2s0.1,0.2,0.2,0.2
				c0,0.1,0.2,0.1,0.2,0.2c0.1,0,0.2,0,0.2,0c0.3,0.1,0.5,0.2,0.9,0.2c0.1,0,0.2,0.1,0.2,0.1c0.2,0,0.3,0,0.5,0.1
				c0.1,0,0.2,0.1,0.2,0.2c0.2,0.1,0.4,0.1,0.5,0.2c0.2,0.1,0.3,0.2,0.4,0.4c0,0.1,0.1,0.2,0.2,0.2c0,0.1,0.1,0.2,0.1,0.2
				c0,0.1-0.1,0.2-0.1,0.2c0,0.1,0.2,0.2,0.2,0.2c0,0.3,0,0.5,0,0.8c0,0.1,0.1,0.1,0.1,0.2v0.6c0,0.2-0.1,0.3-0.1,0.5
				s-0.1,0.3-0.1,0.5v0.2c0,0.3-0.1,0.5-0.2,0.7c0,0.1-0.1,0.2-0.2,0.2c-0.1,0.2-0.1,0.3-0.2,0.5c-0.2,0.2-0.4,0.2-0.6,0.3
				c0,0,0,0-0.1,0.1c-0.7-1.1-1.3-2.2-2-3.3h0.3c0.2,0,0.3,0,0.5-0.1c0.1,0,0.1-0.2,0.2-0.2c0-0.1,0-0.2-0.1-0.2
				c-0.1-0.1-0.2-0.1-0.2-0.2c-0.4-0.3-0.6-0.5-0.9-0.9c-0.2-0.2-0.3-0.4-0.4-0.7c0-0.2,0-0.3,0-0.5c0-0.1,0-0.2-0.1-0.2
				c0-0.1-0.2,0-0.2-0.1s0-0.2,0-0.2c0-0.2,0-0.3,0-0.5s-0.1-0.3-0.1-0.5c0-0.1,0.1-0.2,0.1-0.2c0-0.1-0.1-0.2-0.1-0.2
				c0-0.1-0.4-0.1-0.5-0.1c-0.3,0.2-0.5,0.4-0.8,0.6c-0.1,0.1-0.1,0.1-0.1,0.2c-0.3-0.6-0.7-1.1-1-1.7c0-0.2,0.1-0.3,0.1-0.5
				c0.1-0.4,0.2-0.6,0.3-0.9c0-0.2,0.1-0.3,0.1-0.5c0-0.4-0.1-0.6-0.2-0.9c-0.1-0.2-0.2-0.3-0.2-0.5c0-0.1-0.1-0.1-0.1-0.2
				s0.1-0.2,0.1-0.3c-0.1,0.1-0.2,0.2-0.3,0.2c-0.1,0-0.2,0-0.2,0.1c-0.2,0.1-0.3,0.2-0.5,0.2c-0.1,0-0.2,0.1-0.2,0.2
				c-0.1,0.1-0.2,0.2-0.3,0.2c-0.1,0.1-0.2,0.1-0.3,0.1c-2.8-4.5-5.7-9.2-8.7-14.2c-0.6-1-1.9-1.5-3-1c0,0-0.8,0.3-2.1,0.8
				c0,0,0-0.1-0.1-0.1c0-0.2,0-0.5,0-0.7c0-0.5-0.1-1.1-0.2-1.6c0-0.4,0.1-0.8,0.2-1.2c0.1-0.3,0.4-0.5,0.6-0.9
				c0.2-0.3,0.3-0.5,0.4-0.9c0.3-0.6,0.7-1,0.9-1.7c0.1-0.3,0-0.6,0-0.9s0.2-0.5,0.2-0.9v-1.1c0-0.3,0.2-0.5,0.2-0.9v-0.9
				c0-0.3,0.2-0.5,0.2-0.9s-0.3-0.5-0.4-0.9c-0.2-0.4-0.6-0.5-0.9-0.9c-0.2-0.3-0.2-0.6-0.4-0.9s-0.5-0.3-0.8-0.4
				c-0.3-0.2-0.5-0.5-0.8-0.6c-0.6-0.2-1.1,0-1.7,0s-1.1,0-1.7-0.2c-0.3-0.1-0.6-0.1-0.9-0.2C88.7,33,88.9,32,88.9,31
				c-0.3,0.1-0.6-0.1-0.8,0c-0.6,0.4-1,0.9-1.5,1.5c-0.3,0.3-0.4,0.5-0.6,0.9c-0.2,0.3-0.1,0.9-0.4,1s-0.5,0.2-0.9,0.2
				s-0.6-0.4-0.9-0.6c-0.3-0.3-0.4-0.5-0.6-0.9c-0.2-0.2-0.1-0.6-0.2-0.9c-0.3-0.4-0.8-0.4-1.4-0.4s-0.8,0.4-1.4,0.4h-0.9
				c-0.6,0-1.1-0.1-1.7,0c-0.4,0.1-0.5,0.4-0.9,0.6c-0.3,0.2-0.6,0.4-0.9,0.6c-0.2,0.3-0.2,0.6-0.4,0.8c-0.3,0.2-0.6,0.2-0.9,0.4
				s-0.4,0.6-0.6,0.9c-0.3,0.2-0.6,0.4-0.9,0.6c-0.8,0.8-1.2,1.7-2.4,1.7c-0.4,0-0.5-0.4-0.9-0.4c-0.1,0.3-0.5,0.5-0.6,0.9
				c-0.1,0.3,0,0.5,0,0.9c0,0.6-0.2,1.2,0.2,1.7c0.2,0.2,0.5,0.1,0.8,0.2c0.6,0.4,1,0.6,1.7,0.9c0.3,0.1,0.6,0.1,0.9,0.2
				c0.3,0.1,0.6,0.1,0.9,0.2c0.3,0.2,0.3,0.5,0.4,0.9c0.2,0.3-0.1,0.6,0,0.8c0.2,0.3,0.6,0.4,0.9,0.6c0.3,0.2,0.7,0.1,0.9,0.4
				c0.1,0.1,0,0.3,0,0.4c0,0.5-0.4,0.8-0.6,1.3c-0.2,0.4-0.6,0.4-0.6,0.9c0,0.7,0.4,1.1,0.6,1.7c0.1,0.3,0.4,0.4,0.4,0.8
				c0,1.1-0.8,1.6-1.3,2.5c-0.1,0.3-0.1,0.6-0.2,0.8c-1.4,1-2.3,2.6-3.1,4.3c0.6-1.3-0.2,0.3-0.3,0.5c-0.3,0.5-0.5,1.1-0.9,1.6
				c-0.1,0.2-0.2,0.3-0.3,0.5c0.2-0.3,0.1-0.3-0.1,0c-0.1,0.1-0.2,0.2-0.3,0.3c-3.3,1.7-5.8,3.1-6,3.2c-0.7,0.4-1.2,1.1-1.3,2
				c0,0.1-0.3,3.1-0.7,7.9c-0.3,0-0.6-0.2-1,0c-0.3,0.1-0.4,0.3-0.6,0.4c-0.2,0.2,0,0.5-0.1,0.7c-0.3,0.5-0.8,0.6-1.2,1
				c-0.1,0.2-0.1,0.4-0.3,0.6c-0.4,0.3-0.8,0.5-1.2,0.7c-0.3,0.1-0.3,0.4-0.6,0.6c-0.2,0.1-0.4,0.2-0.6,0.3
				c-0.5,0.3-0.7,0.6-1.2,0.9c-0.2,0.1-0.4,0.2-0.6,0.3c-0.3,0.1-0.3,0.4-0.6,0.6c-0.2,0.1-0.4,0.2-0.6,0.3
				c-0.2,0.1-0.4,0.3-0.6,0.4c-0.4,0.2-0.7,0.5-1.2,0.7c-0.2,0.1-0.5,0.2-0.7,0.3c-0.3,0.1-0.5,0.4-0.7,0.6
				c-0.5,0.4-0.8,0.7-1.2,1.2c-0.3,0.4-0.5,0.8-0.7,1.2c-0.4,0.6-0.9,1-0.9,1.8c0,0.5,0.3,0.7,0.4,1.2c0,0.2,0.1,0.4,0.1,0.6
				c-0.4,0.2-0.8,0.3-1.2,0.6c-0.2,0.1-0.3,0.4-0.4,0.6c-0.1,0.2-0.3,0.4-0.4,0.6c-0.1,0.2-0.3,0.3-0.4,0.6
				c-0.1,0.2-0.2,0.4-0.3,0.6s-0.1,0.4-0.1,0.6c-0.1,0.2-0.3,0.4-0.3,0.6s0,0.4,0,0.6c0,0.9,0.2,1.5,0.4,2.3
				c0.1,0.7,0.4,1.1,0.4,1.8c0,0.3,0,0.6,0,0.9s0.1,0.6,0,0.9c0,0.2-0.2,0.4-0.3,0.6c-0.1,0.4-0.3,0.7-0.4,1.2
				c0,0.2-0.1,0.4-0.1,0.6c-0.2,0.4-0.5,0.7-0.6,1.2c0,0.2,0,0.4,0,0.6c0,0.4-0.1,0.8-0.1,1.2c0,0.2,0,0.4,0,0.6s-0.3,0.4-0.3,0.6
				s-0.1,0.4-0.1,0.6s0,0.4,0,0.6s-0.1,0.4-0.1,0.6s0.1,0.4,0.1,0.6c0,0.7,0,1.1,0,1.8c0,0.2,0.1,0.4,0.1,0.6v0.6
				c0,0.2,0.1,0.4,0.1,0.6v0.6c0,0.2,0.1,0.4,0.1,0.6c0,0.5-0.2,0.7-0.3,1.2c0,0.2-0.1,0.4-0.1,0.6s0.1,0.4,0.1,0.6
				c0,0.5-0.3,0.7-0.3,1.2c0,0.2,0.1,0.4,0.1,0.6s0.2,0.4,0.3,0.6c0.1,0.3,0.3,0.4,0.6,0.6c0.4,0.2,0.7,0.4,1.2,0.6
				c0-0.2,0.1-0.4,0.1-0.6s0.2-0.3,0.2-0.5c0-0.7-0.1-0.9-0.1-1.6c0-0.2-0.2-0.7-0.1-0.8c0.1-0.4,0.2-0.7,0.3-1.2v-0.6
				c0-0.2,0.1-0.4,0.1-0.6c0.1-0.9-0.1-1.4,0-2.3c0-0.2-0.1-0.7,0-0.9c0.1-0.8,0.2-1.1,0.2-1.9c0-0.3,0.1-0.3,0.1-0.7
				c0-0.2,0-0.4,0-0.6c0.1-0.4,0.4-0.6,0.6-0.9l0.6,0.1c0,0.3,0.1,0.4,0.1,0.6c0,0.6-0.3,0.8-0.6,1.3c-0.1,0.3-0.1,0.4-0.1,0.6
				c-0.2,0.6-0.2,1.1-0.2,1.8c0,0.4,0,0.8,0.1,1.2c0,0.2,0,0.4,0,0.6s0,0.3,0,0.5c0,0.4,0,0.7,0,1.2c0,0.4,0,0.8,0.1,1.2
				c0.3,0.9,0.9,1.4,1,2.3c0.1,0.7-0.1,1.1,0,1.8c0.1,0.5,0.3,0.8,0.4,1.3c0,0.2,0.1,0.4,0.1,0.6c0.2,0.5,0.4,0.7,0.6,1.2
				c0.1,0.2,0.1,0.4,0.1,0.6c0.1,0.2,0.3,0.3,0.3,0.6v0.3c0,0.4-0.1,0.6-0.3,0.9c-0.1,0.3-0.3,0.3-0.4,0.6c-0.3,0.5-0.4,0.9-0.4,1.5
				c0,0.7,0.2,1,0.4,1.6c0.1,0.2,0.1,0.4,0.1,0.6c0.1,0.3,0.4,0.3,0.4,0.6c0.2,0.4,0.2,0.7,0.3,1.2c0.1,0.4,0.1,0.8,0.3,1.2
				c0.1,0.3,0.3,0.4,0.4,0.6c0.1,0.2,0.1,0.4,0.3,0.6c0.1,0.2,0.4,0.3,0.6,0.4c0.1,0.2,0.3,0.4,0.4,0.6c0.4,0.4,0.6,0.8,1,1.2
				c0.2,0.1,0.4,0.3,0.6,0.4c0.4,0.4,0.5,0.8,0.9,1.2c0.2,0.2,0.4,0.3,0.6,0.4c0.2,0.2,0.3,0.4,0.4,0.6c0.2,0.2,0.4,0.3,0.6,0.4
				c0.4,0.4,0.7,0.6,1.1,0.9c-1.6,23.4-3.8,62.8-3.8,63.2c-0.1,1,0.5,2,1.5,2.4c0.3,0.1,0.7,0.2,1,0.2c0.6,0,1.3-0.3,1.8-0.7
				c0.1-0.1,5.2-5.2,12.5-10c5.6-3.7,10.5-6.4,13-7.8c1,1.9,1.2,3.3,1.9,5.3c0.5,1.3,0.6,2.2,1.2,3.4c0.3,0.6,1,0.5,1.6,0.7
				s0.9,0.8,1.6,0.8c1.2,0,2.1-0.8,3,0c0.2,0.1-0.2,0.4-0.2,0.7c0,0.4,0.5,0.3,0.7,0.5c0.3,0.3,0.5,0.5,0.9,0.7c0.8,0.5,1.4,1,2,1.8
				c0.6,0.9,1,1.4,1.4,2.4c0.1,0.3,0.5,0.4,0.5,0.7c0,0.6-0.5,0.8-0.5,1.4v5.3c0,0.5-0.5,0.7-0.5,1.3s0.3,0.9,0.4,1.4
				c0.1,1-0.1,1.7,0,2.7c0,0.3,0.4,0.4,0.4,0.7c0,0.5-0.2,0.9-0.2,1.4c0,0.9,0.4,1.3,0.4,2.2c0,0.5-0.2,0.8-0.2,1.3
				c0,0.6,0.4,1,0.4,1.6c0,0.5,0.1,0.9-0.2,1.3c-0.1,0.2-0.6,0.1-0.7,0.4c-0.6,1-0.9,1.8-0.9,3c0,1.7-0.1,2.9,0.7,4.2
				c0.3,0.5,0.9,0.6,1.3,1.1c1,1.2,1.3,2.2,1.3,3.8c0,0.3-0.2,0.4-0.2,0.7v5.3c0,0.7,0.8,0.9,0.9,1.6c0.2,0.9,0.5,1.6,0.9,2.3
				c2.7,1.4,5.5,2.8,8.4,4c-0.2-0.9-0.4-1.9-0.4-3.1c0.2-1.2,0.7-1.3,0.9-1.7c0.7-1,1.6-1.6,1.6-2.9c0-1.2-1.4-1.5-1.4-2.7
				c0-0.6,0.5-1,0.9-1.4c0.2-0.3,0.7-0.2,0.7-0.5c0-1.1-0.9-1.5-0.9-2.6v-1.4c1.5-0.2,3,0.4,3.8-0.9c0.1-0.2-0.2-0.4-0.2-0.8
				c0-0.6,0.5-0.9,0.9-1.4c0.9-1.2,2.1-1.1,3.6-1.4c0.9-0.2,1.3-0.7,2.1-1.1c0.9-0.5,2.2-0.7,2.2-1.8c0-0.4-0.4-0.4-0.5-0.7
				c-0.7-1.3-2-1.8-2-3.3c0-0.6,0.6-1.1,1.3-1.1c0.4,0,0.4,0.6,0.8,0.7c1,0.5,1.8,0.9,3,0.9c1.1,0,1.8-0.1,2.7-0.7
				c0.2-0.1,0.5-0.1,0.7-0.4c0.1-0.2,0-0.5,0.2-0.7c0.6-1,1-1.8,1.8-2.7c0.8-0.8,1.3-1.4,2.4-2c0.7-0.4,1.3,0,2-0.5
				c0.9-0.8,1.3-1.6,2.4-2c-0.1-0.7-0.2-1.2-0.7-1.6c-0.4-0.4-1.1-0.5-1.1-1.1c0-0.4,0.5-0.6,0.8-0.9c1.5-1.6,2.9-1.9,4.9-2.7
				c1.2-0.5,1.7-1.5,3-1.6s2.1-0.4,3.4-0.7c0.9-0.2,1.6,0,2.3-0.5c1.3-1.1,0.7-2.6,0.9-4.3c0.3-1.8,1.3-2.8,1.3-4.6
				c0-1-0.4-1.7-1.1-2.5c1.5-0.8,2.1-1.7,3-3.1c0.1-0.2,0-0.5,0.2-0.7c0.2-0.3,0.7-0.2,0.9-0.5c0.4-0.5,0.4-0.9,0.7-1.4
				c1.2-2.2,3.6-2.9,3.6-5.4c0-0.9-0.8-1.1-1.4-1.7c-1.1-1.1-2.4-0.6-3.8-1.1c-0.6-0.2-0.9-0.6-1.4-0.9c-0.9-0.5-1.4-1.1-2.5-1.3
				c-1.5-0.2-2.3,0.1-3.8,0c-1.4-0.1-2.3,0.1-3.6-0.4c-0.9-0.3-1.4-0.9-2.4-1.1c-2.1-0.6-3.3-0.6-5.4-0.9c-0.5,0-0.9-0.4-1.4-0.4
				c-1.1,0-1.3,1.4-2.5,1.4c-0.8,0-1.7-0.3-1.7-1.1c0-1.5,2.2-1.7,2.2-3.1c0-0.5-0.4-0.8-0.8-1c-0.8-0.6-1.5-0.8-2.1-1.6
				c-0.8-0.9-1-1.7-2-2.4c-1.4-1-2.7-1.1-4.5-1.3c-2.9-0.3-4.5-1.3-6.7-3.1c-1-0.8-1.5-1.6-2.7-2l0.2-0.7c-0.5-1-1.3-1.3-2.4-1.6
				c-0.3,0-0.5,0.2-0.9,0.2s-0.6-0.3-1.1-0.4c-1.5-0.1-2.4,0.2-3.8,0c-0.8-0.1-1.3-0.1-2-0.4c-0.5-0.3-0.5-0.9-0.9-1.3
				c5-2.1,12-4.6,15.4-5.8l8,14.7c0.5,1,1.6,1.5,2.7,1.3c0.4-0.1,9.9-1.8,16.3-3.5c1.6-0.5,3.6-0.9,5.5-1.4c2.9-0.7,5.8-1.5,8.1-2.2
				c2.5-0.8,5.9-1.8,5.2-4.7l0,0c-0.4-1.1-3.9-7.3-38-63.2c0-0.1,0.1-0.2,0.1-0.2c0.2-1-0.7-2-1.2-2.9s-0.9-1.8-1.9-2.1
				c-0.1,0-0.1,0-0.2-0.1c-0.4-0.6-0.7-1.2-1.1-1.8v-0.8c0-0.1-0.1-0.2-0.2-0.3c-0.1-0.2-0.2-0.3-0.3-0.5c0-0.1-0.1-0.2-0.2-0.2
				c-0.1-0.1-0.1-0.3-0.1-0.4c0.1,0,0.1-0.1,0.2-0.1h0.1c0.2,0,0.2,0.2,0.4,0.2c0.1,0,0.2,0,0.2,0.1c0.1,0.1,0.1,0.2,0.2,0.2
				s0.2,0.1,0.2,0.2c0.1,0,0.2,0.1,0.2,0.1c0.1,0,0.1,0.2,0.3,0.2h0.7v-1.1c0-0.2-0.2-0.3-0.2-0.5c0-0.1,0-0.2-0.1-0.2
				c-0.1-0.2-0.3-0.3-0.4-0.5c-0.1-0.1-0.2-0.2-0.2-0.2c-0.1-0.1-0.1-0.3-0.2-0.4v-0.2c0-0.1-0.1-0.2-0.1-0.3v-0.9h0.4
				c0.2,0,0.4,0.1,0.5,0.2c0.2,0.1,0.3,0.2,0.5,0.4c0.1,0.1,0.1,0.2,0.2,0.2c0,0.1,0.2,0.1,0.2,0.2c0.1,0.1,0.1,0.2,0.2,0.2
				c0.2,0.1,0.3,0.3,0.6,0.3c0.2,0,0.4-0.2,0.5-0.4c0-0.1,0.1-0.2,0.2-0.2c0-0.1,0-0.2,0-0.3c0-0.2,0.1-0.3,0.2-0.5
				c0-0.2-0.1-0.3,0-0.5c0-0.1,0.1-0.2,0.2-0.2c0-0.1,0.2,0,0.2-0.1s0-0.1,0-0.2s0-0.2,0-0.2c0-0.1-0.1-0.2-0.2-0.2
				c0-0.1,0-0.2-0.1-0.2c-0.2-0.3-0.4-0.5-0.7-0.7c-0.2-0.2-0.3-0.3-0.5-0.5c-0.1-0.1-0.2-0.1-0.3-0.2c0-0.1-0.1-0.2-0.1-0.2
				c0-0.1-0.1-0.2-0.1-0.3c0-0.1,0.1-0.1,0.1-0.2c0-0.2,0.1-0.3,0.1-0.5v-0.2c0-0.1,0-0.1,0.1-0.1c0.2,0.4,0.5,0.8,0.9,1
				c0.6,0.4,1.3,0.5,1.9,0.3c0.1,0,2.2-0.6,5-1.3c0,0.1,0.2,0.2,0.2,0.2c0,0.1,0.1,0.2,0.2,0.2c0,0.1,0.1,0.2,0.1,0.2
				c0,0.1,0.2,0.2,0.2,0.2c0,0.1,0,0.2,0,0.4c0,0.2,0,0.4-0.1,0.6c0,0.2-0.2,0.3-0.2,0.5c0,0.1-0.1,0.2-0.2,0.2
				c0,0.1-0.1,0.2-0.1,0.2c-0.1,0.1-0.2,0.1-0.3,0.2c-0.2,0.1-0.3,0.3-0.5,0.4c-0.1,0-0.2,0.1-0.2,0.2c-0.1,0.1-0.1,0.2-0.1,0.3
				c0,0.1-0.1,0.2-0.1,0.4c0,0.1,0.1,0.3,0.2,0.4c0,0.1,0.2,0.1,0.2,0.2c0.2,0.2,0.5,0.4,0.5,0.7c0,0.1-0.1,0.2-0.1,0.4
				c0,0.1-0.1,0.2-0.2,0.2c0,0.1,0,0.1,0,0.2c0,0.2,0,0.4,0.1,0.5c0.1,0.2,0.2,0.3,0.3,0.5c0.1,0.3,0.3,0.4,0.4,0.7
				c0,0.1,0.1,0.2,0.1,0.2c0.1,0.2,0.2,0.3,0.2,0.5c0,0.1,0,0.2,0,0.2c0,0.2,0.1,0.3,0.2,0.5c0,0.2,0,0.3,0,0.5s0.1,0.3,0.2,0.5
				c0.1,0.2,0.1,0.3,0.2,0.5c0.1,0.2,0.3,0.2,0.5,0.3c0.1,0,0.1,0.2,0.2,0.2c0.2,0.1,0.3,0.2,0.5,0.3c0.1,0.1,0.1,0.2,0.2,0.2
				c0.1,0.1,0.2,0,0.3,0.1c0.1,0,0.2,0.1,0.2,0.2c0.1,0,0.2,0.1,0.2,0.2c0.1,0,0.2,0.1,0.2,0.1c0.1,0,0.2,0.1,0.3,0.1
				c0.2,0.1,0.3,0.2,0.5,0.2s0.4,0,0.5,0.1c0.1,0,0.2,0.1,0.3,0.1s0.2,0,0.2,0c0.1,0,0.2,0.2,0.2,0.2h0.1c0.1,0,0.2-0.1,0.4-0.1
				s0.3-0.1,0.5-0.1h0.2c0.3,0,0.5-0.1,0.7-0.1c0.3-0.1,0.5-0.2,0.7-0.5c0.1-0.1,0.1-0.2,0.2-0.2c0-0.1,0-0.1,0-0.2s0.1-0.1,0.1-0.2
				s-0.1-0.2-0.1-0.3v-1.5c0-0.1,0.1-0.2,0.1-0.3c0.1-0.2,0.2-0.3,0.2-0.5c0-0.1,0.1-0.2,0.2-0.2c0-0.2-0.1-0.4-0.1-0.6
				c0-0.1,0-0.3,0.1-0.4c0-0.1,0.2-0.1,0.2-0.2c0.2-0.1,0.3-0.1,0.5-0.2c0.1,0,0.2-0.1,0.2-0.2c0.1-0.1,0.1-0.2,0.2-0.2
				c0.1,0,0.2,0,0.2-0.1s0-0.2,0.1-0.2c0.1-0.2,0.2-0.3,0.2-0.5c0-0.1,0-0.2,0-0.2c0-0.1,0.1-0.2,0.1-0.2c0-0.1,0-0.2,0-0.2
				c0.1-0.2,0.2-0.3,0.4-0.3c0.1,0,0.2-0.1,0.2-0.1c0.2,0,0.3,0,0.5,0c0.1,0,0.2-0.1,0.3-0.1s0.2-0.1,0.2-0.1c0.1,0,0.2,0,0.2,0
				c0.1,0,0.2,0,0.2-0.1c0.1,0,0.1-0.2,0.2-0.2c0.1,0,0.2,0,0.2-0.1c0.1,0,0.1-0.2,0.2-0.2c0.1,0,0.2-0.1,0.2-0.2
				c0.1-0.2,0.2-0.3,0.3-0.5s0.3-0.3,0.3-0.5c0-0.1,0-0.2,0-0.2c0-0.2,0.1-0.4,0.2-0.5c0.1-0.1,0.2-0.1,0.3-0.2
				c0.1,0,0.2-0.1,0.2-0.2c0.2-0.1,0.4-0.1,0.5-0.2c0.1,0,0.2-0.1,0.2-0.2c0.1,0,0.2-0.1,0.2-0.2c0.2-0.1,0.3-0.2,0.5-0.2
				c0.1,0,0.2,0,0.2-0.1c0.2-0.1,0.3-0.3,0.5-0.5c0.1-0.1,0.2-0.1,0.3-0.2c0.3-0.2,0.4-0.4,0.5-0.7c0.1-0.2,0.1-0.3,0.2-0.5
				c0-0.2,0-0.3,0-0.5c0-0.1,0.1-0.2,0.2-0.2c0-0.1,0-0.2,0-0.2c0-0.1,0.1-0.2,0.2-0.2c0-0.1,0.1-0.2,0.1-0.2
				c0.1-0.3,0.2-0.5,0.2-0.8s-0.1-0.5-0.2-0.7c0-0.1-0.1-0.2-0.1-0.2c0-0.1,0-0.2,0-0.2c-0.1-0.2-0.2-0.3-0.3-0.5v-0.1
				c2.6-0.5,5.4-1,7.3-1.4c0.4,1.8,0.9,4.6,1.5,7.9c-0.1-0.1-0.2-0.1-0.3-0.2c-0.1,0-0.2,0-0.2-0.1c-0.2-0.1-0.4-0.2-0.5-0.3
				c-0.3-0.1-0.5-0.3-0.8-0.4c0.1-0.1,0-0.1-0.2-0.1c-0.1,0-0.2,0.1-0.4,0.2s-0.3,0.3-0.5,0.5c-0.1,0.1-0.2,0.2-0.2,0.2
				c-0.1,0-0.2,0-0.2,0.1c-0.1,0.1-0.1,0.2-0.2,0.2c-0.1,0.1-0.2,0.1-0.3,0.2c-0.2,0.1-0.3,0.2-0.5,0.2c-0.1,0-0.2,0.1-0.2,0.2
				c-0.2,0.1-0.3,0.1-0.5,0.2c-0.1,0-0.2,0.2-0.2,0.2c-0.2,0.2-0.4,0.3-0.5,0.5c-0.1,0.1-0.2,0.3-0.2,0.5c0,0.1,0.1,0.2,0.2,0.2
				c0,0.1,0.2,0,0.2,0.1c0.1,0.1,0,0.2,0.1,0.2c0,0.1,0.2,0.1,0.2,0.2s0,0.2,0.1,0.2s0.1,0.2,0.2,0.2c0,0.1,0,0.2,0.1,0.2
				c0.1,0.2,0.4,0.2,0.5,0.3c0.1,0,0.2,0.1,0.2,0.2c0.1,0,0.2,0,0.2,0c0.1,0,0.2,0.2,0.2,0.2h0.1c0.1,0,0.2-0.1,0.4-0.1
				s0.3-0.1,0.5-0.1c0.4-0.1,0.6-0.1,0.9-0.1c0.1,0,0.1-0.1,0.2-0.1c0.4,0,0.6,0,1,0c0.2,0,0.4,0,0.5-0.1c0.1,0,0.2-0.1,0.2-0.1
				c0.1,0,0.2-0.1,0.2-0.2c0.1,0,0.2-0.1,0.2-0.2c0,0,0-0.1,0.1-0.1c1.6,8,3.7,18.7,5.8,29.3c8.8,43.8,9.3,44.1,10.6,44.9
				c0.4,0.3,0.9,0.4,1.4,0.4c0.2,0,0.3,0,0.5,0c0.4-0.1,4.4-0.9,12.4-2.1c0.3,0,0.5,0.1,0.8,0.2c0.3,0.1,0.3,0.5,0.6,0.7
				c0.3,0.1,0.6,0.1,0.8,0.2c0.3,0.1,0.4,0.5,0.7,0.6c0.8,0.5,1.1,0.9,1.8,1.4c0.2,0.1,0.5,0.3,0.6,0.4c0.3,0.3,0.5,0.4,0.8,0.6
				c0.2,0.1,0.2,0.5,0.4,0.6s0.4-0.2,0.6,0c0.5,0.4,0.6,0.9,1.1,1.3c0.2,0.1,0.4,0.1,0.6,0.2s0.4,0.4,0.6,0.4
				c0.3,0.1,0.6,0.2,0.9,0.2c0.9,0,1.4-0.4,2.2-0.6s1.4-0.3,2.2-0.4c0.3,0,0.6,0.1,0.8,0c0.3,0,0.4-0.4,0.6-0.5
				c0.2-0.1,0.5-0.1,0.6-0.2c0.2-0.1,0.1-0.5,0.3-0.6c0.2-0.2,0.4-0.5,0.6-0.6c0.2-0.1,0.4-0.2,0.6-0.2c0.7-0.3,1.1-0.2,1.8-0.2
				c0.2,0,0.4,0.2,0.6,0.2s0.4-0.2,0.6-0.2s0.5-0.2,0.7-0.2c0.5-0.1,0.1-0.1,0.6-0.3c0.2,0,0.2-0.5,0.4-0.5c0.2-0.1,0.9,0.1,1.1,0.1
				c0.3,0,0.3,0.1,0.6,0.1h0.8c0.7,0,0.5,0.1,1.2,0.1c0-0.7,1-1.6,1.2-2.2c0.1-0.5,0.3-0.9,0.6-1.2c0.4-0.4,0.8-0.5,1.2-0.6
				c0.5-0.2,0.8-0.3,1.2-0.4h0.7c0,0.2,0.1,0.4,0.2,0.6c0.1,0.2,0,0.6,0.2,0.6c0.4,0.2,0.6,0.2,1,0.2s0.7-0.3,1-0.4
				c0.5-0.2,0.8-0.3,1.2-0.4c0.2,0,0.5-0.2,0.7-0.2c0.2-0.1,0.4,0.1,0.6,0c0.2-0.1,0.4-0.4,0.6-0.4c0.2,0,0.4-0.2,0.6-0.2
				c0.4,0,0.8,0,1.2,0c0.3,0,0.5-0.2,0.8-0.2h0.9c0.3,0,0.3,0.2,0.6,0.2c0.2,0.1,0.6,0.2,0.8,0.4c0.4,0.4,0.6,0.8,0.8,1.2
				c0.1,0.2,0,0.4,0,0.6l-0.2,0.3c-0.5,0.3-1,0.4-1.4,0.9c-0.1,0.2-0.2,0.4-0.2,0.6c-0.2,0.5-0.4,0.9-0.4,1.5c0,0.4,0.2,0.6,0.2,0.9
				c0.1,0.8,0.2,1.3,0.6,1.9c0.1,0.2,0.5,0.3,0.6,0.4c0.2,0.2,0.4,0.5,0.6,0.6c0.5,0.3,0.9,0.4,1.4,0.6c0.5,0.3,0.9,0.7,1.3,1
				c0.2,0.1,0.5,0.3,0.6,0.4c0.2,0.2,0.4,0.5,0.6,0.6c0.7,0.5,1.2,0.7,1.8,1.1c0.3,0.2,0.6,0.3,0.8,0.4c0.3,0.2,0.4,0.5,0.6,0.6
				c0.5,0.3,0.9,0.3,1.3,0.6c0.3,0.2,0.6,0.4,0.8,0.6s0.1,0.5,0.2,0.6c0.1,0.2,0.5,0.2,0.6,0.4c0.2,0.4,0.3,0.8,0.4,1.3
				c0.1,0.2,0.4,0.4,0.4,0.6c0.1,0.2,0,0.4,0,0.6s0.2,0.4,0.2,0.6v0.9c0,0.4,0,0.6,0,0.9s-0.4,0.4-0.4,0.7l0.6,1.8
				c-0.2,0.1-0.4,0.3-0.6,0.4c-0.3,0.1-0.6,0.1-0.8,0.2c-0.1,0.1-0.4,0.4-0.4,0.6c-0.1,0.2,0.2,0.4,0.2,0.6v0.7
				c0,0.5-0.2,0.8-0.2,1.3v0.6c0,0.3,0,0.6,0,0.8c-0.1,0.2-0.4,0.4-0.4,0.6c-0.1,0.2-0.2,0.4-0.2,0.6c-0.2,0.5-0.3,0.8-0.4,1.3
				c-0.1,0.2-0.3,0.4-0.4,0.6c-0.1,0.2-0.1,0.5-0.2,0.6c-0.2,0.2-0.5,0.2-0.7,0.4c-0.1,0.2-0.4,0.4-0.4,0.6c0,0.5,0.5,0.8,0.9,1
				c0.6,0.4,1,0.5,1.6,0.8c0.2,0.1,0.4,0,0.6,0.2c0.5,0.3,0.7,0.8,1,1.3s0.5,0.8,0.8,1.2c0.1,0.2,0.4,0.4,0.5,0.6
				c0.1,0.2,0.4,0.4,0.4,0.6s0,0.4,0,0.6c0.1,0.4,0.5,0.6,0.6,0.9c0.1,0.2,0.3,0.4,0.4,0.6c0.1,0.3,0.1,0.6,0.2,0.8
				c0,0.2,0.4,0.4,0.4,0.6c0.2,0.5,0.4,0.9,0.4,1.4v0.8c0.1,0.5,0.4,0.8,0.4,1.3c0,0.3-0.2,0.4-0.2,0.6c0,0.3,0.2,0.4,0.2,0.6
				c0,0.3-0.2,0.4-0.2,0.6v0.4c0,0.8-0.1,1.5,0.4,2.1c0.1,0.2,0.6,0,0.6,0.2s0.2,0.4,0.2,0.6v0.3c0,0.5-0.4,0.7-0.4,1.2
				c0,1.3,1.9,1.4,1.9,2.6c0,0.6-0.6,0.8-0.8,1.2c-0.1,0.2-0.2,0.4-0.3,0.6c-0.1,0.2-0.6,0.2-0.6,0.4v0.3c0,0.4,0.3,0.6,0.4,0.9
				s0.4,0.4,0.5,0.7c0,0.2,0.2,0.4,0.2,0.6c0.2,0.5,0.3,0.8,0.4,1.2c0.3,0.7,0.6,1.3,1.2,1.4c0.4,0.1,0.8,0,1.2,0
				c0.2,0,0.4-0.2,0.6-0.2c0.5,0,0.8,0,1.3,0c0.7,0,1.2,0.3,1.8,0.4c0.6,0,1,0,1.6,0s1,0.1,1.6,0c0.2,0,0.4-0.4,0.6-0.4
				s0.4,0.1,0.6,0c0.2,0,0.4-0.4,0.6-0.4c0.5-0.2,0.8-0.5,1.2-0.6c0.2,0,0.4,0,0.6,0c0.3,0,0.4-0.4,0.7-0.4c0,0,0,0,0.1,0
				c13.1-16.3,22.3-35.9,26.3-57.3c-0.3-0.2-0.4-0.2-0.6-0.4c-0.2-0.1-0.3-0.5-0.4-0.6c-0.3-0.2-0.5-0.4-0.8-0.6
				c-0.6-0.4-1.1-0.6-1.5-1s-0.5-0.8-0.8-1.2c-0.4-0.4-0.9-0.6-1.2-1c-0.4-0.5-0.7-0.9-1-1.5c-0.2-0.3-0.5-0.5-0.6-0.8
				c-0.1-0.2,0-0.4,0-0.6c-0.1-0.2-0.1-0.4-0.2-0.6c-0.1-0.1-0.2-0.2-0.3-0.3l-0.5-2.1l0,0c0.1-0.2,0.2-0.4,0.3-0.6
				c0.1-0.3,0.5-0.4,0.6-0.6c0.2-0.4,0.4-0.7,0.4-1.2c0-0.3-0.3-0.4-0.4-0.6c-0.2-0.4-0.5-0.5-0.6-0.8c-0.3-0.5-0.5-0.8-0.7-1.3
				c-0.3-0.7-0.4-1.1-0.4-1.8c0-0.5,0.1-0.8,0.2-1.2c0.1-0.2,0.1-0.4,0.2-0.6c0.1-0.2,0.5-0.4,0.7-0.7c0.1-0.2,0.3-0.4,0.4-0.6
				c0.1-0.2,0.1-0.4,0.2-0.6c0.1-0.2,0.5-0.2,0.6-0.4c0.3-0.5,0.4-0.9,0.6-1.4c0.3-0.7,0.5-1.2,0.6-1.9v-0.6c0.1-0.4,0.2-0.6,0.2-1
				c0.1-0.8,0.2-1.3,0.4-2c0-0.2,0.1-0.5,0.2-0.7c0.2-0.5,0.4-0.8,0.6-1.2c0.1-0.2,0.1-0.4,0.2-0.6c0.7-1.3,1.7-1.9,1.7-3.4
				c0-0.7-0.3-1.2-0.8-1.5c-0.4-0.3-0.8-0.2-1.3-0.2c0-0.2-0.1-0.5,0-0.6c0.1-0.2,0.5-0.3,0.6-0.4c0.2-0.3,0.5-0.4,0.7-0.6
				c0.1-0.2,0.4-0.4,0.4-0.6s0-0.4,0-0.6c0-0.3,0-0.5,0-0.7c-0.1-0.2-0.4-0.4-0.4-0.6c-0.1-0.3-0.4-0.4-0.5-0.6
				c-0.1-0.3,0-0.6,0-0.8c-0.1-0.4-0.3-0.7-0.4-1.1c1.4,0.5,2.7,1.1,4,1.7c6.9,3.3,13.3,10.8,13.4,10.9c0.7,0.9,2,1.1,3,0.6
				C306.4,123.9,306.9,122.7,306.7,121.6z M156.6,152.6c-1.9,0.8-6.6,2-9.9,2.8c-2,0.5-3.9,1-5.6,1.5c-5,1.3-12.2,2.8-14.9,3.3
				l-8.5-15.6c-0.4-0.6-1.1-0.9-1.8-0.7c-0.6,0.2-14.3,5-20.6,7.9c-6.1,3-14,6.4-14.1,6.5c-0.5,0.2-0.9,0.7-0.9,1.3l-1,20.4
				c-2.1,1.1-7.7,4.2-14.2,8.5c-4.4,2.9-8,5.9-10.4,7.9c0.7-11.7,2.8-48.2,4.1-66.2c1.5-19.9,4.7-59.2,5.2-65.3
				c2.3-1.2,9.6-5.1,14.7-7l0,0c4.4-1.7,13.2-5,16.4-6.2C115.3,84.6,151.6,144,156.6,152.6z M188.3,145.7c-6.9,1-11.2,1.8-13.3,2.2
				c-2.2-7.4-11.4-53.6-17.3-84.6c-0.1-0.7-0.8-1.2-1.5-1.2c-0.1,0-0.2,0-0.3,0c-0.5,0.1-11.8,2.1-16.2,3.2
				c-3.4,0.9-11.7,3-15.1,3.9l-5.6-25c6.1-1.5,30.6-7.4,48.3-9.9c17.2-2.4,40-2.6,46.6-2.6h1c2,8.7,4.8,20.6,5.6,24.8
				c-0.9,0-2.2,0-3.5,0c-2.6,0-5.8,0-9.2,0.1c-9.1,0.3-19.2,1.2-19.3,1.2c-0.4,0-0.8,0.3-1.1,0.6s-0.3,0.8-0.3,1.2l17.7,84.3
				C201.9,144.1,195.2,144.7,188.3,145.7z M232.6,93.8c-0.3,0-0.4,0.2-0.6,0.2c-0.5,0.2-0.8,0.5-1.2,0.6c-0.2,0-0.4-0.1-0.6,0
				c-0.2,0-0.4,0.3-0.6,0.4s-0.5,0.1-0.7,0.2s-0.2,0.5-0.4,0.6s-0.5,0.1-0.6,0.2c-0.2,0.2-0.4,0.4-0.6,0.5c-0.2,0.1-0.3,0.5-0.4,0.6
				c-0.2,0.1-0.4,0.1-0.6,0.2c-0.2,0.1-0.2,0.5-0.4,0.6s-0.4,0-0.6,0c-0.2,0-0.4,0.2-0.6,0.2c-0.3,0-0.5-0.2-0.7-0.2h-0.6
				c-0.6,0.1-1,0.5-1.4,0.8c-0.2,0.1-0.1,0.5-0.2,0.6c-0.3,0.3-0.6,0.3-0.8,0.6c-0.1,0.2,0,0.5-0.2,0.6c-0.1,0.1-0.4,0.1-0.6,0.2
				c-0.2,0.1-0.4,0.3-0.6,0.5c0.5,0.3,0.8,0.5,1.2,0.8c0.2,0.1,0.1,0.5,0.2,0.6c0.1,0.2,0.5,0.1,0.6,0.2c0.2,0.2,0.1,0.4,0.2,0.6
				c-0.2,0.1-0.4,0.4-0.6,0.4c-0.2,0.1-0.4,0-0.6,0c-0.7,0.2-1.2,0.4-1.9,0.6c-0.5,0.1-0.8,0.3-1.2,0.4c-0.5,0.2-0.7,0.4-1.2,0.4
				c-0.3,0-0.4-0.4-0.6-0.4s-0.4-0.2-0.6-0.2h-0.7c-0.5,0-0.8,0.2-1.2,0.2c-0.2,0-0.4,0.2-0.6,0.2c-0.5,0-0.8-0.2-1.2-0.2
				c-0.5,0-0.9,0.1-1.3,0.2c-0.2,0-0.4,0.3-0.6,0.4c-0.5,0.2-0.7,0.7-1.2,0.7c-0.3,0-0.4-0.4-0.6-0.5c-0.2-0.2-0.3-0.5-0.4-0.6
				c-0.4-0.4-0.8-0.6-1.2-0.8c-0.2-0.1-0.5-0.1-0.6-0.2c-0.6-0.5-0.8-1.1-1.1-1.8c-0.2,0-0.4-0.1-0.6,0c-0.2,0.1-0.2,0.5-0.4,0.6
				s-0.4,0.1-0.6,0.2c-0.4,0.3-0.7,0.5-1,0.7l-1.9-8.9c0.3,0.1,0.7,0.2,1,0.2c0.5,0,0.9,0,1.3,0c0.7,0.5,1.2,0.9,2.1,0.9
				c0.4,0,0.6-0.2,0.9-0.3c0.5-0.3,1.9-0.2,2.7-0.2c0.4,0.1,0.8,0.1,1.2,0c0.3,0.1,0.6,0.1,1,0.1s0.7,0,1.1-0.1c0.1,0,0.2,0,0.2-0.1
				c0.2-0.2,0.3-0.4,0.3-0.7c0-0.3-0.2-0.4-0.3-0.7c-0.2-0.3-0.4-0.6-0.6-0.8c0-0.2,0-0.4-0.2-0.4c-0.2-0.1-0.5-0.1-0.7-0.2
				c-0.1-0.1-0.3-0.2-0.4-0.3c-0.2-0.2-0.3-0.3-0.5-0.3c-0.1,0-0.2,0.1-0.3,0.3c-0.1,0-0.3,0-0.5,0h-6l-0.1-0.1
				c-0.5-0.5-0.9-0.8-0.9-1.5c0-0.1,0-0.1,0-0.2c0.3-0.2,0.6-0.5,0.9-0.6c0.1,0.1,0.1,0.2,0.2,0.3c0.3,0.2,0.5,0.4,0.9,0.6
				c0.4,0.1,0.6,0.2,1,0.2c0.3,0,0.4-0.1,0.6-0.2c0.2,0,0.3,0.1,0.4,0.1c0.4,0.1,0.7,0,1.2,0c0.9,0,1.5-0.1,2.3,0
				c0.4,0,0.8,0.3,1.2,0.3c0.3,0,0.7-0.1,1.1,0c0.2,0.3,0.3,0.6,0.7,0.9c0.2,0.2,0.4,0.2,0.7,0.3c0.7,0.3,1.2,0.3,1.9,0.5
				c0.3,0,0.4,0.2,0.7,0.2c0.7,0.1,1.1,0.2,1.9,0.3c0-0.6,0-1.1,0.4-1.5c0.2-0.2,0.5-0.2,0.7-0.4s0.2-0.4,0.2-0.6
				c0-0.4-0.1-0.7-0.3-1.1c0-0.1-0.1-0.2-0.2-0.2c-0.3-0.4-0.9-0.5-0.9-1c0-0.3,0.2-0.5,0.3-0.7c0.2-0.3,0.2-0.6,0.4-0.9
				c0.3-0.4,0.7-0.3,0.9-0.8c0.2-0.4,0.3-0.7,0.4-1.1c0.2,0.2,0.6,0.4,0.6,0.8c0.1,0.4-0.3,0.7-0.3,1.2c0.1,0.9-0.4,0.3-0.3,1.1
				c0.4-0.1,1.3,0.6,1.8,0.6l1.3,0.5c0.5,0,1,0.3,1.4,0.4h1.4c0.9,0,1.6,0,2.4-0.2c0.5-0.1,0.4-0.8,0.9-1c0.5-0.3-0.3-1.2-0.1-1.7
				c0.2-0.4,0.8-0.2,1-0.5s0.9-0.3,1.1-0.6c0.3-0.4,0.7-0.7,0.9-1.2c0.2-0.4-0.2-0.8,0-1.2c0-0.1,0.1-0.1,0.1-0.2l2.2,10.6
				C233.1,93.8,232.9,93.8,232.6,93.8z M289.1,107.2c-8.4-4-20.1-6.6-20.6-6.7s-1,0-1.4,0.4s-0.5,0.9-0.4,1.4l9.3,44
				c-4-0.8-12.1-2.3-15.5-2.8c-3.6-0.5-11-0.6-14-0.6L223.1,31.8c5.6,0.4,21.8,1.9,35.4,4.8c24.8,5.5,30.6,21.2,30.9,22.1l3.4,15.4
				c-3-3.4-7.7-7.5-14.5-10.6c-10-4.5-18.5-5.7-18.8-5.7c-0.5-0.1-1,0.1-1.3,0.5s-0.5,0.9-0.4,1.3l4.3,19.7c0.1,0.5,0.5,1,1.1,1.1
				c0.1,0,11.2,3,19.5,6.7c7.3,3.2,13.4,11,14.5,12.5l3.1,15.7C297.5,112.7,293.4,109.3,289.1,107.2z"/>
			<path class="st4" d="M84.6,84.5c-0.7,0.2-1.1,0.7-1.2,1.4L81.5,132c0,0.5,0.2,1,0.7,1.3c0.2,0.2,0.5,0.2,0.8,0.2
				c0.2,0,0.5-0.1,0.7-0.2c0,0,3.6-1.9,9.1-4.2L105,124c0.4-0.2,0.7-0.5,0.8-0.9s0.1-0.8-0.1-1.2L86.3,85.3
				C86,84.7,85.3,84.4,84.6,84.5z M94.3,107.8c-0.2,0.3-0.4,0.6-0.7,0.9c-0.2,0-0.4,0-0.6,0c-1.4-0.2-2.5-0.7-2.1-1.4
				c0.1-0.2,0.4-0.4,0.7-0.5c0.2-0.1,0.4-0.2,0.6-0.3c0.4-0.1,0.8-0.3,1.1-0.5L94.3,107.8z M88.7,97.3l0.4,0.7c-0.1,0-0.3,0-0.4,0
				V97.3z M88.6,100.2c0.5-0.1,1.1-0.1,1.4-0.4l2.9,5.5c-0.3,0-0.6-0.1-0.8-0.3c-0.7-0.8-0.2-2.5-1.3-2.5c-0.3,0-0.5,0-0.7,0.1
				c-0.3,0.2-0.6,0.6-0.8,1c-0.2,0.7-0.3,1.4-1,1.8L88.6,100.2z M87.7,121.8c0.2-0.2,0.3-0.4,0.6-0.6c0.4-0.3,0.7-0.4,1.2-0.6
				c0.8-0.4,1.5-0.7,2.3-0.9c0.4-0.1,0.7,0.3,1.2,0.3c0.6-0.1,0.7-0.7,1.2-0.9c0.5-0.1,1-0.4,1.5-0.6c0.4-0.1,0.7-0.4,1.2-0.6
				c0.4-0.1,0.8-0.1,1.2-0.3c0.4-0.2,0.6-0.5,1-0.8l3.5,6.6c-2.4,1-6.3,2.6-9.7,4c-2.2,0.9-4,1.8-5.5,2.5L87.7,121.8z"/>
		</g>
	</g>
</g>
</svg>
