<svg xmlns="http://www.w3.org/2000/svg" xml:space="preserve" id="Layer_1" x="0" y="0" baseProfile="basic" version="1.1" viewBox="0 0 578.7 136"><style>.st0{fill:#acacac}</style><switch><g><path d="M149.6 44.4h29.7l11 41.7h.7c.5-3.5 1.1-7.2 2-10.5l8.9-31.2h29.4l13.1 79.4h-27.9l-3.9-43.5h-.5c-.5 2.6-1.1 5.4-1.9 7.9l-11.5 35.6h-16.8l-10.3-33.6c-.8-3.4-1.6-6.5-1.8-9.9h-.9c-.2 3.2-.4 6.4-.7 9.6l-3.4 33.9h-27.9l12.7-79.4z" class="st0"/><path d="m287.1 95.1-3.4-14c-.8-3.4-1.4-6.8-1.9-10.2h-1l-5.3 24.2h11.6zM268 123.8h-30.5l27.6-79.4H297l28.3 79.4h-30.5l-2.6-9.9h-21.8l-2.4 9.9zM403.8 77.1c-.2 13-.2 23.8-9.6 33.9-8.4 9.2-21.4 14.1-33.7 14.1-24.2 0-43.8-15-43.8-40.4 0-25.9 19.1-41.5 44-41.5 13.8 0 32.8 6.8 39 20.4l-27 9.9c-2.2-4-6.3-6.1-11-6.1-10.3 0-16 8.8-16 18.4 0 8.7 5.5 17 14.8 17 4.5 0 10.3-2.1 11.7-6.9h-13.1V77.1h44.7zM405.9 44.4h27.7l25.9 44h.8c-1.2-6.6-2.4-13.5-2.4-20.2V44.4h27.6v79.4h-27.6l-25.4-41.7h-.8c.9 5.5 1.8 10.6 1.8 15.9v25.8h-27.6V44.4z" class="st0"/><path d="m532.2 95.1-3.4-14c-.8-3.4-1.4-6.8-1.9-10.2h-1.1l-5.3 24.2h11.7zm-19 28.7h-30.5l27.6-79.4h31.9l28.3 79.4H540l-2.6-9.9h-21.8l-2.4 9.9z" class="st0"/><path d="M92.8 123.9h29.9L93.9 44.6H72l-4.1 11.1z"/><path d="M72.5 10.9c-8 0-14.5 6.5-14.5 14.5s6.5 14.5 14.5 14.5S87 33.5 87 25.4c0-8-6.5-14.5-14.5-14.5" style="fill:#e22e2f"/><path d="M8.2 123.9h44.6L30.5 62.7zM57.9 123.9h29.9L59 44.6H37.1l-4 11.1z"/></g></switch></svg>