<svg xmlns="http://www.w3.org/2000/svg" xml:space="preserve" id="レイヤー_1" x="0" y="0" baseProfile="basic" version="1.1" viewBox="0 0 162.3 41.2"><style>.st0,.st1{fill:#5389dc}</style><path d="M13.7 41.2c0-.3-.1-.6-.1-.9 0-.4-.1-.8-.1-1.3s-.1-1-.1-1.5c-.1-.7-.1-1.4-.2-2.1 0-.5-.1-1-.1-1.6-.1-.7-.1-1.4-.2-2.1 0-.2-.1-.5-.1-.7 0-.1 0-.1-.1-.1-.3 0-.5 0-.8.1-.6 0-1.1.1-1.7.1-.5 0-1 .1-1.5.1s-1 .1-1.4.1c-.8.1-1.5.1-2.3.2-.7.1-1.4.1-2.1.2h-.3c2-2.8 3.9-5.6 5.8-8.4-2.8-2-5.6-3.9-8.4-5.9l9.9-2.7C9 11.6 8.1 8.3 7.3 5c3.1 1.4 6.2 2.9 9.3 4.3C18 6.2 19.5 3.1 20.9 0c1.5 3.1 2.9 6.2 4.4 9.3 3.1-1.4 6.2-2.9 9.3-4.3v.1c-.3 1.1-.6 2.1-.8 3.2-.3 1-.5 2-.8 3-.2.9-.5 1.7-.7 2.6-.1.3-.2.7-.3 1 0 .1 0 .1.1.1.7.2 1.4.4 2 .6.6.2 1.2.3 1.8.5.6.2 1.2.3 1.7.5.6.2 1.1.3 1.7.5.5.1 1.1.3 1.6.4.3.1.6.2 1 .3-2.8 2-5.6 3.9-8.4 5.9 1.9 2.8 3.9 5.6 5.8 8.4h-.5c-.5 0-1.1-.1-1.6-.1s-1.1-.1-1.6-.1c-.4 0-.9-.1-1.3-.1-.5 0-1-.1-1.6-.1-.3 0-.6 0-.8-.1-.5 0-1.1-.1-1.6-.1-.4 0-.8-.1-1.1-.1-.1 0-.1 0-.1.1 0 .4-.1.8-.1 1.3 0 .4-.1.8-.1 1.2-.1.7-.1 1.3-.2 2-.1.6-.1 1.1-.1 1.7-.1.6-.1 1.2-.2 1.8 0 .4-.1.9-.1 1.3 0 .3-.1.6-.1.9-2.4-2.4-4.8-4.8-7.3-7.2-2.4 1.9-4.8 4.3-7.2 6.7zm18.8-19.9c0-6.4-5.1-11.5-11.3-11.6C14.5 9.6 9.4 15 9.4 21.3c0 6.5 5.2 11.6 11.5 11.6 6.5 0 11.6-5.3 11.6-11.6z" class="st0"/><path d="M15.7 21c.3.1.6.2.9.4.8.5.9 1.4.6 2.1-.3.5-.8.8-1.3 1-.4.1-.9.2-1.3.2H12v-.3s0-.1.1-.1.2 0 .4-.1c.2 0 .3-.2.4-.4v-4.4c0-.2 0-.4-.1-.5 0-.2-.2-.3-.4-.4h-.3c-.1 0-.1 0-.1-.1 0-.3 0-.3.3-.3h2.8c.4 0 .8 0 1.2.2.4.2.7.4.9.8.2.6 0 1.1-.4 1.5-.2.2-.5.3-.7.4h-.4zm-1.3.3h-.3c-.1 0-.1 0-.1.1v1.9c0 .2 0 .4.1.6.2.3.6.4.9.3.4-.1.6-.4.8-.7.1-.4.2-.8.1-1.1-.1-.4-.3-.7-.7-.9-.2-.1-.5-.2-.8-.2zm-.3-1.5v1c0 .1 0 .1.1.1.3 0 .6 0 .9-.1.3-.1.5-.2.6-.5.2-.4.2-.8 0-1.1-.1-.2-.2-.4-.4-.5-.3-.2-.6-.2-.9-.2-.3 0-.3.1-.3.4v.9zM29.5 18.1c0 .3 0 .5.1.8v.7c0 .1 0 .1-.1.1h-.1c-.2 0-.2 0-.2-.2-.1-.1-.2-.3-.2-.5-.2-.3-.4-.5-.8-.5h-.9c-.2 0-.3.1-.3.3v2.1c0 .1 0 .1.1.1h.9c.4 0 .5-.1.7-.5 0-.1.1-.2.1-.3h.4v2.2h-.3s-.1 0-.1-.1-.1-.3-.1-.4c-.1-.3-.2-.4-.5-.4h-1c-.1 0-.1 0-.1.1v2.3c0 .2.2.3.3.3h1.3c.2 0 .4-.1.5-.3.3-.3.4-.6.6-1 0-.1.1-.1.2-.1.2.1.3.1.2.3-.1.5-.2.9-.3 1.4 0 .1 0 .1-.1.1h-4.9v-.3c.2 0 .3 0 .5-.1.3-.1.4-.2.4-.5V18.8c0-.2-.2-.3-.4-.3h-.3c-.1 0-.1 0-.1-.1 0-.3 0-.3.3-.3h4.2c-.1 0-.1 0 0 0zM24.4 24.7h-2.8v-.3c.1 0 .2 0 .3-.1.2-.1.3-.2.2-.4-.1-.4-.3-.9-.4-1.3l-.1-.1h-1.8s-.1 0-.1.1c-.1.4-.3.8-.4 1.2-.1.3.1.4.4.5.1 0 .3 0 .4.1.1 0 .1 0 .1.1v.3h-2.4v-.3l.1-.1c.1 0 .2 0 .3-.1.3-.1.4-.3.5-.6l.6-1.5c.3-.9.7-1.8 1-2.7.2-.4.3-.9.5-1.3.2-.1.2-.2.2-.2.1 0 .2 0 .3-.1.1 0 .1 0 .1.1.3.8.6 1.7.9 2.5.4 1 .7 2 1.1 3 0 .1.1.2.1.3.1.3.4.5.7.5.1 0 .1 0 .1.2.1 0 .1.1.1.2zM21.5 22c-.3-.7-.5-1.4-.7-2.1-.3.7-.5 1.4-.8 2.1h1.5z" class="st0"/><path d="M46.5 5.9h3.4c.6 0 1.2.1 1.6.2.4.1.7.3 1 .5.2.2.4.5.5.9.1.3.1.7.1 1.2v.5c0 .3 0 .6-.1.8 0 .2-.1.4-.2.6-.1.2-.2.3-.4.4l-.6.3c.5.1.8.4 1 .7.2.3.3.8.3 1.4v.5c0 .4 0 .8-.1 1.2-.1.3-.2.6-.5.9-.2.2-.6.4-1 .5-.4.1-.9.2-1.6.2h-3.4V5.9zm1.6 4.7h1.8c.3 0 .5 0 .7-.1.2-.1.3-.1.5-.2.1-.1.2-.3.2-.4s.1-.4.1-.7v-.4c0-.3 0-.5-.1-.7s-.1-.3-.2-.4-.3-.2-.5-.2c-.2-.1-.4-.1-.7-.1h-1.8v3.2zm1.8 4.7c.3 0 .5 0 .7-.1.2-.1.3-.1.5-.2s.2-.3.2-.4.1-.4.1-.7v-.4c0-.3 0-.5-.1-.7s-.1-.3-.2-.4-.3-.2-.5-.2c-.1-.2-.4-.2-.7-.2h-1.8v3.3h1.8zM54.4 16.7V8.2h1.4l.1.6c.2-.3.4-.5.6-.6s.6-.2 1-.1h.5v1.4h-.4c-.3 0-.5 0-.7.1-.2 0-.3.1-.5.2-.1.1-.2.3-.3.5s-.1.5-.1.8v5.6h-1.6zM61.8 8.1h.3c.5 0 .9 0 1.3.1s.7.2.9.4c.2.2.4.5.5.8.2.4.2.8.2 1.2v3.7c0 .5-.1.9-.2 1.2-.1.3-.3.6-.6.8-.2.2-.6.3-.9.4-.4.1-.8.1-1.2.1h-.3c-.5 0-.9 0-1.3-.1s-.7-.2-.9-.4c-.2-.2-.4-.5-.5-.8-.1-.3-.2-.7-.2-1.2v-3.7c0-.5.1-.9.2-1.2.1-.3.3-.6.5-.8.2-.2.5-.3.9-.4.4-.1.8-.1 1.3-.1zm0 7.3h.3c.5 0 .8-.1 1-.3.2-.2.3-.5.3-1v-3.4c0-.5-.1-.8-.3-1-.2-.2-.5-.3-1-.3h-.3c-.5 0-.8.1-1 .3-.2.2-.3.5-.3 1v3.4c0 .5.1.8.3 1 .2.2.5.3 1 .3zM70 15.3h.5v1.4H70c-.5 0-.9 0-1.2-.1-.4-.1-.7-.2-.9-.4-.2-.2-.4-.5-.5-.8-.1-.3-.2-.8-.2-1.3V9.5h-1.1V8.2h1.1V6.7h1.6v1.5h1.7v1.3h-1.7V14c0 .3 0 .5.1.7.1.2.1.3.2.4.1.1.2.2.4.2h.5zM75.2 8.1h.3c.4 0 .8 0 1 .1.3.1.5.2.7.4s.3.5.4.8c.1.3.1.7.1 1.2v6.1h-1.6v-6c0-.5-.1-.8-.3-1-.2-.2-.5-.3-1-.3h-.3c-.5 0-.8.1-1 .3-.2.2-.3.5-.3 1v6h-1.6V5.1h1.6v3.7c.2-.3.4-.5.7-.6.5 0 .9-.1 1.3-.1zM85.4 13H81v1.2c0 .5.1.8.3 1 .2.2.5.3 1 .3h.3c.2 0 .4 0 .6-.1.2 0 .3-.1.4-.2.1-.1.2-.2.2-.4s.1-.3.1-.6v-.4h1.6v.5c0 .5-.1.9-.2 1.2-.1.3-.3.6-.6.8-.2.2-.5.3-.9.4-.4.1-.8.1-1.2.1h-.3c-.5 0-.9 0-1.3-.1s-.7-.2-.9-.4c-.2-.2-.4-.5-.5-.8-.1-.3-.2-.7-.2-1.2v-3.7c0-.5.1-.9.2-1.2.1-.3.3-.6.5-.8.2-.2.5-.3.9-.4.4-.1.8-.1 1.2-.1h.3c.5 0 .9 0 1.3.1s.7.2.9.4c.2.2.4.5.5.8.1.3.2.7.2 1.2V13zm-1.6-1.2v-1.1c0-.5-.1-.8-.3-1-.2-.2-.5-.3-1-.3h-.3c-.5 0-.8.1-1 .3-.2.2-.3.5-.3 1v1.1h2.9zM86.9 16.7V8.2h1.4l.1.6c.2-.3.4-.5.6-.6.3-.1.6-.2 1-.1h.5v1.4H90c-.3 0-.5 0-.7.1s-.3.1-.4.3c-.1.1-.2.3-.3.5-.1.2-.1.4-.1.7v5.6h-1.6zM101.6 16.7l-.8-2.8h-3.3l-.8 2.8H95l3.1-10.8h2.1l3.1 10.8h-1.7zm-3.7-4.2h2.7l-1.3-4.8-1.4 4.8zM106.9 16.8c-.4 0-.7 0-1-.1-.3-.1-.5-.2-.7-.4-.2-.2-.4-.5-.5-.8-.1-.3-.2-.7-.2-1.2V8.2h1.6v6c0 .5.1.8.3 1s.5.3 1 .3h.3c.5 0 .8-.1 1-.3s.3-.5.3-1v-6h1.6v8.5h-1.4l-.2-.7c-.1.3-.4.5-.7.6-.3.1-.7.2-1.2.2h-.2zM115.7 15.3h.5v1.4h-.5c-.5 0-.9 0-1.2-.1-.4-.1-.7-.2-.9-.4-.2-.2-.4-.5-.5-.8-.1-.3-.2-.8-.2-1.3V9.5h-1.1V8.2h1.1V6.7h1.6v1.5h1.7v1.3h-1.7V14c0 .3 0 .5.1.7.1.2.1.3.2.4.1.1.2.2.4.2h.5zM120.2 8.1h.3c.5 0 .9 0 1.3.1s.7.2.9.4c.2.2.4.5.5.8.1.3.2.7.2 1.2v3.7c0 .5-.1.9-.2 1.2-.1.3-.3.6-.6.8-.2.2-.5.3-.9.4-.4.1-.8.1-1.2.1h-.3c-.5 0-.9 0-1.3-.1s-.7-.2-.9-.4c-.2-.2-.4-.5-.5-.8-.1-.3-.2-.7-.2-1.2v-3.7c0-.5.1-.9.2-1.2.1-.3.3-.6.5-.8.2-.2.5-.3.9-.4.4-.1.8-.1 1.3-.1zm0 7.3h.3c.5 0 .8-.1 1-.3.2-.2.3-.5.3-1v-3.4c0-.5-.1-.8-.3-1-.2-.2-.5-.3-1-.3h-.3c-.5 0-.8.1-1 .3-.2.2-.3.5-.3 1v3.4c0 .5.1.8.3 1 .2.2.5.3 1 .3zM128.9 5.9h3.4c.6 0 1.2.1 1.6.2.4.1.7.3 1 .5.2.2.4.5.5.9.1.3.1.7.1 1.2v1.7c0 .4 0 .8-.1 1.2-.1.3-.2.6-.5.9-.2.2-.6.4-1 .5-.4.1-.9.2-1.6.2h-1.8v3.6h-1.6V5.9zm1.6 1.4v4.4h1.8c.3 0 .5 0 .7-.1.2 0 .3-.1.5-.2s.2-.3.2-.5.1-.4.1-.7V8.8c0-.3 0-.5-.1-.7 0-.2-.1-.3-.2-.4s-.3-.2-.5-.2c-.2-.1-.4-.1-.7-.1h-1.8zM139.3 11.9h1.7v-1.2c0-.5-.1-.8-.3-1-.2-.2-.5-.3-1-.3h-.3c-.5 0-.8.1-1 .3-.2.2-.3.5-.3 1v.4h-1.6v-.5c0-.5.1-.9.2-1.2.1-.3.3-.6.6-.8.2-.2.5-.3.9-.4.4-.1.8-.1 1.2-.1h.3c.5 0 .9 0 1.3.1s.7.2.9.4c.2.2.4.5.5.8.1.3.2.7.2 1.2v6.1h-1.4l-.1-.7c-.3.6-.9.8-1.9.8h-.3c-.8 0-1.4-.2-1.8-.6-.4-.4-.6-1.1-.6-2 0-.5.1-.8.2-1.1.1-.3.3-.5.5-.7.2-.2.5-.3.9-.3.3-.1.7-.2 1.2-.2zm.1 3.5h.3c.5 0 .8-.1 1-.3.2-.2.3-.5.3-1V13h-1.7c-.2 0-.4 0-.6.1-.1 0-.3.1-.4.2-.1.1-.1.2-.2.3 0 .1-.1.3-.1.6 0 .5.1.8.3 1s.6.2 1.1.2zM144.1 16.7V8.2h1.4l.1.6c.2-.3.4-.5.6-.6s.6-.2 1-.1h.5v1.4h-.4c-.3 0-.5 0-.7.1-.2 0-.3.1-.5.2-.1.1-.2.3-.3.5s-.1.4-.1.7v5.6h-1.6zM152.3 15.3h.5v1.4h-.5c-.5 0-.9 0-1.2-.1s-.7-.2-.9-.4c-.2-.2-.4-.5-.5-.8-.1-.3-.2-.8-.2-1.3V9.5h-1.1V8.2h1.1V6.7h1.6v1.5h1.7v1.3H151V14c0 .3 0 .5.1.7.1.2.1.3.2.4.1.1.2.2.4.2h.6zM156.9 8.1c1 0 1.8.2 2.2.6.5.4.7 1 .7 1.9v.5h-1.6v-.4c0-.2 0-.4-.1-.6s-.1-.3-.2-.4-.2-.2-.4-.2-.4-.1-.6-.1h-.3c-.5 0-.8.1-1 .2s-.3.4-.3.8v.2c0 .2 0 .3.1.4s.1.2.2.3c.1.1.2.2.4.2.2.1.4.1.6.2l.3.1c.5.1 1 .2 1.4.3.4.1.7.3.9.5s.4.4.5.7c.1.3.1.6.1.9v.3c0 1.5-1 2.2-2.9 2.2h-.3c-1 0-1.8-.2-2.2-.6s-.7-1-.7-1.9v-.5h1.6v.4c0 .5.1.8.3 1 .2.2.5.3 1 .3h.3c.5 0 .8-.1 1-.2s.3-.4.3-.8v-.2c0-.2 0-.3-.1-.4 0-.1-.1-.2-.2-.3s-.2-.2-.4-.2c-.2-.1-.4-.1-.6-.2l-.4-.1c-.5-.1-1-.2-1.4-.3s-.6-.3-.9-.5-.4-.4-.5-.7c-.1-.3-.1-.6-.1-.9v-.3c0-.8.2-1.3.7-1.7.5-.4 1.2-.5 2.2-.5h.4zM52.2 33.9l-.9-1.3c-.4.9-1.2 1.6-2.4 1.6-1.6 0-2.7-1.2-2.7-3.1 0-1.5.8-2.5 1.8-3.2-.6-1-.9-1.6-.9-2.5 0-1.6 1-2.6 2.4-2.6 1.3 0 2.2.9 2.2 2.4 0 1.4-1 2.3-2.1 3l1.5 2.3.9-2.4h1.4L52 31.3l1.8 2.5h-1.6zm-3.5-5.2c-.6.4-1.2 1.1-1.2 2.2 0 1.3.6 2 1.5 2 .8 0 1.3-.7 1.6-1.4l-1.9-2.8zm.8-5c-.6 0-1.1.6-1.1 1.5 0 .7.2 1.3.7 2 .8-.5 1.4-1.1 1.4-2.1 0-.8-.3-1.4-1-1.4zM64.1 33.9h-5.4V23.1h5.4v1.4h-3.8v3.3h3.5v1.4h-3.5v3.3h3.8v1.4zM68.9 25.2h.3c.4 0 .8 0 1 .1.3.1.5.2.7.4.2.2.3.5.4.8.1.3.1.7.1 1.2v6.1h-1.6v-6c0-.5-.1-.8-.3-1-.2-.2-.5-.3-1-.3h-.3c-.5 0-.8.1-1 .3-.2.2-.3.5-.3 1v6h-1.6v-8.5h1.4l.3.7c.2-.3.4-.4.7-.6.3-.1.7-.2 1.2-.2zM75.7 25.2c.9 0 1.5.3 1.8.8l.1-.7H79v9.3c0 .5-.1.9-.2 1.2-.1.3-.3.6-.6.8-.2.2-.6.3-.9.4-.4.1-.8.1-1.2.1h-.3c-.5 0-.9 0-1.2-.1-.4-.1-.7-.2-.9-.4-.2-.2-.4-.5-.5-.8-.2-.2-.2-.6-.2-1.1v-.3h1.6v.3c0 .5.1.8.3 1 .2.2.5.3 1 .3h.3c.5 0 .8-.1 1-.3.2-.2.3-.5.3-1v-1.5c-.2.3-.4.5-.7.6-.3.1-.7.2-1.1.2h-.3c-.4 0-.8 0-1-.1-.3-.1-.5-.2-.7-.4-.2-.2-.3-.5-.4-.8-.3-.4-.3-.8-.3-1.2v-3.7c0-.5 0-.9.1-1.2.1-.3.2-.6.4-.8.2-.2.4-.3.7-.4.3-.1.6-.1 1-.1h.5zm.1 7.5h.3c.5 0 .8-.1 1-.3.2-.2.3-.5.3-.9v-3.7c0-.5-.1-.8-.3-.9-.2-.2-.5-.3-1-.3h-.3c-.5 0-.8.1-1 .3-.2.2-.3.5-.3 1v3.6c0 .5.1.8.3 1 .2.1.6.2 1 .2zM80.5 24.3v-1.6h1.8v1.6h-1.8zm0 9.6v-8.5h1.6v8.5h-1.6zM87.2 25.2h.3c.4 0 .8 0 1 .1.3.1.5.2.7.4.2.2.3.5.4.8.1.3.1.7.1 1.2v6.1h-1.6v-6c0-.5-.1-.8-.3-1-.2-.2-.5-.3-1-.3h-.3c-.5 0-.8.1-1 .3-.2.2-.3.5-.3 1v6h-1.6v-8.5H85l.1.6c.2-.3.4-.4.7-.6.5 0 .9-.1 1.4-.1zM97.3 30.2h-4.5v1.2c0 .5.1.8.3 1 .2.2.5.3 1 .3h.3c.2 0 .4 0 .6-.1.2 0 .3-.1.4-.2.1-.1.2-.2.2-.4s.1-.3.1-.6V31h1.6v.5c0 .5-.1.9-.2 1.2-.1.3-.3.6-.6.8-.2.2-.6.3-.9.4-.4.1-.8.1-1.2.1h-.3c-.5 0-.9 0-1.3-.1s-.7-.2-.9-.4c-.2-.2-.4-.5-.5-.8-.1-.3-.2-.7-.2-1.2v-3.7c0-.5.1-.9.2-1.2.1-.3.3-.6.5-.8.2-.2.5-.3.9-.4.4-.1.8-.1 1.2-.1h.3c.5 0 .9 0 1.3.1s.7.2.9.4c.2.2.4.5.5.8.1.3.2.7.2 1.2v2.4zM95.7 29v-1.1c0-.5-.1-.8-.3-1-.2-.2-.5-.3-1-.3h-.3c-.5 0-.8.1-1 .3-.2.2-.3.5-.3 1V29h2.9zM104.7 30.2h-4.5v1.2c0 .5.1.8.3 1 .2.2.5.3 1 .3h.3c.2 0 .4 0 .6-.1.2 0 .3-.1.4-.2.1-.1.2-.2.2-.4s.1-.3.1-.6V31h1.6v.5c0 .5-.1.9-.2 1.2-.1.3-.3.6-.6.8-.2.2-.5.3-.9.4-.4.1-.8.1-1.2.1h-.3c-.5 0-.9 0-1.3-.1s-.7-.2-.9-.4c-.2-.2-.4-.5-.5-.8-.1-.3-.2-.7-.2-1.2v-3.7c0-.5.1-.9.2-1.2.1-.3.3-.6.5-.8.2-.2.5-.3.9-.4.4-.1.8-.1 1.2-.1h.3c.5 0 .9 0 1.3.1s.7.2.9.4c.2.2.4.5.5.8.1.3.2.7.2 1.2v2.4zm-1.6-1.2v-1.1c0-.5-.1-.8-.3-1-.2-.2-.5-.3-1-.3h-.3c-.5 0-.8.1-1 .3-.2.2-.3.5-.3 1V29h2.9zM106.2 33.9v-8.5h1.4l.1.6c.2-.3.4-.5.6-.6.3-.1.6-.2 1-.1h.5v1.4h-.4c-.3 0-.5 0-.7.1s-.3.1-.5.2c-.1.1-.2.3-.3.5-.1.2-.1.4-.1.7v5.6h-1.6zM110.7 24.3v-1.6h1.8v1.6h-1.8zm.1 9.6v-8.5h1.6v8.5h-1.6zM117.4 25.2h.3c.4 0 .8 0 1 .1.3.1.5.2.7.4.2.2.3.5.4.8.1.3.1.7.1 1.2v6.1h-1.6v-6c0-.5-.1-.8-.3-1-.2-.2-.5-.3-1-.3h-.3c-.5 0-.8.1-1 .3-.2.2-.3.5-.3 1v6H114v-8.5h1.4l.1.6c.2-.3.4-.4.7-.6.4 0 .8-.1 1.2-.1zM124.2 25.2c.9 0 1.5.3 1.8.8l.1-.7h1.4v9.3c0 .5-.1.9-.2 1.2-.1.3-.3.6-.6.8-.2.2-.6.3-.9.4-.4.1-.8.1-1.2.1h-.3c-.5 0-.9 0-1.2-.1-.4-.1-.7-.2-.9-.4-.2-.2-.4-.5-.5-.8-.1-.3-.2-.7-.2-1.2v-.3h1.6v.3c0 .5.1.8.3 1 .2.2.5.3 1 .3h.3c.5 0 .8-.1 1-.3.2-.2.3-.5.3-1v-1.5c-.2.3-.4.5-.7.6-.3.1-.7.2-1.1.2h-.3c-.4 0-.8 0-1-.1-.3-.1-.5-.2-.7-.4-.2-.2-.3-.5-.4-.8-.1-.3-.1-.7-.1-1.2v-3.7c0-.5 0-.9.1-1.2.1-.3.2-.6.4-.8.2-.2.4-.3.7-.4.3-.1.6-.1 1-.1h.3zm.2 7.5h.3c.5 0 .8-.1 1-.3.2-.2.3-.5.3-.9v-3.7c0-.5-.1-.8-.3-.9-.2-.2-.5-.3-1-.3h-.3c-.5 0-.8.1-1 .3-.2.2-.3.5-.3 1v3.6c0 .5.1.8.3 1 .2.1.5.2 1 .2zM134 33.9h-.2c-.4 0-.7 0-1-.1-.3-.1-.5-.2-.6-.4-.2-.2-.3-.3-.3-.6-.1-.2-.1-.5-.1-.7v-3.5c0-.3 0-.5.1-.7l.3-.6c.1-.2.4-.3.6-.4.3-.1.6-.1 1-.1h.2c.4 0 .7 0 1 .1.3.1.5.2.6.4s.3.3.3.6.1.5.1.7v.8h-1V28.2c0-.1-.1-.2-.2-.3-.1-.1-.2-.1-.3-.2h-1.2c-.1 0-.2.1-.3.2s-.1.2-.2.3v4.2c0 .1.1.2.2.3s.2.1.3.2.3 0 .5 0h.7c.2 0 .2-.1.3-.2.1-.1.1-.2.2-.3V31.2h1v.9c0 .3 0 .5-.1.7l-.3.6c-.1.2-.4.3-.6.4-.3.1-.6.1-1 .1zM138.7 28.3h.2c.3 0 .6 0 .8.1.2.1.4.1.6.3.2.1.3.3.4.5.1.2.1.5.1.8v2.4c0 .3 0 .6-.1.8-.1.2-.2.4-.4.5l-.6.3c-.2.1-.5.1-.8.1h-.2c-.3 0-.6 0-.8-.1-.2-.1-.4-.1-.6-.3-.2-.1-.3-.3-.3-.5s-.1-.5-.1-.8V30c0-.3 0-.6.1-.8.1-.2.2-.4.4-.5.2-.1.3-.2.6-.3.2-.1.4-.1.7-.1zm0 4.7h.2c.3 0 .5-.1.6-.2.1-.1.2-.3.2-.6V30c0-.3-.1-.5-.2-.6-.1-.1-.3-.2-.6-.2h-.2c-.3 0-.5.1-.6.2-.1.1-.2.3-.2.6v2.2c0 .3.1.5.2.6.1.2.3.2.6.2zM141.8 33.9v-1.3h1.1v1.3h-1.1zM144 35.1v-3h1V34l-.6 1.1h-.4zM149.8 33h2.4v.9h-3.5V27h1v6zM155.1 33h.3v.9h-1.1c-.2 0-.4-.1-.6-.3-.2-.1-.3-.3-.3-.5-.1-.2-.1-.5-.1-.8v-3h-.7v-.8h.7v-1h1v1h1.1v.8h-1.1v2.9c0 .2 0 .3.1.4 0 .1.1.2.2.3.1.1.1.1.2.1.1-.1.2 0 .3 0zM157.9 33.9h-.2c-.3 0-.5 0-.7-.1-.2-.1-.4-.1-.5-.3-.1-.1-.2-.3-.3-.5s-.1-.5-.1-.8v-2.4c0-.3 0-.6.1-.8s.2-.4.3-.5c.1-.1.3-.2.5-.3.2-.1.4-.1.7-.1h.2c.3 0 .5 0 .7.1.2.1.3.2.4.4v-2.4h1v7.4h-.9l-.1-.5c-.1.7-.5.8-1.1.8zm.3-4.7h-.2c-.3 0-.5.1-.6.2-.1.1-.2.3-.2.6v2.2c0 .3.1.5.2.6.1.1.3.2.6.2h.2c.3 0 .5-.1.6-.2.1-.1.2-.3.2-.6V30c0-.3-.1-.5-.2-.6-.1-.1-.3-.2-.6-.2zM161.2 33.9v-1.3h1.1v1.3h-1.1z" class="st1"/></svg>