<?xml version="1.0" encoding="utf-8"?>
<!-- Generator: Adobe Illustrator 25.1.0, SVG Export Plug-In . SVG Version: 6.00 Build 0)  -->
<svg version="1.1" id="レイヤー_1" xmlns="http://www.w3.org/2000/svg" xmlns:xlink="http://www.w3.org/1999/xlink" x="0px"
	 y="0px" viewBox="0 0 316.4 260" style="enable-background:new 0 0 316.4 260;" xml:space="preserve">
<style type="text/css">
	.st0{fill:url(#SVGID_2_);stroke:#1F4CA0;stroke-miterlimit:10;}
	.st1{fill:#FFFFFF;stroke:#1F4CA0;stroke-width:0.75;stroke-linecap:round;stroke-linejoin:round;stroke-miterlimit:10;}
	
		.st2{fill-rule:evenodd;clip-rule:evenodd;fill:#1F4CA0;stroke:#1F4CA0;stroke-width:5;stroke-linejoin:round;stroke-miterlimit:10;}
	.st3{fill:#FFFFFF;stroke:#1F4CA0;stroke-width:3;stroke-linejoin:round;stroke-miterlimit:10;}
	.st4{fill:none;}
</style>
<g id="レイヤー_3">
</g>
<g id="レイヤー_1_1_">
</g>
<g>
	
		<radialGradient id="SVGID_2_" cx="160.4445" cy="-203.7247" r="130.0003" gradientTransform="matrix(1 0 0 -1 0 -73.725)" gradientUnits="userSpaceOnUse">
		<stop  offset="0" style="stop-color:#1F4CA0;stop-opacity:0"/>
		<stop  offset="1" style="stop-color:#1F4CA0;stop-opacity:0.8"/>
	</radialGradient>
	<path class="st0" d="M30.4,130c0,71.8,58.2,130,130,130s130-58.2,130-130S232.2,0,160.4,0S30.4,58.2,30.4,130"/>
	<path class="st1" d="M122.7,59c-0.1,0-0.2,0.1-0.3,0.1c-0.3,0.1-0.5,0.1-0.7,0.2c-0.2,0-0.3,0.1-0.5,0.2H121
		c-0.1,0-0.2,0.1-0.2,0.1c-0.2,0-0.4,0.1-0.5,0.2c-0.1,0-0.2,0.1-0.2,0.1c-0.1,0-0.2,0.1-0.2,0.2c-0.3,0.1-0.5,0.3-0.8,0.3h-0.2
		c-0.1,0-0.1,0.1-0.2,0.1c-0.2,0-0.3,0-0.5,0s-0.3,0.2-0.5,0.2c0.1,0.3,0.2,0.5,0.4,0.7c0,0.1,0.2,0.1,0.2,0.2
		c0.1,0.1,0.1,0.2,0.2,0.2s0.2,0.1,0.2,0.2c0.1,0.1,0.1,0.2,0.2,0.2s0.2,0,0.2,0.1c0.1,0,0.2,0.1,0.2,0.2c0.1,0,0.2,0,0.2,0.1
		c0.1,0,0.2,0.1,0.2,0.2c0.2,0.1,0.3,0.1,0.5,0.2c0.1,0,0.2,0.1,0.2,0.2c0.2,0.1,0.3,0.1,0.5,0.2c0.1,0,0.1,0.1,0.2,0.1h0.4
		c0.4,0,0.6,0,0.9-0.2c0.1,0,0.2-0.1,0.2-0.2c0-0.1,0.1-0.2,0.1-0.2c0.2-0.4,0.2-0.7,0.2-1.2c0-0.3,0-0.4,0-0.7
		c0-0.1-0.1-0.2-0.2-0.2c0-0.2-0.1-0.3-0.1-0.5c0-0.1-0.1-0.1-0.1-0.2c0-0.1,0.1-0.1,0.1-0.2C122.6,59.2,122.6,59.1,122.7,59z"/>
	<path class="st1" d="M258.4,55.9c-0.4,0-0.6,0.1-1,0.1c-0.4,0.1-0.8,0.2-1.2,0.4c-0.2,0.1-0.4,0.3-0.6,0.4
		c-0.4,0.5-0.5,1.1-0.7,1.8c-0.1,0.2-0.2,0.4-0.3,0.6c-0.3,0.8-0.4,1.4-0.6,2.2c0,0.3-0.3,0.4-0.3,0.7s0,0.5,0,0.8s-0.1,0.5,0,0.8
		s0.3,0.4,0.4,0.6c0.4,0.5,0.7,0.7,1.2,1.2c0.4,0.4,0.8,0.7,1.2,1.2c0.1,0.2,0.1,0.5,0.3,0.6c0.4,0.3,0.8,0.3,1.2,0.4
		c0.4,0.2,0.8,0.5,1.2,0.7c0.6,0.3,1,0.6,1.6,0.6c0.4,0,0.5-0.4,0.9-0.6c0.2-0.1,0.4-0.3,0.6-0.4c0.2-0.1,0.4-0.1,0.6-0.3
		c0.1-0.1,0-0.4,0.1-0.6c0.2-0.2,0.5-0.2,0.7-0.4c0.1-0.2,0.1-0.4,0.3-0.6c0.2-0.2,0.5-0.2,0.6-0.4c0.1-0.2,0.1-0.4,0.1-0.6
		s0-0.4,0-0.6c0.1-0.4,0.1-0.7,0.3-1.2c0.1-0.2,0.2-0.4,0.3-0.6c0.3-0.5,0.7-0.6,0.9-1.2c0.1-0.2,0.3-0.3,0.3-0.6s-0.1-0.4-0.1-0.7
		c0-0.6-0.3-0.9-0.6-1.3c-0.3-0.5-0.6-0.8-1-1.2c-0.2-0.1-0.4-0.2-0.6-0.3c-0.3-0.1-0.5-0.3-0.7-0.3c-0.5-0.1-0.8-0.2-1.3-0.3
		c-0.2,0-0.4-0.2-0.6-0.3c-0.6-0.2-1-0.3-1.6-0.4C259.4,56.1,259,55.9,258.4,55.9z"/>
	<path class="st1" d="M209,96.7c-0.5,0.4-0.7,0.8-1.1,1.3c-0.2,0.2-0.3,0.4-0.4,0.7c-0.1,0.2-0.3,0.2-0.3,0.4c0,0.2,0.2,0.3,0.4,0.3
		c0.4,0.2,0.7,0.1,1.1,0.1c0.6,0,0.9,0.2,1.5,0.2c0.2,0,0.3-0.2,0.4-0.3c0.3-0.3,0.3-0.6,0.6-0.9c0.3-0.4,0.7-0.6,0.7-1.1
		c0-0.2,0-0.3-0.1-0.5C210.8,97,210,97,209,96.7z"/>
	<path class="st1" d="M199.9,98.1l-0.2,1c0,0.1,0,0.3,0.1,0.3c0.2,0.2,0.4,0.2,0.7,0.2s0.5-0.1,0.7-0.1c0.8,0,1.2,0.2,2,0.3
		c0-0.1,0.1-0.2,0.1-0.3c0-0.4-0.4-0.5-0.8-0.7c-0.4-0.3-0.6-0.5-1-0.8c-0.2-0.1-0.3-0.2-0.5-0.3c-0.3-0.4-0.4-0.7-0.7-1.1
		c-0.2-0.3-0.4-0.6-0.8-0.6c-0.1,0-0.1,0.1-0.2,0.1C199.3,96.8,199.6,97.3,199.9,98.1z"/>
	<path class="st1" d="M218.9,91.8c-0.1,0-0.2,0-0.2,0.1c-0.4,0.3-0.4,0.8-0.8,1.2c-0.5,0.5-0.9,0.7-1.3,1.3c0.5,0.6,1.1,0.6,1.9,0.7
		c0.8,0.1,1.2,0.6,2.1,0.6h0.9c0-0.2,0.1-0.2,0.1-0.4c0-0.2-0.2-0.3-0.3-0.4s-0.2-0.3-0.4-0.4c-0.3-0.3-0.5-0.6-0.7-0.9
		s-0.4-0.4-0.5-0.7c-0.2-0.4-0.3-0.8-0.7-1L218.9,91.8z"/>
	<path class="st1" d="M130.2,73c0,0.3,0.2,0.4,0.3,0.7c0.1,0.2,0.2,0.3,0.3,0.5c0,0.1,0.2,0.2,0.2,0.2c0,0.1,0.1,0.2,0.2,0.2
		c0,0.1,0.1,0.2,0.1,0.2c0,0.1,0.2,0.2,0.2,0.2c0,0.1,0,0.2,0,0.4c0,0.2,0,0.4-0.1,0.6c0,0.2-0.2,0.3-0.2,0.5c0,0.1-0.1,0.2-0.2,0.2
		c0,0.1-0.1,0.2-0.1,0.2c-0.1,0.1-0.2,0.1-0.3,0.2c-0.2,0.1-0.3,0.3-0.5,0.4c-0.1,0-0.2,0.1-0.2,0.2c-0.1,0.1-0.1,0.2-0.1,0.3
		c0,0.1-0.1,0.2-0.1,0.4c0,0.1,0.1,0.3,0.2,0.4c0,0.1,0.2,0.1,0.2,0.2c0.2,0.2,0.5,0.4,0.5,0.7c0,0.1-0.1,0.2-0.1,0.4
		c0,0.1-0.1,0.2-0.2,0.2c0,0.1,0,0.1,0,0.2c0,0.2,0,0.4,0.1,0.5c0.1,0.2,0.2,0.3,0.3,0.5c0.1,0.3,0.3,0.4,0.4,0.7
		c0,0.1,0.1,0.2,0.1,0.2c0.1,0.2,0.2,0.3,0.2,0.5c0,0.1,0,0.2,0,0.2c0,0.2,0.1,0.3,0.2,0.5c0,0.2,0,0.3,0,0.5s0.1,0.3,0.2,0.5
		c0.1,0.2,0.1,0.3,0.2,0.5s0.3,0.2,0.5,0.3c0.1,0,0.1,0.2,0.2,0.2c0.2,0.1,0.3,0.2,0.5,0.3c0.1,0.1,0.1,0.2,0.2,0.2
		c0.1,0.1,0.2,0,0.3,0.1c0.1,0,0.2,0.1,0.2,0.2c0.1,0,0.2,0.1,0.2,0.2c0.1,0,0.2,0.1,0.2,0.1c0.1,0,0.2,0.1,0.3,0.1
		c0.2,0.1,0.3,0.2,0.5,0.2c0.2,0,0.4,0,0.5,0.1c0.1,0,0.2,0.1,0.3,0.1c0.1,0,0.2,0,0.2,0c0.1,0,0.2,0.2,0.2,0.2h0.1
		c0.1,0,0.2-0.1,0.4-0.1c0.2,0,0.3-0.1,0.5-0.1h0.2c0.3,0,0.5-0.1,0.7-0.1c0.3-0.1,0.5-0.2,0.7-0.5c0.1-0.1,0.1-0.2,0.2-0.2
		c0-0.1,0-0.1,0-0.2s0.1-0.1,0.1-0.2s-0.1-0.2-0.1-0.3v-1.5c0-0.1,0.1-0.2,0.1-0.3c0.1-0.2,0.2-0.3,0.2-0.5c0-0.1,0.1-0.2,0.2-0.2
		c0-0.2-0.1-0.4-0.1-0.6c0-0.1,0-0.3,0.1-0.4c0-0.1,0.2-0.1,0.2-0.2c0.2-0.1,0.3-0.1,0.5-0.2c0.1,0,0.2-0.1,0.2-0.2
		c0.1-0.1,0.1-0.2,0.2-0.2c0.1,0,0.2,0,0.2-0.1s0-0.2,0.1-0.2c0.1-0.2,0.2-0.3,0.2-0.5c0-0.1,0-0.2,0-0.2c0-0.1,0.1-0.2,0.1-0.2
		c0-0.1,0-0.2,0-0.2c0.1-0.2,0.2-0.3,0.4-0.3c0.1,0,0.2-0.1,0.2-0.1c0.2,0,0.3,0,0.5,0c0.1,0,0.2-0.1,0.3-0.1s0.2-0.1,0.2-0.1
		c0.1,0,0.2,0,0.2,0c0.1,0,0.2,0,0.2-0.1c0.1,0,0.1-0.2,0.2-0.2c0.1,0,0.2,0,0.2-0.1c0.1,0,0.1-0.2,0.2-0.2c0.1,0,0.2-0.1,0.2-0.2
		c0.1-0.2,0.2-0.3,0.3-0.5s0.3-0.3,0.3-0.5c0-0.1,0-0.2,0-0.2c0-0.2,0.1-0.4,0.2-0.5c0.1-0.1,0.2-0.1,0.3-0.2c0.1,0,0.2-0.1,0.2-0.2
		c0.2-0.1,0.4-0.1,0.5-0.2c0.1,0,0.2-0.1,0.2-0.2c0.1,0,0.2-0.1,0.2-0.2c0.2-0.1,0.3-0.2,0.5-0.2c0.1,0,0.2,0,0.2-0.1
		c0.2-0.1,0.3-0.3,0.5-0.5c0.1-0.1,0.2-0.1,0.3-0.2c0.3-0.2,0.4-0.4,0.5-0.7c0.1-0.2,0.1-0.3,0.2-0.5c0-0.2,0-0.3,0-0.5
		c0-0.1,0.1-0.2,0.2-0.2c0-0.1,0-0.2,0-0.2c0-0.1,0.1-0.2,0.2-0.2c0-0.1,0.1-0.2,0.1-0.2c0.1-0.3,0.2-0.5,0.2-0.8s-0.1-0.5-0.2-0.7
		c0-0.1-0.1-0.2-0.1-0.2c0-0.1,0-0.2,0-0.2c-0.1-0.2-0.2-0.3-0.3-0.5c0-0.1,0-0.2,0-0.3c0-0.1-0.2-0.1-0.2-0.2s0-0.2-0.1-0.2
		c-0.2-0.3-0.3-0.5-0.5-0.8c0-0.1,0-0.2-0.1-0.2c0-0.1-0.1-0.2-0.2-0.2c-0.2-0.4-0.2-0.6-0.5-0.9c0-0.1-0.2-0.1-0.2-0.2
		c-0.4-0.4-0.7-0.6-1.3-0.8c-0.2-0.1-0.4-0.2-0.6-0.2c-1.5,0-2.3-0.1-3.7-0.1c-0.1,0-0.2,0.1-0.3,0.1c-0.4,0-0.7,0.1-1.1,0.1
		c-0.5,0-0.8,0-1.3,0.1c-0.1,0-0.1,0.1-0.2,0.1c-0.1,0-0.2,0-0.3,0c-0.2,0-0.4,0.2-0.6,0.2c-0.1,0-0.3,0-0.4,0.1
		c-0.2,0.1-0.3,0.2-0.6,0.2c-0.4,0.2-0.7,0.3-1.2,0.5c-0.2,0.1-0.3,0.2-0.5,0.3c-0.1,0-0.2,0.1-0.2,0.1c-0.3,0.1-0.5,0.3-0.8,0.4
		c-0.1,0-0.2,0-0.2,0.1c-0.1,0-0.2,0-0.2,0.1c-0.1,0-0.1,0.2-0.2,0.2c-0.1,0.1-0.3,0.1-0.4,0.2c-0.1,0-0.2,0.1-0.2,0.2
		c-0.1,0-0.1,0.2-0.2,0.2c-0.1,0-0.2,0-0.2,0c-0.2,0.1-0.4,0.2-0.6,0.2c-0.1,0-0.2,0.1-0.3,0.1c-0.2,0-0.4,0-0.5,0.1
		c-0.2,0.1-0.2,0.4-0.3,0.6c0,0.1-0.1,0.2-0.2,0.2c0,0.1-0.1,0.2-0.2,0.3c0,0.1,0,0.2,0,0.3c0,0.1-0.1,0.1-0.1,0.2
		c0,0.3,0,0.4,0,0.7c0,0.2,0.1,0.3,0.1,0.5c0,0.1-0.1,0.1-0.1,0.2C130.3,72.7,130.2,72.8,130.2,73"/>
	<path class="st1" d="M111.6,66.3c0,0.1,0.1,0.2,0.1,0.4V67c0,0.1,0.1,0.1,0.1,0.2v0.2c0,0.1,0,0.2,0.1,0.2c0,0.1,0,0.2,0.1,0.2
		c0.1,0.1,0.2,0,0.3,0.1c0.1,0.1,0.2,0.2,0.3,0.2c0.2,0.1,0.3,0.1,0.5,0.2c0.3,0.1,0.5,0.2,0.7,0.4c0,0.1,0.1,0.2,0,0.2
		c-0.1,0.1-0.2,0-0.2,0.1s-0.1,0.2-0.2,0.2c0,0.1,0,0.1,0,0.2s-0.1,0.1-0.1,0.2s0.1,0.2,0.2,0.2c0,0.1,0.2,0.1,0.2,0.2
		c0.1,0,0.2,0,0.2,0c0.3,0.1,0.5,0.2,0.9,0.2c0.1,0,0.2,0.1,0.2,0.1c0.2,0,0.3,0,0.5,0.1c0.1,0,0.2,0.1,0.2,0.2
		c0.2,0.1,0.4,0.1,0.5,0.2c0.2,0.1,0.3,0.2,0.4,0.4c0,0.1,0.1,0.2,0.2,0.2c0,0.1,0.1,0.2,0.1,0.2c0,0.1-0.1,0.2-0.1,0.2
		c0,0.1,0.2,0.2,0.2,0.2c0,0.3,0,0.5,0,0.8c0,0.1,0.1,0.1,0.1,0.2v0.6c0,0.2-0.1,0.3-0.1,0.5s-0.1,0.3-0.1,0.5v0.2
		c0,0.3-0.1,0.5-0.2,0.7c0,0.1-0.1,0.2-0.2,0.2c-0.1,0.2-0.1,0.3-0.2,0.5c-0.2,0.2-0.4,0.2-0.6,0.3s-0.2,0.4-0.3,0.5
		c-0.1,0.2-0.3,0.2-0.5,0.3c-0.2,0.1-0.4,0.1-0.5,0.2c-0.1,0-0.2,0.1-0.2,0.2c-0.1,0-0.2,0.1-0.2,0.1c-0.2,0-0.3,0-0.5,0
		s-0.3,0.1-0.5,0.2c-0.3,0.1-0.5,0.3-0.7,0.5s-0.3,0.4-0.4,0.6c-0.1,0.3-0.1,0.5-0.1,0.7s0,0.3,0,0.4c0,0.1,0.1,0.2,0.2,0.2
		c0,0.1,0.1,0.2,0.2,0.2c0.1,0.1,0.2,0.1,0.3,0.2c0.1,0.1,0.3,0.1,0.4,0.1c0.5,0.1,0.9,0.1,1.4,0.2h0.5c0.2,0,0.2,0.1,0.4,0.1h0.2
		c0.1,0,0.2,0.1,0.2,0.1c0.1,0,0.2,0,0.2,0c0.1,0,0.1,0.2,0.2,0.2s0.2,0,0.2,0.1c0.2,0.1,0.4,0.2,0.5,0.4c0,0.1,0,0.2,0,0.2
		c0.1,0.1,0.1,0.2,0.2,0.3c0.1,0,0.2,0.1,0.2,0.1c0.2,0,0.3,0,0.5,0c0.1,0,0.2,0,0.2,0c0.1,0,0.2,0.2,0.2,0.2c0.1,0,0.1,0.2,0.2,0.2
		c0.1,0.1,0.2,0.2,0.2,0.2c0.1,0.1,0.1,0.2,0.2,0.3c0.1,0.1,0.2,0.1,0.2,0.2c0.1,0.1,0.1,0.2,0.2,0.2c0.2,0.1,0.3,0.1,0.5,0.2
		c0.1,0,0.2,0.1,0.3,0.1h0.5v-0.8c0-0.1-0.1-0.2-0.2-0.3c-0.1-0.2-0.2-0.3-0.3-0.5c0-0.1-0.1-0.2-0.2-0.2c-0.1-0.1-0.1-0.3-0.1-0.4
		c0.1,0,0.1-0.1,0.2-0.1h0.1c0.2,0,0.2,0.2,0.4,0.2c0.1,0,0.2,0,0.2,0.1c0.1,0.1,0.1,0.2,0.2,0.2c0.1,0,0.2,0.1,0.2,0.2
		c0.1,0,0.2,0.1,0.2,0.1c0.1,0,0.1,0.2,0.3,0.2h0.7v-1.1c0-0.2-0.2-0.3-0.2-0.5c0-0.1,0-0.2-0.1-0.2c-0.1-0.2-0.3-0.3-0.4-0.5
		c-0.1-0.1-0.2-0.2-0.2-0.2c-0.1-0.1-0.1-0.3-0.2-0.4v-0.2c0-0.1-0.1-0.2-0.1-0.3v-0.9h0.4c0.2,0,0.4,0.1,0.5,0.2
		c0.2,0.1,0.3,0.2,0.5,0.4c0.1,0.1,0.1,0.2,0.2,0.2c0,0.1,0.2,0.1,0.2,0.2c0.1,0.1,0.1,0.2,0.2,0.2c0.2,0.1,0.3,0.3,0.6,0.3
		c0.2,0,0.4-0.2,0.5-0.4c0-0.1,0.1-0.2,0.2-0.2c0-0.1,0-0.2,0-0.3c0-0.2,0.1-0.3,0.2-0.5c0-0.2-0.1-0.3,0-0.5c0-0.1,0.1-0.2,0.2-0.2
		c0-0.1,0.2,0,0.2-0.1s0-0.1,0-0.2s0-0.2,0-0.2c0-0.1-0.1-0.2-0.2-0.2c0-0.1,0-0.2-0.1-0.2c-0.2-0.3-0.4-0.5-0.7-0.7
		c-0.2-0.2-0.3-0.3-0.5-0.5c-0.1-0.1-0.2-0.1-0.3-0.2c0-0.1-0.1-0.2-0.1-0.2c0-0.1-0.1-0.2-0.1-0.3c0-0.1,0.1-0.1,0.1-0.2
		c0-0.2,0.1-0.3,0.1-0.5v-0.2c0-0.1,0.1-0.1,0.1-0.2V74c0-0.2-0.1-0.3-0.1-0.4c0-0.3,0-0.4-0.1-0.7c0-0.1-0.1-0.2-0.1-0.2
		c0-0.1-0.1-0.2-0.2-0.2c0-0.1-0.1-0.2-0.2-0.2c0-0.1,0-0.2-0.1-0.2c-0.1-0.1-0.2-0.2-0.2-0.2c0-0.1,0-0.2-0.1-0.2
		c0-0.1-0.2-0.1-0.2-0.2c-0.2-0.3-0.4-0.5-0.6-0.7c-0.2-0.1-0.3-0.2-0.5-0.4c-0.2-0.2-0.3-0.3-0.4-0.5c0-0.1-0.2-0.1-0.2-0.2
		s-0.1-0.2-0.2-0.2c-0.1-0.1-0.2-0.2-0.2-0.2c-0.1-0.1-0.2-0.1-0.2-0.2c-0.1-0.1-0.1-0.2-0.2-0.2c-0.1-0.1-0.2-0.1-0.2-0.2
		s0-0.2-0.1-0.2c0-0.1-0.1-0.2-0.2-0.2c0-0.2,0-0.3,0-0.5v-0.2c0-0.1-0.1-0.2-0.2-0.2c0-0.1,0-0.2,0-0.2c-0.1-0.2-0.2-0.3-0.4-0.3
		c-0.2,0-0.3,0-0.5,0c-0.3-0.1-0.6-0.3-0.6-0.6c0-0.1,0.1-0.2,0.2-0.4c0-0.1,0.1-0.2,0.2-0.3c-0.1-0.1-0.1-0.2-0.2-0.2
		s-0.2-0.1-0.4-0.1c-0.1,0-0.2,0-0.4,0.1c-0.1,0-0.1,0.2-0.2,0.2c-0.2,0.1-0.3,0.3-0.5,0.4s-0.3,0.1-0.5,0.1c-0.1,0,0-0.2-0.1-0.2
		c0.1-0.1,0.1-0.2,0.2-0.3c0-0.1,0.2-0.1,0.2-0.2s-0.1-0.1-0.1-0.2v-0.3h-0.8c-0.2,0-0.3,0.1-0.5,0.2c-0.1,0-0.3,0-0.4,0
		s-0.2,0.1-0.2,0.2c-0.1,0-0.2,0-0.2,0c-0.1,0-0.2,0.1-0.2,0.1c-0.1,0-0.2,0-0.2,0c-0.1,0-0.2,0.1-0.2,0.2c-0.2,0.1-0.3,0.1-0.5,0.2
		S111.8,66.1,111.6,66.3c0,0.1-0.1,0.2-0.2,0.2C111.7,66,111.6,66.1,111.6,66.3"/>
	<path class="st1" d="M155.5,75.4c-0.1,0-0.2,0.1-0.4,0.2s-0.3,0.3-0.5,0.5c-0.1,0.1-0.2,0.2-0.2,0.2c-0.1,0-0.2,0-0.2,0.1
		c-0.1,0.1-0.1,0.2-0.2,0.2c-0.1,0.1-0.2,0.1-0.3,0.2c-0.2,0.1-0.3,0.2-0.5,0.2c-0.1,0-0.2,0.1-0.2,0.2c-0.2,0.1-0.3,0.1-0.5,0.2
		c-0.1,0-0.2,0.2-0.2,0.2c-0.2,0.2-0.4,0.3-0.5,0.5c-0.1,0.1-0.2,0.3-0.2,0.5c0,0.1,0.1,0.2,0.2,0.2c0,0.1,0.2,0,0.2,0.1
		c0.1,0.1,0,0.2,0.1,0.2c0,0.1,0.2,0.1,0.2,0.2s0,0.2,0.1,0.2s0.1,0.2,0.2,0.2c0,0.1,0,0.2,0.1,0.2c0.1,0.2,0.4,0.2,0.5,0.3
		c0.1,0,0.2,0.1,0.2,0.2c0.1,0,0.2,0,0.2,0c0.1,0,0.2,0.2,0.2,0.2h0.1c0.1,0,0.2-0.1,0.4-0.1s0.3-0.1,0.5-0.1
		c0.4-0.1,0.6-0.1,0.9-0.1c0.1,0,0.1-0.1,0.2-0.1c0.4,0,0.6,0,1,0c0.2,0,0.4,0,0.5-0.1c0.1,0,0.2-0.1,0.2-0.1c0.1,0,0.2-0.1,0.2-0.2
		c0.1,0,0.2-0.1,0.2-0.2c0.1-0.1,0.1-0.3,0.2-0.5c0-0.1,0-0.2,0-0.2c0.1-0.2,0.3-0.2,0.5-0.2c0.3-0.1,0.5,0,0.7-0.2
		c0.1,0,0.2-0.2,0.2-0.2c0-0.1,0.1-0.2,0.2-0.2c0-0.1,0.1-0.1,0.1-0.2s-0.1-0.2-0.2-0.3c-0.2-0.2-0.5-0.2-0.8-0.2
		c-0.2,0-0.4,0.1-0.5,0c-0.1,0-0.2-0.1-0.3-0.1c-0.2-0.2-0.2-0.4-0.4-0.6c-0.1-0.2-0.3-0.3-0.5-0.4c-0.1,0-0.2,0-0.2-0.1
		c-0.2-0.1-0.4-0.2-0.5-0.3c-0.3-0.1-0.5-0.3-0.8-0.4C155.8,75.4,155.7,75.4,155.5,75.4"/>
	<path class="st1" d="M287.8,153.6c-0.2-0.1-0.3-0.5-0.4-0.6c-0.3-0.2-0.5-0.4-0.8-0.6c-0.6-0.4-1.1-0.6-1.5-1s-0.5-0.8-0.8-1.2
		c-0.4-0.4-0.9-0.6-1.2-1c-0.4-0.5-0.7-0.9-1-1.5c-0.2-0.3-0.5-0.5-0.6-0.8c-0.1-0.2,0-0.4,0-0.6c-0.1-0.2-0.1-0.4-0.2-0.6
		c-0.4-0.6-1.1-0.8-1.1-1.5c0-0.4,0.2-0.6,0.4-1c0.1-0.2,0.2-0.4,0.3-0.6c0.1-0.3,0.5-0.4,0.6-0.6c0.2-0.4,0.4-0.7,0.4-1.2
		c0-0.3-0.3-0.4-0.4-0.6c-0.2-0.4-0.5-0.5-0.6-0.8c-0.3-0.5-0.5-0.8-0.7-1.3c-0.3-0.7-0.4-1.1-0.4-1.8c0-0.5,0.1-0.8,0.2-1.2
		c0.1-0.2,0.1-0.4,0.2-0.6c0.1-0.2,0.5-0.4,0.7-0.7c0.1-0.2,0.3-0.4,0.4-0.6c0.1-0.2,0.1-0.4,0.2-0.6c0.1-0.2,0.5-0.2,0.6-0.4
		c0.3-0.5,0.4-0.9,0.6-1.4c0.3-0.7,0.5-1.2,0.6-1.9v-0.6c0.1-0.4,0.2-0.6,0.2-1c0.1-0.8,0.2-1.3,0.4-2c0-0.2,0.1-0.5,0.2-0.7
		c0.2-0.5,0.4-0.8,0.6-1.2c0.1-0.2,0.1-0.4,0.2-0.6c0.7-1.3,1.7-1.9,1.7-3.4c0-0.7-0.3-1.2-0.8-1.5c-0.4-0.3-0.8-0.2-1.3-0.2
		c0-0.2-0.1-0.5,0-0.6c0.1-0.2,0.5-0.3,0.6-0.4c0.2-0.3,0.5-0.4,0.7-0.6c0.1-0.2,0.4-0.4,0.4-0.6s0-0.4,0-0.6c0-0.3,0-0.5,0-0.7
		c-0.1-0.2-0.4-0.4-0.4-0.6c-0.1-0.3-0.4-0.4-0.5-0.6c-0.1-0.3,0-0.6,0-0.8c-0.1-0.5-0.4-0.7-0.4-1.2v-0.7c0-0.9,0.4-1.3,0.4-2.2
		c0-0.4-0.2-0.6-0.2-0.9c0-0.2,0.1-0.4,0-0.6s-0.5-0.4-0.6-0.6c-0.2-0.3-0.4-0.5-0.6-0.7c-0.2-0.1-0.4-0.1-0.6-0.2s-0.4-0.1-0.6-0.2
		c-0.3-0.1-0.4-0.5-0.6-0.6c-0.7-0.4-1.2-0.4-1.9-0.6l-9.6,3.9h-3c0-0.3-0.1-0.6,0-0.8c0.2-0.5,0.5-0.8,1-1c0.2,0,0.4,0,0.6,0
		c0.8-0.1,1.3,0.2,2,0c0.2-0.1,0.5-0.1,0.7-0.2s0.3-0.5,0.4-0.6c0.2-0.2,0.5-0.4,0.6-0.6c0.4-0.5,0.8-0.8,1.2-1.2
		c0.1-0.2,0.3-0.5,0.4-0.6c0.2-0.2,0.5-0.4,0.6-0.6s0.1-0.5,0.2-0.6s0.5-0.1,0.6-0.3c0.2-0.2,0.4-0.4,0.5-0.6s0.1-0.4,0.2-0.6
		c0-0.2-0.1-0.4,0-0.6c0-0.2,0.4-0.4,0.4-0.6s0-0.4,0-0.6s0.2-0.4,0.2-0.6c0-0.3-0.2-0.4-0.2-0.6c0-0.3,0.2-0.5,0.2-0.7v-0.6
		c0-0.7,0-1.2,0-1.9c0-0.3-0.2-0.4-0.2-0.6c0-0.5,0-0.8,0-1.2c-0.1-0.5-0.4-0.8-0.6-1.3c-0.1-0.3-0.4-0.4-0.5-0.6
		c-0.1-0.4,0.1-0.8,0.1-1.2c0-0.3-0.2-0.5-0.2-0.7c0-0.3,0.2-0.5,0.2-0.7c0-0.6,0-1-0.1-1.5c0-0.2-0.2-0.4-0.2-0.6s-0.2-0.4-0.2-0.6
		v-0.6c0-0.6,0.3-0.9,0.3-1.5c0-0.5-0.4-0.8-0.5-1.3c-0.1-0.2,0.1-0.4,0-0.6s-0.3-0.4-0.4-0.6c-0.1-0.2-0.6-0.2-0.6-0.4
		c-0.1-0.3-0.2-0.6-0.2-0.9c0-0.4,0.3-0.6,0.4-0.9c0.2-0.6,0.4-1,0.4-1.6c0-0.4-0.5-0.5-0.8-0.7c-0.2-0.1-0.4-0.3-0.6-0.4
		s-0.4-0.2-0.6-0.2c-0.8-0.3-1.3-0.4-2.1-0.6c0.1-0.3-0.1-0.4,0-0.6c0.3-0.7,0.9-1.1,0.9-1.9c0-0.3-0.2-0.4-0.2-0.6
		c-0.1-0.3-0.6-0.2-0.7-0.4c-0.1-0.3,0.1-0.6,0-0.8c-0.1-0.2-0.2-0.5-0.4-0.6c-0.2-0.1-0.5,0-0.7,0c-0.9,0-1.4,0.2-2.3,0.2
		c-0.5,0-0.8,0.2-1.3,0.2c-0.2,0-0.4-0.2-0.6-0.2c-0.5,0-0.8,0-1.2,0.2c-0.2,0-0.4,0.1-0.6,0.2s-0.2,0.5-0.4,0.6
		c-0.2,0.1-0.4,0.2-0.6,0.2c-0.2,0.1-0.4,0.2-0.6,0.2c-0.7,0-1-0.5-1.7-0.6h-0.6c-0.8,0-1.3,0.3-2,0.4c-0.3,0.1-0.6,0-0.9,0
		c-0.2,0-0.4,0.2-0.6,0.2c-0.2,0-0.4,0.4-0.6,0.4c-0.5,0.2-0.9,0.4-1.4,0.6c-0.4,0.2-0.6,0.6-1,0.9c-0.2,0.1-0.4,0.3-0.6,0.4
		c-1,0.7-1.6,1.1-2.3,2c-0.2,0.3-0.5,0.5-0.6,0.8c-0.1,0.2-0.1,0.4-0.2,0.6c-0.6,1.1-1.4,1.5-1.8,2.7c-0.3,0.7-0.3,1.4-0.7,2
		c-0.3,0.4-0.8,0.5-1,0.9c-0.1,0.2,0.1,0.4,0,0.6s-0.3,0.4-0.4,0.6c-0.1,0.2-0.3,0.5-0.4,0.6c-0.3,0.4-0.8,0.4-1,0.8
		c-0.3,0.5-0.5,0.9-0.8,1.4c-0.1,0.2,0,0.6-0.2,0.7s-0.5,0.1-0.7,0.2c-0.3,0.2-0.5,0.5-0.8,0.6c-0.3,0.2-0.6,0.4-0.8,0.6
		c-0.3,0.2-0.6,0.3-0.8,0.6c-0.1,0.2-0.1,0.4-0.2,0.6c-0.2,0.2-0.3,0.4-0.4,0.6c-0.2,0.2-0.5,0.2-0.6,0.4c-0.2,0.2-0.1,0.4-0.2,0.6
		c-0.2,0.3-0.3,0.5-0.5,0.7c-0.1,0.2-0.2,0.5-0.4,0.6s-0.4,0-0.6,0c-0.2,0.1-0.4,0.4-0.6,0.4l0.6,0.4c-0.6,0.1-1,0.4-1.6,0.4h-0.6
		c-0.2,0-0.4-0.3-0.6-0.3s-0.4,0.3-0.6,0.3c-0.5,0-0.8-0.1-1.3,0c-0.3,0-0.4,0.2-0.6,0.2c-0.5,0.2-0.8,0.5-1.2,0.6
		c-0.2,0-0.4-0.1-0.6,0c-0.2,0-0.4,0.3-0.6,0.4c-0.2,0.1-0.5,0.1-0.7,0.2s-0.2,0.5-0.4,0.6s-0.5,0.1-0.6,0.2
		c-0.2,0.2-0.4,0.4-0.6,0.5c-0.2,0.1-0.3,0.5-0.4,0.6c-0.2,0.1-0.4,0.1-0.6,0.2c-0.2,0.1-0.2,0.5-0.4,0.6s-0.4,0-0.6,0
		c-0.2,0-0.4,0.2-0.6,0.2c-0.3,0-0.5-0.2-0.7-0.2h-0.6c-0.6,0.1-1,0.5-1.4,0.8c-0.2,0.1-0.1,0.5-0.2,0.6c-0.3,0.3-0.6,0.3-0.8,0.6
		c-0.1,0.2,0,0.5-0.2,0.6c-0.1,0.1-0.4,0.1-0.6,0.2c-0.2,0.1-0.4,0.3-0.6,0.5c0.5,0.3,0.8,0.5,1.2,0.8c0.2,0.1,0.1,0.5,0.2,0.6
		c0.1,0.2,0.5,0.1,0.6,0.2c0.2,0.2,0.1,0.4,0.2,0.6c-0.2,0.1-0.4,0.4-0.6,0.4c-0.2,0.1-0.4,0-0.6,0c-0.7,0.2-1.2,0.4-1.9,0.6
		c-0.5,0.1-0.8,0.3-1.2,0.4c-0.5,0.2-0.7,0.4-1.2,0.4c-0.3,0-0.4-0.4-0.6-0.4c-0.2,0-0.4-0.2-0.6-0.2h-0.7c-0.5,0-0.8,0.2-1.2,0.2
		c-0.2,0-0.4,0.2-0.6,0.2c-0.5,0-0.8-0.2-1.2-0.2c-0.5,0-0.9,0.1-1.3,0.2c-0.2,0-0.4,0.3-0.6,0.4c-0.5,0.2-0.7,0.7-1.2,0.7
		c-0.3,0-0.4-0.4-0.6-0.5c-0.2-0.2-0.3-0.5-0.4-0.6c-0.4-0.4-0.8-0.6-1.2-0.8c-0.2-0.1-0.5-0.1-0.6-0.2c-0.6-0.5-0.8-1.1-1.1-1.8
		c-0.2,0-0.4-0.1-0.6,0c-0.2,0.1-0.2,0.5-0.4,0.6c-0.2,0.1-0.4,0.1-0.6,0.2c-0.5,0.3-0.8,0.6-1.2,0.8c-0.2,0.1-0.4,0.3-0.6,0.4
		c-0.3,0.2-0.6,0.3-0.9,0.4c-0.2,0.1-0.2,0.5-0.4,0.6c-0.3,0.2-0.5,0.3-0.8,0.4c-0.2,0.1-0.4,0-0.6,0.1c-0.3,0.1-0.4,0.5-0.6,0.6
		c-0.4,0.2-0.7,0.4-1,0.6s-0.4,0.5-0.7,0.6c-0.3,0.2-0.8,0.2-1,0.4c-0.2,0.1-0.3,0.5-0.4,0.6c-0.4,0.4-0.7,0.8-1,1.2
		c-0.8,1.1-1.3,1.7-1.8,2.9c-0.2,0.5-0.3,0.9-0.5,1.4c-0.1,0.4-0.4,0.7-0.4,1s0.1,0.6,0,0.9c0,0.2-0.2,0.4-0.2,0.6v0.8
		c-0.1,0.4-0.4,0.7-0.4,1v0.6c0,0.2-0.2,0.4-0.2,0.6c-0.1,0.6-0.1,0.9-0.2,1.5c-0.1,0.3-0.2,0.5-0.2,0.8c0,0.5-0.2,0.8-0.2,1.2v0.8
		c0,0.6-0.3,1.1-0.4,1.7v0.8c0,0.3-0.2,0.5-0.2,0.8c0,0.7-0.1,1.2-0.2,1.8c-0.2,0.9-0.4,1.4-0.6,2.3c-0.1,0.5-0.4,0.9-0.4,1.4
		c0,0.4,0,0.6,0,1c0,0.5-0.2,0.7-0.2,1.1v0.8c0,0.3-0.2,0.4-0.2,0.6v0.6c0,0.5-0.2,0.8-0.2,1.2c-0.1,0.3-0.1,0.6-0.2,0.9
		c-0.1,0.2,0.1,0.4,0,0.6c-0.1,0.3-0.4,0.4-0.5,0.6c-0.1,0.2,0,0.4,0,0.6c0,0.2-0.2,0.4-0.2,0.6c-0.1,0.6-0.1,0.9-0.2,1.4
		c0,0.2-0.4,0.4-0.4,0.6c-0.2,0.5-0.5,0.8-0.6,1.3c0,0.2,0.1,0.4,0,0.6c-0.1,0.2-0.3,0.4-0.4,0.6c-0.1,0.3-0.5,0.4-0.6,0.6
		c-0.1,0.2,0.1,0.4,0,0.6c0,0.2-0.1,0.4-0.2,0.6c0,0.3-0.4,0.4-0.4,0.7c0,0.5,0.5,0.8,0.8,1c0.4,0.3,0.8,0.5,1.2,0.8
		c0.2,0.1,0.2,0.5,0.4,0.6c0.5,0.4,0.9,0.6,1.5,0.8c0.2,0.1,0.4,0.4,0.6,0.4c0.6,0.2,1.1,0.1,1.6,0.4c0.3,0.1,0.3,0.5,0.6,0.7
		c0.3,0.1,0.6,0.1,0.8,0.2c0.3,0.1,0.4,0.5,0.7,0.6c0.8,0.5,1.1,0.9,1.8,1.4c0.2,0.1,0.5,0.3,0.6,0.4c0.3,0.3,0.5,0.4,0.8,0.6
		c0.2,0.1,0.2,0.5,0.4,0.6s0.4-0.2,0.6,0c0.5,0.4,0.6,0.9,1.1,1.3c0.2,0.1,0.4,0.1,0.6,0.2c0.2,0.1,0.4,0.4,0.6,0.4
		c0.3,0.1,0.6,0.2,0.9,0.2c0.9,0,1.4-0.4,2.2-0.6c0.8-0.2,1.4-0.3,2.2-0.4c0.3,0,0.6,0.1,0.8,0c0.3,0,0.4-0.4,0.6-0.5
		c0.2-0.1,0.5-0.1,0.6-0.2c0.2-0.1,0.1-0.5,0.3-0.6c0.2-0.2,0.4-0.5,0.6-0.6c0.2-0.1,0.4-0.2,0.6-0.2c0.7-0.3,1.1-0.2,1.8-0.2
		c0.2,0,0.4,0.2,0.6,0.2s0.4-0.2,0.6-0.2s0.5-0.2,0.7-0.2c0.5-0.1,0.1-0.1,0.6-0.3c0.2,0,0.2-0.5,0.4-0.5c0.2-0.1,0.9,0.1,1.1,0.1
		c0.3,0,0.3,0.1,0.6,0.1h0.8c0.7,0,0.5,0.1,1.2,0.1c0-0.7,1-1.6,1.2-2.2c0.1-0.5,0.3-0.9,0.6-1.2c0.4-0.4,0.8-0.5,1.2-0.6
		c0.5-0.2,0.8-0.3,1.2-0.4h0.7c0,0.2,0.1,0.4,0.2,0.6c0.1,0.2,0,0.6,0.2,0.6c0.4,0.2,0.6,0.2,1,0.2s0.7-0.3,1-0.4
		c0.5-0.2,0.8-0.3,1.2-0.4c0.2,0,0.5-0.2,0.7-0.2c0.2-0.1,0.4,0.1,0.6,0c0.2-0.1,0.4-0.4,0.6-0.4c0.2,0,0.4-0.2,0.6-0.2
		c0.4,0,0.8,0,1.2,0c0.3,0,0.5-0.2,0.8-0.2h0.9c0.3,0,0.3,0.2,0.6,0.2c0.2,0.1,0.6,0.2,0.8,0.4c0.4,0.4,0.6,0.8,0.8,1.2
		c0.1,0.2,0,0.4,0,0.6l-0.2,0.3c-0.5,0.3-1,0.4-1.4,0.9c-0.1,0.2-0.2,0.4-0.2,0.6c-0.2,0.5-0.4,0.9-0.4,1.5c0,0.4,0.2,0.6,0.2,0.9
		c0.1,0.8,0.2,1.3,0.6,1.9c0.1,0.2,0.5,0.3,0.6,0.4c0.2,0.2,0.4,0.5,0.6,0.6c0.5,0.3,0.9,0.4,1.4,0.6c0.5,0.3,0.9,0.7,1.3,1
		c0.2,0.1,0.5,0.3,0.6,0.4c0.2,0.2,0.4,0.5,0.6,0.6c0.7,0.5,1.2,0.7,1.8,1.1c0.3,0.2,0.6,0.3,0.8,0.4c0.3,0.2,0.4,0.5,0.6,0.6
		c0.5,0.3,0.9,0.3,1.3,0.6c0.3,0.2,0.6,0.4,0.8,0.6c0.2,0.2,0.1,0.5,0.2,0.6c0.1,0.2,0.5,0.2,0.6,0.4c0.2,0.4,0.3,0.8,0.4,1.3
		c0.1,0.2,0.4,0.4,0.4,0.6c0.1,0.2,0,0.4,0,0.6s0.2,0.4,0.2,0.6v0.9c0,0.4,0,0.6,0,0.9c0,0.3-0.4,0.4-0.4,0.7l0.6,1.8
		c-0.2,0.1-0.4,0.3-0.6,0.4c-0.3,0.1-0.6,0.1-0.8,0.2c-0.1,0.1-0.4,0.4-0.4,0.6c-0.1,0.2,0.2,0.4,0.2,0.6v0.7c0,0.5-0.2,0.8-0.2,1.3
		v0.6c0,0.3,0,0.6,0,0.8c-0.1,0.2-0.4,0.4-0.4,0.6c-0.1,0.2-0.2,0.4-0.2,0.6c-0.2,0.5-0.3,0.8-0.4,1.3c-0.1,0.2-0.3,0.4-0.4,0.6
		c-0.1,0.2-0.1,0.5-0.2,0.6c-0.2,0.2-0.5,0.2-0.7,0.4c-0.1,0.2-0.4,0.4-0.4,0.6c0,0.5,0.5,0.8,0.9,1c0.6,0.4,1,0.5,1.6,0.8
		c0.2,0.1,0.4,0,0.6,0.2c0.5,0.3,0.7,0.8,1,1.3s0.5,0.8,0.8,1.2c0.1,0.2,0.4,0.4,0.5,0.6c0.1,0.2,0.4,0.4,0.4,0.6c0,0.2,0,0.4,0,0.6
		c0.1,0.4,0.5,0.6,0.6,0.9c0.1,0.2,0.3,0.4,0.4,0.6c0.1,0.3,0.1,0.6,0.2,0.8c0,0.2,0.4,0.4,0.4,0.6c0.2,0.5,0.4,0.9,0.4,1.4v0.8
		c0.1,0.5,0.4,0.8,0.4,1.3c0,0.3-0.2,0.4-0.2,0.6c0,0.3,0.2,0.4,0.2,0.6c0,0.3-0.2,0.4-0.2,0.6v0.4c0,0.8-0.1,1.5,0.4,2.1
		c0.1,0.2,0.6,0,0.6,0.2s0.2,0.4,0.2,0.6v0.3c0,0.5-0.4,0.7-0.4,1.2c0,1.3,1.9,1.4,1.9,2.6c0,0.6-0.6,0.8-0.8,1.2
		c-0.1,0.2-0.2,0.4-0.3,0.6c-0.1,0.2-0.6,0.2-0.6,0.4v0.3c0,0.4,0.3,0.6,0.4,0.9c0.1,0.3,0.4,0.4,0.5,0.7c0,0.2,0.2,0.4,0.2,0.6
		c0.2,0.5,0.3,0.8,0.4,1.2c0.3,0.7,0.6,1.3,1.2,1.4c0.4,0.1,0.8,0,1.2,0c0.2,0,0.4-0.2,0.6-0.2c0.5,0,0.8,0,1.3,0
		c0.7,0,1.2,0.3,1.8,0.4c0.6,0,1,0,1.6,0c0.6,0,1,0.1,1.6,0c0.2,0,0.4-0.4,0.6-0.4c0.2,0,0.4,0.1,0.6,0c0.2,0,0.4-0.4,0.6-0.4
		c0.5-0.2,0.8-0.5,1.2-0.6c0.2,0,0.4,0,0.6,0c0.3,0,0.4-0.4,0.7-0.4c0,0,0,0,0.1,0c13.1-16.3,22.3-35.9,26.3-57.3
		C288.1,153.8,288,153.8,287.8,153.6z"/>
	<path class="st1" d="M108.8,245.2c0.7-1,1.6-1.6,1.6-2.9c0-1.2-1.4-1.5-1.4-2.7c0-0.6,0.5-1,0.9-1.4c0.2-0.3,0.7-0.2,0.7-0.5
		c0-1.1-0.9-1.5-0.9-2.6v-1.4c1.5-0.2,3,0.4,3.8-0.9c0.1-0.2-0.2-0.4-0.2-0.8c0-0.6,0.5-0.9,0.9-1.4c0.9-1.2,2.1-1.1,3.6-1.4
		c0.9-0.2,1.3-0.7,2.1-1.1c0.9-0.5,2.2-0.7,2.2-1.8c0-0.4-0.4-0.4-0.5-0.7c-0.7-1.3-2-1.8-2-3.3c0-0.6,0.6-1.1,1.3-1.1
		c0.4,0,0.4,0.6,0.8,0.7c1,0.5,1.8,0.9,3,0.9c1.1,0,1.8-0.1,2.7-0.7c0.2-0.1,0.5-0.1,0.7-0.4c0.1-0.2,0-0.5,0.2-0.7
		c0.6-1,1-1.8,1.8-2.7c0.8-0.8,1.3-1.4,2.4-2c0.7-0.4,1.3,0,2-0.5c0.9-0.8,1.3-1.6,2.4-2c-0.1-0.7-0.2-1.2-0.7-1.6
		c-0.4-0.4-1.1-0.5-1.1-1.1c0-0.4,0.5-0.6,0.8-0.9c1.5-1.6,2.9-1.9,4.9-2.7c1.2-0.5,1.7-1.5,3-1.6s2.1-0.4,3.4-0.7
		c0.9-0.2,1.6,0,2.3-0.5c1.3-1.1,0.7-2.6,0.9-4.3c0.3-1.8,1.3-2.8,1.3-4.6c0-1-0.4-1.7-1.1-2.5c1.5-0.8,2.1-1.7,3-3.1
		c0.1-0.2,0-0.5,0.2-0.7c0.2-0.3,0.7-0.2,0.9-0.5c0.4-0.5,0.4-0.9,0.7-1.4c1.2-2.2,3.6-2.9,3.6-5.4c0-0.9-0.8-1.1-1.4-1.7
		c-1.1-1.1-2.4-0.6-3.8-1.1c-0.6-0.2-0.9-0.6-1.4-0.9c-0.9-0.5-1.4-1.1-2.5-1.3c-1.5-0.2-2.3,0.1-3.8,0c-1.4-0.1-2.3,0.1-3.6-0.4
		c-0.9-0.3-1.4-0.9-2.4-1.1c-2.1-0.6-3.3-0.6-5.4-0.9c-0.5,0-0.9-0.4-1.4-0.4c-1.1,0-1.3,1.4-2.5,1.4c-0.8,0-1.7-0.3-1.7-1.1
		c0-1.5,2.2-1.7,2.2-3.1c0-0.5-0.4-0.8-0.8-1c-0.8-0.6-1.5-0.8-2.1-1.6c-0.8-0.9-1-1.7-2-2.4c-1.4-1-2.7-1.1-4.5-1.3
		c-2.9-0.3-4.5-1.3-6.7-3.1c-1-0.8-1.5-1.6-2.7-2l0.2-0.7c-0.5-1-1.3-1.3-2.4-1.6c-0.3,0-0.5,0.2-0.9,0.2s-0.6-0.3-1.1-0.4
		c-1.5-0.1-2.4,0.2-3.8,0c-0.8-0.1-1.3-0.1-2-0.4c-0.6-0.3-0.5-1-1.1-1.4c-1.1-0.9-2.1-1-3.6-1.3c-0.3,0.9-0.5,1.5-0.9,2.3
		c-0.4-0.8-0.6-1.3-1.1-2.1c-0.3-0.6-0.7-1.3-1.4-1.3c-1.8,0-3,0.1-4.7,0.5l0,0c-0.9-0.9-1.7-1.9-2.8-2.6c-0.9-0.6-1.9-1-2.9-1.5
		c-0.4-0.3-0.7-0.7-1.1-1c-0.6-0.5-1.3-1-1.9-1.5c-0.5-0.8-1-1.7-1.6-2.5c-0.7-0.9-1.7-1.8-2.6-2.5c-0.7-0.5-2.7-1.7-3.5-1.6
		c-0.2-0.1-0.3-0.1-0.3-0.1c0-0.2,0-0.4,0.1-0.7c0.1-0.6,0.2-1.2,0.2-1.8c0-1.3,0-2.5,0-3.8c1.7-0.4,3.8-1,5.8-1.9
		c0.1,0.3,0.3,0.5,0.6,0.5c0.8,0,1.3-0.3,2.1-0.5c0,0.1,0,0.2,0,0.2c0.1,1.1,0,2.6,0.7,3.5c0.9,1.2,3.1,1.3,3.4-0.4
		c0.3-1.6,0.5-3.1,0.5-4.7c0.1,0,0.2-0.1,0.3-0.2c0.3-0.3,0.2-0.8,0.3-1.2c0.1-0.4,0.3-0.7,0.3-1.2c0.1-1.4,0-2.1,0-3.5
		c0-0.6-0.3-0.9-0.3-1.5s0.2-1.1,0.5-1.5l0,0c0.2-0.3,0.4-0.5,0.7-0.8c0.4-0.3,0.7-0.4,1.2-0.6c0.8-0.4,1.5-0.7,2.3-0.9
		c0.4-0.1,0.7,0.3,1.2,0.3c0.6-0.1,0.7-0.7,1.2-0.9c0.5-0.1,1-0.4,1.5-0.6c0.4-0.1,0.7-0.4,1.2-0.6c0.4-0.1,0.8-0.1,1.2-0.3
		c0.5-0.2,0.7-0.7,1.2-0.9l-0.6-2.3c0.3-0.1,0.4-0.3,0.6-0.5c1.4,0.4,3,0.3,4.3-0.5c1.1-0.7,2.1-1.2,2.9-2c0.6-0.3,1.1-0.6,1.5-1.2
		c0.1-0.1,0.2-0.2,0.3-0.5c0.9-0.1,1.7-0.3,2.6-0.3c0.5,0,1,0,1.6-0.1c0.4,0,0.8,0.1,1.2,0c0.1,0,0.2,0,0.3-0.1
		c0.6-0.1,1.1-0.2,1.6-0.5s0.6-0.8,0.3-1.3c-0.1-0.2-0.3-0.5-0.5-0.7c0.4-0.2,0.6-0.6,0.8-1c0.4,0,0.8,0.1,0.9,0.1
		c1.4,0.1,3-0.4,4.2-1.3c0.2-0.1,0.5-0.1,0.7-0.2c1.5-0.6,2.8-1.6,4.3-1.9c0.8-0.2,1.4-1,1.4-1.8c-0.1-1.2-0.6-1.8-1.4-2.6
		c-0.1,0-0.1-0.1-0.2-0.2v-0.1v-1.3c0-0.1,0.1-0.2,0-0.3c0-0.1-0.1-0.2-0.1-0.3c0-0.1-0.1-0.2-0.2-0.3c-0.1-0.1-0.2-0.2-0.3-0.3
		c-0.2-0.2-0.3-0.4-0.6-0.6c-0.2-0.1-0.4-0.2-0.6-0.3c-0.1-0.1-0.2-0.1-0.3-0.1c-0.1-0.1-0.1-0.2-0.2-0.3c-0.1-0.2-0.2-0.4-0.2-0.6
		c0-0.1,0-0.1-0.1-0.2c0.2-0.3,0.3-0.6,0.4-0.9c0.4-0.4,0.8-0.9,0.9-1.2c0.2-1-0.7-2-1.2-2.9c-0.5-0.9-0.9-1.8-1.9-2.1
		c-1.2-0.4-2.6,0.2-3.8,0.2c-0.3,0-0.5,0-0.7,0.1l0,0c0-0.1-0.1-0.2-0.2-0.3c-1-1.1-2.4-1.6-3.6-2.5c-0.2-0.2-0.5-0.2-0.7-0.1
		c-0.5-0.3-1.4-0.1-1.5,0.8c-0.1,1-0.2,2.1-0.2,3.1c0,0.3,0,0.6,0,0.9l-0.1,0.1c-0.3-0.1-0.6-0.1-0.9-0.1c-0.8-0.1-1.4-0.1-2.1,0.1
		c0,0.1-0.1,0.1-0.2,0.2l-0.3,0.3c0,0.2,0.1,0.4,0,0.6c-0.2,1.4-0.4,2.6-0.4,4c0,1.9-3,1.9-3,0c0-1.2,0-2.5,0.1-3.7
		c-0.9-1-1.9-1.9-2.9-2.7c-0.3-0.2-0.5-0.5-0.8-0.7c0.9-1,1.5-2.2,1.6-3.4c0.1-0.4,0.1-0.7,0.1-1.1c1.2-0.8,2.6-1.4,3.7-2.3
		c0-0.1,0-0.3,0-0.4l0,0c0.2-0.7,0.8-1,1.4-1.1c0.1,0,0.1,0,0.2,0c0-0.1,0.1-0.1,0.1-0.2c0.4-0.6,1-0.8,1.7-0.7
		c0.3-0.8,0.5-1.6,0.6-2.5c0-0.2,0-0.5,0-0.7l1.4-0.5h2c0.1,0,0.2-0.1,0.3-0.1h0.5c0.2,0,0.3,0,0.5-0.1c0.1,0,0.1-0.2,0.2-0.2
		c0-0.1,0-0.2-0.1-0.2c-0.1-0.1-0.2-0.1-0.2-0.2c-0.4-0.3-0.6-0.5-0.9-0.9c-0.2-0.2-0.3-0.4-0.4-0.7c0-0.2,0-0.3,0-0.5
		c0-0.1,0-0.2-0.1-0.2c0-0.1-0.2,0-0.2-0.1s0-0.2,0-0.2c0-0.2,0-0.3,0-0.5s-0.1-0.3-0.1-0.5c0-0.1,0.1-0.2,0.1-0.2
		c0-0.1-0.1-0.2-0.1-0.2c0-0.1-0.4-0.1-0.5-0.1c-0.3,0.2-0.5,0.4-0.8,0.6c-0.1,0.1-0.1,0.2-0.2,0.2s-0.2,0.1-0.2,0.2
		c-0.1,0-0.2,0.1-0.2,0.2c-0.1,0-0.1,0.2-0.2,0.2s-0.2,0.1-0.2,0.2c-0.2,0.2-0.3,0.3-0.4,0.5c-0.1,0.1-0.2,0.1-0.2,0.2
		c-0.1,0.2-0.1,0.4-0.2,0.5s-0.2,0.2-0.2,0.3c0,0.1,0,0.2-0.1,0.2l-0.1,0.1c-0.3-0.4-0.6-0.9-1-1.2l0,0c0.2-0.1,0.4-0.3,0.5-0.5
		c0.1-0.1,0.1-0.2,0.2-0.2c0.1-0.1,0.2-0.1,0.2-0.2c0.1-0.1,0.2-0.2,0.2-0.2c0.3-0.2,0.4-0.4,0.6-0.6c0.1-0.2,0.3-0.3,0.3-0.5
		c0.1-0.3,0-0.4,0-0.7s0.1-0.5,0.1-0.7c0.1-0.4,0.2-0.6,0.3-0.9c0-0.2,0.1-0.3,0.1-0.5c0-0.4-0.1-0.6-0.2-0.9
		c-0.1-0.2-0.2-0.3-0.2-0.5c0-0.1-0.1-0.1-0.1-0.2c0-0.1,0.1-0.2,0.1-0.3c-0.1,0.1-0.2,0.2-0.3,0.2c-0.1,0-0.2,0-0.2,0.1
		c-0.2,0.1-0.3,0.2-0.5,0.2c-0.1,0-0.2,0.1-0.2,0.2c-0.1,0.1-0.2,0.2-0.3,0.2c-0.2,0.1-0.3,0.1-0.5,0.2c-0.1,0.1-0.1,0.2-0.2,0.2
		c-0.1,0.1-0.1,0.2-0.2,0.3c0,0.1-0.2,0-0.2,0.1c-0.1,0.1-0.1,0.2-0.2,0.3c-0.3,0.2-0.5,0.3-0.8,0.5c-0.1,0-0.1,0.2-0.2,0.2
		c-0.3,0.2-0.5,0.4-0.8,0.5c-0.1,0-0.2,0-0.2,0.1c-0.2,0.1-0.3,0.3-0.4,0.5c-0.7-1.3-1.8-2.4-3.2-2.9c-0.7-0.7-1.4-1.4-2.1-2.1
		c0.1-0.2,0.2-0.6,0-0.9c-0.4-0.7-0.7-1.3-1.1-2c-0.4-0.8-0.7-1.7-1.2-2.5c-0.1-0.2-0.2-0.5-0.3-0.7c-0.6-1.4-1.4-2.9-1.8-4.4
		c-0.1-0.3-0.1-0.6-0.2-0.9c0-0.2-0.1-0.3-0.2-0.5c-0.1-0.2-0.2-0.3-0.3-0.5c0-0.2,0-0.5,0-0.7c0-0.5-0.1-1.1-0.2-1.6
		c0-0.4,0.1-0.8,0.2-1.2c0.1-0.3,0.4-0.5,0.6-0.9c0.2-0.3,0.3-0.5,0.4-0.9c0.3-0.6,0.7-1,0.9-1.7c0.1-0.3,0-0.6,0-0.9
		s0.2-0.5,0.2-0.9v-1.1c0-0.3,0.2-0.5,0.2-0.9v-0.9c0-0.3,0.2-0.5,0.2-0.9c0-0.4-0.3-0.5-0.4-0.9c-0.2-0.4-0.6-0.5-0.9-0.9
		c-0.2-0.3-0.2-0.6-0.4-0.9s-0.5-0.3-0.8-0.4c-0.3-0.2-0.5-0.5-0.8-0.6c-0.6-0.2-1.1,0-1.7,0c-0.6,0-1.1,0-1.7-0.2
		c-0.3-0.1-0.6-0.1-0.9-0.2c-0.8-0.6-0.6-1.6-0.6-2.6c-0.3,0.1-0.6-0.1-0.8,0c-0.6,0.4-1,0.9-1.5,1.5c-0.3,0.3-0.4,0.5-0.6,0.9
		c-0.2,0.3-0.1,0.9-0.4,1s-0.5,0.2-0.9,0.2s-0.6-0.4-0.9-0.6c-0.3-0.3-0.4-0.5-0.6-0.9c-0.2-0.2-0.1-0.6-0.2-0.9
		c-0.3-0.4-0.8-0.4-1.4-0.4c-0.6,0-0.8,0.4-1.4,0.4h-0.9c-0.6,0-1.1-0.1-1.7,0c-0.4,0.1-0.5,0.4-0.9,0.6c-0.3,0.2-0.6,0.4-0.9,0.6
		c-0.2,0.3-0.2,0.6-0.4,0.8c-0.3,0.2-0.6,0.2-0.9,0.4s-0.4,0.6-0.6,0.9c-0.3,0.2-0.6,0.4-0.9,0.6c-0.8,0.8-1.2,1.7-2.4,1.7
		c-0.4,0-0.5-0.4-0.9-0.4c-0.1,0.3-0.5,0.5-0.6,0.9c-0.1,0.3,0,0.5,0,0.9c0,0.6-0.2,1.2,0.2,1.7c0.2,0.2,0.5,0.1,0.8,0.2
		c0.6,0.4,1,0.6,1.7,0.9c0.3,0.1,0.6,0.1,0.9,0.2c0.3,0.1,0.6,0.1,0.9,0.2c0.3,0.2,0.3,0.5,0.4,0.9c0.2,0.3-0.1,0.6,0,0.8
		c0.2,0.3,0.6,0.4,0.9,0.6c0.3,0.2,0.7,0.1,0.9,0.4c0.1,0.1,0,0.3,0,0.4c0,0.5-0.4,0.8-0.6,1.3c-0.2,0.4-0.6,0.4-0.6,0.9
		c0,0.7,0.4,1.1,0.6,1.7c0.1,0.3,0.4,0.4,0.4,0.8c0,1.1-0.8,1.6-1.3,2.5c-0.1,0.3-0.1,0.6-0.2,0.8c-1.4,1-2.3,2.6-3.1,4.3
		c0.6-1.3-0.2,0.3-0.3,0.5c-0.3,0.5-0.5,1.1-0.9,1.6c-0.1,0.2-0.2,0.3-0.3,0.5c0.2-0.3,0.1-0.3-0.1,0c-0.6,0.7-1.1,1.3-1.5,2.1
		c-0.4,0.7-0.7,1.4-0.9,2.2c0,0.1-0.1,0.2-0.1,0.3c0,0.1-0.1,0.2-0.2,0.5c-0.1,1.8-0.1,1.9-0.1,2c0,0-0.1,0.1-0.3,0.3
		c-0.3,0.4-0.6,0.7-1,1c-1.4,1.5-2.7,3-3.6,4.8c-0.1,0.1-0.1,0.2-0.3,0.2c-0.4,0.1-0.8-0.2-1.2,0c-0.3,0.1-0.4,0.3-0.6,0.4
		c-0.2,0.2,0,0.5-0.1,0.7c-0.3,0.5-0.8,0.6-1.2,1c-0.1,0.2-0.1,0.4-0.3,0.6c-0.4,0.3-0.8,0.5-1.2,0.7c-0.3,0.1-0.3,0.4-0.6,0.6
		c-0.2,0.1-0.4,0.2-0.6,0.3c-0.5,0.3-0.7,0.6-1.2,0.9c-0.2,0.1-0.4,0.2-0.6,0.3c-0.3,0.1-0.3,0.4-0.6,0.6c-0.2,0.1-0.4,0.2-0.6,0.3
		c-0.2,0.1-0.4,0.3-0.6,0.4c-0.4,0.2-0.7,0.5-1.2,0.7c-0.2,0.1-0.5,0.2-0.7,0.3c-0.3,0.1-0.5,0.4-0.7,0.6c-0.5,0.4-0.8,0.7-1.2,1.2
		c-0.3,0.4-0.5,0.8-0.7,1.2c-0.4,0.6-0.9,1-0.9,1.8c0,0.5,0.3,0.7,0.4,1.2c0,0.2,0.1,0.4,0.1,0.6c-0.4,0.2-0.8,0.3-1.2,0.6
		c-0.2,0.1-0.3,0.4-0.4,0.6c-0.1,0.2-0.3,0.4-0.4,0.6c-0.1,0.2-0.3,0.3-0.4,0.6c-0.1,0.2-0.2,0.4-0.3,0.6s-0.1,0.4-0.1,0.6
		c-0.1,0.2-0.3,0.4-0.3,0.6s0,0.4,0,0.6c0,0.9,0.2,1.5,0.4,2.3c0.1,0.7,0.4,1.1,0.4,1.8c0,0.3,0,0.6,0,0.9s0.1,0.6,0,0.9
		c0,0.2-0.2,0.4-0.3,0.6c-0.1,0.4-0.3,0.7-0.4,1.2c0,0.2-0.1,0.4-0.1,0.6c-0.2,0.4-0.5,0.7-0.6,1.2c0,0.2,0,0.4,0,0.6
		c0,0.4-0.1,0.8-0.1,1.2c0,0.2,0,0.4,0,0.6s-0.3,0.4-0.3,0.6s-0.1,0.4-0.1,0.6c0,0.2,0,0.4,0,0.6s-0.1,0.4-0.1,0.6s0.1,0.4,0.1,0.6
		c0,0.7,0,1.1,0,1.8c0,0.2,0.1,0.4,0.1,0.6v0.6c0,0.2,0.1,0.4,0.1,0.6v0.6c0,0.2,0.1,0.4,0.1,0.6c0,0.5-0.2,0.7-0.3,1.2
		c0,0.2-0.1,0.4-0.1,0.6s0.1,0.4,0.1,0.6c0,0.5-0.3,0.7-0.3,1.2c0,0.2,0.1,0.4,0.1,0.6s0.2,0.4,0.3,0.6c0.1,0.3,0.3,0.4,0.6,0.6
		c0.4,0.2,0.7,0.4,1.2,0.6c0-0.2,0.1-0.4,0.1-0.6s0.2-0.3,0.2-0.5c0-0.7-0.1-0.9-0.1-1.6c0-0.2-0.2-0.7-0.1-0.8
		c0.1-0.4,0.2-0.7,0.3-1.2v-0.6c0-0.2,0.1-0.4,0.1-0.6c0.1-0.9-0.1-1.4,0-2.3c0-0.2-0.1-0.7,0-0.9c0.1-0.8,0.2-1.1,0.2-1.9
		c0-0.3,0.1-0.3,0.1-0.7c0-0.2,0-0.4,0-0.6c0.1-0.4,0.4-0.6,0.6-0.9l0.6,0.1c0,0.3,0.1,0.4,0.1,0.6c0,0.6-0.3,0.8-0.6,1.3
		c-0.1,0.3-0.1,0.4-0.1,0.6c-0.2,0.6-0.2,1.1-0.2,1.8c0,0.4,0,0.8,0.1,1.2c0,0.2,0,0.4,0,0.6s0,0.3,0,0.5c0,0.4,0,0.7,0,1.2
		c0,0.4,0,0.8,0.1,1.2c0.3,0.9,0.9,1.4,1,2.3c0.1,0.7-0.1,1.1,0,1.8c0.1,0.5,0.3,0.8,0.4,1.3c0,0.2,0.1,0.4,0.1,0.6
		c0.2,0.5,0.4,0.7,0.6,1.2c0.1,0.2,0.1,0.4,0.1,0.6c0.1,0.2,0.3,0.3,0.3,0.6v0.3c0,0.4-0.1,0.6-0.3,0.9c-0.1,0.3-0.3,0.3-0.4,0.6
		c-0.3,0.5-0.4,0.9-0.4,1.5c0,0.7,0.2,1,0.4,1.6c0.1,0.2,0.1,0.4,0.1,0.6c0.1,0.3,0.4,0.3,0.4,0.6c0.2,0.4,0.2,0.7,0.3,1.2
		c0.1,0.4,0.1,0.8,0.3,1.2c0.1,0.3,0.3,0.4,0.4,0.6c0.1,0.2,0.1,0.4,0.3,0.6c0.1,0.2,0.4,0.3,0.6,0.4c0.1,0.2,0.3,0.4,0.4,0.6
		c0.4,0.4,0.6,0.8,1,1.2c0.2,0.1,0.4,0.3,0.6,0.4c0.4,0.4,0.5,0.8,0.9,1.2c0.2,0.2,0.4,0.3,0.6,0.4c0.2,0.2,0.3,0.4,0.4,0.6
		c0.2,0.2,0.4,0.3,0.6,0.4c0.4,0.4,0.7,0.6,1.2,0.9c0.4,0.2,0.7,0.4,1.1,0.6c0.6,0.5,1.3,1.1,1.9,1.6c1.1,1.4,2.4,2.6,3.7,3.7
		c0.4,0.3,0.9,0.5,1.3,0.5c1.7,1.3,3.4,2.5,5.2,3.6c1.6,0.9,2.9,1,4.7,1.2c1.3,0.1,2.6,0.6,3.8,1.3c0.1,0.2,0.2,0.3,0.4,0.4
		c0.8,0.8,1.7,1.4,2.6,1.9c0.8,0.8,1.6,1.6,2.4,2.4c0.6,0.6,1.1,1.3,1.7,2c-0.2,0.3-0.4,0.5-0.7,1c0.4,1.7,0.5,2.6,0.5,4.3
		c0,1.7-1.3,2.6-2.5,3.8c-0.2,0.2-0.2,0.5-0.4,0.8c-1.4,1.6-2.5,2.7-2.5,4.8c0,1,0.4,1.6,0.4,2.6c0,0.4-0.3,0.7-0.3,1.1
		c0,0.4,0.3,0.7,0.3,1.1c-0.1,1.4-0.7,2.1-0.7,3.6c0,2.2,1.8,3,2.9,4.9c1.1,1.9,1.2,3.4,2,5.4c0.5,1.3,0.6,2.2,1.2,3.4
		c0.3,0.6,1,0.5,1.6,0.7s0.9,0.8,1.6,0.8c1.2,0,2.1-0.8,3,0c0.2,0.1-0.2,0.4-0.2,0.7c0,0.4,0.5,0.3,0.7,0.5c0.3,0.3,0.5,0.5,0.9,0.7
		c0.8,0.5,1.4,1,2,1.8c0.6,0.9,1,1.4,1.4,2.4c0.1,0.3,0.5,0.4,0.5,0.7c0,0.6-0.5,0.8-0.5,1.4v5.3c0,0.5-0.5,0.7-0.5,1.3
		s0.3,0.9,0.4,1.4c0.1,1-0.1,1.7,0,2.7c0,0.3,0.4,0.4,0.4,0.7c0,0.5-0.2,0.9-0.2,1.4c0,0.9,0.4,1.3,0.4,2.2c0,0.5-0.2,0.8-0.2,1.3
		c0,0.6,0.4,1,0.4,1.6c0,0.5,0.1,0.9-0.2,1.3c-0.1,0.2-0.6,0.1-0.7,0.4c-0.6,1-0.9,1.8-0.9,3c0,1.7-0.1,2.9,0.7,4.2
		c0.3,0.5,0.9,0.6,1.3,1.1c1,1.2,1.3,2.2,1.3,3.8c0,0.3-0.2,0.4-0.2,0.7v5.3c0,0.7,0.8,0.9,0.9,1.6c0.2,0.9,0.5,1.6,0.9,2.3
		c2.7,1.4,5.5,2.8,8.4,4c-0.2-0.9-0.4-1.9-0.4-3.1C108.1,245.7,108.6,245.6,108.8,245.2z M86,95.9c0.2-0.4,0.7-0.8,1.5-1
		c1.2-0.2,2.2-0.2,3.3-0.2c0.1,0,0.1,0,0.2,0c0.3,0.1,0.7,0.2,1,0.2c0.4,0.2,0.8,0.3,1.1,0.5c1.3,1.1,2.6,2.4,3.7,3.6
		c-0.3-0.4,0,0.2,0.1,0.2c0.1,0.3,0.2,0.6,0.2,0.7c0.5,1.5,0.3,1.7,0.6,3.2c-0.3,0.5-0.5,1-0.6,1.5c-0.2,0.1-0.3,0.3-0.5,0.4
		c-0.5,0.4-0.9,1-1.2,1.6c-0.1,0.1-0.1,0.1-0.2,0.2c-0.6,0.6-1.1,1.2-1.6,1.9c-0.2,0-0.4,0-0.6,0c-1.4-0.2-2.5-0.7-2.1-1.4
		c0.1-0.2,0.4-0.4,0.7-0.5c0.2-0.1,0.4-0.2,0.6-0.3c0.7-0.2,1.4-0.5,1.6-1.2c-0.6,0-1.2,0.2-1.7-0.3c-0.7-0.8-0.2-2.5-1.3-2.5
		c-0.3,0-0.5,0-0.7,0.1c-0.3,0.2-0.6,0.6-0.8,1c-0.3,0.9-0.4,2-1.8,2c-0.2,0-0.4,0-0.5,0c-0.5-0.1-0.9-0.2-0.9-0.7
		c0-2.4,0.4-2.9,2.1-4.5c0.5-0.5,1.9-0.1,2-0.9c-0.7-0.2-0.6-0.6-0.7-1.2l-0.1-0.2V98C86.6,98.1,85.4,96.9,86,95.9z"/>
	<path class="st1" d="M90.5,21.7c0,0.7,0,1.4,0.6,1.8c0.4,0.2,0.7,0.5,1.2,0.6c0.4,0.1,0.7-0.1,1.2,0l0.3,1.2
		c-0.3,0.4-0.2,1-0.6,1.2c-0.4,0.2-0.8,0.4-1.2,0.6c-0.4,0.3-0.7,0.6-1.2,0.9c-0.5,0.4-1.2,0.5-1.2,1.2c0,1.5,1,2.6,2.3,2.9
		c0.4,0.1,0.7,0.3,1.2,0.3s0.2-1,0.6-1.2c0.4-0.3,0.7-0.6,1.2-0.9c0.4-0.2,0.7-0.4,1.2-0.6c0.8-0.4,1.5-0.7,2.3-0.9
		c0.4-0.1,0.8-0.2,1.2-0.3c0.4-0.1,0.8,0.1,1.2,0c0.9-0.2,1.4-0.9,2.3-0.9c0.6,0,0.6,0.9,1.2,0.9c0.7,0,0.7-0.7,1.2-1.2
		c0.4-0.4,0.7-0.8,1.2-1.2s1-0.5,1.5-0.9c0.5-0.4,0.7-0.9,1.2-1.2c0.8-0.4,1.4-0.9,2.3-1.2c0.4-0.1,0.8-0.2,1.2-0.3
		c0.9-0.2,1.4-0.6,2.3-0.6c0.4,0,0.7,0.3,1.2,0.3h2.3c0.4,0,0.7-0.3,1.2-0.3c0.6,0,0.9,0.3,1.5,0.3c0.4,0,0.7-0.3,1.2-0.3
		c1.5,0,2.3,0.1,3.8,0c0.4,0,0.8,0.1,1.2,0s0.7-0.4,1.2-0.6c1-0.4,1.2-1.5,2.3-1.8c0.4-0.1,0.8,0.1,1.2,0c0.4-0.1,0.7-0.3,1.2-0.3
		h3.9c0.1,1.5,0.1,2.3,0,3.8h2.2c0.4,0,0.7,0.3,1.1,0.3c0.6,0,0.7-0.8,1.2-0.9c0.4-0.1,0.7-0.3,1.2-0.3s0.7,0.4,1.2,0.6
		c0.4,0.1,0.7,0.4,1.2,0.6c0.4,0.1,0.8,0.2,1.2,0.3c0.4,0.1,0.8,0.3,1.2,0.3h1.2c0.4,0,0.7,0.2,1.2,0.3c-0.5,0.3-1,0.6-1.5,0.9
		c-1,0.5-2.3,0.9-2.3,2.1c0,0.7,0.1,1.2,0.6,1.8c0.6,0.8,1,1.8,2.1,1.8c0.5,0,0.7-0.6,1.2-0.6c0.4,0,0.7-0.3,1.2-0.3
		s0.7,0.4,1.2,0.6c1.4,0.5,2.1,1.4,3.5,1.8c0.4,0.1,0.8,0,1.2,0c0.7,0.1,1.2,0.3,2.1,0.3c0.7,0,1.2-0.1,1.8-0.3
		c0.4-0.1,0.8-0.1,1.2-0.3c0.5-0.2,0.7-0.7,1.2-0.9l1.2-0.6c0.4-0.1,0.8-0.2,1.2-0.3l0.3,1.2c-0.9,1.1-1.5,1.8-1.5,3.2
		c0,0.7,0.3,1.4,0.9,1.8c0.4,0.2,0.8,0.1,1.2,0.3c0.4,0.2,0.7,0.4,1.2,0.6c1,0.4,1.7,0.7,2.6,1.2c0.4,0.1,0.8,0.1,1.2,0.3
		c0.5,0.2,0.6,0.7,0.9,1.2c0.3,0.5-0.3,1.2,0,1.8c0.3,0.7,1,0.7,1.5,1.2c0.9,0.7,1.3,1.5,2.1,2.3c0.4,0.4,0.8,0.7,1.2,1.2
		s0.9,0.9,1.2,1.5c0.5,1,0.7,1.8,0.9,2.9c0.1,0.6,0.3,1.1,0.3,1.8c0,1.2-0.4,2.1-0.6,3.2c0,0.4-0.3,0.7-0.3,1.2
		c-0.1,0.7,0,1.1,0,1.8c0,1.5,0.3,2.4,0.6,3.8c0.3,1.4,0.6,2.2,1.2,3.5c0.1,0.4,0.4,0.7,0.6,1.2c0.4,0.9,0.9,1.4,1.2,2.3
		c0.1,0.4-0.1,0.8,0,1.2c0.2,1.2,0.9,1.9,0.9,3.2c0,0.1,0,0.1,0,0.2c0.3,0.3,0.7,0.5,1,0.8l1.3,2.4l0.6-0.5l0.2,0.5l-0.2,0.7
		l1.7,0.2l1.4-3.4l0.9,0.4l0.1,0.5l4,3.6v-0.1c0.1,0.6,0.1,1.3-0.1,1.9l-0.6,0.6l-0.4-0.3l-0.7,0.2l-0.8-0.7v-2.2l-0.7-0.1l-0.5-1.3
		l-0.7,2.8l2.1,2.2l-2.4,3.9l0.4,1.1l-2,4.4l-1.3,0.2l0.7,1l-0.5,0.5l-0.9,0.1l-0.7,1.1l0.1,0.1l2.5,0.1l1.8,1.6l0.9,2.3l-4.9,2.2
		l-0.6,1.4l2,4.4l0.7,0.2l1,1.4l1-0.8l1.6,0.6l2-1.9l0,0l0.9-3.1l-0.5-0.3l0.9-4.4l-0.5-0.6l0.4-1.2l1.7-0.5l0.8-1.3
		c-0.1-0.2-0.2-0.4-0.3-0.6c0.4-0.2,0.8-0.2,1.3-0.2s0.7,0.5,1.2,0.6c0.4,0.1,0.8,0.3,1.2,0.3c0.5,0,0.9,0,1.3,0
		c0.7,0.5,1.2,0.9,2.1,0.9c0.4,0,0.6-0.2,0.9-0.3c0.5-0.3,1.9-0.2,2.7-0.2c0.4,0.1,0.8,0.1,1.2,0c0.3,0.1,0.6,0.1,1,0.1
		s0.7,0,1.1-0.1c0.1,0,0.2,0,0.2-0.1c0.2-0.2,0.3-0.4,0.3-0.7c0-0.3-0.2-0.4-0.3-0.7c-0.2-0.3-0.4-0.6-0.6-0.8c0-0.2,0-0.4-0.2-0.4
		c-0.2-0.1-0.5-0.1-0.7-0.2c-0.1-0.1-0.3-0.2-0.4-0.3c-0.2-0.2-0.3-0.3-0.5-0.3c-0.1,0-0.2,0.1-0.3,0.3c-0.1,0-0.3,0-0.5,0h-6
		l-0.1-0.1c-0.5-0.5-0.9-0.8-0.9-1.5c0-0.1,0-0.1,0-0.2c0.3-0.2,0.6-0.5,0.9-0.6c0.1,0.1,0.1,0.2,0.2,0.3c0.3,0.2,0.5,0.4,0.9,0.6
		c0.4,0.1,0.6,0.2,1,0.2c0.3,0,0.4-0.1,0.6-0.2c0.2,0,0.3,0.1,0.4,0.1c0.4,0.1,0.7,0,1.2,0c0.9,0,1.5-0.1,2.3,0
		c0.4,0,0.8,0.3,1.2,0.3c0.3,0,0.7-0.1,1.1,0c0.2,0.3,0.3,0.6,0.7,0.9c0.2,0.2,0.4,0.2,0.7,0.3c0.7,0.3,1.2,0.3,1.9,0.5
		c0.3,0,0.4,0.2,0.7,0.2c0.7,0.1,1.1,0.2,1.9,0.3c0-0.6,0-1.1,0.4-1.5c0.2-0.2,0.5-0.2,0.7-0.4c0.2-0.2,0.2-0.4,0.2-0.6
		c0-0.4-0.1-0.7-0.3-1.1c0-0.1-0.1-0.2-0.2-0.2c-0.3-0.4-0.9-0.5-0.9-1c0-0.3,0.2-0.5,0.3-0.7c0.2-0.3,0.2-0.6,0.4-0.9
		c0.3-0.4,0.7-0.3,0.9-0.8c0.2-0.4,0.3-0.7,0.4-1.1c0.2,0.2,0.6,0.4,0.6,0.8c0.1,0.4-0.3,0.7-0.3,1.2c0.1,0.9-0.4,0.3-0.3,1.1
		c0.4-0.1,1.3,0.6,1.8,0.6l1.3,0.5c0.5,0,1,0.3,1.4,0.4h1.4c0.9,0,1.6,0,2.4-0.2c0.5-0.1,0.4-0.8,0.9-1c0.5-0.3-0.3-1.2-0.1-1.7
		c0.2-0.4,0.8-0.2,1-0.5s0.9-0.3,1.1-0.6c0.3-0.4,0.7-0.7,0.9-1.2c0.2-0.4-0.2-0.8,0-1.2s0.4-0.9,0.9-1.2c0.3-0.2,0.8,0.1,1.2,0
		c1.7-0.7,2.7-1.2,3.8-2.6c0.6-0.8,1-1.5,1.5-2.3c0.3-0.5,0.9-0.7,1.2-1.2c0.4-0.8,0.8-1.5,1.2-2.3c0.4-0.8,0.9-1.4,0.9-2.3
		c0-0.6-0.5-1-0.6-1.5c-0.1-0.4-0.3-0.8-0.3-1.2c-0.1-1,0-1.6,0-2.6v-2.6c0-1.1,0.9-1.6,1.2-2.6c0.2-0.7,0.1-1.2,0.3-2.1
		c0.2-1.4,0.8-2.1,1.5-3.2c1.1-1.9,2.1-3,2.9-5c0.1-0.4,0.1-0.8,0.3-1.2c0.3-0.6,0.8-0.9,1.2-1.5c0.3-0.5,0.7-1,0.9-1.5
		c0.8-1.5,1.2-2.6,2.1-4.1c0.4-0.6,0.9-0.8,1.2-1.5c0.1-0.4,0.2-0.8,0.3-1.2c0.1-0.3,0.2-0.6,0.4-0.9C228.6,14.4,196.2,0,160.5,0
		C135.4,0,112,7.1,92.2,19.4c-0.1,0.2-0.3,0.4-0.5,0.6C91.2,20.5,90.5,20.9,90.5,21.7z"/>
	<path class="st2" d="M25.4,93l23.9,113.9c0,0-3.6,2.1-8.5,10.6c-5.7,9.9-4,18.4-4,18.4L13.3,123.4c0,0-1.8-8.5,1.4-15.4
		C18.2,100.6,25.4,93,25.4,93 M64.3,66c0,0-3.7,44.3-5.3,66.1S54.7,202,54.7,202s5.3-5.3,12.9-10.3s14.1-8.4,14.8-8.8l1.2-21.4
		c0,0,7.9-3.5,14.1-6.5c6.2-2.9,20.4-7.8,20.4-7.8l9,16.6c0,0,9.7-1.8,16.1-3.5c6.5-1.8,17.3-4.1,17-5.3
		C160,153.7,97.6,51.9,97.6,51.9s-12.3,4.5-17.8,6.6C73.7,60.8,64.3,66,64.3,66 M118.9,45.1l6.3,28c0,0,12.2-3.2,16.6-4.3
		c4.4-1.1,16.1-3.2,16.1-3.2s16.7,86.3,17.9,86c0.5-0.1,5.1-1,14.4-2.4c9.4-1.4,18.2-1.9,18.2-1.9l-18.2-86.2c0,0,10-0.9,19.2-1.2
		c7.5-0.3,14.5,0.1,14.5-0.3c0-0.9-6.2-27.6-6.2-27.6s-28.5-0.3-49,2.6C148.3,37.8,118.9,45.1,118.9,45.1 M222.8,32.2l24.1,114.2
		c0,0,10.6,0,15,0.6c4.4,0.6,17.6,3.2,17.6,3.2l-9.8-46.2c0,0,12,2.6,20.3,6.6c7.5,3.6,14.2,11.5,14.2,11.5l-4.1-21.1
		c0,0-6.8-9.4-15.3-13.2c-8.5-3.8-19.7-6.8-19.7-6.8l-4.3-19.7c0,0,8.5,1.1,18.3,5.6c13.2,6,18.2,16.1,18.2,16.1l-5-22.6
		c0,0-5.3-17.3-32-23.2C243.5,33.5,222.8,32.2,222.8,32.2 M86.6,88l-2,46.1c0,0,3.6-1.9,9.2-4.3c5.6-2.3,12.2-5.1,12.2-5.1L86.6,88z
		"/>
	<g>
		<path id="SVGID_1_" class="st3" d="M13,106c-3.2,6.9-1.4,15.4-1.4,15.4l23.5,112.4c0-0.1-1.6-8.5,4-18.4
			c4.9-8.5,8.5-10.6,8.5-10.6L23.7,91C23.7,91,16.5,98.6,13,106"/>
		<path id="SVGID_4_" class="st3" d="M167.1,32.8c-20.6,2.9-49.9,10.3-49.9,10.3l6.3,28c0,0,12.2-3.2,16.6-4.3
			c4.4-1.1,16.1-3.2,16.1-3.2s16.7,86.3,17.9,86c0.5-0.1,5.1-1,14.4-2.4c9.4-1.4,18.2-1.9,18.2-1.9l-18.1-86c0,0,10-0.9,19.2-1.2
			c3.4-0.1,6.6-0.1,9.2-0.1c3.2,0,5.3,0,5.3-0.2c0-0.9-6.2-27.6-6.2-27.6s-0.8,0-2.2,0C206.9,30.2,184.3,30.4,167.1,32.8"/>
		<path id="SVGID_7_" class="st3" d="M245.3,144.4c0,0,10.6,0,15,0.6c4.4,0.6,17.6,3.2,17.6,3.2l-9.8-46.2c0,0,12,2.6,20.3,6.6
			c7.5,3.6,14.2,11.5,14.2,11.5L298.5,99c0,0-6.8-9.4-15.3-13.2c-8.5-3.8-19.7-6.8-19.7-6.8l-4.3-19.7c0,0,8.5,1.1,18.4,5.6
			c13.2,6,18.2,16.1,18.2,16.1l-5-22.6c0,0-5.3-17.3-32-23.2c-16.9-3.7-37.6-5-37.6-5L245.3,144.4z"/>
		<path id="SVGID_10_" class="st3" d="M84.9,86l19.5,36.7c0,0-6.7,2.8-12.2,5.1c-5.6,2.4-9.2,4.3-9.2,4.3L84.9,86z M78.2,56.5
			C72,58.8,62.6,64,62.6,64s-3.7,44.3-5.3,66.1C55.8,151.8,53,200,53,200s5.3-5.3,12.9-10.3c7.6-5,14.1-8.4,14.8-8.8l1.2-21.4
			c0,0,7.9-3.5,14.1-6.5c6.2-2.9,20.4-7.8,20.4-7.8l9,16.6c0,0,9.7-1.8,16.1-3.5c6.5-1.8,17.3-4.1,17-5.3S95.8,49.9,95.8,49.9
			S83.6,54.4,78.2,56.5"/>
	</g>
</g>
<rect class="st4" width="316.4" height="260"/>
</svg>
