<svg xmlns="http://www.w3.org/2000/svg" xml:space="preserve" id="レイヤー_1" x="0" y="0" baseProfile="basic" version="1.1" viewBox="0 0 221.8 49.5"><style>.st0{fill:#1e2a63}</style><switch><g><path d="M.975 1.025v47.501H13.1v-36.25h10v36.25h11.875v-36.25h10.126v36.25h11.875v-47.5zM135.352 1.025v17.75h-12.375V1.026h-12v47.501h12v-18.5h12.375v18.5h11.875v-47.5zM168.602 37.65V1.026h-11.875v47.501h27V37.651zM220.853 11.525v-10.5h-30.625v47.501h30.625V37.901h-18.75v-7.875h18.75V19.4h-18.75v-7.876zM65.976 1.025v47.501H78.1v-11.75h11.75v11.75h11.875v-47.5h-35.75zm12.25 24.5v-13.5h11.75v13.5h-11.75z" class="st0"/></g></switch></svg>