<svg xmlns="http://www.w3.org/2000/svg" xml:space="preserve" id="Layer_1" x="0" y="0" baseProfile="basic" version="1.1" viewBox="0 0 171.3 40.9"><style>.st0{fill:#0a5ca6}</style><switch><g><path d="m169.5 6.8 1.8-6.7H10l1.6 6.7z" class="st0"/><path d="m154.3 40.7-1.6-6.7H9.1l1.8 6.8zM0 0l8.2 30.4H17l6-12.1 1.3 12.1h7l16.7-20h-9l-9.8 13.1-1.6-13h-8.1L13 23.6 7.6.1zM34.7 30.4l17-19.9H60l6 19.9h-8l-1.8-5h-9.5l-4.1 5h-7.9zm14.8-9.5h5.4l-1.3-4.6-4.1 4.6zM72.6 10.4l-5.7 20H85l1.4-5.3H75.8L80 10.4zM92 10.4l-5.6 20H94l1.5-5.3 3.9-2.4 4.9 7.7h8.9l-6.6-11.8 11.5-8.2h-9.8l-10.9 7.3 2.1-7.3zM120 10.4l-5.6 20h20.7l1.5-5.3h-13.2l.7-2.4h13.3l1.3-4.6h-13.3l.8-3h13.4l1.3-4.7z"/><path d="m138.5 30.4 5.6-19.9H160c1.9 0 7 1.1 6.1 7.2 0 0-.4 4.6-6.3 5.6l4.6 17.4h-7.7l-3.8-16.9H148l-1.8 6.5-7.7.1zm18.4-11.5c1.4 0 2.2-1.7 2.2-1.7.5-2.2-2-2.1-2-2.1h-7l-1.1 3.8h7.9zM165.3 39c0-.9.7-1.5 1.5-1.5s1.5.7 1.5 1.5c0 .9-.7 1.5-1.5 1.5-.9 0-1.5-.6-1.5-1.5zm1.5 1.9c1 0 1.9-.8 1.9-1.9 0-1.1-.9-1.8-1.9-1.8s-1.9.8-1.9 1.8c0 1.1.8 1.9 1.9 1.9zm-.4-1.8h.4l.6.9h.4l-.6-.9c.3 0 .6-.2.6-.6 0-.4-.2-.6-.8-.6h-.8V40h.3l-.1-.9zm0-.2v-.7h.4c.2 0 .5 0 .5.3s-.2.3-.5.3h-.4v.1z"/><path d="m154.7 40.4-1.5-6.7H9.6l1.8 6.8z" class="st0"/></g></switch></svg>