<?xml version="1.0" encoding="utf-8"?>
<!-- Generator: Adobe Illustrator 25.1.0, SVG Export Plug-In . SVG Version: 6.00 Build 0)  -->
<!DOCTYPE svg PUBLIC "-//W3C//DTD SVG 1.1//EN" "http://www.w3.org/Graphics/SVG/1.1/DTD/svg11.dtd" [
	<!ENTITY st0 "clip-path:url(#SVGID_2_);">
]>
<svg version="1.1" id="レイヤー_1" xmlns="http://www.w3.org/2000/svg" xmlns:xlink="http://www.w3.org/1999/xlink" x="0px"
	 y="0px" viewBox="0 0 2018.4 761.8" style="enable-background:new 0 0 2018.4 761.8;" xml:space="preserve">
<g>
	<g>
		<defs>
			<path id="SVGID_1_" d="M1765.3,529.1c2.5,3.9,4.7,8,5.6,12.6l0.7,2.5c1.8,5.3,8,31.8,8,33.8c-0.1,4.6-3.8,9.7-8.4,8.6
				c-0.3-0.4-0.6-1-0.7-1.7c0-0.5,0.1-0.7-0.1-0.9c-0.4-0.5-1.8-0.1-2.8,0.2c-2.2,0.6-3.7,1.1-4.2,2.4c-0.2,0.5-0.2,0.9-0.1,1.6
				c0.1,1.3,0.5,2.1,0.8,2.9c0.7,1.9,0,2.5,0.3,4.8c0.3,2.1,0.9,2.3,1.6,4.6c0.7,2.2,0.6,3.6,0.8,6.1c0,0.7,0.4,3.6,1.2,9.3
				c0.7,5.3,1.2,7.7,2.2,14.6c1.6,10.1,1.6,11,3.5,23.5c2,13.3,1.7,10.6,1.9,12.1c0.6,4.9,0.8,9.2,2.1,12.2c0.2,0.4,0.5,1,0.5,2
				c0.1,1.7-0.7,2.3-1.1,4.7c-0.1,0.6-0.2,1.3-0.1,2.3c0.1,1.6,0.6,2.1,1,3.8c0.2,0.8,0.2,1.6,0.3,3.2c0.1,2.5-0.1,3.1,0,4.8
				c0.1,1,0.2,5.3,0.7,7.1c1.4,0.5,3.2-0.1,4.6,0.4c3.2,0.7,5.1,3,6.9,5.5c0.4,1,0.9,2,1.3,3c2.4,8.7,2.1,9.5-5.1,13.9
				c-2.1,1.3-4.2,2.8-6.2,4.1c-3.8,2.2-6.3,6.6-10.8,7.7c-1.3,0.3-2.7,0.2-3.8-0.4c-0.9-0.5-1.5-1.3-2.1-2.1
				c-1.1-1.3-2.1-2.6-3.2-3.9c-0.3-0.3-1.8-3.7-2.3-3.6c-0.8,0.2-1.2,1.3-1.4,1.8c-1.9,5.5-2.9,9.2-3,11c-0.5,6.8,1.2,7.9-0.1,10.3
				c-1.7,3.1-5.9,4-8.6,4.4c-12.7,2.1-17.9,0.7-27.9,0.9c-8.8,0.2-13.2,1.4-28.3,2.5c-1.4,0.1-4.1-1.1-6.4-3.3c-1-0.9-1.7-2-3-3.8
				c-1.6-2.2-2.6-3.9-2.7-4c-7.8-12.7-30.4-30.4-30.4-30.4c-8.4-6.5-4.9-5.7-31.3-35.5c0,0-29.9-33.8-72.6-73.8
				c-2.3-2.1-6.1-5.7-11.4-9.9c-3.5-2.8-8-6.3-14.8-10.9c-8.1-5.5-18.6-12.5-33.2-19.8c-6.6-3.3-23.9-11.5-47.6-17.9
				c-8.4-2.3-27.9-7.5-42.3-7.4c-1.2,0-8.3,0.1-17.7-0.2c-5-0.2-8.8-0.4-10.2-0.4c-9-0.5-15.8-1.2-16.8-1.3
				c-11-1.2-19.3-4.1-28.1-6.8c-13.1-3.9-30.2-9.1-50.6-10.9c-4.2-0.4-22.2-1.8-32-3.1c-5.7-0.8-11.2-1.7-11.2-1.7
				c-3.6-0.6-2.8-0.5-6.7-1.2c-6.8-1.1-12.7-1.9-17.5-2.5c0,0-6.2-0.8-12.2-1.3c-8.2-0.8-342.3-2-366.3,1.1
				c-18.5,2.4-17.7,4.1-45.6,8.1c-22.8,3.2-51.3,4.1-65,6.7c-1.1,0.2-7.2,1.4-15,2.5c-3.3,0.5-6,0.8-8.1,1c0,0-4.4,0.5-8.9,0.8
				c-11.1,0.8-22.5,0.8-22.5,0.8c-8.5,0-8.6,0.6-56.3,5c-10.5,1-16.6,1.5-24.9,4.1c-7.4,2.3-14.4,5.7-18.1,7.4
				c-3.1,1.5-7.4,3.7-15.9,8.2c-4.5,2.4-9.4,5-11.6,6.1c-16.2,8.6-32.6,17.4-48.4,29.1c-10.1,7.4-4.5,4.6-32.3,28.6
				c0,0-16,13.8-27.7,26.8c-1.2,1.3-2.3,2.6-2.3,2.6c-2.2,2.5-3.5,4.1-4.9,5.7c-1.7,2-3,3.5-5.8,6.6c-2.6,2.9-4.6,5.2-6.8,7.6
				c-10,11-9.7,10.4-13,14.2c-5.1,5.8-7.6,8.7-9.5,11.5c-2.6,3.8-4.7,7.5-9.3,12.1c-1.5,1.5-2.7,2.6-3.4,3.2
				c-5.1,4.5-13,11.4-19,18.4c-3.5,4-14.1,16.9-17.3,21.3c-0.3,0.4-1.3,1.8-3,2.8c-1.6,0.9-3.1,1.1-4.3,1.2
				c-5.3,0.5-9.9-0.6-9.9-0.6c-6.7-1.6-7.2-3.7-12.6-4.4c-1-0.1-4.4-0.5-6-0.6c-2.1-0.2-3.7-0.4-4-0.4c-9.9-0.9-18.6-0.7-18.6-0.7
				c-4.2,0.1-5.9,0.3-9-0.3c-3.2-0.6-4.9-0.9-6.4-2.3c-3.9-3.5-2.8-10.4-2.2-14.7c0.4-2.8,0.6-4.1,1.3-5c0.1-0.2,0.6-0.7,0.7-1.5
				c0-0.8-0.3-1.3-0.4-1.5c-0.7-1-1.9-1.1-2.3-1.1c-0.4,0-1.5,0-3.2,1.6c-0.7,0.6-2,2.1-3.2,5.4c-1.2,3.4-1.3,5.8-2.3,6
				c-0.4,0.1-0.8-0.3-0.9-0.5c-2.7-2.8-16.3-11.9-22.7-14.3c-0.5-0.2-1.9-0.7-3-2c-1.3-1.7-1.3-3.8-1.3-4.9
				c0.2-5.9,5.2-10.6,8.1-11.7c1.4-0.5,2.9-1,2.9-1c2.5-0.8,2.5-0.8,2.9-1c1.7-1.1,1.5-2.5,3-3.5c1-0.6,2.1-0.6,3.1-0.6
				c7.9,0.4,15.9-0.5,23.7,0.7c0,0,2.1,0.3,4.7-0.4c1.3-0.4,2.3-0.9,2.7-1.8c0.1-0.3,0.1-0.6,0.1-0.7c0-2.9,1.4-5.2,0.6-6.5
				s-3.4-1-5.1-0.9c-8.2,0.8-16.5-0.4-24.8-0.4c-0.7,0-3.3,0-4-1.3c-0.2-0.3-0.3-0.8-0.3-1.4c0-0.9,0.3-1.5,0.4-1.7
				c0.9-1.9,1.6-10,3.6-20.8c0.8-4.2,0.9-4.3,1.3-6.7c0.6-4.1,0.5-5.7,1.1-9.3c0.6-3.2,0.9-2.9,1.5-6c1.4-6.6,0.1-8.3,1.6-14.9
				c0.5-2.4,0.7-2.2,1.2-4.6c0.9-4.3,0.4-5.2,1-9.3c0.8-5.4,1.9-5.3,1.9-9.2c0-2.9-0.5-3.5-0.1-6.4c0.1-0.9,0.5-3.3,1.9-6
				c0.5-1,0.8-1.4,1.2-1.7c1.6-1.2,3.4,0.1,5.8-1.2c0.4-0.2,1.2-0.7,1.2-1.4c0-0.5-0.4-1.1-0.8-1.4c-0.2-0.1-0.3-0.2-0.3-0.2
				c-1.1-0.6-7-4.2-8.6-5.8c-0.1-0.1-0.2-0.2-0.4-0.3c-0.8-0.6-1.7-0.6-2.1-0.6c-2.5,0.1-5.3,1-7.5,0.5c-2.8-0.6-5.2-3.7-5.1-6
				c0-0.6,0.3-1.5,0.7-2.3c0.6-1.2,1-1.3,1.5-2.1c0.7-1.4-0.1-2.2,0.2-4.2c0.3-2.1,1.1-1.6,1.5-3.9c0.3-1.8-0.1-3.1,0.8-5.1
				c0.2-0.4,0.3-0.7,0.4-0.7c2.5-4.4,3.7-16.1,3.7-16.1c1.2-12.2,13.7-22.8,13.4-28.3c0-0.6-0.1-1.9-1-2.9c-0.3-0.3-0.6-0.5-3.3-1.4
				c-2.5-0.8-3.1-0.9-3.6-1c-1.1-0.2-1.9-0.2-2.4-0.3c-13.7-0.6-18.8-0.3-18.8-0.3c-31.4,1.7-52.4,8.8-78.2,8.7c0,0-22-0.1-31.3,8.3
				c0,0-0.1,0.1-0.3,0.3c-0.3,0.2-0.6,0.3-0.6,0.3c-10.4,3-20.2,7.6-30.4,10.8c-4.3,1.4-14.5,4.1-34.8,9.5c-1.6,0.4-5.1,1.3-8.4-0.3
				c-1.2-0.6-2.1-1.5-3.9-3.2c-2-1.9-4.7-5.1-5.6-6.1c-0.2-0.2-0.6-0.7-1.3-1.4c-0.8-0.7-1.4-1.1-1.6-1.3c-0.7-0.5-1.7-1.5-3-4.6
				c-1.8-4.3-2.5-8.7-2.7-10.4c-0.1-0.8-0.2-2-0.7-3.6c-0.4-1.7-0.8-3.1-1.8-4.3c-1.1-1.4-2.4-1.8-4.1-2.4c-3.4-1.3-6.5-3-8.5-4.3
				c-2.8-1.9-4.4-3.7-6.4-6.3c-2.2-2.6-2.8-4.1-2.9-5.6c0-0.9,0.1-1.1,0.1-2.6c0-2.2-0.4-3.8-0.6-4.8c-0.8-3.7-1.1-7.3-1.1-7.9
				c-0.4-5.9,4.5-11.9,8.6-14.9c5.4-4,9.9-3,11.9-7c0.3-0.7,1.3-2.9,3-5.8c0.8-1.3,1.4-2.2,1.4-2.3c4.1-6,31.8-6.9,37.5-7
				c5-0.1,9.8-0.2,13.8-1.6c0.6-0.2,2.4-0.9,4.9-1.2c2.5-0.4,4.4-0.2,5-0.2c4,0.2,9.4-0.6,20.1-2.3c8.6-1.4,14.4-2.5,14.4-2.5
				c27.8-5.5,41.6-8.3,57.7-10.3c24.2-3,43-3.3,51.6-3c0.8,0,3.9,0.1,7.7,0.3c17,0.6,16,1,25,1.3c0,0,22.7,0.7,24,3.8v0.1v0.1
				c1,2.3,14.5,4.3,14.5,4.3c12.6,1.9,13.5,9.6,21.7,8.1c5.2-0.9,9.6-4.8,11.2-6.2c2.9-2.6,4.6-5.1,5.4-6.3
				c13.8-20.8,20.7-31.3,26.3-42.9c8.1-16.7,12.6-30.4,15.1-38c2-6,3.3-10.7,3.8-12.7c5-18.1,7.6-27.1,7.6-37.7
				c0-5.2,0.1-21.8-9.8-36.3c-7.6-11.2-17.9-16.2-22.2-18.5c-49.5-26-52.2-67.6-108-94.5c-10.1-4.8-27.6-12-41.2-24.7
				C202.7,108,197,99.2,189,93.6c-0.9-0.7-4-2.8-6.1-6.7c-2.2-4.1-2.2-8-2.2-8.8c0.1-5.3,2.5-5.5,2.7-11.6c0.1-2-0.2-2.3-0.3-8
				c0-2.8-0.1-4.2,0-4.8c0.4-5.3,2.4-6.5,3.5-12.3c0.7-3.5-0.1-3,0.7-6.9c1.4-7,3.9-8.9,4.9-9.6c0,0,0.7-0.4,1.5-0.8
				c8-3.1,64.4-6.2,84-8.4c5.5-0.6,11.6-1.3,19.6-3.3c5.7-1.4,8.1-2.4,19.1-5.5c6.9-1.9,12.1-3.3,13.2-3.5
				c18.2-4.6,38.1-3.6,45.6-3.2C391.7,1.1,403.8,4,414,6.4c27.5,6.6,44.9,15.5,49.2,17.8c3,1.6,7.4,3.9,13,7.6
				c11.1,7.3,20.3,15.7,20.3,15.7h-0.1c0.4,0.4,1.1,1,2.2,1.6c1.2,0.7,2.2,1,2.5,1.1c2.4,0.8,7.2,3.2,12.6,5.9
				c1.8,0.9,6.7,3.4,12.1,6.8c9,5.8,10.7,8.6,21.6,16.3c3.2,2.3,5.6,3.8,9.2,6.1c42.7,27.2,69.7,41.4,69.7,41.4s32.6,17.3,74.4,33.5
				c4.1,1.6,10.9,4.1,20,6.1c7.7,1.6,13.8,2.2,15.5,2.3c8.4,0.7,11.3,0,24,0.4c5.3,0.2,8.8,0.4,10.7,0.6c22.1,1.3,72.7-0.7,119.1,0
				c10.2,0.2,49.6,0.9,75.9,0.4c2.4,0,8.5-0.2,16.4-0.8c17.5-1.3,29.7-3.8,33-4.4c8.4-1.7,14.6-3.5,16.4-4c4.8-1.4,13.3-4,34.5-13.2
				c19.7-8.5,17.3-8.3,24.6-10.7c12.4-4.1,24.6-6.4,30.1-7.4c2.9-0.5,6.9-1.3,12.2-1.9c9.2-1.2,16.7-1.3,31.2-1.5
				c13.2-0.2,24.7,0,31.1,0.1c0.9,0,1.5,0,2,0c36.8,0.7,75.8,0.7,75.8,0.7c0.1,0,12.7-0.1,37.7-0.2c15-0.1,22.6-0.2,33.4-1.3
				c9.2-1,16.6-2.3,21.8-3.3c15.3-2.8,22.6-4.9,26.1-5.7c8-1.9,37.2-10.8,53-21.9c6.4-4.5,6-3.1,12.8-7.4c9.5-6,16-11.1,18.1-12.8
				c3.1-2.4,8.5-6.4,56.3-34.2c27.1-15.8,30.4-17.4,34.9-19.5c17.9-8,32.2-11.4,40.8-13.1c2.7-0.5,7.7-1.4,14.1-2.2
				c12.6-1.4,21.7-1.2,32.7-0.9c0,0,25,0.7,37.5,5.2c0,0,0.3,0.1,0.6,0.2c1.7,0.6,4.4,1.6,7.8,2.7c1.7,0.6,3.3,1.1,5.1,1.7
				c4.3,1.3,9,2.8,14.8,4c1.2,0.2,2.6,0.5,6.6,1c8.6,1.1,15.2,1.7,18.1,2c12.7,1.2,29,3,36.5,4.2c0.7,0.1,3.1,0.5,6.3,0.9
				c1,0.1,3.3,0.4,7.3,0.8c10.8,1,10.5,0.4,13.4,1.1c1.2,0.3,3.4,0.8,6.4,0.7c0.8,0,0.9-0.1,1.5-0.1c2.7,0.1,4.8,1.6,5.6,2.3
				c2,1.7,2.8,3.7,3.9,6.6c0.6,1.6,1,3.2,1.1,3.6c0.2,0.7,0.2,1.2,0.3,1.5c0.1,0.8,0.1,1.2,0.1,2s0.1,1.3,0.3,2.3
				c0.2,1.3,0.5,2.3,0.7,2.9c0.2,0.9,0.7,2.6,1.6,4.6c0,0.1,0,0.1,0,0.1c1.9,4.5,6.7,23.7,3.6,30.8l0,0c-2.4,5.5-1.4,4.1-2,6.1
				c-0.4,1.4-1.1,2.4-2.4,4.5c-3.3,5.3-11.5,12-16.4,16.4c-9.6,8.6-9.8,10.9-17,15.6c-2.8,1.8-7.6,4.6-8.3,5c-5.8,3.4-10.2,5.6-11,6
				c-12.6,6.5-38.5,28.9-49.6,38.3c-4.8,4.1-0.1-0.1-30.3,24.3c-18.7,15-35.3,32.6-55,46.2c-1.6,1.1-6.6,4.4-11.5,10.9
				c-0.1,0.2-0.6,0.9-1.2,1.7c-5.6,8.3-7.2,17.7-7.5,19.7c-1.1,7.4-0.3,13,1.1,21.4c2,11.8,4.2,15.3,7.8,29.7
				c3.2,13.2,1.8,12.4,4.1,20.5c1.8,6.4,3.7,10.8,23.4,44.9c4.3,7.5,9.7,14.3,13.6,22c3.4,6.7,9.3,11.8,14,17.7
				c0.3,0.3,1.1,1.4,2.1,1.3c0.2,0,0.3-0.1,0.9-0.3c1.4-0.5,2.6-0.8,2.6-0.8l0,0c0,0,1.8-0.8,3.5-1.5c0,0,1.6-0.7,3.5-1.4
				c21.1-7.9,34.3-10.3,34.3-10.3c0.7-0.1,2.9-0.5,7.5-1.1c16.5-2.5,23-3.1,27.3-3.5c0,0,2.5-0.2,5.3-0.4
				c17.9-1.2,40.7,0.5,59.8,2.2c22.6,2,34.1,3,39.4,4.6c4.9,1.4,12.9,4.2,25.4,7c3.2,0.7,8.2,1.8,15,2.9c4.4,0.7,5.8,0.8,21.4,2.5
				c14.1,1.6,12.8,1.5,15,1.7c4.4,0.4,9.2,0.6,16.5,1.6c0.4,0.1,1.7,0.2,3.4,0.5c0,0,8.6,1.3,19.4,4.9c1.2,0.4,3.4,1.2,4.2,3
				c0.2,0.4,0.1,0.5,0.7,2.3c0.6,1.9,0.8,2.9,1,3.3c0.8,1.7,2.4,2.2,4.9,3.4c2.3,1.1,4.4,2.4,6.6,3.6c5.7,3,8.8,9,9.8,10.9
				c0.6,1.1,6.5,13.1,1.3,23c-1.4,2.6-4.4,5.3-10.3,10.6c-3.8,3.4-5.7,5.1-8.6,7c-1.6,1.1-2.9,1.7-4.6,3.2c0,0-3.7,3.2-4.8,6.7
				c-0.3,0.8-0.3,1.5-0.3,1.5c-0.1,0.7,0,1,0,1.7s-0.2,1.3-0.3,1.9c-1,3.7-4.3,7.6-4.3,7.6c-0.8,0.9-1.3,1.5-2.5,2.7
				c-2.2,2.3-4.8,4.3-10,8.2c-0.5,0.4-1,0.8-1.7,0.9c-0.6,0.1-1,0-2.9,0.1c-0.4,0-0.6,0-0.6,0c-4.8,0.2-10.1-3.9-10.1-3.9
				c-2.1-1.6-11.7-4.4-30.8-9.8c-14.9-4.3-27.1-7.2-34.4-9.3c-0.8-0.2-4.4-1.3-9.4-2.6c0,0-1-0.3-2-0.5c-9.1-2.4-17.9-4.7-29.2-6.5
				c-0.3-0.1-1.1-0.2-2.2-0.3c-10.3-1.5-18-1.9-20.7-2.1c-3.4-0.2-11.1-1-26.4-2.6c-0.4,0-16-1.7-33.1,0c-2.9,0.3-7.2,0.8-8.2,3.4
				c-1.3,3.2,3.1,7.6,3.7,8.2"/>
		</defs>
		<clipPath id="SVGID_2_">
			<use xlink:href="#SVGID_1_"  style="overflow:visible;"/>
		</clipPath>
		<g style="&st0;">
			
				<image style="overflow:visible;enable-background:new    ;" width="3072" height="2304" xlink:href="DSC00089.avif"  transform="matrix(0.7 0 0 0.7 -62.8044 -539.7817)">
			</image>
		</g>
	</g>
</g>
</svg>
