<?xml version="1.0" encoding="utf-8"?>
<!-- Generator: Adobe Illustrator 25.1.0, SVG Export Plug-In . SVG Version: 6.00 Build 0)  -->
<!DOCTYPE svg PUBLIC "-//W3C//DTD SVG 1.1//EN" "http://www.w3.org/Graphics/SVG/1.1/DTD/svg11.dtd" [
	<!ENTITY st0 "clip-path:url(#SVGID_2_);">
	<!ENTITY st1 "fill:none;stroke:#000000;stroke-miterlimit:10;">
	<!ENTITY st2 "font-family:'KozGoPr6N-Regular-90ms-RKSJ-H';">
	<!ENTITY st3 "font-size:0.5px;">
	<!ENTITY st4 "stroke:#000000;stroke-width:0.5;stroke-miterlimit:10;">
]>
<svg version="1.1" id="レイヤー_1" xmlns="http://www.w3.org/2000/svg" xmlns:xlink="http://www.w3.org/1999/xlink" x="0px"
	 y="0px" viewBox="0 0 1383.6 1225.9" style="enable-background:new 0 0 1383.6 1225.9;" xml:space="preserve">
<g>
	<defs>
		<path id="SVGID_1_" d="M1383.2,549.9c-0.3-1.8-0.8-3.5-2.1-6.7c-1.4-3.3-2.7-6.6-5-10.5c-1.5-2.5-3.4-4.8-8.2-10.5
			c-5.8-6.9-10.8-11.6-14.3-14.8c-6.6-6.2-12-10.5-15.6-13.3c-7.5-5.9-13.5-10-15.7-11.5c-6.1-4.1-10.8-6.8-18.5-11.2
			c-23.8-13.6-41.4-23.2-43-24c-3.3-1.8-8.5-4.6-17.8-9.6c-15.3-8.3-22.9-12.4-26.4-14.4c-6.4-3.7-8.6-5.1-13.7-7.6
			c-4.4-2.2-9.3-4.6-15.9-6.9c-3.9-1.3-7.8-2.3-13.9-3.7c-7.9-1.8-14.3-2.8-26.8-4.4c-22.5-2.8-25.4-2.6-41.5-4.9
			c-6-0.9-10-1.6-17.6-2.8c-14.5-2.5-18-3.3-20.5-4c-7.9-2.2-13.8-4.6-15.9-5.6c-3.5-1.5-8.1-4-17.2-8.8c-8.2-4.4-10.1-5.5-16.1-8.6
			c0,0-6.2-3.2-11.1-5.6c-13.6-6.6-24.2-7.6-54.1-15.6c-1.9-0.5-8.2-2.3-20.8-5.8c-14.9-4.1-18.5-5.2-24.5-6.7
			c-9.2-2.2-16-3.6-20-4.4c-27.6-5.4-31.9-7-63.6-13.2c-26.2-5.1-44.9-8.3-77.7-14c-24-4.1-44-7.4-58.5-9.7l-30.1-3.5
			c-4.5-0.1-9.1-0.2-13.6-0.3l-2,2.4l-2.6,0.7l-3.1-1.1L342.4,112.2l-3.8-3.8l0.2-5.8l1-13.6c0.5-2.4,3.3-1.9,3.8-4.3
			c0.5-2.4-2.3-3-1.8-5.4c0.5-2.4,3.3-1.9,3.8-4.3c0.5-2.4-2.3-3-1.8-5.4c0.5-2.4,3.3-1.9,3.8-4.3c0.5-2.4-2.3-3-1.8-5.4
			c0.5-2.4,3.3-1.9,3.8-4.3c0.5-2.4-2.3-3-1.8-5.4c0.5-2.4,3.3-1.9,3.8-4.3c0.5-2.4-2.3-3-1.8-5.4c0.5-2.4,3.3-1.9,3.8-4.3
			c0.5-2.4-2.3-3-1.8-5.4c0.5-2.4,3.3-1.9,3.8-4.3c0.5-2.4-2.3-3-1.8-5.4l0.8-3.3c1.3-5.7-9.2-13.1-23.5-16.4
			c-14.3-3.3-27-1.3-28.3,4.4l-1.2,5.9c-0.5,2.4-3.3,1.9-3.8,4.3c-0.5,2.4,2.3,3,1.8,5.4c-0.5,2.4-3.3,1.9-3.8,4.3
			c-0.5,2.4,2.3,3,1.8,5.4c-0.5,2.4-3.3,1.9-3.8,4.3c-0.5,2.4,2.3,3,1.8,5.4c-0.5,2.4-3.3,1.9-3.8,4.3c-0.5,2.4,2.3,3,1.8,5.4
			c-0.5,2.4-3.3,1.9-3.8,4.3c-0.5,2.4,2.3,3,1.8,5.4c-0.5,2.4-3.3,1.9-3.8,4.3c-0.5,2.4,2.3,3,1.8,5.4c-0.5,2.4-3.3,0.9-3.8,3.3
			l0,1.7l-1.2,1.3c-0.9,0-4.4-0.1-6.3,0c-4.3,0.2-7.6,0.9-8.8,1.2c-9.2,2-11.2,1.1-22.6,3.7c-3.7,0.8-6.4,1.5-9.4,2.4
			c-6.7,2-10.6,3.7-21.4,6.6c-17.1,4.6-16.3,2.7-27.6,6.1c-7.2,2.2-22.4,6.9-37.5,18.3c-2,1.5-9.8,9.5-25.3,25.6
			c-11.3,11.7-15.6,16.3-20.9,22.7c-7.6,9.1-11.5,13.6-15.1,20.4c-4.8,8.9-7,16.7-9.9,29.7c-4.5,20.4-7.1,36.7-8.4,46
			c-4.2,28.5-3.6,30.6-7,49.5c-4.1,22.7-4.9,19.2-7,34.3C55.4,356,54,373.3,51.4,393c-0.4,3.3-1.3,10-4.1,18.3
			c-1.1,3.3-1.8,4.8-4.1,10.5c-3.9,9.6-4,10.6-8.4,22.1c-4.8,12.3-4.6,11.2-8.7,21.8c-3.6,9.3-5.9,15.3-8.4,23.3
			c-4.1,12.7-3.6,14.1-7.3,25.6c-4.9,15-6.8,15.8-8.7,23.3c-3.8,14.8-0.3,27.5,2.3,37.1c7.9,28.7,27.3,46.1,34.6,52.8
			c5.3,4.9,8.4,6.9,36.7,25.6c35.9,23.7,47.3,31.1,62.8,42.8c17.3,12.9,26.1,19.6,32.6,27.9c8.9,11.5,11.8,20.3,22.7,46
			c6.4,15.1,13.4,30.1,20.1,45.1c25.4,57.1,36.5,82.5,44.2,99.8c13.5,30.3,33.6,74.2,60.8,129.7c0,0,31.7,52.7,64.9,96.6
			c8.1,10.7,17.5,16.5,17.5,16.5c9.7,7.5,17.7,12.5,25,17.2c12.3,7.8,13.7,7.9,24.7,14.8c16.8,10.5,15.8,12,26.5,18
			c11.5,6.5,25.4,14.5,43.1,17.2c16.6,2.5,29.6-0.6,36.1-2c37-8.3,75.5-7.8,113.2-12.2c68.1-7.9,102.1-11.9,119.6-13.1
			c0,0,24.5-1.7,50.5-6.1c6.3-1.1,12.4-2.4,12.4-2.4c3.8-0.8,9.1-1.9,14.2-3.4c9.1-2.6,15.6-5.6,22.9-8.9c11.1-5.1,19-9.8,20.6-10.8
			c12.4-7.4,19.9-14,32.8-25c7.1-6.1,27-23,47.6-39.3c13.7-10.9,24.6-19.1,29.1-22.6c16.5-12.5,16.1-11.6,34.7-25.5
			c19.7-14.8,35.8-26.8,46.5-35.6c1.5-1.2,6.2-5.1,12.8-9.9c4.3-3.2,7.9-5.6,10-7.1c1.6-1.4,4.1-3.3,7.3-5.1
			c2.7-1.5,4.9-2.4,6.8-3.2c9-3.6,13-5,16.6-6.4c8.2-3.3,6.8-4,13.5-6.7c10.9-4.3,24.7-6.7,31.3-7.2c0.9-0.1,2.7-0.2,5-1
			c3.2-1.1,4.4-2.5,8.1-5c2.9-2,2.8-1.5,7.9-4.6c2.1-1.2,5.1-3.1,8.7-5.7c2.1-1.3,4.6-3.2,7.2-5.8c3.4-3.4,5.3-6.6,7.3-9.8
			c1.1-1.8,2.7-4.6,4.5-8.4c3.1-6.7,4.6-12.1,5.3-14.6c2.3-8,5.5-15.8,8.1-23.7c2.9-8.8,7.2-21.6,13.2-38.4l11-33.3l15.5-45.8
			c6-17.5,10.6-31.1,13-38.5c2.7-8.5,4.1-12.7,4.4-14c0.5-2.4,0.8-4.5,2.2-7.4c1.8-3.7,2.6-3.1,4.6-6.9c1.8-3.5,2.2-5.6,3.6-9.4
			c1.2-3.2,1.9-4.2,5.2-10.8c0,0,0.5-1.1,7.2-14.5c6.3-12.6,6.1-13.9,12.7-27.7c6.5-13.7,6.7-12.5,10-20.4
			c1.7-4.2,3.9-10.9,8.3-24.2c4.3-13.1,6.2-19.7,7.6-26.1c0.6-2.8,0.8-4,1.6-7.4c1.6-6.6,2.6-8.6,2.8-13
			C1383.7,553,1383.3,550.7,1383.2,549.9z M211.6,595.8c-1.9,14.9-19.4,22.6-47.4,17c-30.8-6.1-51.5-30.5-51.1-42.9
			c5.5-15.6,32.1-19.5,58.7-11.7C196.3,565.5,213.4,581.7,211.6,595.8z M464.1,1064.9c4.6,0.4,9.3,1.3,14,2.9
			c14.2,4.8,25,14.1,29.3,24C486.5,1090,469.4,1079.1,464.1,1064.9z"/>
	</defs>
	<clipPath id="SVGID_2_">
		<use xlink:href="#SVGID_1_"  style="overflow:visible;"/>
	</clipPath>
	<g style="&st0;">
		
			<image style="overflow:visible;" width="2048" height="1462" xlink:href="006.avif"  transform="matrix(1 0 0 1 -332.3549 -117.3774)">
		</image>
	</g>
	<g>
		<g style="&st0;">
			<line style="&st1;" x1="284.5" y1="111" x2="290.5" y2="111"/>
			<g>
				<g>
					<line style="&st1;" x1="284.5" y1="111" x2="284.5" y2="110.9"/>
					<line style="&st1;" x1="290.5" y1="111" x2="290.5" y2="110.9"/>
				</g>
				<g>
				</g>
			</g>
		</g>
		<g style="&st0;">
			<g>
				<text transform="matrix(1 0 0 1 283.7559 111.1659)" style="&st2; &st3;">0.0</text>
				<text transform="matrix(1 0 0 1 283.7559 110.6434)" style="&st2; &st3;">0.2</text>
				<text transform="matrix(1 0 0 1 283.7559 110.121)" style="&st2; &st3;">0.4</text>
				<text transform="matrix(1 0 0 1 283.7559 109.5985)" style="&st2; &st3;">0.6</text>
				<text transform="matrix(1 0 0 1 283.7559 109.0751)" style="&st2; &st3;">0.8</text>
				<text transform="matrix(1 0 0 1 283.7559 108.5526)" style="&st2; &st3;">1.0</text>
			</g>
			<line style="&st1;" x1="284.5" y1="111" x2="284.5" y2="108.4"/>
			<g>
				<g>
					<line style="&st1;" x1="284.5" y1="111" x2="284.7" y2="111"/>
					<line style="&st1;" x1="284.5" y1="110.5" x2="284.7" y2="110.5"/>
					<line style="&st1;" x1="284.5" y1="109.9" x2="284.7" y2="109.9"/>
					<line style="&st1;" x1="284.5" y1="109.4" x2="284.7" y2="109.4"/>
					<line style="&st1;" x1="284.5" y1="108.9" x2="284.7" y2="108.9"/>
					<line style="&st1;" x1="284.5" y1="108.4" x2="284.7" y2="108.4"/>
				</g>
				<g>
				</g>
			</g>
		</g>
		<g style="&st0;">
			<g>
				<g>
					<rect x="285.3" y="108.4" style="&st4;" width="4.3" height="2.6"/>
				</g>
			</g>
		</g>
		<g style="&st0;">
			<g>
			</g>
		</g>
	</g>
</g>
</svg>
