<?xml version="1.0" encoding="utf-8"?>
<!-- Generator: Adobe Illustrator 25.1.0, SVG Export Plug-In . SVG Version: 6.00 Build 0)  -->
<svg version="1.1" baseProfile="basic" id="レイヤー_1"
	 xmlns="http://www.w3.org/2000/svg" xmlns:xlink="http://www.w3.org/1999/xlink" x="0px" y="0px" viewBox="0 0 203.2 25.1"
	 xml:space="preserve">
<style type="text/css">
	.st0{fill:#231815;}
	.st1{fill:#D71718;}
</style>
<g>
	<path id="path137" class="st0" d="M22,0c-0.1,0-0.2,0-0.3,0l-5.5,19.3c-0.3,1-1.4,1.9-2.5,1.9h-2.1l3.3-11.6c0-0.2-0.1-0.3-0.3-0.2
		C9.7,13.6,3.7,19.8,0,24.4c-0.1,0.1,0,0.3,0.1,0.3h14.4c6.1,0,9.4-1.9,10.6-6.4c1-3.7-0.9-6.2-4-6.8c-0.1,0-0.1-0.1,0-0.1
		c2.6-0.4,5.2-1.5,6.1-5.3C28.3,2.2,25.4-0.1,22,0L22,0z M124.2,2.8c-5.1,0-7.9,2-8.8,5.8c-0.3,1.1-0.2,2.8,0.5,3.8
		c1.4,2.4,5.1,2.7,7.2,4.1c0.9,0.6,0.9,1.5,0.7,2.4c-0.5,1.8-1.4,2.6-3.1,2.6c-1.7,0-2.8-1-1.8-4.1h-5.5c-2.2,5.2,0.7,7.6,6.5,7.6
		c5.3,0,8.3-1.3,9.5-6.1c0.4-1.7,0.2-3.5-0.9-4.6c-2-2.2-5.8-2.6-7.1-3.8c-0.7-0.6-0.7-1.5-0.5-2.3c0.4-1.4,1.3-2.2,2.8-2.2
		c2.4,0,2.5,1.5,1.9,3.2h5.1C131.8,5.6,130.2,2.8,124.2,2.8L124.2,2.8z M90.2,2.9c-7.5,0-9.6,1.6-12,11C75.9,22.6,76.7,25,84.8,25
		c3.9,0,5.5-0.3,7.8-0.7L95.4,14h-5.8v0l-1.9,7.1c-0.4,0-0.9,0.1-1.7,0.1c-3.8,0-3.4-1.1-1.8-7.3c1.7-6.4,2.6-7.6,5-7.6
		c2.3,0,2.3,1.5,1.7,3.5h5.8C97.6,6.2,97,2.9,90.2,2.9L90.2,2.9z M158.3,2.9c-6.5,0-9.3,1.2-11.9,11c-2.2,8.6-0.4,11,6.2,11
		c6.7,0,9.4-1.4,11.9-11C166.3,7,165.9,2.9,158.3,2.9z M177.7,3.2c-4.5,0-6.5,0.1-7.7,0l-5.4,20.9c-0.1,0.4,0.1,0.6,0.5,0.6h5.2
		l4.7-18.1c0.5,0,1.2,0,1.9,0c2.5,0,2.8,0.9,2.2,3.5l-3.6,14.1c-0.1,0.4,0.1,0.6,0.5,0.6h5.2l3.8-14.7
		C186.1,4.9,183.9,3.2,177.7,3.2z M31.8,3.2l-5.4,20.9c-0.1,0.4,0.1,0.6,0.5,0.6H32l4.7-18.1c0.5,0,1,0,2.2,0c2,0,2.7,1.2,2.3,2.9
		c-0.6,2.2-2.3,3.4-4.3,3.4h-0.8l2.2,10.4c0.3,1,0.8,1.4,1.9,1.4h4.6l-2-8.6c-0.2-0.6-0.4-1.1-0.7-1.5c0,0,0-0.1,0-0.1
		c2.5-0.8,4.1-2.3,4.8-5c0.9-3.5-1.3-6.3-6.9-6.3L31.8,3.2z M61.7,3.2l-5.4,20.9c-0.1,0.4,0.1,0.6,0.5,0.6h6.9
		c8.7,0,10.1-1.7,12.5-10.8c2.1-8,0.8-10.7-6.7-10.7H61.7z M132.9,3.2L132,6.7h5.7c0.1,0,0.1,0.1,0,0.1c-0.9,0.7-1.5,1.7-1.7,2.7
		l-3.8,14.5c-0.1,0.4,0.1,0.6,0.5,0.6h5.6l4.7-18h2.8c1.6,0,2.6-0.7,3.1-2.1l0.5-1.4L132.9,3.2L132.9,3.2z M51.8,3.2l-5.4,20.9
		c-0.1,0.4,0.1,0.6,0.5,0.6h5.5l5.4-20.9c0.1-0.4-0.1-0.6-0.5-0.6H51.8z M105.7,3.2c-3.7,0-4.9,0.7-6.3,6.3l-2.7,10.3
		c-0.8,3.4,0.2,4.9,3,4.9h7.8c1.5,0,2.5-0.8,3-2.1l0.6-1.6h-7.8c-0.8,0-1-0.2-0.9-0.8l1.3-5.1h7.7l0.9-3.4h-7.7l0.9-3.4
		c0.2-0.9,0.9-1.7,2.1-1.7h6.2l0.9-3.4H105.7z M194.2,3.2c-3.7,0-4.9,0.7-6.3,6.3l-2.7,10.3c-0.8,3.4,0.2,4.9,3,4.9h7.8
		c1.5,0,2.5-0.8,3-2.1l0.6-1.6h-7.8c-0.8,0-1-0.2-0.9-0.8l1.3-5.1h7.7l0.9-3.4h-7.7l0.9-3.4c0.2-0.9,0.9-1.7,2.1-1.7h6.2l0.9-3.4
		H194.2z M157.4,6.3c2.5,0,2.8,1.3,1.2,7.5c-1.6,6.1-3.1,7.6-5.1,7.6c-2.5,0-2.8-0.9-1.1-7.6C153.8,8.2,155.2,6.3,157.4,6.3z
		 M68.4,6.6c3.4,0,3.4,1.1,1.7,7.3c-1.6,6.3-2.6,7.2-5.7,7.2h-1.6l3.7-14.4C67.1,6.6,67.3,6.6,68.4,6.6L68.4,6.6z"/>
	<path id="path151" class="st1" d="M3.4,14.2L6.7,2.3C7.1,1.1,8.4,0,9.8,0h10.3c0.2,0,0.2,0.2,0.1,0.3C14.8,4,8.4,9.4,3.7,14.3
		C3.6,14.4,3.3,14.3,3.4,14.2"/>
</g>
</svg>
