<svg xmlns="http://www.w3.org/2000/svg" xml:space="preserve" id="レイヤー_1" x="0" y="0" baseProfile="basic" version="1.1" viewBox="0 0 250.8 38.3"><style>.st0{fill:#00a6b9}.st1{fill:#140b0a}</style><switch><g><g id="logo"><path id="パス_16" d="M250.8 37.3 239.2.8c-.1-.2-.3-.4-.5-.4h-11.4c-.2 0-.4.2-.5.4l-11.5 36.4-6.8-12.6c3.8-1.8 6.4-5.3 6.4-11.1C214.9 4 208 .4 200 .4h-13.8c-.2 0-.4.2-.5.4v36.6c0 .2.2.4.5.4h8.3c.2 0 .4-.2.5-.4V26.6h4.9l6 11c.1.2.3.3.5.3h17.8c.2 0 .5-.2.5-.4l1.6-5.7h13.5l1.6 5.7c.1.2.3.4.5.4h8.4c.3 0 .5-.2.5-.5v-.1M194.9 8.2h4.3c4.4 0 6.2 1.8 6.2 5.2s-1.8 5.2-6.2 5.2h-4.3V8.2zM228.5 24 233 8.2l4.5 15.8h-9z" class="st0"/><path id="パス_17" d="m125 12-7.2 7.2c3.5.9 6.2 2.6 6.2 5.6 0 2.9-2.4 5.5-6.7 5.5-2.8 0-5.3-1.5-6.7-3.9l-6.3 6.3c-.2.2-.2.4 0 .6 2.7 3.3 7.5 5.1 13 5.1 6.6 0 16.1-3.5 16.1-14.3 0-6.8-5.1-10.5-8.4-12.1" class="st0"/><path id="パス_18" d="M131.3 5.1c-2.7-3.3-7.5-5.1-13-5.1-6.6 0-16.1 3.5-16.1 14.3 0 6.8 5 10.4 8.4 12.1l7.2-7.2c-3.5-.9-6.2-2.6-6.2-5.6 0-2.9 2.4-5.5 6.7-5.5 2.8 0 5.3 1.5 6.7 3.9l6.3-6.3c.2-.2.2-.5 0-.6" class="st1"/><path id="パス_19" d="M56 24.6c3.8-1.8 6.4-5.3 6.4-11.1C62.4 4 55.6.4 47.5.4h-14c-.2 0-.4.2-.4.5v36.6c0 .2.2.4.4.4h8.3c.2 0 .4-.2.4-.4V26.6h5.1l6 11c.1.2.3.3.5.3h8.8c.2 0 .4-.2.4-.4v-.2l-7-12.7zM42.3 8.2h4.5c4.4 0 6.2 1.8 6.2 5.2s-1.8 5.2-6.2 5.2h-4.5V8.2z" class="st1"/><path id="パス_20" d="M14.5.4H.5C.2.4 0 .6 0 .8v36.6c0 .2.2.4.4.5h8.3c.2 0 .4-.2.4-.5V27H14c9.2 0 15.2-3.8 15.2-13.3S22.5.4 14.5.4m-.8 18.7H9.2V8.2h4.5c4.4 0 6.2 2 6.2 5.4s-2.2 5.5-6.2 5.5" class="st1"/><path id="パス_21" d="M82.5 0C71.6 0 65.7 7.9 65.7 19.2s5.9 19.2 16.8 19.2 16.8-7.9 16.8-19.2S93.5 0 82.5 0m0 30.3c-4.8 0-7.4-4.2-7.4-11.1s2.7-11.1 7.4-11.1S90 12.2 90 19.2s-2.7 11.1-7.5 11.1" class="st1"/><path id="パス_22" d="M178.9.4h-8.3c-.2 0-.4.2-.4.4v36.6c0 .2.2.4.4.4h8.3c.2 0 .4-.2.4-.4V.8c.1-.2-.1-.4-.4-.4" class="st0"/><path id="パス_23" d="M151.5.4h-13.8c-.2 0-.4.2-.4.4v36.6c0 .2.2.4.4.5h8.3c.2 0 .5-.2.5-.4V27h4.7c9.2 0 15.2-3.8 15.2-13.3S159.6.4 151.5.4m-.7 18.7h-4.3V8.2h4.3c4.4 0 6.2 2 6.2 5.4s-2.3 5.5-6.2 5.5" class="st0"/></g></g></switch></svg>