<svg xmlns="http://www.w3.org/2000/svg" xml:space="preserve" id="圖層_1" x="0" y="0" baseProfile="basic" version="1.1" viewBox="0 0 348.6 100"><style>.st0{fill:#3e3a39}</style><switch><g><path d="M268.7 1.2V20H294V1.2h12.5v47.1H294V27.6h-25.3v20.7h-12.5V1.2zM150.2 1.2v8H131v39.1h-12.5V9.2H99.4v-8zM169 9.2l-8.7 21.5h17.4L169 9.2zm29.7 39.1h-13.9l-4.1-10.1h-23.4l-4.1 10.1h-13.9l22-47.2h15.3l22.1 47.2zM316.4 1.2h12.5v47.2h-12.5zM34.8 1.2V20H60V1.2h12.5v47.1H60V27.6H34.8v20.7H22.3V1.2zM82.5 1.2H95v47.2H82.5zM198.3 35.3c-1.1-3.2-1.7-6.5-1.7-10.1 0-5 .9-9.7 3.2-13.7 2.4-4.1 6.2-7.3 10.7-8.9 4.3-1.6 9-2.5 13.9-2.5 5.6 0 10.9 1.2 15.8 3.3 4.5 1.9 7.9 6 8.9 10.9.2 1 .3 2 .4 3h-13.1c0-1.3-.2-2.5-.7-3.6-1-2.6-3.2-4.6-5.9-5.5-1.7-.5-3.6-.8-5.5-.8-2.2 0-4.3.4-6.2 1.1-3.2 1.1-5.7 3.7-6.8 6.9-1.1 3.1-1.7 6.4-1.7 9.9 0 2.9.5 5.7 1.2 8.3 1 3.4 3.5 6.2 6.8 7.5 2.1.8 4.4 1.2 6.7 1.2 2 0 4-.3 5.8-.9 2.4-.8 4.4-2.6 5.5-4.9.7-1.5 1-3.2 1-5.1h13.2c-.1 1.5-.3 3.1-.6 4.5-1.1 4.7-4.4 8.6-8.7 10.4a41 41 0 0 1-16.1 3.3c-4.4 0-8.7-.7-12.7-2-6.1-2-11.3-6.3-13.4-12.3M11.6 61.5h-.4L0 62.6v1.7h.4c4.5.5 4.5.5 4.5 3.8v23.3h6.7" class="st0"/><path d="M11.6 91.3V61.5" style="fill:none"/><path d="M34.7 70.4c-4.2 0-6.6 2.8-7.8 4.5v-4.6l-9.5 1.5v1.6h.4c2.9.1 3.5.7 3.5 3.4v14.6H27V80.6c0-2.9 2.7-6.6 5.6-6.6 2.7 0 2.8 2.2 2.8 5.9v11.4H41V76.7c0-4.1-2.2-6.3-6.3-6.3M56.8 78.5c-2.2-1.1-4.1-2-4.1-3.6 0-1.7 2.1-1.9 3-1.9 2.3 0 4.4 1.3 5.3 1.8l.9.5v-4.2l-.8-.1c-1-.2-2.9-.6-5.1-.6-5.3 0-8.5 2.3-8.5 6.1 0 3.4 3.3 5 6.2 6.5 2.2 1.1 4.4 2.2 4.4 3.8 0 1.6-1.4 2.4-3.8 2.4-2.6 0-4.9-1.4-6.2-2.2l-.6-.4V91l.4.1c1.1.3 3.3.7 6.2.7 5.7 0 9.1-2.3 9.1-6.2 0-3.9-3.4-5.6-6.4-7.1M79.9 73.5c3.8 0 4.3 4.2 4.3 7.3 0 5.4-1.4 8-4.2 8-3.7 0-4.4-3.4-4.4-6.3v-1.8c-.1-2.2.3-7.2 4.3-7.2m1.6-3.1c-2.1 0-4.1 1-5.9 2.9v-3l-.5.1-9 1.4v1.6h.4c2.8.1 3.4.6 3.4 3.4V100h5.6V89.4c1 1.3 2.7 2.4 5.8 2.4 5.9 0 9-3.8 9-11 0-6.6-3.2-10.4-8.8-10.4M98 76.7v14.6h5.6v-21l-.4.1-8.9 1.4v1.6h.4c2.7 0 3.3.6 3.3 3.3M100.8 67.8c1.9 0 3.5-1.4 3.5-3.1 0-1.7-1.6-3-3.5-3s-3.4 1.4-3.4 3c0 1.7 1.6 3.1 3.4 3.1M127.2 75v-4.4h-.3c-.9-.2-1.8-.2-2.7-.2-3.2 0-4.8 2.3-5.7 4.2v-4.2l-.5.1-9 1.4v1.6h.4c2.9.1 3.4.7 3.4 3.4v14.6h5.6V80.8c0-1.8.6-5.9 5.9-5.9.6 0 1.3.2 1.9.4l.9.3.1-.6zM139.9 72.6c3 0 3.8 2.2 3.9 4.2h-8.1c.2-1.5 1-4.2 4.2-4.2m9.5 6.3c0-5.6-3.1-8.5-9.3-8.5-7 0-10.5 3.4-10.5 10 0 7.2 4.6 11.4 12.2 11.4 3.3 0 5.9-.8 6.9-1.1l.3-.1v-2.7l-.6.2c-.9.3-2.6.7-4.4.7-6 0-8.2-5-8.4-9.5h13.7v-.4h.1zM200.8 70.4c-4.2 0-6.5 2.6-7.7 4.5V60.8l-.5.1-9 1.1v1.6h.4c2.8.1 3.4.7 3.4 3.4v24.3h5.6V80.9c0-3.8 2.9-6.8 5.3-6.8 3.1 0 3.1 2.4 3.1 4.4v12.8h5.6V77.8c.1-2.2.1-7.4-6.2-7.4M222.9 72.6c3 0 3.8 2.2 3.9 4.2h-8.1c.1-1.5 1.1-4.2 4.2-4.2m9.5 6.3c0-5.6-3.1-8.5-9.3-8.5-7 0-10.6 3.4-10.6 10 0 7.2 4.6 11.4 12.3 11.4 3.3 0 5.9-.8 6.9-1.1l.4-.1v-2.7l-.5.2c-.9.3-2.6.7-4.4.7-6 0-8.3-5-8.4-9.5h13.8l-.2-.4zM169.2 64.5v6.4h-3.8v2.5h3.8V86c0 5.4 3.5 5.8 7.8 5.8 1.1 0 2.1-.1 3.3-.3l.3-.1v-2.5l-.5.1c-.5.1-1.1.2-1.7.2-3.4 0-3.6-1-3.6-3.9v-12h6.3v-2.5h-6.3v-6.4l-5.6.1zM280 62h-5.6v22.3c-1.2-1.8-14.7-22.3-14.7-22.3h-13v1.7l1.1.2c3.4.6 3.7.6 3.7 4v23.5h6.1V68c1.2 1.8 15.4 23.3 15.4 23.3h7.4V62h-.4zM296.1 72.6c3 0 3.8 2.2 3.9 4.2h-8.1c.1-1.5 1-4.2 4.2-4.2m9.5 6.3c0-5.6-3.1-8.5-9.3-8.5-7 0-10.6 3.4-10.6 10 0 7.1 4.6 11.4 12.2 11.4 3.3 0 5.9-.8 6.9-1.1l.3-.1v-2.7l-.5.2c-.9.3-2.6.7-4.4.7-6 0-8.3-5-8.4-9.5h13.8v-.4zM336.7 64.5v6.4h-3.8v2.5h3.8V86c0 5.4 3.5 5.8 7.8 5.8 1.1 0 2.1-.1 3.3-.3l.3-.1v-2.5l-.5.1c-.5.1-1.1.2-1.7.2-3.4 0-3.6-1-3.6-3.9v-12h6.4v-2.5h-6.4v-6.4l-5.6.1zM325.3 77.5l5.8-6.7h-5.9l-5.5 6.4-4.8-6.3h-8.6v1.6h.4c2.9.2 3.6.7 5.4 3.1l3.5 4.7-5.8 6.7h6l2.6-3 5.5 7.4h6.7L320 77.6l5.3-.1z" class="st0"/><path d="M336.6 64.5h-6l7.2-8.4h6z" style="fill:#d71629"/></g></switch></svg>