<?xml version="1.0" encoding="utf-8"?>
<!-- Generator: Adobe Illustrator 25.1.0, SVG Export Plug-In . SVG Version: 6.00 Build 0)  -->
<svg version="1.1" baseProfile="basic" id="レイヤー_1"
	 xmlns="http://www.w3.org/2000/svg" xmlns:xlink="http://www.w3.org/1999/xlink" x="0px" y="0px" viewBox="0 0 146.8 48.9"
	 xml:space="preserve">
<style type="text/css">
	.st0{fill:url(#SVGID_1_);}
	.st1{fill:url(#SVGID_2_);}
	.st2{fill:url(#SVGID_3_);}
	.st3{fill:url(#SVGID_4_);}
	.st4{fill:url(#SVGID_5_);}
	.st5{fill:#D72C2B;}
</style>
<g>
	<linearGradient id="SVGID_1_" gradientUnits="userSpaceOnUse" x1="25.4122" y1="11.2086" x2="64.5723" y2="37.6443">
		<stop  offset="0" style="stop-color:#004888"/>
		<stop  offset="1" style="stop-color:#1073B6"/>
	</linearGradient>
	<polygon class="st0" points="68.6,0 57.1,17 42.9,17 54.4,0 33,0 0,48.9 34.5,29.4 48.7,29.4 35.6,48.9 57,48.9 90,0 	"/>
	<linearGradient id="SVGID_2_" gradientUnits="userSpaceOnUse" x1="35.2182" y1="44.6157" x2="139.0514" y2="7.8439">
		<stop  offset="1.064369e-07" style="stop-color:#4F4F4F"/>
		<stop  offset="1.275800e-02" style="stop-color:#585858"/>
		<stop  offset="7.700578e-02" style="stop-color:#7F7F7F"/>
		<stop  offset="0.1479" style="stop-color:#A2A2A2"/>
		<stop  offset="0.2248" style="stop-color:#BFBFBF"/>
		<stop  offset="0.3099" style="stop-color:#D6D6D6"/>
		<stop  offset="0.4064" style="stop-color:#E9E9E9"/>
		<stop  offset="0.5212" style="stop-color:#F5F5F5"/>
		<stop  offset="0.6723" style="stop-color:#FDFDFD"/>
		<stop  offset="1" style="stop-color:#FFFFFF"/>
	</linearGradient>
	<polygon class="st1" points="146.8,4.3 33.6,42 32.2,48.9 	"/>
	<linearGradient id="SVGID_3_" gradientUnits="userSpaceOnUse" x1="123.9549" y1="-24.6709" x2="52.2832" y2="66.7007">
		<stop  offset="0.3179" style="stop-color:#4F4F4F"/>
		<stop  offset="0.4091" style="stop-color:#545454"/>
		<stop  offset="0.5128" style="stop-color:#616161"/>
		<stop  offset="0.6226" style="stop-color:#787878"/>
		<stop  offset="0.7367" style="stop-color:#989898"/>
		<stop  offset="0.8542" style="stop-color:#C1C1C1"/>
		<stop  offset="0.9728" style="stop-color:#F3F3F3"/>
		<stop  offset="1" style="stop-color:#FFFFFF"/>
	</linearGradient>
	<polygon class="st2" points="30.3,36.6 33.6,42 146.8,4.3 	"/>
	<linearGradient id="SVGID_4_" gradientUnits="userSpaceOnUse" x1="14.4587" y1="40.0764" x2="31.7341" y2="49.3471">
		<stop  offset="0" style="stop-color:#4F4F4F"/>
		<stop  offset="0.5969" style="stop-color:#FFFFFF"/>
	</linearGradient>
	<polygon class="st3" points="30.3,36.6 8.4,48.9 33.6,42 	"/>
	<linearGradient id="SVGID_5_" gradientUnits="userSpaceOnUse" x1="13.0493" y1="51.2208" x2="51.4093" y2="38.6965">
		<stop  offset="5.251128e-02" style="stop-color:#4F4F4F"/>
		<stop  offset="0.5969" style="stop-color:#FFFFFF"/>
	</linearGradient>
	<polygon class="st4" points="8.4,48.9 32.2,48.9 33.6,42 	"/>
	<path class="st5" d="M67.8,34.4c-9-0.8-19.4,2-22.1,7.1c-2.3,4.2,2.2,7.5,10,7.4c6.8-0.1,13.8-2.4,17.7-5.9
		C77.9,38.8,75.7,35,67.8,34.4z M64.7,41.2c-1.3,2-4.1,3.5-6.6,3.7c-2.7,0.2-3.5-1-2.2-3c1.3-2,4.2-3.6,6.7-3.8
		C65,38,66,39.2,64.7,41.2z"/>
	<path class="st5" d="M81.3,34.8h10l-1.1,1.5h0.1c2.3-1.1,6.8-1.9,8.9-1.9c3.5,0,9,1.3,6,5.1l-7.1,9.1H87.9l6.1-7.8
		c1.1-1.4,0.8-2.7-1.3-2.7c-2,0-4.9,1.3-6,2.7l-6.1,7.8h-10L81.3,34.8z"/>
	<path class="st5" d="M132.6,42.6c1.5-1.7,2.3-4,0.5-5.7c-1.1-1.1-2.6-1.6-4.1-2c-2.2-0.5-4.5-0.6-6.7-0.5c-2.3,0.1-4.6,0.3-6.9,0.8
		c-3.6,0.8-7.3,2.3-9.7,5.1c-1,1.2-2.1,2.9-1.6,4.5c0.4,1.2,1.4,2,2.5,2.6c2,1,4.3,1,6.4,1.2c2.2,0.1,4.5,0.1,6.7,0
		c3.9-0.3,8.2-1.2,11-4.2h-9.1c-2.2,1-3.4,0.9-5.3,0.9c-1.6,0-3.5-0.8-2.5-2.7H132.6z M122,37.7c2.3,0.1,3.4,0.9,2.4,2.3h-8.7
		C116.8,38.7,119,37.6,122,37.7z"/>
</g>
</svg>
