<svg xmlns="http://www.w3.org/2000/svg" xml:space="preserve" id="layer" x="0" y="0" baseProfile="basic" version="1.1" viewBox="0 0 600 92.8"><style>.st0{fill:#ed1d24}</style><switch><g><path d="M55 2v54.8h-.2L23.9 2H0v89h21.9V35.5h.2L53 91h23.8V2zM146.2 2v32.4h-30.6V2H92.4v89h23.2V54.3h30.6V91h23.2V2zM241.4 2l-33.1 34.1V2h-23.2v89h23.2V63.6l9.5-10L241.7 91h28.8l-37-54 36.7-35zM382 2l-15.3 59.3h-.3L351.1 2h-34.2v89h21.9V23.4h.2L357.7 91h17.7l18.7-67.6h.3V91h21.8V2zM432.3 2v89h72.2V71.1h-49v-17h43.6v-18h-43.6V20.6h47.8V2zM576.8 33.8c-1.2-9-8.2-13.7-18-13.7-15 0-20.7 13.2-20.7 26.4s5.7 26.4 20.7 26.4c10.9 0 17.1-6.2 18-16.5H600c-1.2 22.9-18.1 36.4-40.6 36.4-26.9 0-44.4-20.6-44.4-46.4S532.5 0 559.4 0c19.2 0 40 12.2 40.6 33.7h-23.2v.1z" class="st0"/><path d="M270.5 11.3v69l-27.9-43z" style="fill:#009444"/></g></switch></svg>