<?xml version="1.0" encoding="utf-8"?>
<!-- Generator: Adobe Illustrator 25.1.0, SVG Export Plug-In . SVG Version: 6.00 Build 0)  -->
<svg version="1.1" baseProfile="basic" id="レイヤー_1"
	 xmlns="http://www.w3.org/2000/svg" xmlns:xlink="http://www.w3.org/1999/xlink" x="0px" y="0px" viewBox="0 0 21 21"
	 xml:space="preserve">
<style type="text/css">
	.st0{fill:#F0F0F0;}
	.st1{fill:#0A4FA2;}
	.st2{fill:#CB1428;}
</style>
<g>
	<path class="st0" d="M0.7,6.7h19.6c-0.5-1.2-1.2-2.4-2.1-3.3H2.8C1.9,4.3,1.2,5.4,0.7,6.7z"/>
	<path class="st0" d="M2.8,17.6h15.4c0.9-1,1.6-2.1,2.1-3.3H0.7C1.2,15.6,1.9,16.7,2.8,17.6z"/>
	<path class="st1" d="M0,10.5c0,1.3,0.3,2.6,0.7,3.8h19.6c0.5-1.2,0.7-2.5,0.7-3.8c0-1.3-0.3-2.6-0.7-3.8H0.7C0.3,7.9,0,9.2,0,10.5z
		"/>
	<path class="st2" d="M2.8,3.4h15.4C16.3,1.3,13.5,0,10.5,0S4.7,1.3,2.8,3.4z"/>
	<path class="st2" d="M10.5,21L10.5,21c3,0,5.8-1.3,7.7-3.4H2.8C4.7,19.7,7.5,21,10.5,21z"/>
</g>
</svg>
