<?xml version="1.0" encoding="utf-8"?>
<!-- Generator: Adobe Illustrator 25.1.0, SVG Export Plug-In . SVG Version: 6.00 Build 0)  -->
<svg version="1.1" baseProfile="basic" id="レイヤー_2"
	 xmlns="http://www.w3.org/2000/svg" xmlns:xlink="http://www.w3.org/1999/xlink" x="0px" y="0px" viewBox="0 0 21 21"
	 xml:space="preserve">
<style type="text/css">
	.st0{fill:#EFEFEF;}
	.st1{fill:#CA1428;}
	.st2{fill:#064FA1;}
</style>
<g>
	<g>
		<circle class="st0" cx="10.5" cy="10.5" r="10.5"/>
		<circle class="st0" cx="10.5" cy="10.5" r="10.5"/>
	</g>
	<path class="st1" d="M20.9,11.9C21,11.5,21,11,21,10.5c0-0.5,0-1-0.1-1.4h-9v-9C11.5,0,11,0,10.5,0s-1,0-1.4,0.1v9h-9
		C0,9.5,0,10,0,10.5c0,0.5,0,1,0.1,1.4h9v9C9.5,21,10,21,10.5,21s1,0,1.4-0.1v-9H20.9z"/>
	<path class="st2" d="M20,15c0.3-0.6,0.5-1.2,0.7-1.8h-4L20,15z"/>
	<path class="st2" d="M18.3,17.5l-5.3-3v6.2C15.1,20.2,16.9,19,18.3,17.5z"/>
	<path class="st1" d="M13,13.2l6.1,3.4c0.2-0.3,0.5-0.7,0.7-1l-4.2-2.3H13z"/>
	<path class="st2" d="M0.4,13.2c0.1,0.4,0.3,0.9,0.4,1.3l2.3-1.3H0.4z"/>
	<path class="st2" d="M2.3,17c1.4,1.8,3.4,3.1,5.7,3.7v-6.9L2.3,17z"/>
	<path class="st1" d="M5.5,13.2l-4.2,2.3c0.2,0.4,0.4,0.7,0.7,1L8,13.2H5.5z"/>
	<path class="st2" d="M1,6C0.7,6.6,0.5,7.2,0.4,7.8h4L1,6z"/>
	<path class="st2" d="M8,0.3C5.9,0.8,4,2,2.7,3.5l5.3,3V0.3z"/>
	<path class="st1" d="M8,7.8L1.9,4.5c-0.2,0.3-0.5,0.7-0.7,1l4.2,2.3H8z"/>
	<path class="st2" d="M20.6,7.8c-0.1-0.4-0.3-0.9-0.4-1.3l-2.3,1.3H20.6z"/>
	<path class="st2" d="M18.7,4c-1.4-1.8-3.4-3.1-5.7-3.7v6.9L18.7,4z"/>
	<path class="st1" d="M15.5,7.8l4.2-2.3c-0.2-0.4-0.4-0.7-0.7-1L13,7.8H15.5z"/>
</g>
</svg>
