<?xml version="1.0" encoding="utf-8"?>
<!-- Generator: Adobe Illustrator 25.1.0, SVG Export Plug-In . SVG Version: 6.00 Build 0)  -->
<svg version="1.1" baseProfile="basic" id="レイヤー_1"
	 xmlns="http://www.w3.org/2000/svg" xmlns:xlink="http://www.w3.org/1999/xlink" x="0px" y="0px" viewBox="0 0 80 53.3"
	 xml:space="preserve">
<path fill="#FFFFFF" d="M80,1.1C80,1.1,80,1.1,80,1.1c0-0.2-0.1-0.3-0.2-0.5c0,0,0,0,0,0c0,0,0,0,0,0c-0.1-0.1-0.2-0.2-0.3-0.3
	c0,0-0.1,0-0.1-0.1c-0.1-0.1-0.2-0.1-0.3-0.2c-0.1,0-0.1,0-0.2,0c-0.1,0-0.1,0-0.2,0h0c-0.1,0-0.1,0-0.1,0c0,0,0,0,0,0s0,0,0,0
	c0,0-0.1,0-0.1,0L1.1,16c-0.5,0.1-1,0.6-1,1.1c-0.1,0.6,0.2,1.1,0.7,1.4l22.1,11.7l3.9,21.6c0,0,0,0,0,0c0,0.1,0,0.2,0,0.3
	c0,0.1,0,0.1,0,0.2c0,0.1,0.1,0.2,0.1,0.4c0,0,0,0,0,0.1c0,0,0,0,0,0c0,0,0,0,0.1,0.1c0.1,0.1,0.1,0.1,0.2,0.2c0,0,0,0,0,0
	c0,0,0,0,0.1,0c0.1,0.1,0.2,0.1,0.3,0.1c0,0,0.1,0,0.1,0c0.1,0,0.2,0.1,0.4,0.1c0,0,0,0,0,0l0,0l0,0c0,0,0,0,0,0c0,0,0,0,0.1,0
	c0.4,0,0.7-0.2,0.9-0.4L43.8,43l15.4,10c0.2,0.1,0.5,0.2,0.7,0.2c0.1,0,0.3,0,0.4-0.1c0.4-0.1,0.7-0.4,0.8-0.8L79.8,2
	C79.9,1.8,80,1.6,80,1.3C80,1.3,80,1.2,80,1.1z M64.5,10.1L32.6,33.5c-0.1,0-0.1,0.1-0.1,0.1c0,0,0,0,0,0c0,0-0.1,0.1-0.1,0.1
	c0,0,0,0.1-0.1,0.1c0,0.1-0.1,0.2-0.1,0.3c0,0,0,0,0,0c0,0,0,0,0,0l-3.7,11.9L25.5,30L64.5,10.1z"/>
</svg>
