<svg xmlns="http://www.w3.org/2000/svg" xml:space="preserve" id="レイヤー_1" x="0" y="0" baseProfile="basic" version="1.1" viewBox="0 0 86 46.8"><style>.st0{fill:none;stroke:#1f4f99;stroke-width:.3;stroke-miterlimit:10}</style><path d="m33.3 30.8 8 1.4m-8-1.4-.8.2 8.8 1.5" class="st0"/><path d="M38.7 32h.4v-.1h.1-.1v-.1H38.3v.1h-.1.1v.1H38.6zM34.7 31.3h.5v-.1h-.1l-.1-.1h-.5l-.1.1h-.1v.1H34.6z" class="st0"/><path d="M35 31.3h.1v-.1h-.7v.1h.1" class="st0"/><path d="M34.7 31.2h-.2v.1h.5v-.1h-.1z" class="st0"/><path d="M34.8 31.2h-.2m.4.1-.2-.1v.1M38.9 32h.1l.1-.1h-.2l-.1-.1h-.2l-.1.1h-.2l.1.1h.1" class="st0"/><path d="M38.7 31.9H38.4h.1v.1h.4v-.1h.1-.2z" class="st0"/><path d="m39 31.8 2.3-.7v-2.8m-7.4 2.6v-.3m-1 .3v-.6l7.4-2.3m-1.6 3.9h-.2m.4.1-.1-.1h-.1v.1M39.8 30.4l.1-.1.1-.1V29.9l-.1-.1h-.2v.2l-.1.1v.1l.1.1v.1zM35.5 31.2h-.1" class="st0"/><path d="M39.6 30.3h.2l.1-.1V29.9l-.1-.1-.1.1M33.9 30.6v-.1M41.2 28.2l-.9-.2m-7.4 2.3.9.2M41.3 28.3v-.1h-.1" class="st0"/><path d="M39.6 30.2h.1V29.9M56.7 33.3l.1-.1v-.5" class="st0"/><path d="M56.7 33.2v-.1l.1-.1v-.1l-.1-.1M56.8 33.1v-.2M56.7 15.8l.1-.1v-.4" class="st0"/><path d="m56.7 15.7.1-.1v-.2M47.6 31.8l-1.9-.3M56.8 15.6v-.1M46.3 32.4h-.6M45.7 32.6h.4M46.2 32.5h-.5M46.1 32.5h-.4M45.7 32.6h.1M46 32.5h-.2M46.1 32.5h-.2v.1M49.9 27.6v.1h.8M50.7 27.5h-.1l-.1-.1h-.2l-.1.1H50l.1.1h.6M50 27.5l-.1.1m-.1.4v-.4M47.3 27.2v.1H48.2l.1-.1M47.8 27.2h.1l.1-.1h.2l-.1-.1H47.5l-.1.1h.1l.2.1zM47.4 27.1l-.1.1m.9-.1.1.1m0 .4v-.4m-1 .4v-.4m0 4.5v-.5M52.8 28.2H53.1l.1.1h.2l.2-.1h.2v-.1M53.3 28.1H53.6l.1-.1h-.1l-.2-.1h-.2l-.1.1h-.2l.1.1h.2zM53 28l-.1.1m.8-.1.1.1m0 .5v-.5M52.8 29.4H53.1l.1-.1M52.8 29.3H53.1v-.1H53l-.1-.1h-.1M53.2 30.2v-.9M47.9 30.7h.1l.1.1h.5l.1-.1h.1M48.4 30.7H48.7v-.1h-.1l-.1-.1H48.2l-.1.1H48v.1h.2zM54.3 28.3l.5.1-.8-.2h-.1m-5-.8 1 .2m-1.4-.1.4-.1 1 .1M48.8 31.6v-1m-.9 1v-1M52.8 28h.1" class="st0"/><path d="m49.1 27.4.9.1H49.7l-.7-.1m-.7-.1.3.1m-2.8-.6 1.6.3m.9.3.3-.1m5.2.9.5.1M48.3 27.2l.2.1h.4M47.4 27.1l-.5-.1M46.7 26.9h-.2l.1.1H46.9" class="st0"/><path d="m48.6 27.3.4.1m-1.6-.4h-.1l-1.6-.2m1 .1.7.1h.1M47.4 27v.1M57.6 28.9l.9.1H58.2l-.7-.1m-1.1.1.7-.2-3.3-.6m.2 0h-.2M56.1 28.6H56.4l.2.1h.4l.2.1H57.5M56.1 28.6l-.7-.1" class="st0"/><path d="M55.2 28.4H55h.1l.1.1h.2" class="st0"/><path d="m57.2 28.8.4.1m-2.4-.5.7.1h.2-.2l-1.9-.3M56.4 29v.1M57.6 30.3v-1.4M57.4 30.4v-.1h-.2v.1l-.1.1M58.5 28.9V30M55.9 28.5v.1M56.8 28.7h-.2l-.1-.1h-.2M46.2 32.5l-.1.1M46.1 33.4v-.8M53.5 30.5l1.5.3m-8.8 1.7 2 .3M55.1 30.8H55v-.1M53.5 31.1l.3.1m-.3-.4.8.1m-7.4 1.4 2 .3M54.4 31h-.1M52.8 31.2l.6.1M49.1 32.5l.3.1m-.3-.4.8.1M50 32.4h-.1v-.1M49 32.7h-.1M49 31.8H48.4l-.2.1m0 .6v-.6l-.2-.1h-.4m0 .6v-.7l.1-.1m1.3 1.1.1-.1v-.9.2l-.1.8m-2.1-.4-.7.2m4.5-1.4-1.7.5" class="st0"/><path d="m47.9 31.5-.1.1h-.1v.1h.2l.1.1h.7l.1-.1h.2v-.1h-.1l-.1-.1" class="st0"/><path d="M47.9 31.6v.1H48.8v-.1M53.4 30.4h-.6M53.4 31.3l.1-.1v-.9.2l-.1.8m-4.2 1.2.1.1M48.9 31.6l.1.1M52.8 30.4H53.1l.1-.1h.2v-.1h-.1l-.1-.1" class="st0"/><path d="M52.8 30.3h.4v-.1M49.1 28.8l.4-.1m-3.3-.3-.5.1m0 1.5.1.9m4.8-1.5v-.2l-.6.1v.1l.2 1.8M49 28.4h-.2m-2.1.1h.1m2.6.4h-.1m1.4.4-.1.1m3 1.8.1.1m-.4-1.1.1.1M49.1 28.8H49v.1h.2M47.6 28.6l-1.4-.2m4.4.8-1.4-.2M47.6 28.6l.1.1h.4l.1-.1h.1M49.2 28.4l-.9.2M49.1 28.3h.1v-.1H49M54.5 29.2h-.3m-3.5.2-.3.1m2.8.5.5.1 2.5-.8m-5.8.2.3.1M50.4 29.5v.1m2.8.5.5.1m-3.4-.6.4.1m3 .5v.3m-3.4-.9.2 1.5m3.8-2.1 2 .3h.1l-.2 1.4m-7.4.7.5.1m-3.5-.6 2.1.4m-2.2-2.6 4.2.7m-4.2-.8 4.3.7m-1.3-1.4.8.1m-.8.1.3.1" class="st0"/><path d="M54.6 29.4h.1v-.1h-.2M53.7 29.7l.9-.3M53.2 29.7h.5M46 27.8l-.3-.1m1.2.4-1.2.4m0 2.3h.1m1.1-3.1-1.1-.2m8.5 1.9h.1M46.1 27.9h.1v-.1H46M45.8 28h.2m-.3.1.4-.1M42.6 44.5h.1v-.1l.1-.1v-.1l-.1-.2v-.1h-.1l-.1-.1h-.1l-.1.1-.1.1V44.3l.1.1.1.1.1.1z" class="st0"/><path d="m42.6 44.4.1-.1v-.2l-.1-.1-.1-.1h-.1l-.1.1v.4h.1l.1.1z" class="st0"/><path d="M42.3 44V44.3l.2-.1V44zM42.7 44.1l-.1-.1-.1-.1m0 0-.2.1m.2.5h.1l.1-.1v-.2m-.1.2-.2-.1m-.1 0 .1.1.1.1" class="st0"/><path d="M42.6 43.8H42.3l-.1.1v.5l.1.1.1.1H42.7l.1-.1M42.5 44.1v.2M42.5 44v.1M42.5 44.3l.1.1" class="st0"/><path d="M42.5 44V44.3h.1v.1M42.6 44.6h.1M53.2 29.7h.7M54.2 29.5h.1v-.1h-.1M50.6 29.2h.1M49.5 28.8h-.1v.1l.1.1h.1M50 29.1h.7M49.4 29v-.1M46.9 28.3v.1h-.1l.1.1.1.1M47.5 28.6H48.4M48.7 28.5v-.1M46.8 28.5v-.1M45.7 28h.1v-.1h-.1M18.1 41.5h.2l.1-.2.1-.1v-.1l.1-.2V40.6l-.1-.2v-.2l-.1-.1-.1-.2-.2-.1-.1-.1h-.4" class="st0"/><path d="m17.6 41.5.1.1h.2l.1-.1h.2l.1-.1.1-.2v-.1l.1-.2v-.4l-.1-.2-.1-.1-.1-.2-.1-.1-.1-.1-.2-.1h-.4l-.2.1-.1.2-.1.1M17.6 39.7h-.1m.6 1.8H18M49.7 28.9l.1.1h.9" class="st0"/><path d="m49.4 28.1.2-.1m.2.3-.1-.1-.1-.1h-.2v.6m0 0 .1.1.1.1h.2m.9-.6-.2-.1H49.9v.6m-.1.1.2.1H50.6" class="st0"/><path d="m49.9 27.9-.2.1h-.1v.1h.1l.1.1H50.7" class="st0"/><path d="M49.9 28v.1h.1l.2.1h.2l.2-.1h.1M47.1 28.5h.2l.2.1H48.1l.2-.1h.2M48.2 28.5h.2l.2-.1h.1v-.7H48.4l-.1.1-.1.1z" class="st0"/><path d="m48.5 27.5.1.1.1.1m-1.8 0 .2-.1m.1.3-.1-.1-.1-.1h-.2v.6m.1 0 .1.1.1.1h.2m.9-.6-.2-.1H47.4v.6m-.2.1.2.1H48" class="st0"/><path d="M47.3 27.5h-.2l-.1.1.1.1H47.4l.2.1h.4l.1-.1h.4v-.2h-.2" class="st0"/><path d="M47.3 27.6v.1h.9v-.1h.1M45.7 27.9v-.5M53.2 29.6h.7l.1-.1" class="st0"/><path d="M53.7 29.6h.1l.2-.1h.1l.2-.1v-.6h-.5l-.1.1zM54.1 28.6l.1.1.1.1m-.6.1-.2-.1h-.7m.4.8h.5M52.8 28.8h.9l.2-.1h.2v-.1H54v-.1h-.2" class="st0"/><path d="M52.8 28.7h1v-.1M41.3 27.3l.1.1v.1h.1l.2.1.2.1h.2l.3.1H44.7l.3-.1h.2l.2-.1.2-.1h.1v-.1l.1-.1" class="st0"/><path d="m41.4 27.5.1.1h.1l.1.1h.2l.2.1h.3l.2.1h1.9l.2-.1h.3l.2-.1h.2l.1-.1h.1l.1-.1M41.4 34.4v.1l.1.1h.1l.1.1.2.1h.5l.3.1H44.4l.3-.1h.5l.2-.1.1-.1h.1l.1-.1v-.1" class="st0"/><path d="M41.4 34.5h-.1l.1.1v.1h.1l.2.1.2.1h.2l.3.1H44.7l.3-.1h.2l.2-.1.2-.1h.1v-.1l.1-.1h-.1M41.4 27.4v7m4.3-7v7M41.3 26.4v.9m4.5-.9v.9M24.3 24.4v.1h.1l.1.1.2.1h.2l.2.1h.5l.3.1h1.2l.3-.1h.6l.2-.1h.2l.1-.1.1-.1h.1v-.1" class="st0"/><path d="M24.4 24.5v.1l.2.1h.1l.2.1h.2l.2.1h2.4l.2-.1h.3l.1-.1h.2l.1-.1.1-.1M24.3 31.5l.1.1.2.1.1.1h.2l.2.1h.5l.3.1h1.2l.3-.1h.5l.3-.1h.1l.2-.1.1-.1h.1v-.1" class="st0"/><path d="M24.3 31.5v.2h.1l.1.1.2.1h.2l.2.1h.5l.3.1h1.2l.3-.1h.6l.2-.1h.2l.1-.1.1-.1h.1v-.2M52.8 31.9l3.4-1.1m-7.3 2.3 1.8-.6m-2.6.5-.1.3M24.3 24.5v7m4.4-7v7M24.3 23.4v.9m4.4-.9v.9M55.5 30.6l.7.2M48.2 33h-.1M50.7 32.2l-2.5.8m7.3-2.4-2.7.9m-3.9 1.6-.7-.1M41.9 45.5l1.9.4V43l-1.9-.3z" class="st0"/><path d="m42.3 43.7-.1.1-.1.1v.1l-.1.1.1.1v.2l.1.1.1.1.1.1h.2l.1-.1v-.1l.1-.1V44l-.1-.1-.1-.1h-.1l-.1-.1zM48.9 41.1l-4.3 1.3M44.3 42.4H44.6M67.6 34.6l1.1.2m2.2 2.6-5.7 1.8H65l-.5-.1M44 45.9l5.7-1.8v-2.8L44 43m-.2 2.9h.2V43h-.2m5.9 1.1L44 45.9h-.2l-1.9-.3m0-2.9v2.8m2.4-3-1.1-.2H43l-1.1.4 1.9.3h.2l5.7-1.8-.5-.1H49M70.9 34.5v2.9m-2.1-2.6-4.4 1.4.5.1h.2l5.7-1.8-1.9-.3h-.2l-1.1.4M68.8 34.8h-.1" class="st0"/><path d="m65 36.4-.6-.1v2.8l.5.1m.3-2.8H65v2.8h.2m5.7-4.6-5.7 1.8v2.8l5.7-1.8m-6.5 1.7v-1.4M15.1 41.5l3.9.7v-2.8l-3.9-.7z" class="st0"/><path d="m18.5 41.2.1-.1.1-.1v-.1l.1-.1-.1-.2v-.1l-.1-.1-.1-.1M19.1 39.3l1.2-.3v-.1l-2.3-.4M17.9 38.5h.1" class="st0"/><path d="M20.3 39v2.9m-1.3.3h.2v-2.8H19m1.3 2.5-1.1.3H19l-3.8-.7m-.1-2.8v2.8m6.2-4.8-6.2 1.9 3.8.7h.2m2.2-2.2L18 38.5M18 38.5h-.1M19.2 39.4l1.1-.4m0 2.8-1.1.4m-.1-4.2-1.1.5M17.6 41.4l.2-.1.1-.1v-.1l.1-.2v-.1l-.1-.2v-.2l-.1-.1-.2-.1-.1-.1H17.2l-.1.1-.1.1-.1.1v.2l-.1.1.1.2.1.2.1.1.1.1.1.1h.2zM49.7 12.7v.1m-.7 0 .1.2m-.1.7.1-.1m0 0V13M24 23.4v7.3m11.1-12.6v10.6m1.3-.4v-10m-2.1-.4v11M61.9 8.1l.8.1m-1.3.1.8.1m-1 .7.6.1m-.6 29.7.6.1m.4.5.6-.2.4-.7V8.8l-.4-.5-.6.2-.4.7V39l.4.5-.8-.1m-.2-30.7.2-.3.6-.2m-1 2.4v26.6m.2 1.9.2.2m-9.7-27.9.8.1m-1.4.1.8.1m-1 .6.6.1m-.6 29.7.6.1m.4.5.6-.2.4-.7V12l-.4-.5-.6.2-.4.7v29.8l.4.5-.8-.1m-.2-30.7.2-.3.6-.2m-1 2.4v26.6m.2 2 .2.2m-30.8-2 .1-.2V39.8h-.1m.1.5.2-.1m-2 .7.1-.1M18.3 40.3l-.6-.5m-.2.1.1.1.1.1.2.1.2.1m.2.8v-.8l-.3.1m0 0v.8m-.3.3.6-.3H18m0 0-.2.1-.2.1-.1.1-.1.1m.3-.1-.3.1m.1 0-.2-.1-.1-.1-.2-.2-.1-.2m0 0v-.8m0 0 .1-.1.1-.1.1-.1.2-.1.3-.1M49.3 12.5h-.1M49 13.7h-.1M48.9 13.7l.1.1M50 12.9h-.3m.1.7h-.3m-.3.2H49m.4-1.3h-.2m.2 0 .1.1.1.1m0 .9-.1.1-.1.1h-.2M48.9 13.5v-.3M50.9 13.2v.1l-.1.2v.1l-.1.2v.1l-.1.1-.1.1H50.2l-.1-.1H50l-.1-.1v-.2l-.1-.1V13.3l.1-.1V13l.1-.1v-.1l.1-.1.1-.1h.1l.1-.1.1.1h.2v.1l.1.1v.1l.1.2zM64.4 8v.1m-.7.1.1.2m-.1.7.1-.1m0-.1v-.6M64 7.8h-.1M63.7 9.1l-.1-.1M63.6 9.1h.1v.1M64.7 8.3h-.3m.1.7-.3-.1m-.3.3h-.2m.4-1.3h-.2m.2 0 .1.1h.2m-.1 1-.1.1-.1.1h-.2M63.6 8.9v-.3M65.6 8.6v.1l-.1.2V9l-.1.1v.2l-.1.1h-.1l-.1.1h-.2l-.2-.1v-.1l-.1-.1v-.1l-.1-.1V8.7l.1-.2v-.1l.1-.1v-.1l.1-.1.1-.1.1-.1h.2l.1.1.1.1.1.1v.1l.1.1z" class="st0"/><path d="M52.4 42.1h.1l.1-.1.1-.1v-.1l.1-.1V41.4l-.1-.1v-.1l-.1-.1-.1.1h-.1l-.1.1v.1l-.1.2V41.9l.1.1z" class="st0"/><path d="m51.9 41.9.3.2m.3.1-.1-.1-.2-.1h-.1m-.2-.6v.6l.3.1m-.1-.1v-.4m.1-.6-.3.4.3.1m-.1-.1.1-.1.1-.1.1-.1V41m-.2 0h.3m0 0 .1.1h.2m0 .1v.5m0 .1v.1l-.2.1-.1.1-.1.1h-.3M62.7 38.9l.1-.1h.1l.1-.1v-.1l.1-.2V38.1L63 38l-.1-.1h-.1l-.1.1-.1.1v.1l-.1.1V38.6l.1.1v.1z" class="st0"/><path d="m62.1 38.7.3.2m.3 0-.1-.1h-.1l-.1-.1m-.3-.6v.6h.3m0 .1v-.4m0-.6-.3.4h.3m0 0 .1-.1.1-.1.1-.1v-.1m-.3 0h.3m0 0 .1.1h.1l.1.1m0 0v.4m0 .2v.1l-.1.1-.1.1-.1.1h-.3M62.7 9.9l.1-.1h.1l.1-.1v-.1l.1-.2v-.2l-.1-.1V9l-.1-.1-.1.1h-.1l-.1.1v.1l-.1.2v.2l.1.1v.1z" class="st0"/><path d="m62.1 9.7.3.2m.3 0-.1-.1-.1-.1h-.1m-.3-.6v.6l.3.1m0 0v-.6m0-.4-.3.4.3.1m0-.1.1-.1.1-.1.1-.1v-.1m-.3 0h.3m0 0 .1.1h.1l.1.1m0 0v.4m0 .2-.1.2-.1.1-.1.1h-.3M52.4 13.1h.1l.1-.1.1-.1v-.1l.1-.1V12.4l-.1-.1v-.1H52.4l-.1.1v.1l-.1.2V12.9l.1.1z" class="st0"/><path d="M63.1 33.5h.4l.1.1.1.1.1.1.1.1.1.2M51.9 12.9l.3.2m.3.1-.1-.1-.2-.1h-.1m-.2-.6v.6l.3.1m-.1-.1v-.4m.1-.6-.3.4.3.1m-.1-.1.1-.1.1-.1.1-.1V12m-.2 0 .3.1m0 0h.1l.1.1h.1m0 0v.5m0 .1v.1l-.2.1-.1.1-.1.1-.3-.1M24.9 41.1l.1-.1h.1l.1-.1.1-.2V40.1l-.1-.1-.1-.2-.1-.1-.1-.1H24.6M24 39.9l-.1.1v.1l-.1.1v.2l.1.1v.2l.1.1.1.1M24.7 39.8v-.1" class="st0"/><path d="m24.7 41.1.1-.1.1-.1.1-.1V40.2l-.1-.1-.1-.2-.1-.1M23.4 40.8h.2M23 40.8h.4" class="st0"/><path d="M23 40.8v-.4l.1-.2.1-.2.1-.2.1-.2.1-.1.1-.1.1-.1.2-.1h.4l.1.1.1.1.1.1.1.2m-.5.7V40h-.4l-.1.1-.1.1V40.8m1.1.3-.1.2-.1.2-.1.1-.1.1-.1.1-.2.1h-.4l-.2-.1-.1-.1-.1-.1-.1-.1-.1-.1V40.8m.6 0v.5l.1-.1.1-.1.2-.1.1-.1V40.3m.6.8h.2m-.7-.7.2.1h.4v-.7m-.1.7v.7M38.3 43.4h.2l.1-.1.1-.1v-.1l.1-.2V42.6l-.1-.2-.1-.1v-.1l-.2-.1-.1-.1-.1-.1h-.1M37.5 42.2l-.1.1v.1l-.1.2v.1l.1.2v.1l.1.1.1.2M38.2 42.1" class="st0"/><path d="M38.2 43.4h.1l.1-.1v-.1l.1-.2V42.7l-.1-.2v-.1l-.1-.1-.1-.1M36.9 43.2h.1v-.1M36.5 43.1v.1h.4" class="st0"/><path d="m19.1 38 .1.1v.6m1.1 2.4.3-.1v-.1m-1.5-2.2V38l2.1-.9m15.3 6V42.5l.1-.2.1-.2.1-.2.1-.1.1-.1.1-.1.2-.1h.4l.2.1.1.1.1.1.1.2m-.6.7v-.4h-.1l-.1.1-.1.1-.1.1-.1.2v.4m1.1.2-.1.2-.1.2-.1.1-.1.1-.1.1-.2.1H36.9l-.1-.1-.1-.1-.1-.1-.1-.2V43.1m.5 0v.4l.1.1.1-.1.1-.1.1-.1.1-.1.1-.2v-.4m.6.9h.2m-.8-.8.2.1h.4v-.7m0 .7v.7M63.9 36.4h-.5v.1h-.1M63.9 36.4l4.8-1.6-4.4-.8M63.4 33.9l.1.1H64.3M22.8 38.7l-3.6-.6M23.7 38.8v-.1h-.8M39.9 41.7l.1-.1h-.2l-.1-.1h-.2M39.9 41.7l4.4.7h.3l4.8-1.5M49.8 40.8h-.2l-.1.1h-.1M41.8 44.7l-.4.1-1.6-.3M39.9 44.4H39.1M27.2 42l-.7.2-2.4-.4m12.1 1.8-.7.2-8.3-1.4m9.5 1.6-.5-.1m2.9.5-1.5-.2M23.2 41.6H22.9M52.1 42.9h.3v-.3m-1.5.6 1.2-.3v-.2m-31.8-1.8 1 .2m1.5-2.4v2.9m0 0-1.6-.3V41M61.1 37.4v-.1H61v-.1M63.3 36.5l-.1.1V39.5m-.8.1h.3v-.3m-1.5.7 1.1-.4v-.2m-1.1.7-.1-2.8" class="st0"/><path d="m63.9 39.2-.2.1H63.4l-.1.1h-.1v.1M23.7 38.8V39.1M63.9 36.4v2.9l.5-.2M23.7 39.3v-.2M23.7 41.2v-.9M39.5 41.5h-.1l-.1.1h-.1v.2" class="st0"/><path d="M39.2 41.8v.8l-.1.5v1.3M49.8 40.7H50.1m-.7.2v.2m-7.9 3.7v-.3l.4.1M39.9 41.7v2.9M50.4 43.6h-.6M50.4 43.6l-.1-.8v-.7l-.1-.7-.1-.6M50.8 40.6v-.1h-.1M36.7 41l-.4-.1v.1l-.1 2.9m14.7-.5-.1-2.8M38.1 43.6H38.4l.2-.1.1-.1.1-.1.1-.2v-.7l-.1-.2-.1-.2M37.4 42.2v.1M38.3 42h.4M37.5 40.5H36.8" class="st0"/><path d="M35.6 40.9v-.1l-.6-.1v.2m-7-1.3v-.2l-.6-.1v.1l-.1 2.9m.7-2.7v.2m7 1-.1.2m1.9-.5-1.2.4-.1 2.9M28.5 39h-.1l-.1-.1h-.2l-.1.1h-.1" class="st0"/><path d="M26.6 39.3v-.1l-.4-.1m1.7-.1-1.2.4-.1 2.9M24.6 41.3H24.9l.2-.1.1-.1.1-.1.1-.2v-.2l.1-.2-.1-.2V40l-.1-.1-.1-.2M23.9 39.9v.1M50.4 43.6l.6-.2m1.3-.5 8.9-2.8m1.4-.4.5-.2m-38.2.1.3.1M55.8 40.3h-.1l-.1.1-.1.1v.5l.1.1v.1H55.9v-.1l.1-.1v-.6l-.1-.1zM27.2 38.7l-1.1.4M28.6 38.6H28.9M26.8 38.7h.4M26.9 38.7v-.6l.1-.9.1-1M27.1 36.2h1.1l.3-.1M45.8 26.5v.3M28.9 38.6l-.2-1.2-.2-1.2M52.8 34.7v-.1l.1-.2v-.1l-.1-.1M57 33.5h.1v-.1l.1-.1v-.1l.1-.1v-.2l-.1-.1v-.1l-.1-.1h-.2l-.1.1v.1l-.1.1V33.2l.1.1v.1l.1.1zM38.3 40.2v.1M38.6 38.1l-.1 1-.2 1.1M38.6 38v.2M38.5 40.1l-.1.6m.1-.6.1-.9.1-.9M38.3 40.6h.1v.1M37.1 41l1.1-.4M36.7 41H37l.1-.1M38.2 40.3h.1M38.2 40.3l-.2-.1h-1.6l-.2.1M35.6 40.8l1.2-.4m-.6-.1-1.2.4M37.5 40.5h.1v-.1h-.2l-.1-.1h-.2l-.2.1h-.1M37.5 40.5l-1.2.4M38.2 40.6h.1M38.5 40.2h-.1M37.4 42.2v.1M38.1 43.6H38.4M28 39.4l1.2-.4M28.9 38.6h-.2l-.2-.1H28l-.2.1H27.1l-.2.1M27.3 38.7h-.1M26.1 39.1h.1M26.6 39.2l1.3-.4M28.5 39l.1-.1-.1-.1h-.6M28.5 39l-1.2.3" class="st0"/><path d="m29.2 39.1.1-.1h.1v-.2h-.1l-.1-.1h-.4l-.2-.1M24 39.9v.1M24.7 41.3H25M45.8 26.5v-.1M50.7 32.5l-2.8.9M61 29.3l-8.2 2.6m-11.4-4.2-9.4 3 .1.1.1.1.1.2M24.3 31.5v.2h.1l.1.1.2.1h.2l.2.1h.5l.3.1h1.2l.3-.1h.6l.2-.1h.2l.1-.1.1-.1h.1v-.2M41.4 34.5h-.1l.1.1v.1h.1l.2.1.2.1h.2l.3.1H44.7l.3-.1h.2l.2-.1.2-.1h.1v-.1l.1-.1h-.1M46.5 33.4l.2.1h.7l.2-.1H47.9M41.4 32.6 32.2 31m14.3 2.5-.8-.1" class="st0"/><path d="m32 30.6-.1.1h-.1v.2h.2l.2.1M41.4 30.9h-.1M38.3 16.8l-.1-2.1m1.5 19.4.1-.1M39.7 34.1l-.3.1-.2.1-.1.2-.1.1v.1m-10.3-4.1h.8l.2-.1 11.7-3.7m-17.1 3.9-.5.1-.4.1-.4.1-.3.1-.3.1-.2.1-.2.2v.2m17 3-.4 3.3m-16.7-6.2-.7 5.7M63.4 33.9h-.3m-16.9-2.3 1.1-.4m-1 .4 1-.3m.6.2-.7.2m-1.5-.2.4.1m1.1.1.4.1M38.3 16.2l-.1.1V16.6l.1.1v.1M29.1 13.1l-.1 1.5m9.3 1.6-.1-1.5M26.8 14.7h1.5l.3-.1h.4M37.1 14.6l.2-.1M26.8 14.7l-.1-1.9M36.7 14.6h.4M36.3 14.2l-.7.2-.6-.1m1.3.2.4.1M27.3 12.6l-.7.2-.4-.1m2.1.3-.3.1-.7-.1M26.1 12.7v.1h.1" class="st0"/><path d="M29 14.6H27.2l-.1.1h-.2M31 17.8v-.1h.1m-4.2-3h-.1M52.8 17l.1-.1v-.2l-.1-.1M56.8 16h.2l.1-.1.1-.1v-.1l.1-.2v-.1l-.1-.1v-.1l-.1-.1-.1.1-.1.1-.1.1v.1l-.1.1V15.9l.1.1zM26.6 12.7l-.1-2.9-7.6-1.3m7.7 4.4v-.1l.7-.2m7.7 1.6v-.1l-.1-.1m-6.9-.9V12.8m7.6 1.5-.1-2.9-8.3-1.4.1 2.9v.1m7.7 1.2v.1m.6.1v-.1l.7-.2m7.5-1.2-7.6-1.3.1 2.9v.1M50.7 13.8h.1v-.1M61 10.6l.1-.1v-.1M50.8 13l.1-1.9m-.1 2.6v-.1m.1-2.6-5.8 1.8M49.9 12.9v-.2l-.1-.1-.1-.1v-.1l-.1-.1h-.2l-.1.1-.1.1-.1.1-.1.1-.1.2V13.8l.1.1.1.1H49.4l.1-.1.1-.1.1-.2" class="st0"/><path d="M43.8 12.9H45l.2-.1M52.1 10.5l.2.1 8.9-2.8-.3-.1 1.5-.4h.2l5.8-1.8M68.4 5.5h.1v-.1h.1l-.1-.1h-.1l-.1-.1h-.1M68.2 5.2l-7.6-1.3-1.3.4M58.6 4.2h-.1v.1H59.3M58.6 4.2l1.3-.4-8.3-1.5-1.3.4" class="st0"/><path d="m49.6 2.6-.1.1h.2l.1.1H50.1l.1-.1h.1M49.6 2.6l1.3-.4L43.3.9M41.9.9l-5.7 1.9h.3l-1.5.5-.2-.1L25.9 6l.3.1-1.4.4-.3-.1-5.8 1.9" class="st0"/><path d="M18.7 8.2v.1h-.1l-.1.1h.1v.1h.2l.1.1M27.9 9.5l-1.4.4M28.5 9.6h.1v-.1h-.7M36.8 11l-1.3.4M27.2 10l1.3-.4M37.5 11.1h.1-.1l-.1-.1h-.5l-.1.1M50.9 11h-.3l1.4-.4m-15.8 1 1.3-.4M26.5 8.8H27.7l.3-.1h.3l.3-.1.3-.1h.2l.2-.1.1-.1.1-.1.1-.1-.1-.1-.1-.1-.1-.1-.2-.1h-.2l-.3-.1-.3-.1H28l-.3-.1h-2.3l-.4.1h-.3l-.3.1-.2.1h-.3l-.2.1-.1.1-.1.1v.2l.1.1.1.1.2.1h.3l.2.1.3.1h.3l.4.1h.7zM43.5 6.7H43l-.1.1h-.2v.1l.1.1h.4l.2.1H43.7l.2-.1h.4l.1-.1v-.1h-.2l-.1-.1h-.4zM43.5 11.7H45l.4-.1h.2l.3-.1.2-.1.2-.1h.2v-.1l.1-.1V11l-.1-.1v-.1l-.2-.1h-.2l-.2-.1-.3-.1h-.2l-.4-.1h-.3l-.4-.1h-1.5l-.4.1h-.3l-.4.1h-.2l-.3.1-.2.1h-.2l-.2.1-.1.1V11.2l.1.1h.2l.2.1.2.1.3.1h.2l.4.1h1.1zM62.6 7.3v.9M64.6 8.3v-.2l-.1-.1-.1-.2-.1-.1h-.2l-.1.1h-.1l-.1.2-.1.1-.1.2V9.2l.1.1h.1l.1.1h.1l.1-.1h.1l.1-.2.1-.1M59.9 3.8v.3m-9-1.9v.3m-25 3.6V6m10.3-3.1v-.1m15.9 8.6v-.9m.2.1v.9m8.8-1.1.1-2.6m1.2.4v-.9M49.1 14h.1l.1-.1.1-.1M49.6 12.6v-.1l-.1-.1-.1-.1" class="st0"/><path d="M29.3 8.4v-.2l-.1-.1h-.1l-.2-.1-.2-.1h-.3l-.2-.1h-.3l-.3-.1h-2.1l-.3.1h-.3l-.3.1h-.2l-.2.1-.2.1h-.1l-.1.1-.1.1v.1M44 7.1l-.1-.1h-.7l-.1.1M46.3 11.3v-.1l-.1-.1-.1-.1h-.2l-.2-.1-.2-.1h-.3l-.3-.1H42.2l-.3.1h-.3l-.2.1-.2.1H41l-.1.1-.1.1v.1M63.8 9.3h.2v-.1h.1M64.3 8v-.1l-.1-.1-.1-.1M68.4 8l.1-2.6m-49.4 6h-.2l-.1-.1-.1-.1v-.1m7.4 1.6v-.1m-.1 0-6.9-1.2m-.4-.4-.1-2.7M35 14.1l-6.8-1.2M50.1 14l-1.3.4M61 10.6l-8.2 2.6m11.9-3.8-1.6.5M68.4 8v.2l-.1.1-.1.1-2.8.9m-18.1 5.6-2.3.7m-.1.1H44.1l-6.9-1.2m1.1 4.1-5.3-.9m17.7 1.2-1.7.5m12-3.8-8.2 2.6M33 17.7h-1.8m17.6-3.3-.6.2m-.5.2-.4.1m1.7 4.5h-.2M31.4 22.3l.3-4.7m-10.1 4.7L21 11.7m27.5 13.5.5-10.8M38.6 25.2l-.5-8.8m-6.7 5.9v.2l-.1.2-.1.1-.2.1-.3.1-.3.1-.3.1-.3.1-.3.1-.4.1h-.4l-.4.1H24.8l-.4-.1H24l-.4-.1-.3-.1-.3-.1-.3-.1-.4-.1-.2-.1-.2-.1-.1-.1-.1-.2v-.2m26.8 2.9v.2l-.1.2-.1.1-.3.1-.2.1-.3.1-.3.1-.3.1-.4.1-.4.1-.4.1h-4.2l-.5-.2-.4-.1-.3-.1-.3-.1h-.4l-.2-.1-.2-.1-.2-.1-.2-.1-.1-.2-.1-.2M20.7 40.3v-.1l.1-.1.1-.1v-.4l-.1-.1-.1-.1v-.1h-.4M64.4 36.2v1.4M39.6 30.3h.1v-.1M39.7 29.9" class="st0"/><path d="M0 0h86v46.8H0z" style="fill:none"/></svg>