<svg xmlns="http://www.w3.org/2000/svg" xml:space="preserve" id="レイヤー_1" x="0" y="0" baseProfile="basic" version="1.1" viewBox="0 0 86 46.8"><style>.st0{fill:#1f4f99}</style><path d="M58.8 12.2h-2.1c-.4 0-.7.3-.7.7v8.9c-.7-.2-1.5-.3-2.3-.3-1 0-1.9.1-2.7.4V6.3c0-.4-.3-.7-.7-.7h-5.6V4.3c0-.4-.3-.7-.7-.7-.4 0-.7.3-.7.7v3.9c0 .4.3.7.7.7.4 0 .7-.3.7-.7V7.1h5v15.4c-.8.4-1.9.6-3.1.6-1.2 0-2.4-.2-3.3-.7-1-.6-2.4-.8-3.9-.8-1.1 0-2.1.2-3 .5V7h5v2.6c0 .4.3.7.7.7s.7-.3.7-.7V2.8c0-.4-.3-.7-.7-.7s-.7.3-.7.7v2.8h-5.6c-.5.1-.8.4-.8.7v16.2c-.8.3-1.8.5-2.8.5-.8 0-1.6-.1-2.3-.3v-9.9c0-.4-.3-.7-.7-.7h-2.1c-.4 0-.7.3-.7.7 0 .4.3.7.7.7h1.4v24.1c0 3.9 3.1 7 7 7h14.8c3.9 0 7-3.1 7-7v-24h1.4c.4 0 .7-.3.7-.7.1-.4-.2-.7-.6-.7zm-8.4 31.1H35.6c-3.1 0-5.6-2.5-5.6-5.6V24.2c.7.2 1.5.2 2.3.2 1 0 1.9-.1 2.8-.4v4.1h-1.4v9.5h4.1v-9.4h-1.4v-4.7c.8-.4 1.9-.6 3-.6 1.2 0 2.4.2 3.3.7 1 .6 2.4.8 3.9.8 1.1 0 2.1-.2 3.1-.5v4.2h-1.4v9.5h4.1v-9.5H51v-4.8c.8-.3 1.7-.4 2.7-.4.8 0 1.6.1 2.3.3v14.4c0 3.1-2.5 5.7-5.6 5.7z" class="st0"/><path d="M42.5 39.1c0 .1 0 .2-.1.2-.1.1-.1.1-.2.1h-.9s-.1 0-.1.1v.9c0 .1 0 .2-.1.2-.1.1-.1.1-.2.1h-.1c-.1 0-.2 0-.2-.1-.1-.1-.1-.1-.1-.2v-.9s0-.1-.1-.1h-.9c-.1 0-.2 0-.2-.1-.1-.1-.1-.1-.1-.2V39c0-.1 0-.2.1-.2.1-.1.1-.1.2-.1h.9s.1 0 .1-.1v-.9c0-.1 0-.2.1-.2.1-.1.1-.1.2-.1h.1c.1 0 .2 0 .2.1.1.1.1.1.1.2v.9s0 .1.1.1h.9c.1 0 .2 0 .2.1.1 0 .1.1.1.3zM46.8 35.7c0 .1 0 .2-.1.2 0 .1-.1.1-.2.1h-2.1c-.1 0-.2 0-.2-.1-.1-.1-.1-.1-.1-.2v-.1c0-.1 0-.2.1-.2.1-.1.1-.1.2-.1h2.1c.1 0 .2 0 .2.1.1.1.1.2.1.3zM43.4 29.2c0-.1 0-.2.1-.2.1-.1.1-.1.2-.1h.9s.1 0 .1-.1v-.9c0-.1 0-.2.1-.2.1-.1.1-.1.2-.1h.1c.1 0 .2 0 .2.1.1.1.1.1.1.2v.9s0 .1.1.1h.9c.1 0 .2 0 .2.1.1.1.1.1.1.2v.1c0 .1 0 .2-.1.2-.1.1-.1.1-.2.1h-.9s-.1 0-.1.1v.9c0 .1 0 .2-.1.2-.1.1-.1.1-.2.1H45c-.1 0-.2 0-.2-.1-.1-.1-.1-.1-.1-.2v-.9s0-.1-.1-.1h-.9c-.1 0-.2 0-.2-.1 0 0-.1-.1-.1-.3zM39.1 32.5c0-.1 0-.2.1-.2.1-.1.1-.1.2-.1h2.1c.1 0 .2 0 .2.1.1.1.1.1.1.2v.1c0 .1 0 .2-.1.2-.1.1-.1.1-.2.1h-2.1c-.1 0-.2 0-.2-.1 0 0-.1-.1-.1-.3z" class="st0"/><path d="M0 0h86v46.8H0z" style="fill:none"/></svg>