<svg xmlns="http://www.w3.org/2000/svg" xml:space="preserve" id="レイヤー_1" x="0" y="0" baseProfile="basic" version="1.1" viewBox="0 0 86 46.8"><style>.st1{fill:#1f4f99}</style><path d="M0 0h86v46.8H0z" style="fill:none"/><path d="m23.3 16.6-5.4.8 3 1.2 3.5-1.5 12-3.1-.3-.1-.9-.4z" class="st1"/><path d="M77.6 28.5 20.8 4.4 0 9.7l17.9 7.6 5.4-.8 12-3.1.8.4.4.2-12 3.1-3.5 1.5 3.5 1.5 5.3-.7 12-3.1 1.2.5-12 3.1-3.5 1.5 3.5 1.5 5.3-.7 12-3.1 1.2.5-5.8 1.4-.2.1-.2.1-.2.1-.1.2-3.6 5.5-1.9 4.6 3.5 1.5 3.7-3.8 3.6-5.4.1-.2.2-.1.2-.1.2-.1 5.7-1.5 1.2.5-5.7 1.5-.2-.1-.2.2-.2.1-.1.2-3.6 5.4-1.9 4.7 3.5 1.5 3.7-3.8 3.6-5.5.1-.2.2-.1.2-.1.2-.1 5.7-1.5 1.2.5-5.4 1.3-.2.1-.2.1-.2.1-.1.2-.1.2-.1.2v.4l.6 5.9L58 39l3.5 1.5.4-4.5-.6-5.9v-.4l.1-.2.1-.2.1-.2.2-.1.2-.1.2-.1 5.4-1.4 1.2.5-5.4 1.4-.2.1-.2.1-.2.1-.1.2-.1.2-.1.2v.4l.6 5.9 1.4 5.3 3.5 1.5.4-4.5-.6-5.9v-.4l.1-.2.1-.2.1-.2.2-.1.2-.1.2-.1 5.4-1.4 3.5-1.7zM24.1 7.7l.2-.2.2-.1.2-.1.2-.1H26.3v.2l-.1.1-.1.1-.1.3-.2.1h-1.6l-.1-.3zm-6.4 5.1-.3.1H15.4l-1.2-.5-.1-.1-.1-.1V12l.1-.1.1-.1.1-.1.2-.1.2-.1 7.5-1.9.3-.1.3-.1H24.8l1.2.5.1.1.1.1v.2l-.1.1-.1.2-.1.1-.2.1-.2.1-.2.1-7.3 1.9-.3-.1zm14.9.3-.2.2-.1.1-.2.1-.2.1-.2.1-7.3 1.9-.3.1-.3.1H21.8l-1-.8h-.1l-.1-.1v-.2l.1-.1.1-.1.1-.1.2-.1.2-.1.2-.1 7.3-1.9.3-.1.3-.1H31.4l1.2.5.1.1.1.1-.2.4zm.2-2.7-.2.2-.2.1-.2.1-.2.1H30.6v-.2l.1-.1.1-.1.2-.1.2-.1.2-.1H32.8v.2zm-6.4 8.2-.2.2-.2.1-.2.1h-1.5v-.2l.1-.1.1-.1.2-.1.2-.1.2-.1H26.5l-.1.3zm12.7-2.7-.2.2-.1.1-.2.1-.2.1-.2.1-7.3 1.9-.3.1-.3.1H28.3l-1.2-.5-.1-.1-.1-.1v-.2l.1-.1.1-.1.1-.1.2-.1.2-.1.4-.2 7.3-1.9.3-.1.3-.1H37.9l1.2.5.1.1.1.1-.2.3zm.2-2.8-.2.2H39l-.2.1-.2.1H37.2v-.2l.1-.1.1-.1.2-.1.2-.1.2-.1H39.4l-.1.3zm2.8 1.5-.2.2-.2.1-.2.1H39.8v-.2l.1-.1.1-.1.2-.1.2-.1.2-.1H42l.1.3zm-9.2 6.8-.2.2-.2.1-.2.1-.2.1H30.7v-.2l.1-.1.1-.1.2-.1.2-.1.2-.1H32.9v.2zm12.7-2.7-.2.2-.1.1h-.2l-.2.1-.2.1-7.3 1.8-.3.1-.3.1H35V21l-1.2-.5-.1-.1-.1-.1v-.2l.1-.1.1-.1.1-.1.2-.1.2-.1.2-.1 7.3-1.9.3-.1.3-.1H44.4l1.2.5.1.1.1.1-.2.6zm.2-2.8-.2.1-.2.1-.2.1-.2.1H43.6v-.2l.1-.1.1-.1.2-.1.2-.1.2-.1H45.8v.3zm2.7 1.5-.2.2-.2.1H48l-.2.1H46.4v-.2l.1-.1.1-.1.2-.1.2-.1.2-.1H48.6l-.1.3zm-6.7 12.1-.1.2-.1.2-.1.2-.1.2-.2.2-.2.1-.2.1-.2.1h-.4l-.1-.1-.1-.1v-.4l.1-.2.1-.2.1-.2.1-.2.2-.2.2-.1.2-.1.2-.1h.4l.1.1.1.1v.4zm10.3-8.1-.2.2-.1.1-.2.1-.2.1-.2.1-3.3.9-.2.1h-.3l-.2.1-.1.2-2.1 3.2-.2.2-.2.2-.2.2-.2.1-.2.1-.2.1-.2.1h-.5l-1.1-.4-.1-.1-.1-.1-.1-.1V26.2l.1-.2.1-.2.1-.2.1-.3 2.1-3.2.1-.2.2-.1.2-.1.2-.1 3.3-.9.3-.1.3-.1H50.8l1.2.5.1.1.1.1-.1.2zm.2-2.8-.2.2-.1.1-.2.1h-1.7v-.2l.1-.1.1-.1.2-.1.2-.1.2-.1H52.3v.3zm2.7 1.5-.2.2-.2.1-.2.1-.2.1H52.8v-.2l.1-.1.1-.1V20l.2-.1.2-.1H54.8l.2.3zm-6.7 12.1-.1.2-.1.2-.1.3-.1.2-.2.2-.2.1-.2.1-.2.1h-.4l-.1-.1-.1-.1V33l.1-.2.1-.2.1-.2.1-.2.2-.2.2-.1.2-.1.2-.1h.4l.1.1.1.1V32.2zm10.2-8-.2.2-.1.1-.2.1-.2.1-.2.1-3.3.9-.2.1-.2.1-.2.1h-.1l-2.1 3.2-.2.2-.2.2-.1.3-.3.1-.2.1-.2.1-.2.1h-.5l-1.2-.5-.1-.1-.1-.1-.1-.1V28.9l.1-.2.1-.2.1-.2.1-.3 2.1-3.2.1-.2.2-.1.2-.1.2-.1 3.3-.9.3-.1.3-.1H57.2l1.2.5.1.1.1.1-.1.3zm.3-2.8-.2.2-.2.1-.2.1-.2-.1H56.6v-.2l.1-.1.1-.1.2-.1.2-.1.2-.1H58.8v.4zm2.7 1.5-.2.2-.2.1H61l-.2.1H59.4v-.2l.1-.1.1-.1.2-.1.2-.1.2-.1H61.6l-.1.3zm-1.4 14.7v.2l-.1.1-.2.1h-.2l-.1-.1-.1-.1-.1-.2-.1-.2-.1-.2-.1-.2-.1-.3v-.8l.1-.1.1-.1h.2l.1.1.1.1.1.2.1.2.1.2.1.2.1.3v.4l.1.2zM65 26.9l-.2.2-.1.1-.2.1-.2.1-.2.1-3 .8-.2.1-.2.1-.2.1-.1.2-.1.2-.1.2v.4l.3 3.3V33.8l-.2.2-.1.1-.1.1-.1.1h-.2l-1.2-.5-.1-.1-.1-.1-.1-.2-.1-.2-.2-.2-.1-.2-.1-.3-.1-.3-.1-.3v-.3l-.3-3.4v-.4l.1-.2.1-.2.1-.2.2-.1.2-.1.2-.1 3-.8.3-.1.3-.1H63.8l1.2.5.1.1.1.1-.2.3zm.3-2.8-.2.2-.2.1-.2.1-.2.1H63.1v-.2l.1-.1.1-.1.2-.1.2-.1.2-.1H65.3v.2zm2.7 1.6-.2.2-.2.1h-1.8v-.2l.1-.1.1-.1.2-.1.2-.1.2-.1H68v.4zm-1.5 14.7v.2l-.1.1-.1.1h-.2l-.1-.1-.1-.1-.1-.2-.1-.2-.2-.2-.1-.2-.1-.3v-.8l.1-.1.1-.1h.2l.1.1.1.1.1.2.1.2.1.2.1.2.1.3v.4l.1.2zm5-10.7-.2.2-.1.1H71l-.2.1-.2.1-3 .8h-.2l-.2.1-.2.2-.1.2-.1.2-.1.2v.4l.3 3.3V36.5l-.1.2-.1.1-.2.2H66.3l-1.2-.5-.1-.1-.1-.1-.1-.2-.3-.1-.1-.2-.1-.2-.1-.3V35l-.1-.3v-.3l-.3-3.4v-.4l.1-.2.1-.2.1-.2.2-.1.2-.1.2-.1 3-.8.3-.1.3-.1H70.3l1.2.5.1.1.1.1-.2.3zm.2-2.8-.2.2-.2.1-.2.1h-1.5v-.2l.1-.1.1-.1.2-.1.2-.1.2-.1H71.8l-.1.3zm2.2 1.8-.2.1H72.3v-.2l.1-.1.1-.1.2-.1.2-.1.2-.1H74.5v.2l-.1.1-.1.1-.2.1-.2.1z" class="st1"/><path d="m86 32.1-3.5-1.5-5.3.8-5.4 1.4-.2.1-.2.1-.2.1-.1.2-.1.2-.1.2v.4l.6 5.9 1.4 5.2 3.5 1.5.4-4.5-.6-5.9v-.4l.1-.2.1-.2.1-.2.2-.1.2-.1.2-.1 5.4-1.4 3.5-1.5zM74.9 44v.2l-.1.1-.1.1h-.2l-.1-.1-.1-.1-.2-.2-.1-.2-.1-.2-.1-.2-.1-.3v-.8l.1-.1.2-.2h.2l.1.1.1.1.1.2.1.2.1.2.1.2.1.3v.7zm4.9-10.8-.2.2-.1.1-.2.1-.2.1-.2.1-3 .8-.2.1-.2.1-.2.1-.1.1-.1.2-.1.2v.4l.3 3.3V40l-.1.2-.1.1-.1.2-.1.1h-.2l-1.3-.6h-.1l-.1-.1-.2-.2-.1-.2-.1-.2-.1-.3-.1-.3-.1-.3-.1-.3v-.3l-.3-3.4V34l.1-.2.1-.2.1-.2.2-.1.2-.1.2-.1 3-.8.3-.1.3-.1H78.6l1.2.5.1.1.1.1-.2.4zm2.5-1-.3.1H80.6v-.2l.1-.1.1-.1.2-.1.2-.1.2-.1H82.8v.2l-.1.2-.1.1-.2.1h-.1zM78.3 28.8l-3.5 1.5 1.2.5 5.3-.8-3-1.2zm.5 1.2-.1.1-.2.1-.2.1-.2.1H76.7v-.2l.1-.1.1-.1.2-.1.2-.1.2-.1H78.9v.1l-.1.2zM81.4 4.7l-4-1.7-6 .9-6.1 1.5-.2.1-.2.1-.2.2-.1.2-.1.2-.1.3V7l.7 6.7 1.6 5.9 3.9 1.7.5-5.1-.7-6.7V9l.1-.3.1-.2.1-.2.2-.2.2-.1h.3l6.1-1.6 3.9-1.7zM68.8 18.1l-.1.2-.1.1-.1.1h-.2l-.1-.1-.1-.1-.1-.2-.1-.2-.1-.3-.1-.3-.1-.3v-.7l.1-.2.1-.1.1-.1h.2l.1.1.1.1.1.2.1.2.1.3.1.3.1.3v.7zM74.4 6l-.2.2-.2.1-.2.1-.2.1-.3.1-3.3.8-.2.1-.2.1-.2.2-.2.2-.1.2-.1.3V9l.4 3.7V13.8l-.3.2-.1.1-.1.1-.1.1H68.5l-1.3-.5-.2-.2-.2-.1-.2-.2-.1-.2-.1-.3-.1-.3-.1-.3-.1-.2-.1-.3v-.3l-.4-3.8v-.5l.1-.3.1-.2.2-.2.2-.2.2-.1.3-.1 3.4-.9.3-.1h2.2l.2.1 1.3.5.1.1.1.1.1.2zm2.8-1.1-.3.1h-1.4l-.2-.1-.1-.1-.1-.1v-.2l.1-.1.1-.1.2-.1.2-.1.3.2.3-.1H77.4l.2.1.1.1.1.1v.2l-.1.1-.1.1-.2.1-.2-.1zM70.6 0l-4 1.7 1.4.6 6-.9L70.6 0zm.6 1.4-.1.1-.2.1-.2.1-.3.1-.3.1H69l-.2-.1-.1-.1-.1-.1v-.2l.1-.1.1-.1.2-.1.2-.1h.3l.3-.1H70.9l.1.1.1.1.1.1v.2z" class="st1"/></svg>