<svg xmlns="http://www.w3.org/2000/svg" xml:space="preserve" id="レイヤー_1" x="0" y="0" baseProfile="basic" version="1.1" viewBox="0 0 86 46.8"><style>.st0{fill:#1f4f99}</style><path d="M52 5.8c-6.1 0-12.6 4.5-14.7 10.2l-1.8 4.7-2.3-.9c-.9 3.7-2.7 10.9-3.4 13.6l.8.3 1.8.7c-.3.7-.5 1.4-.8 2-.2.5.1 1.1.6 1.3.1 0 .2.1.3.1.4 0 .8-.2.9-.6.2-.6.5-1.3.8-2l.8.3 1.9.7c1.3-2.6 4.7-9.2 6.5-12.5l-2.3-.9 1.8-4.7c1.3-3.4 5.6-6.4 9.3-6.4h15.4V5.8H52zM18.6 39.3H55V41H18.6zM28.8 35.3c-.2 0-.3-.1-.4-.2l-9.3-15.2c-.1-.2-.1-.5.2-.6.2-.1.5-.1.6.2l9.3 15.2c.1.2.1.5-.2.6h-.2zM37.5 38.1c-.2 0-.4-.2-.4-.4s.1-.5.4-.5L54.9 35c.2 0 .5.1.5.4 0 .2-.1.5-.4.5l-17.5 2.2z" class="st0"/><path d="M37.2 36.8c-.2 0-.3-.1-.4-.3-.1-.2 0-.5.2-.6l16.2-6.7c.2-.1.5 0 .6.2s0 .5-.2.6l-16.2 6.7c-.1.1-.2.1-.2.1zM27.8 36.9c-.1 0-.2 0-.3-.1l-8.3-5.9c-.2-.1-.2-.4-.1-.6.1-.2.4-.2.6-.1l8.3 5.9c.2.1.2.4.1.6 0 .2-.2.2-.3.2zM27.5 38l-8.1-1.2c-.2 0-.4-.3-.4-.5s.3-.4.5-.4l8 1.2c.2 0 .4.3.4.5 0 .3-.2.4-.4.4z" class="st0"/><path d="M0 0h86v46.8H0z" style="fill:none"/></svg>