<?xml version="1.0" encoding="utf-8"?>
<!-- Generator: Adobe Illustrator 25.1.0, SVG Export Plug-In . SVG Version: 6.00 Build 0)  -->
<svg version="1.1" baseProfile="basic" id="レイヤー_1"
	 xmlns="http://www.w3.org/2000/svg" xmlns:xlink="http://www.w3.org/1999/xlink" x="0px" y="0px" viewBox="0 0 81.3 53.4"
	 xml:space="preserve">
<style type="text/css">
	.st0{fill:#F5A527;}
</style>
<g>
	<polygon class="st0" points="33.4,53.1 33.4,32.9 45.9,32.9 45.9,34.9 35.6,34.9 35.6,42 44.4,42 44.4,43.9 35.6,43.9 35.6,51.2 
		45.9,51.2 45.9,53.1 	"/>
	<polygon class="st0" points="50.7,53.1 50.7,32.9 63.2,32.9 63.2,34.9 52.8,34.9 52.8,42 61.7,42 61.7,43.9 52.8,43.9 52.8,51.2 
		63.2,51.2 63.2,53.1 	"/>
	<path class="st0" d="M74.3,53.3c-2,0-3.8-0.7-5.2-2.1c-1.9-1.9-1.9-3.9-1.9-8.2s0-6.3,1.9-8.2c1.4-1.4,3.2-2.1,5.2-2.1
		c3.6,0,6.3,2.2,7,6h-2.2c-0.5-2.5-2.3-4.1-4.8-4.1c-1.3,0-2.6,0.5-3.5,1.4c-1.3,1.3-1.4,2.7-1.4,6.9s0.1,5.6,1.4,6.9
		c0.9,0.9,2.2,1.4,3.5,1.4c2.5,0,4.3-1.6,4.8-4.1h2.2C80.6,51.1,77.9,53.3,74.3,53.3"/>
	<polygon class="st0" points="22.8,42.7 27.9,42.7 27.9,47.7 	"/>
	
		<image style="overflow:visible;" width="29" height="25" xlink:href="../../../../../Graphic design/Element/logo/DF7B2A1D.png"  transform="matrix(0.1821 0 0 0.1821 22.6908 42.8418)">
	</image>
	<polygon class="st0" points="20.9,43.2 20.9,53.4 11.1,53.4 	"/>
	<polygon class="st0" points="25.3,39.1 22.8,41.7 27.9,41.7 	"/>
	<polygon class="st0" points="22.1,43.2 22.1,53.2 27.1,48.2 	"/>
	<polygon class="st0" points="20.4,42.7 10.3,52.7 0.3,42.7 	"/>
	<polygon class="st0" points="0,21.3 0,41.7 20.4,41.7 	"/>
	<g>
		<polygon class="st0" points="21.3,1.2 21.3,0.5 1.2,20.7 1.5,21 		"/>
		<polygon class="st0" points="21.3,3.4 21.3,2.7 2.3,21.8 2.6,22.1 		"/>
		<polygon class="st0" points="21.3,5.6 21.3,4.9 3.4,22.8 3.7,23.2 		"/>
		<polygon class="st0" points="21.3,7.8 21.3,7.1 4.5,23.9 4.8,24.3 		"/>
		<polygon class="st0" points="21.3,10 21.3,9.2 5.5,25 5.9,25.4 		"/>
		<polygon class="st0" points="21.3,12.1 21.3,11.4 6.6,26.1 7,26.5 		"/>
		<polygon class="st0" points="21.3,14.3 21.3,13.6 7.7,27.2 8.1,27.6 		"/>
		<polygon class="st0" points="21.3,16.5 21.3,15.8 8.8,28.3 9.2,28.7 		"/>
		<polygon class="st0" points="21.3,18.7 21.3,18 9.9,29.4 10.2,29.7 		"/>
		<polygon class="st0" points="21.3,20.9 21.3,20.1 11,30.5 11.3,30.8 		"/>
		<polygon class="st0" points="21.3,23 21.3,22.3 12.1,31.6 12.4,31.9 		"/>
		<polygon class="st0" points="21.3,25.2 21.3,24.5 13.2,32.7 13.5,33 		"/>
		<polygon class="st0" points="21.3,27.4 21.3,26.7 14.2,33.8 14.6,34.1 		"/>
		<polygon class="st0" points="21.3,29.6 21.3,28.9 15.3,34.8 15.7,35.2 		"/>
		<polygon class="st0" points="21.3,31.7 21.3,31 16.4,35.9 16.8,36.3 		"/>
		<polygon class="st0" points="21.3,33.9 21.3,33.2 17.5,37 17.9,37.4 		"/>
		<polygon class="st0" points="21.3,36.1 21.3,35.4 18.6,38.1 19,38.5 		"/>
		<polygon class="st0" points="21.3,38.3 21.3,37.6 19.7,39.2 20,39.6 		"/>
		<polygon class="st0" points="21.3,40.5 21.3,39.8 20.8,40.3 21.1,40.7 		"/>
	</g>
</g>
</svg>
